G04*
G04 #@! TF.GenerationSoftware,Altium Limited,Altium Designer,21.0.8 (223)*
G04*
G04 Layer_Physical_Order=2*
G04 Layer_Color=16711680*
%FSLAX25Y25*%
%MOIN*%
G70*
G04*
G04 #@! TF.SameCoordinates,FF83F617-0E9F-4FC0-9F70-085B7F74A640*
G04*
G04*
G04 #@! TF.FilePolarity,Positive*
G04*
G01*
G75*
%ADD10C,0.11811*%
G04:AMPARAMS|DCode=14|XSize=31.5mil|YSize=59.06mil|CornerRadius=15.75mil|HoleSize=0mil|Usage=FLASHONLY|Rotation=270.000|XOffset=0mil|YOffset=0mil|HoleType=Round|Shape=RoundedRectangle|*
%AMROUNDEDRECTD14*
21,1,0.03150,0.02756,0,0,270.0*
21,1,0.00000,0.05906,0,0,270.0*
1,1,0.03150,-0.01378,0.00000*
1,1,0.03150,-0.01378,0.00000*
1,1,0.03150,0.01378,0.00000*
1,1,0.03150,0.01378,0.00000*
%
%ADD14ROUNDEDRECTD14*%
%ADD24C,0.00598*%
%ADD25C,0.02000*%
%ADD27C,0.01968*%
%ADD28C,0.02362*%
%ADD29O,0.05118X0.12598*%
%ADD30R,0.06791X0.06791*%
%ADD31C,0.06791*%
%ADD32C,0.03543*%
G36*
X546378Y286172D02*
X546439Y285864D01*
X546613Y285604D01*
X546874Y285430D01*
X547181Y285369D01*
X553268D01*
X553268Y204297D01*
X548165Y204297D01*
X547858Y204236D01*
X547598Y204062D01*
X547424Y203802D01*
X547363Y203494D01*
Y189715D01*
X547424Y189408D01*
X547598Y189147D01*
X547858Y188973D01*
X548165Y188912D01*
X553268D01*
Y132447D01*
X539307D01*
X539000Y132386D01*
X538739Y132212D01*
X538565Y131951D01*
X538504Y131644D01*
Y125739D01*
X538565Y125431D01*
X538739Y125171D01*
X539000Y124997D01*
X539307Y124936D01*
X553268D01*
Y108825D01*
X546197D01*
X545890Y108764D01*
X545629Y108590D01*
X545455Y108329D01*
X545394Y108022D01*
Y100951D01*
X485976D01*
Y108022D01*
X485915Y108329D01*
X485741Y108590D01*
X485480Y108764D01*
X485173Y108825D01*
X478102D01*
Y124936D01*
X492063D01*
X492370Y124997D01*
X492631Y125171D01*
X492805Y125431D01*
X492866Y125739D01*
Y131644D01*
X492805Y131951D01*
X492631Y132212D01*
X492370Y132386D01*
X492063Y132447D01*
X478102Y132447D01*
X478102Y188912D01*
X483205Y188912D01*
X483512Y188973D01*
X483772Y189147D01*
X483946Y189408D01*
X484007Y189715D01*
X484008Y203494D01*
X483946Y203802D01*
X483772Y204062D01*
X483512Y204236D01*
X483205Y204297D01*
X478102Y204297D01*
X478102Y285369D01*
X484189D01*
X484496Y285430D01*
X484757Y285604D01*
X484931Y285864D01*
X484992Y286172D01*
Y292357D01*
X546378D01*
Y286172D01*
D02*
G37*
G36*
X436142D02*
X436203Y285864D01*
X436377Y285604D01*
X436638Y285430D01*
X436945Y285369D01*
X443032D01*
X443032Y204297D01*
X437929Y204297D01*
X437622Y204236D01*
X437361Y204062D01*
X437187Y203802D01*
X437126Y203494D01*
Y189715D01*
X437187Y189408D01*
X437361Y189147D01*
X437622Y188973D01*
X437929Y188912D01*
X443032D01*
Y132447D01*
X429071D01*
X428764Y132386D01*
X428503Y132212D01*
X428329Y131951D01*
X428268Y131644D01*
Y125739D01*
X428329Y125431D01*
X428503Y125171D01*
X428764Y124997D01*
X429071Y124936D01*
X443032D01*
Y108825D01*
X435961D01*
X435653Y108764D01*
X435393Y108590D01*
X435219Y108329D01*
X435158Y108022D01*
Y100951D01*
X375740D01*
Y108022D01*
X375679Y108329D01*
X375505Y108590D01*
X375244Y108764D01*
X374937Y108825D01*
X367866D01*
Y124936D01*
X381827D01*
X382134Y124997D01*
X382394Y125171D01*
X382568Y125431D01*
X382629Y125739D01*
Y131644D01*
X382568Y131951D01*
X382394Y132212D01*
X382134Y132386D01*
X381827Y132447D01*
X367866Y132447D01*
X367866Y188912D01*
X372968Y188912D01*
X373276Y188973D01*
X373536Y189147D01*
X373710Y189408D01*
X373771Y189715D01*
X373771Y203494D01*
X373710Y203802D01*
X373536Y204062D01*
X373276Y204236D01*
X372968Y204297D01*
X367866Y204297D01*
X367866Y285369D01*
X373953D01*
X374260Y285430D01*
X374520Y285604D01*
X374694Y285864D01*
X374756Y286172D01*
Y292357D01*
X436142D01*
Y286172D01*
D02*
G37*
G36*
X325906D02*
X325967Y285864D01*
X326141Y285604D01*
X326401Y285430D01*
X326709Y285369D01*
X332796D01*
X332796Y204297D01*
X327693Y204297D01*
X327386Y204236D01*
X327125Y204062D01*
X326951Y203802D01*
X326890Y203494D01*
Y189715D01*
X326951Y189408D01*
X327125Y189147D01*
X327386Y188973D01*
X327693Y188912D01*
X332796D01*
Y132447D01*
X318835D01*
X318527Y132386D01*
X318267Y132212D01*
X318093Y131951D01*
X318032Y131644D01*
Y125739D01*
X318093Y125431D01*
X318267Y125171D01*
X318527Y124997D01*
X318835Y124936D01*
X332796D01*
Y108825D01*
X325724D01*
X325417Y108764D01*
X325157Y108590D01*
X324983Y108329D01*
X324922Y108022D01*
Y100951D01*
X265504D01*
Y108022D01*
X265442Y108329D01*
X265268Y108590D01*
X265008Y108764D01*
X264701Y108825D01*
X257629D01*
Y124936D01*
X271590D01*
X271898Y124997D01*
X272158Y125171D01*
X272332Y125431D01*
X272393Y125739D01*
Y131644D01*
X272332Y131951D01*
X272158Y132212D01*
X271898Y132386D01*
X271590Y132447D01*
X257629Y132447D01*
X257629Y188912D01*
X262732Y188912D01*
X263039Y188973D01*
X263300Y189147D01*
X263474Y189408D01*
X263535Y189715D01*
X263535Y203494D01*
X263474Y203802D01*
X263300Y204062D01*
X263039Y204236D01*
X262732Y204297D01*
X257629Y204297D01*
X257629Y285369D01*
X263716D01*
X264024Y285430D01*
X264284Y285604D01*
X264458Y285864D01*
X264519Y286172D01*
Y292357D01*
X325906D01*
Y286172D01*
D02*
G37*
G36*
X215670D02*
X215731Y285864D01*
X215905Y285604D01*
X216165Y285430D01*
X216472Y285369D01*
X222559D01*
X222559Y204297D01*
X217457Y204297D01*
X217149Y204236D01*
X216889Y204062D01*
X216715Y203802D01*
X216654Y203494D01*
Y189715D01*
X216715Y189408D01*
X216889Y189147D01*
X217149Y188973D01*
X217457Y188912D01*
X222559D01*
Y132447D01*
X208598D01*
X208291Y132386D01*
X208031Y132212D01*
X207857Y131951D01*
X207796Y131644D01*
Y125739D01*
X207857Y125431D01*
X208031Y125171D01*
X208291Y124997D01*
X208598Y124936D01*
X222559D01*
Y108825D01*
X215488D01*
X215181Y108764D01*
X214920Y108590D01*
X214746Y108329D01*
X214685Y108022D01*
Y100951D01*
X155267D01*
Y108022D01*
X155206Y108329D01*
X155032Y108590D01*
X154772Y108764D01*
X154464Y108825D01*
X147393D01*
Y124936D01*
X161354D01*
X161662Y124997D01*
X161922Y125171D01*
X162096Y125431D01*
X162157Y125739D01*
Y131644D01*
X162096Y131951D01*
X161922Y132212D01*
X161662Y132386D01*
X161354Y132447D01*
X147393Y132447D01*
X147393Y188912D01*
X152496Y188912D01*
X152803Y188973D01*
X153064Y189147D01*
X153238Y189408D01*
X153299Y189715D01*
X153299Y203494D01*
X153238Y203802D01*
X153064Y204062D01*
X152803Y204236D01*
X152496Y204297D01*
X147393Y204297D01*
X147393Y285369D01*
X153480D01*
X153787Y285430D01*
X154048Y285604D01*
X154222Y285864D01*
X154283Y286172D01*
Y292357D01*
X215670D01*
Y286172D01*
D02*
G37*
G36*
X105433D02*
X105494Y285864D01*
X105668Y285604D01*
X105929Y285430D01*
X106236Y285369D01*
X112323D01*
X112323Y204297D01*
X107220Y204297D01*
X106913Y204236D01*
X106653Y204062D01*
X106479Y203802D01*
X106418Y203494D01*
Y189715D01*
X106479Y189408D01*
X106653Y189147D01*
X106913Y188973D01*
X107220Y188912D01*
X112323D01*
Y132447D01*
X98362D01*
X98055Y132386D01*
X97795Y132212D01*
X97620Y131951D01*
X97559Y131644D01*
Y125739D01*
X97620Y125431D01*
X97795Y125171D01*
X98055Y124997D01*
X98362Y124936D01*
X112323D01*
Y108825D01*
X105252D01*
X104945Y108764D01*
X104684Y108590D01*
X104510Y108329D01*
X104449Y108022D01*
Y100951D01*
X45031D01*
Y108022D01*
X44970Y108329D01*
X44796Y108590D01*
X44535Y108764D01*
X44228Y108825D01*
X37157D01*
Y124936D01*
X51118D01*
X51425Y124997D01*
X51686Y125171D01*
X51860Y125431D01*
X51921Y125739D01*
Y131644D01*
X51860Y131951D01*
X51686Y132212D01*
X51425Y132386D01*
X51118Y132447D01*
X37157Y132447D01*
X37157Y188912D01*
X42260Y188912D01*
X42567Y188973D01*
X42827Y189147D01*
X43001Y189408D01*
X43063Y189715D01*
X43063Y203494D01*
X43001Y203802D01*
X42827Y204062D01*
X42567Y204236D01*
X42260Y204297D01*
X37157Y204297D01*
X37157Y285369D01*
X43244D01*
X43551Y285430D01*
X43812Y285604D01*
X43986Y285864D01*
X44047Y286172D01*
Y292357D01*
X105433D01*
Y286172D01*
D02*
G37*
%LPC*%
G36*
X524543Y286304D02*
X523516Y286169D01*
X522558Y285772D01*
X521735Y285141D01*
X521104Y284318D01*
X520708Y283361D01*
X520572Y282333D01*
X520708Y281305D01*
X521104Y280348D01*
X521735Y279525D01*
X522558Y278894D01*
X523516Y278497D01*
X524543Y278362D01*
X525571Y278497D01*
X526529Y278894D01*
X527351Y279525D01*
X527982Y280348D01*
X528379Y281305D01*
X528514Y282333D01*
X528379Y283361D01*
X527982Y284318D01*
X527351Y285141D01*
X526529Y285772D01*
X525571Y286169D01*
X524543Y286304D01*
D02*
G37*
G36*
X506827D02*
X505799Y286169D01*
X504841Y285772D01*
X504019Y285141D01*
X503388Y284318D01*
X502991Y283361D01*
X502856Y282333D01*
X502991Y281305D01*
X503388Y280348D01*
X504019Y279525D01*
X504841Y278894D01*
X505799Y278497D01*
X506827Y278362D01*
X507855Y278497D01*
X508812Y278894D01*
X509635Y279525D01*
X510266Y280348D01*
X510662Y281305D01*
X510798Y282333D01*
X510662Y283361D01*
X510266Y284318D01*
X509635Y285141D01*
X508812Y285772D01*
X507855Y286169D01*
X506827Y286304D01*
D02*
G37*
G36*
X538520Y289258D02*
X537695Y289149D01*
X536927Y288831D01*
X536268Y288325D01*
X535762Y287666D01*
X535443Y286897D01*
X535335Y286073D01*
Y278593D01*
X535443Y277769D01*
X535762Y277000D01*
X536268Y276341D01*
X536927Y275835D01*
X537695Y275517D01*
X538520Y275408D01*
X539344Y275517D01*
X540112Y275835D01*
X540772Y276341D01*
X541278Y277000D01*
X541596Y277769D01*
X541704Y278593D01*
Y286073D01*
X541596Y286897D01*
X541278Y287666D01*
X540772Y288325D01*
X540112Y288831D01*
X539344Y289149D01*
X538520Y289258D01*
D02*
G37*
G36*
X492850D02*
X492026Y289149D01*
X491258Y288831D01*
X490598Y288325D01*
X490092Y287666D01*
X489774Y286897D01*
X489666Y286073D01*
Y278593D01*
X489774Y277769D01*
X490092Y277000D01*
X490598Y276341D01*
X491258Y275835D01*
X492026Y275517D01*
X492850Y275408D01*
X493675Y275517D01*
X494443Y275835D01*
X495102Y276341D01*
X495608Y277000D01*
X495927Y277769D01*
X496035Y278593D01*
Y286073D01*
X495927Y286897D01*
X495608Y287666D01*
X495102Y288325D01*
X494443Y288831D01*
X493675Y289149D01*
X492850Y289258D01*
D02*
G37*
G36*
X501512Y266639D02*
X500587Y266455D01*
X499803Y265932D01*
X499279Y265148D01*
X499095Y264223D01*
X499279Y263298D01*
X499803Y262514D01*
X500587Y261990D01*
X501512Y261806D01*
X501723Y261848D01*
X503875Y259697D01*
X504371Y259365D01*
X504957Y259249D01*
X505446D01*
X505941Y259150D01*
X540740D01*
X542740Y257151D01*
X542698Y256939D01*
X542882Y256015D01*
X543405Y255231D01*
X544189Y254707D01*
X545114Y254523D01*
X546039Y254707D01*
X546823Y255231D01*
X547347Y256015D01*
X547531Y256939D01*
X547347Y257864D01*
X546823Y258648D01*
X546039Y259172D01*
X545114Y259356D01*
X544903Y259314D01*
X542455Y261761D01*
X541959Y262092D01*
X541374Y262209D01*
X506436D01*
X505941Y262307D01*
X505590D01*
X503886Y264011D01*
X503928Y264223D01*
X503744Y265148D01*
X503221Y265932D01*
X502436Y266455D01*
X501512Y266639D01*
D02*
G37*
G36*
X524346Y244088D02*
X523652Y243950D01*
X523064Y243557D01*
X522670Y242968D01*
X522532Y242274D01*
X522642Y241722D01*
X509006Y228086D01*
X508830Y227822D01*
X508768Y227510D01*
Y204511D01*
X508300Y204198D01*
X507906Y203610D01*
X507768Y202915D01*
X507906Y202221D01*
X508300Y201632D01*
X508888Y201239D01*
X509583Y201101D01*
X510277Y201239D01*
X510866Y201632D01*
X511259Y202221D01*
X511397Y202915D01*
X511259Y203610D01*
X510866Y204198D01*
X510397Y204511D01*
Y227173D01*
X523794Y240569D01*
X524346Y240460D01*
X525041Y240598D01*
X525629Y240991D01*
X526023Y241580D01*
X526161Y242274D01*
X526023Y242968D01*
X525629Y243557D01*
X525041Y243950D01*
X524346Y244088D01*
D02*
G37*
G36*
X525921Y236017D02*
X525227Y235879D01*
X524638Y235486D01*
X524245Y234897D01*
X524107Y234203D01*
X524217Y233651D01*
X513337Y222772D01*
X513161Y222507D01*
X513098Y222195D01*
Y207759D01*
X512630Y207446D01*
X512237Y206858D01*
X512099Y206163D01*
X512237Y205469D01*
X512630Y204880D01*
X513219Y204487D01*
X513913Y204349D01*
X514608Y204487D01*
X515196Y204880D01*
X515590Y205469D01*
X515728Y206163D01*
X515590Y206858D01*
X515196Y207446D01*
X514728Y207759D01*
Y221858D01*
X525369Y232499D01*
X525921Y232389D01*
X526616Y232527D01*
X527204Y232920D01*
X527598Y233509D01*
X527736Y234203D01*
X527598Y234897D01*
X527204Y235486D01*
X526616Y235879D01*
X525921Y236017D01*
D02*
G37*
G36*
X517752Y190781D02*
X517058Y190643D01*
X516469Y190250D01*
X516076Y189661D01*
X515938Y188967D01*
X516076Y188273D01*
X516469Y187684D01*
X516937Y187371D01*
Y181749D01*
X516999Y181438D01*
X517176Y181173D01*
X535936Y162413D01*
X535826Y161861D01*
X535964Y161166D01*
X536358Y160578D01*
X536946Y160184D01*
X537641Y160046D01*
X538335Y160184D01*
X538924Y160578D01*
X539317Y161166D01*
X539455Y161861D01*
X539317Y162555D01*
X538924Y163144D01*
X538335Y163537D01*
X537641Y163675D01*
X537088Y163565D01*
X518567Y182087D01*
Y187371D01*
X519035Y187684D01*
X519428Y188273D01*
X519566Y188967D01*
X519428Y189661D01*
X519035Y190250D01*
X518446Y190643D01*
X517752Y190781D01*
D02*
G37*
G36*
X528677Y204238D02*
X527752Y204054D01*
X526968Y203530D01*
X526445Y202746D01*
X526261Y201821D01*
X526445Y200897D01*
X526968Y200113D01*
X527752Y199589D01*
X528677Y199405D01*
X528889Y199447D01*
X541715Y186621D01*
Y163099D01*
X541535Y162979D01*
X541011Y162195D01*
X540828Y161270D01*
X540870Y161058D01*
X525975Y146164D01*
X525764Y146206D01*
X524839Y146022D01*
X524055Y145499D01*
X523531Y144714D01*
X523347Y143790D01*
X523531Y142865D01*
X524055Y142081D01*
X524839Y141557D01*
X525764Y141373D01*
X526688Y141557D01*
X527472Y142081D01*
X527996Y142865D01*
X528180Y143790D01*
X528138Y144001D01*
X543033Y158896D01*
X543244Y158854D01*
X544169Y159037D01*
X544953Y159561D01*
X545480Y159528D01*
X547915Y157093D01*
Y154943D01*
X547771D01*
X547242Y154838D01*
X546810Y155227D01*
X546642Y156072D01*
X546164Y156788D01*
X545447Y157266D01*
X544602Y157434D01*
X543757Y157266D01*
X543041Y156788D01*
X542563Y156072D01*
X542395Y155227D01*
X542563Y154382D01*
X543041Y153666D01*
X543757Y153187D01*
X544602Y153019D01*
X544686Y153036D01*
X545062Y152727D01*
X544686Y152418D01*
X544602Y152435D01*
X543757Y152267D01*
X543041Y151788D01*
X542563Y151072D01*
X542395Y150227D01*
X542563Y149382D01*
X543041Y148666D01*
X543757Y148187D01*
X544602Y148019D01*
X544686Y148036D01*
X545062Y147727D01*
X544686Y147418D01*
X544602Y147434D01*
X543757Y147266D01*
X543041Y146788D01*
X542563Y146072D01*
X542395Y145227D01*
X542563Y144382D01*
X543041Y143666D01*
X543757Y143187D01*
X544602Y143019D01*
X544686Y143036D01*
X545062Y142727D01*
X544686Y142418D01*
X544602Y142435D01*
X543757Y142266D01*
X543041Y141788D01*
X542563Y141072D01*
X542395Y140227D01*
X542563Y139382D01*
X543041Y138666D01*
X543757Y138187D01*
X544602Y138019D01*
X544686Y138036D01*
X545062Y137727D01*
X544686Y137418D01*
X544602Y137434D01*
X543757Y137267D01*
X543041Y136788D01*
X542563Y136072D01*
X542395Y135227D01*
X542563Y134382D01*
X543041Y133666D01*
X543757Y133187D01*
X544602Y133019D01*
X545447Y133187D01*
X546164Y133666D01*
X546642Y134382D01*
X546810Y135227D01*
X547242Y135616D01*
X547771Y135511D01*
X548850D01*
Y137727D01*
Y139943D01*
X547771D01*
X547556Y139900D01*
X547164Y140227D01*
X547556Y140554D01*
X547771Y140511D01*
X550527D01*
X551375Y140679D01*
X552094Y141160D01*
X552575Y141879D01*
X552743Y142727D01*
X552575Y143575D01*
X552094Y144294D01*
X551375Y144774D01*
X550527Y144943D01*
X547771D01*
X547556Y144900D01*
X547164Y145227D01*
X547556Y145554D01*
X547771Y145511D01*
X550527D01*
X551375Y145679D01*
X552094Y146160D01*
X552575Y146879D01*
X552743Y147727D01*
X552575Y148575D01*
X552094Y149294D01*
X551375Y149774D01*
X550527Y149943D01*
X547771D01*
X547556Y149900D01*
X547164Y150227D01*
X547556Y150554D01*
X547771Y150511D01*
X550527D01*
X551375Y150679D01*
X552094Y151160D01*
X552575Y151879D01*
X552743Y152727D01*
X552575Y153575D01*
X552094Y154294D01*
X551375Y154774D01*
X550974Y154854D01*
Y157727D01*
X550858Y158312D01*
X550526Y158808D01*
X547028Y162306D01*
X546532Y162638D01*
X545947Y162754D01*
X545103D01*
X544953Y162979D01*
X544773Y163099D01*
Y187254D01*
X544657Y187840D01*
X544325Y188336D01*
X531052Y201610D01*
X531094Y201821D01*
X530910Y202746D01*
X530386Y203530D01*
X529602Y204054D01*
X528677Y204238D01*
D02*
G37*
G36*
X487634Y181935D02*
X486709Y181751D01*
X485925Y181227D01*
X485401Y180443D01*
X485217Y179518D01*
X485401Y178593D01*
X485925Y177809D01*
X486104Y177690D01*
Y153761D01*
X486221Y153175D01*
X486552Y152679D01*
X495230Y144001D01*
X495188Y143790D01*
X495372Y142865D01*
X495896Y142081D01*
X496680Y141557D01*
X497605Y141373D01*
X498529Y141557D01*
X499313Y142081D01*
X499837Y142865D01*
X500021Y143790D01*
X499837Y144714D01*
X499313Y145499D01*
X498529Y146022D01*
X497605Y146206D01*
X497393Y146164D01*
X489163Y154394D01*
Y177690D01*
X489343Y177809D01*
X489866Y178593D01*
X490050Y179518D01*
X489866Y180443D01*
X489343Y181227D01*
X488559Y181751D01*
X487634Y181935D01*
D02*
G37*
G36*
X550527Y139943D02*
X549448D01*
Y138026D01*
X552684D01*
X552575Y138575D01*
X552094Y139294D01*
X551375Y139774D01*
X550527Y139943D01*
D02*
G37*
G36*
X552684Y137427D02*
X549448D01*
Y135511D01*
X550527D01*
X551375Y135679D01*
X552094Y136160D01*
X552575Y136879D01*
X552684Y137427D01*
D02*
G37*
G36*
X539758Y112016D02*
X536063D01*
Y108321D01*
X539758D01*
Y112016D01*
D02*
G37*
G36*
X535464D02*
X531770D01*
Y108321D01*
X535464D01*
Y112016D01*
D02*
G37*
G36*
X539758Y107723D02*
X536063D01*
Y104028D01*
X539758D01*
Y107723D01*
D02*
G37*
G36*
X535464D02*
X531770D01*
Y104028D01*
X535464D01*
Y107723D01*
D02*
G37*
G36*
X525764Y112051D02*
X524721Y111913D01*
X523749Y111511D01*
X522915Y110871D01*
X522275Y110036D01*
X521873Y109065D01*
X521735Y108022D01*
X521873Y106979D01*
X522275Y106008D01*
X522915Y105173D01*
X523749Y104533D01*
X524721Y104131D01*
X525764Y103993D01*
X526806Y104131D01*
X527778Y104533D01*
X528612Y105173D01*
X529253Y106008D01*
X529655Y106979D01*
X529792Y108022D01*
X529655Y109065D01*
X529253Y110036D01*
X528612Y110871D01*
X527778Y111511D01*
X526806Y111913D01*
X525764Y112051D01*
D02*
G37*
G36*
X520901Y157277D02*
X520207Y157139D01*
X519619Y156746D01*
X519225Y156157D01*
X519087Y155463D01*
X519225Y154769D01*
X519619Y154180D01*
X520087Y153867D01*
Y146450D01*
X515188Y141551D01*
X515011Y141287D01*
X514949Y140975D01*
Y111943D01*
X514721Y111913D01*
X513750Y111511D01*
X512915Y110871D01*
X512275Y110036D01*
X511872Y109065D01*
X511735Y108022D01*
X511872Y106979D01*
X512275Y106008D01*
X512915Y105173D01*
X513750Y104533D01*
X514721Y104131D01*
X515764Y103993D01*
X516806Y104131D01*
X517778Y104533D01*
X518612Y105173D01*
X519253Y106008D01*
X519655Y106979D01*
X519792Y108022D01*
X519655Y109065D01*
X519253Y110036D01*
X518612Y110871D01*
X517778Y111511D01*
X516806Y111913D01*
X516579Y111943D01*
Y140637D01*
X521478Y145536D01*
X521654Y145801D01*
X521716Y146113D01*
Y153867D01*
X522185Y154180D01*
X522578Y154769D01*
X522716Y155463D01*
X522578Y156157D01*
X522185Y156746D01*
X521596Y157139D01*
X520901Y157277D01*
D02*
G37*
G36*
X516779Y174553D02*
X516085Y174415D01*
X515496Y174021D01*
X515103Y173433D01*
X514965Y172738D01*
X515103Y172044D01*
X515496Y171455D01*
X515964Y171142D01*
Y149867D01*
X505188Y139090D01*
X505011Y138826D01*
X504949Y138514D01*
Y111943D01*
X504721Y111913D01*
X503750Y111511D01*
X502915Y110871D01*
X502275Y110036D01*
X501872Y109065D01*
X501735Y108022D01*
X501872Y106979D01*
X502275Y106008D01*
X502915Y105173D01*
X503750Y104533D01*
X504721Y104131D01*
X505764Y103993D01*
X506806Y104131D01*
X507778Y104533D01*
X508612Y105173D01*
X509253Y106008D01*
X509655Y106979D01*
X509792Y108022D01*
X509655Y109065D01*
X509253Y110036D01*
X508612Y110871D01*
X507778Y111511D01*
X506806Y111913D01*
X506579Y111943D01*
Y138177D01*
X517355Y148953D01*
X517532Y149218D01*
X517594Y149530D01*
Y171142D01*
X518062Y171455D01*
X518455Y172044D01*
X518594Y172738D01*
X518455Y173433D01*
X518062Y174021D01*
X517474Y174415D01*
X516779Y174553D01*
D02*
G37*
G36*
X511472Y176017D02*
X510778Y175879D01*
X510189Y175486D01*
X509796Y174898D01*
X509658Y174203D01*
X509796Y173509D01*
X510189Y172920D01*
X510658Y172607D01*
Y150604D01*
X495188Y135134D01*
X495011Y134869D01*
X494949Y134557D01*
Y111943D01*
X494721Y111913D01*
X493750Y111511D01*
X492915Y110871D01*
X492275Y110036D01*
X491873Y109065D01*
X491735Y108022D01*
X491873Y106979D01*
X492275Y106008D01*
X492915Y105173D01*
X493750Y104533D01*
X494721Y104131D01*
X495764Y103993D01*
X496806Y104131D01*
X497778Y104533D01*
X498612Y105173D01*
X499253Y106008D01*
X499655Y106979D01*
X499792Y108022D01*
X499655Y109065D01*
X499253Y110036D01*
X498612Y110871D01*
X497778Y111511D01*
X496806Y111913D01*
X496579Y111943D01*
Y134220D01*
X512049Y149690D01*
X512225Y149954D01*
X512287Y150266D01*
Y172607D01*
X512755Y172920D01*
X513149Y173509D01*
X513287Y174203D01*
X513149Y174898D01*
X512755Y175486D01*
X512167Y175879D01*
X511472Y176017D01*
D02*
G37*
G36*
X414307Y286304D02*
X413279Y286169D01*
X412322Y285772D01*
X411499Y285141D01*
X410868Y284318D01*
X410471Y283361D01*
X410336Y282333D01*
X410471Y281305D01*
X410868Y280348D01*
X411499Y279525D01*
X412322Y278894D01*
X413279Y278497D01*
X414307Y278362D01*
X415335Y278497D01*
X416293Y278894D01*
X417115Y279525D01*
X417746Y280348D01*
X418143Y281305D01*
X418278Y282333D01*
X418143Y283361D01*
X417746Y284318D01*
X417115Y285141D01*
X416293Y285772D01*
X415335Y286169D01*
X414307Y286304D01*
D02*
G37*
G36*
X396590D02*
X395563Y286169D01*
X394605Y285772D01*
X393783Y285141D01*
X393152Y284318D01*
X392755Y283361D01*
X392619Y282333D01*
X392755Y281305D01*
X393152Y280348D01*
X393783Y279525D01*
X394605Y278894D01*
X395563Y278497D01*
X396590Y278362D01*
X397618Y278497D01*
X398576Y278894D01*
X399398Y279525D01*
X400030Y280348D01*
X400426Y281305D01*
X400562Y282333D01*
X400426Y283361D01*
X400030Y284318D01*
X399398Y285141D01*
X398576Y285772D01*
X397618Y286169D01*
X396590Y286304D01*
D02*
G37*
G36*
X428283Y289258D02*
X427459Y289149D01*
X426691Y288831D01*
X426031Y288325D01*
X425525Y287666D01*
X425207Y286897D01*
X425099Y286073D01*
Y278593D01*
X425207Y277769D01*
X425525Y277000D01*
X426031Y276341D01*
X426691Y275835D01*
X427459Y275517D01*
X428283Y275408D01*
X429108Y275517D01*
X429876Y275835D01*
X430535Y276341D01*
X431041Y277000D01*
X431360Y277769D01*
X431468Y278593D01*
Y286073D01*
X431360Y286897D01*
X431041Y287666D01*
X430535Y288325D01*
X429876Y288831D01*
X429108Y289149D01*
X428283Y289258D01*
D02*
G37*
G36*
X382614D02*
X381790Y289149D01*
X381022Y288831D01*
X380362Y288325D01*
X379856Y287666D01*
X379538Y286897D01*
X379429Y286073D01*
Y278593D01*
X379538Y277769D01*
X379856Y277000D01*
X380362Y276341D01*
X381022Y275835D01*
X381790Y275517D01*
X382614Y275408D01*
X383438Y275517D01*
X384207Y275835D01*
X384866Y276341D01*
X385372Y277000D01*
X385690Y277769D01*
X385799Y278593D01*
Y286073D01*
X385690Y286897D01*
X385372Y287666D01*
X384866Y288325D01*
X384207Y288831D01*
X383438Y289149D01*
X382614Y289258D01*
D02*
G37*
G36*
X391276Y266639D02*
X390351Y266455D01*
X389567Y265932D01*
X389043Y265148D01*
X388859Y264223D01*
X389043Y263298D01*
X389567Y262514D01*
X390351Y261990D01*
X391276Y261806D01*
X391487Y261848D01*
X393639Y259697D01*
X394135Y259365D01*
X394720Y259249D01*
X395210D01*
X395705Y259150D01*
X430504D01*
X432504Y257151D01*
X432461Y256939D01*
X432645Y256015D01*
X433169Y255231D01*
X433953Y254707D01*
X434878Y254523D01*
X435803Y254707D01*
X436587Y255231D01*
X437111Y256015D01*
X437294Y256939D01*
X437111Y257864D01*
X436587Y258648D01*
X435803Y259172D01*
X434878Y259356D01*
X434666Y259314D01*
X432219Y261761D01*
X431723Y262092D01*
X431138Y262209D01*
X396200D01*
X395705Y262307D01*
X395354D01*
X393650Y264011D01*
X393692Y264223D01*
X393508Y265148D01*
X392984Y265932D01*
X392200Y266455D01*
X391276Y266639D01*
D02*
G37*
G36*
X414110Y244088D02*
X413416Y243950D01*
X412827Y243557D01*
X412434Y242968D01*
X412296Y242274D01*
X412406Y241722D01*
X398770Y228086D01*
X398594Y227822D01*
X398532Y227510D01*
Y204511D01*
X398063Y204198D01*
X397670Y203610D01*
X397532Y202915D01*
X397670Y202221D01*
X398063Y201632D01*
X398652Y201239D01*
X399346Y201101D01*
X400041Y201239D01*
X400629Y201632D01*
X401023Y202221D01*
X401161Y202915D01*
X401023Y203610D01*
X400629Y204198D01*
X400161Y204511D01*
Y227173D01*
X413558Y240569D01*
X414110Y240460D01*
X414805Y240598D01*
X415393Y240991D01*
X415787Y241580D01*
X415925Y242274D01*
X415787Y242968D01*
X415393Y243557D01*
X414805Y243950D01*
X414110Y244088D01*
D02*
G37*
G36*
X415685Y236017D02*
X414991Y235879D01*
X414402Y235486D01*
X414009Y234897D01*
X413871Y234203D01*
X413980Y233651D01*
X403101Y222772D01*
X402924Y222507D01*
X402862Y222195D01*
Y207759D01*
X402394Y207446D01*
X402001Y206858D01*
X401863Y206163D01*
X402001Y205469D01*
X402394Y204880D01*
X402983Y204487D01*
X403677Y204349D01*
X404372Y204487D01*
X404960Y204880D01*
X405353Y205469D01*
X405491Y206163D01*
X405353Y206858D01*
X404960Y207446D01*
X404492Y207759D01*
Y221858D01*
X415133Y232499D01*
X415685Y232389D01*
X416379Y232527D01*
X416968Y232920D01*
X417361Y233509D01*
X417499Y234203D01*
X417361Y234897D01*
X416968Y235486D01*
X416379Y235879D01*
X415685Y236017D01*
D02*
G37*
G36*
X407516Y190781D02*
X406821Y190643D01*
X406233Y190250D01*
X405839Y189661D01*
X405701Y188967D01*
X405839Y188273D01*
X406233Y187684D01*
X406701Y187371D01*
Y181749D01*
X406763Y181438D01*
X406940Y181173D01*
X425700Y162413D01*
X425590Y161861D01*
X425728Y161166D01*
X426122Y160578D01*
X426710Y160184D01*
X427404Y160046D01*
X428099Y160184D01*
X428687Y160578D01*
X429081Y161166D01*
X429219Y161861D01*
X429081Y162555D01*
X428687Y163144D01*
X428099Y163537D01*
X427404Y163675D01*
X426852Y163565D01*
X408331Y182087D01*
Y187371D01*
X408799Y187684D01*
X409192Y188273D01*
X409330Y188967D01*
X409192Y189661D01*
X408799Y190250D01*
X408210Y190643D01*
X407516Y190781D01*
D02*
G37*
G36*
X418441Y204238D02*
X417516Y204054D01*
X416732Y203530D01*
X416208Y202746D01*
X416024Y201821D01*
X416208Y200897D01*
X416732Y200113D01*
X417516Y199589D01*
X418441Y199405D01*
X418652Y199447D01*
X431478Y186621D01*
Y163099D01*
X431299Y162979D01*
X430775Y162195D01*
X430591Y161270D01*
X430633Y161058D01*
X415739Y146164D01*
X415527Y146206D01*
X414603Y146022D01*
X413819Y145499D01*
X413295Y144714D01*
X413111Y143790D01*
X413295Y142865D01*
X413819Y142081D01*
X414603Y141557D01*
X415527Y141373D01*
X416452Y141557D01*
X417236Y142081D01*
X417760Y142865D01*
X417944Y143790D01*
X417902Y144001D01*
X432796Y158896D01*
X433008Y158854D01*
X433933Y159037D01*
X434717Y159561D01*
X435244Y159528D01*
X437679Y157093D01*
Y154943D01*
X437535D01*
X437006Y154838D01*
X436574Y155227D01*
X436406Y156072D01*
X435927Y156788D01*
X435211Y157266D01*
X434366Y157434D01*
X433521Y157266D01*
X432805Y156788D01*
X432326Y156072D01*
X432158Y155227D01*
X432326Y154382D01*
X432805Y153666D01*
X433521Y153187D01*
X434366Y153019D01*
X434450Y153036D01*
X434826Y152727D01*
X434450Y152418D01*
X434366Y152435D01*
X433521Y152267D01*
X432805Y151788D01*
X432326Y151072D01*
X432158Y150227D01*
X432326Y149382D01*
X432805Y148666D01*
X433521Y148187D01*
X434366Y148019D01*
X434450Y148036D01*
X434826Y147727D01*
X434450Y147418D01*
X434366Y147434D01*
X433521Y147266D01*
X432805Y146788D01*
X432326Y146072D01*
X432158Y145227D01*
X432326Y144382D01*
X432805Y143666D01*
X433521Y143187D01*
X434366Y143019D01*
X434450Y143036D01*
X434826Y142727D01*
X434450Y142418D01*
X434366Y142435D01*
X433521Y142266D01*
X432805Y141788D01*
X432326Y141072D01*
X432158Y140227D01*
X432326Y139382D01*
X432805Y138666D01*
X433521Y138187D01*
X434366Y138019D01*
X434450Y138036D01*
X434826Y137727D01*
X434450Y137418D01*
X434366Y137434D01*
X433521Y137267D01*
X432805Y136788D01*
X432326Y136072D01*
X432158Y135227D01*
X432326Y134382D01*
X432805Y133666D01*
X433521Y133187D01*
X434366Y133019D01*
X435211Y133187D01*
X435927Y133666D01*
X436406Y134382D01*
X436574Y135227D01*
X437006Y135616D01*
X437535Y135511D01*
X438614D01*
Y137727D01*
Y139943D01*
X437535D01*
X437320Y139900D01*
X436927Y140227D01*
X437320Y140554D01*
X437535Y140511D01*
X440291D01*
X441139Y140679D01*
X441858Y141160D01*
X442339Y141879D01*
X442507Y142727D01*
X442339Y143575D01*
X441858Y144294D01*
X441139Y144774D01*
X440291Y144943D01*
X437535D01*
X437320Y144900D01*
X436927Y145227D01*
X437320Y145554D01*
X437535Y145511D01*
X440291D01*
X441139Y145679D01*
X441858Y146160D01*
X442339Y146879D01*
X442507Y147727D01*
X442339Y148575D01*
X441858Y149294D01*
X441139Y149774D01*
X440291Y149943D01*
X437535D01*
X437320Y149900D01*
X436927Y150227D01*
X437320Y150554D01*
X437535Y150511D01*
X440291D01*
X441139Y150679D01*
X441858Y151160D01*
X442339Y151879D01*
X442507Y152727D01*
X442339Y153575D01*
X441858Y154294D01*
X441139Y154774D01*
X440738Y154854D01*
Y157727D01*
X440621Y158312D01*
X440290Y158808D01*
X436792Y162306D01*
X436296Y162638D01*
X435710Y162754D01*
X434867D01*
X434717Y162979D01*
X434537Y163099D01*
Y187254D01*
X434421Y187840D01*
X434089Y188336D01*
X420815Y201610D01*
X420857Y201821D01*
X420674Y202746D01*
X420150Y203530D01*
X419366Y204054D01*
X418441Y204238D01*
D02*
G37*
G36*
X377398Y181935D02*
X376473Y181751D01*
X375689Y181227D01*
X375165Y180443D01*
X374981Y179518D01*
X375165Y178593D01*
X375689Y177809D01*
X375868Y177690D01*
Y153761D01*
X375985Y153175D01*
X376316Y152679D01*
X384994Y144001D01*
X384952Y143790D01*
X385136Y142865D01*
X385660Y142081D01*
X386444Y141557D01*
X387368Y141373D01*
X388293Y141557D01*
X389077Y142081D01*
X389601Y142865D01*
X389785Y143790D01*
X389601Y144714D01*
X389077Y145499D01*
X388293Y146022D01*
X387368Y146206D01*
X387157Y146164D01*
X378927Y154394D01*
Y177690D01*
X379106Y177809D01*
X379630Y178593D01*
X379814Y179518D01*
X379630Y180443D01*
X379106Y181227D01*
X378322Y181751D01*
X377398Y181935D01*
D02*
G37*
G36*
X440291Y139943D02*
X439212D01*
Y138026D01*
X442448D01*
X442339Y138575D01*
X441858Y139294D01*
X441139Y139774D01*
X440291Y139943D01*
D02*
G37*
G36*
X442448Y137427D02*
X439212D01*
Y135511D01*
X440291D01*
X441139Y135679D01*
X441858Y136160D01*
X442339Y136879D01*
X442448Y137427D01*
D02*
G37*
G36*
X429522Y112016D02*
X425827D01*
Y108321D01*
X429522D01*
Y112016D01*
D02*
G37*
G36*
X425228D02*
X421533D01*
Y108321D01*
X425228D01*
Y112016D01*
D02*
G37*
G36*
X429522Y107723D02*
X425827D01*
Y104028D01*
X429522D01*
Y107723D01*
D02*
G37*
G36*
X425228D02*
X421533D01*
Y104028D01*
X425228D01*
Y107723D01*
D02*
G37*
G36*
X415527Y112051D02*
X414485Y111913D01*
X413513Y111511D01*
X412679Y110871D01*
X412039Y110036D01*
X411636Y109065D01*
X411499Y108022D01*
X411636Y106979D01*
X412039Y106008D01*
X412679Y105173D01*
X413513Y104533D01*
X414485Y104131D01*
X415527Y103993D01*
X416570Y104131D01*
X417542Y104533D01*
X418376Y105173D01*
X419016Y106008D01*
X419419Y106979D01*
X419556Y108022D01*
X419419Y109065D01*
X419016Y110036D01*
X418376Y110871D01*
X417542Y111511D01*
X416570Y111913D01*
X415527Y112051D01*
D02*
G37*
G36*
X410665Y157277D02*
X409971Y157139D01*
X409382Y156746D01*
X408989Y156157D01*
X408851Y155463D01*
X408989Y154769D01*
X409382Y154180D01*
X409851Y153867D01*
Y146450D01*
X404951Y141551D01*
X404775Y141287D01*
X404713Y140975D01*
Y111943D01*
X404485Y111913D01*
X403513Y111511D01*
X402679Y110871D01*
X402039Y110036D01*
X401636Y109065D01*
X401499Y108022D01*
X401636Y106979D01*
X402039Y106008D01*
X402679Y105173D01*
X403513Y104533D01*
X404485Y104131D01*
X405527Y103993D01*
X406570Y104131D01*
X407542Y104533D01*
X408376Y105173D01*
X409016Y106008D01*
X409419Y106979D01*
X409556Y108022D01*
X409419Y109065D01*
X409016Y110036D01*
X408376Y110871D01*
X407542Y111511D01*
X406570Y111913D01*
X406342Y111943D01*
Y140637D01*
X411241Y145536D01*
X411418Y145801D01*
X411480Y146113D01*
Y153867D01*
X411948Y154180D01*
X412342Y154769D01*
X412480Y155463D01*
X412342Y156157D01*
X411948Y156746D01*
X411360Y157139D01*
X410665Y157277D01*
D02*
G37*
G36*
X406543Y174553D02*
X405849Y174415D01*
X405260Y174021D01*
X404867Y173433D01*
X404729Y172738D01*
X404867Y172044D01*
X405260Y171455D01*
X405728Y171142D01*
Y149867D01*
X394951Y139090D01*
X394775Y138826D01*
X394713Y138514D01*
Y111943D01*
X394485Y111913D01*
X393513Y111511D01*
X392679Y110871D01*
X392039Y110036D01*
X391636Y109065D01*
X391499Y108022D01*
X391636Y106979D01*
X392039Y106008D01*
X392679Y105173D01*
X393513Y104533D01*
X394485Y104131D01*
X395528Y103993D01*
X396570Y104131D01*
X397542Y104533D01*
X398376Y105173D01*
X399016Y106008D01*
X399419Y106979D01*
X399556Y108022D01*
X399419Y109065D01*
X399016Y110036D01*
X398376Y110871D01*
X397542Y111511D01*
X396570Y111913D01*
X396342Y111943D01*
Y138177D01*
X407119Y148953D01*
X407296Y149218D01*
X407358Y149530D01*
Y171142D01*
X407826Y171455D01*
X408219Y172044D01*
X408357Y172738D01*
X408219Y173433D01*
X407826Y174021D01*
X407237Y174415D01*
X406543Y174553D01*
D02*
G37*
G36*
X401236Y176017D02*
X400542Y175879D01*
X399953Y175486D01*
X399560Y174898D01*
X399422Y174203D01*
X399560Y173509D01*
X399953Y172920D01*
X400421Y172607D01*
Y150604D01*
X384951Y135134D01*
X384775Y134869D01*
X384713Y134557D01*
Y111943D01*
X384485Y111913D01*
X383513Y111511D01*
X382679Y110871D01*
X382039Y110036D01*
X381636Y109065D01*
X381499Y108022D01*
X381636Y106979D01*
X382039Y106008D01*
X382679Y105173D01*
X383513Y104533D01*
X384485Y104131D01*
X385527Y103993D01*
X386570Y104131D01*
X387542Y104533D01*
X388376Y105173D01*
X389016Y106008D01*
X389419Y106979D01*
X389556Y108022D01*
X389419Y109065D01*
X389016Y110036D01*
X388376Y110871D01*
X387542Y111511D01*
X386570Y111913D01*
X386342Y111943D01*
Y134220D01*
X401812Y149690D01*
X401989Y149954D01*
X402051Y150266D01*
Y172607D01*
X402519Y172920D01*
X402913Y173509D01*
X403051Y174203D01*
X402913Y174898D01*
X402519Y175486D01*
X401931Y175879D01*
X401236Y176017D01*
D02*
G37*
G36*
X304071Y286304D02*
X303043Y286169D01*
X302085Y285772D01*
X301263Y285141D01*
X300632Y284318D01*
X300235Y283361D01*
X300100Y282333D01*
X300235Y281305D01*
X300632Y280348D01*
X301263Y279525D01*
X302085Y278894D01*
X303043Y278497D01*
X304071Y278362D01*
X305099Y278497D01*
X306056Y278894D01*
X306879Y279525D01*
X307510Y280348D01*
X307907Y281305D01*
X308042Y282333D01*
X307907Y283361D01*
X307510Y284318D01*
X306879Y285141D01*
X306056Y285772D01*
X305099Y286169D01*
X304071Y286304D01*
D02*
G37*
G36*
X286354D02*
X285327Y286169D01*
X284369Y285772D01*
X283546Y285141D01*
X282915Y284318D01*
X282519Y283361D01*
X282383Y282333D01*
X282519Y281305D01*
X282915Y280348D01*
X283546Y279525D01*
X284369Y278894D01*
X285327Y278497D01*
X286354Y278362D01*
X287382Y278497D01*
X288340Y278894D01*
X289162Y279525D01*
X289793Y280348D01*
X290190Y281305D01*
X290325Y282333D01*
X290190Y283361D01*
X289793Y284318D01*
X289162Y285141D01*
X288340Y285772D01*
X287382Y286169D01*
X286354Y286304D01*
D02*
G37*
G36*
X318047Y289258D02*
X317223Y289149D01*
X316455Y288831D01*
X315795Y288325D01*
X315289Y287666D01*
X314971Y286897D01*
X314862Y286073D01*
Y278593D01*
X314971Y277769D01*
X315289Y277000D01*
X315795Y276341D01*
X316455Y275835D01*
X317223Y275517D01*
X318047Y275408D01*
X318871Y275517D01*
X319640Y275835D01*
X320299Y276341D01*
X320805Y277000D01*
X321123Y277769D01*
X321232Y278593D01*
Y286073D01*
X321123Y286897D01*
X320805Y287666D01*
X320299Y288325D01*
X319640Y288831D01*
X318871Y289149D01*
X318047Y289258D01*
D02*
G37*
G36*
X272378D02*
X271554Y289149D01*
X270786Y288831D01*
X270126Y288325D01*
X269620Y287666D01*
X269302Y286897D01*
X269193Y286073D01*
Y278593D01*
X269302Y277769D01*
X269620Y277000D01*
X270126Y276341D01*
X270786Y275835D01*
X271554Y275517D01*
X272378Y275408D01*
X273202Y275517D01*
X273970Y275835D01*
X274630Y276341D01*
X275136Y277000D01*
X275454Y277769D01*
X275563Y278593D01*
Y286073D01*
X275454Y286897D01*
X275136Y287666D01*
X274630Y288325D01*
X273970Y288831D01*
X273202Y289149D01*
X272378Y289258D01*
D02*
G37*
G36*
X281039Y266639D02*
X280115Y266455D01*
X279331Y265932D01*
X278807Y265148D01*
X278623Y264223D01*
X278807Y263298D01*
X279331Y262514D01*
X280115Y261990D01*
X281039Y261806D01*
X281251Y261848D01*
X283403Y259697D01*
X283899Y259365D01*
X284484Y259249D01*
X284974D01*
X285469Y259150D01*
X320268D01*
X322267Y257151D01*
X322225Y256939D01*
X322409Y256015D01*
X322933Y255231D01*
X323717Y254707D01*
X324642Y254523D01*
X325566Y254707D01*
X326350Y255231D01*
X326874Y256015D01*
X327058Y256939D01*
X326874Y257864D01*
X326350Y258648D01*
X325566Y259172D01*
X324642Y259356D01*
X324430Y259314D01*
X321983Y261761D01*
X321487Y262092D01*
X320901Y262209D01*
X285963D01*
X285469Y262307D01*
X285118D01*
X283414Y264011D01*
X283456Y264223D01*
X283272Y265148D01*
X282748Y265932D01*
X281964Y266455D01*
X281039Y266639D01*
D02*
G37*
G36*
X303874Y244088D02*
X303180Y243950D01*
X302591Y243557D01*
X302198Y242968D01*
X302060Y242274D01*
X302169Y241722D01*
X288534Y228086D01*
X288357Y227822D01*
X288295Y227510D01*
Y204511D01*
X287827Y204198D01*
X287434Y203610D01*
X287296Y202915D01*
X287434Y202221D01*
X287827Y201632D01*
X288416Y201239D01*
X289110Y201101D01*
X289805Y201239D01*
X290393Y201632D01*
X290787Y202221D01*
X290925Y202915D01*
X290787Y203610D01*
X290393Y204198D01*
X289925Y204511D01*
Y227173D01*
X303322Y240569D01*
X303874Y240460D01*
X304568Y240598D01*
X305157Y240991D01*
X305550Y241580D01*
X305688Y242274D01*
X305550Y242968D01*
X305157Y243557D01*
X304568Y243950D01*
X303874Y244088D01*
D02*
G37*
G36*
X305449Y236017D02*
X304754Y235879D01*
X304166Y235486D01*
X303772Y234897D01*
X303634Y234203D01*
X303744Y233651D01*
X292865Y222772D01*
X292688Y222507D01*
X292626Y222195D01*
Y207759D01*
X292158Y207446D01*
X291765Y206858D01*
X291627Y206163D01*
X291765Y205469D01*
X292158Y204880D01*
X292747Y204487D01*
X293441Y204349D01*
X294135Y204487D01*
X294724Y204880D01*
X295117Y205469D01*
X295255Y206163D01*
X295117Y206858D01*
X294724Y207446D01*
X294256Y207759D01*
Y221858D01*
X304897Y232499D01*
X305449Y232389D01*
X306143Y232527D01*
X306732Y232920D01*
X307125Y233509D01*
X307263Y234203D01*
X307125Y234897D01*
X306732Y235486D01*
X306143Y235879D01*
X305449Y236017D01*
D02*
G37*
G36*
X297280Y190781D02*
X296585Y190643D01*
X295996Y190250D01*
X295603Y189661D01*
X295465Y188967D01*
X295603Y188273D01*
X295996Y187684D01*
X296465Y187371D01*
Y181749D01*
X296527Y181438D01*
X296703Y181173D01*
X315464Y162413D01*
X315354Y161861D01*
X315492Y161166D01*
X315885Y160578D01*
X316474Y160184D01*
X317168Y160046D01*
X317863Y160184D01*
X318451Y160578D01*
X318845Y161166D01*
X318983Y161861D01*
X318845Y162555D01*
X318451Y163144D01*
X317863Y163537D01*
X317168Y163675D01*
X316616Y163565D01*
X298094Y182087D01*
Y187371D01*
X298563Y187684D01*
X298956Y188273D01*
X299094Y188967D01*
X298956Y189661D01*
X298563Y190250D01*
X297974Y190643D01*
X297280Y190781D01*
D02*
G37*
G36*
X308205Y204238D02*
X307280Y204054D01*
X306496Y203530D01*
X305972Y202746D01*
X305788Y201821D01*
X305972Y200897D01*
X306496Y200113D01*
X307280Y199589D01*
X308205Y199405D01*
X308416Y199447D01*
X321242Y186621D01*
Y163099D01*
X321063Y162979D01*
X320539Y162195D01*
X320355Y161270D01*
X320397Y161058D01*
X305503Y146164D01*
X305291Y146206D01*
X304367Y146022D01*
X303583Y145499D01*
X303059Y144714D01*
X302875Y143790D01*
X303059Y142865D01*
X303583Y142081D01*
X304367Y141557D01*
X305291Y141373D01*
X306216Y141557D01*
X307000Y142081D01*
X307524Y142865D01*
X307708Y143790D01*
X307666Y144001D01*
X322560Y158896D01*
X322772Y158854D01*
X323696Y159037D01*
X324480Y159561D01*
X325008Y159528D01*
X327443Y157093D01*
Y154943D01*
X327299D01*
X326770Y154838D01*
X326338Y155227D01*
X326170Y156072D01*
X325691Y156788D01*
X324975Y157266D01*
X324130Y157434D01*
X323285Y157266D01*
X322569Y156788D01*
X322090Y156072D01*
X321922Y155227D01*
X322090Y154382D01*
X322569Y153666D01*
X323285Y153187D01*
X324130Y153019D01*
X324213Y153036D01*
X324590Y152727D01*
X324213Y152418D01*
X324130Y152435D01*
X323285Y152267D01*
X322569Y151788D01*
X322090Y151072D01*
X321922Y150227D01*
X322090Y149382D01*
X322569Y148666D01*
X323285Y148187D01*
X324130Y148019D01*
X324213Y148036D01*
X324590Y147727D01*
X324213Y147418D01*
X324130Y147434D01*
X323285Y147266D01*
X322569Y146788D01*
X322090Y146072D01*
X321922Y145227D01*
X322090Y144382D01*
X322569Y143666D01*
X323285Y143187D01*
X324130Y143019D01*
X324213Y143036D01*
X324590Y142727D01*
X324213Y142418D01*
X324130Y142435D01*
X323285Y142266D01*
X322569Y141788D01*
X322090Y141072D01*
X321922Y140227D01*
X322090Y139382D01*
X322569Y138666D01*
X323285Y138187D01*
X324130Y138019D01*
X324213Y138036D01*
X324590Y137727D01*
X324213Y137418D01*
X324130Y137434D01*
X323285Y137267D01*
X322569Y136788D01*
X322090Y136072D01*
X321922Y135227D01*
X322090Y134382D01*
X322569Y133666D01*
X323285Y133187D01*
X324130Y133019D01*
X324975Y133187D01*
X325691Y133666D01*
X326170Y134382D01*
X326338Y135227D01*
X326770Y135616D01*
X327299Y135511D01*
X328378D01*
Y137727D01*
Y139943D01*
X327299D01*
X327084Y139900D01*
X326691Y140227D01*
X327084Y140554D01*
X327299Y140511D01*
X330055D01*
X330903Y140679D01*
X331622Y141160D01*
X332102Y141879D01*
X332271Y142727D01*
X332102Y143575D01*
X331622Y144294D01*
X330903Y144774D01*
X330055Y144943D01*
X327299D01*
X327084Y144900D01*
X326691Y145227D01*
X327084Y145554D01*
X327299Y145511D01*
X330055D01*
X330903Y145679D01*
X331622Y146160D01*
X332102Y146879D01*
X332271Y147727D01*
X332102Y148575D01*
X331622Y149294D01*
X330903Y149774D01*
X330055Y149943D01*
X327299D01*
X327084Y149900D01*
X326691Y150227D01*
X327084Y150554D01*
X327299Y150511D01*
X330055D01*
X330903Y150679D01*
X331622Y151160D01*
X332102Y151879D01*
X332271Y152727D01*
X332102Y153575D01*
X331622Y154294D01*
X330903Y154774D01*
X330502Y154854D01*
Y157727D01*
X330385Y158312D01*
X330054Y158808D01*
X326556Y162306D01*
X326060Y162638D01*
X325474Y162754D01*
X324631D01*
X324480Y162979D01*
X324301Y163099D01*
Y187254D01*
X324185Y187840D01*
X323853Y188336D01*
X310579Y201610D01*
X310621Y201821D01*
X310437Y202746D01*
X309913Y203530D01*
X309129Y204054D01*
X308205Y204238D01*
D02*
G37*
G36*
X267161Y181935D02*
X266237Y181751D01*
X265453Y181227D01*
X264929Y180443D01*
X264745Y179518D01*
X264929Y178593D01*
X265453Y177809D01*
X265632Y177690D01*
Y153761D01*
X265748Y153175D01*
X266080Y152679D01*
X274758Y144001D01*
X274716Y143790D01*
X274900Y142865D01*
X275423Y142081D01*
X276207Y141557D01*
X277132Y141373D01*
X278057Y141557D01*
X278841Y142081D01*
X279365Y142865D01*
X279549Y143790D01*
X279365Y144714D01*
X278841Y145499D01*
X278057Y146022D01*
X277132Y146206D01*
X276921Y146164D01*
X268691Y154394D01*
Y177690D01*
X268870Y177809D01*
X269394Y178593D01*
X269578Y179518D01*
X269394Y180443D01*
X268870Y181227D01*
X268086Y181751D01*
X267161Y181935D01*
D02*
G37*
G36*
X330055Y139943D02*
X328976D01*
Y138026D01*
X332211D01*
X332102Y138575D01*
X331622Y139294D01*
X330903Y139774D01*
X330055Y139943D01*
D02*
G37*
G36*
X332211Y137427D02*
X328976D01*
Y135511D01*
X330055D01*
X330903Y135679D01*
X331622Y136160D01*
X332102Y136879D01*
X332211Y137427D01*
D02*
G37*
G36*
X319285Y112016D02*
X315591D01*
Y108321D01*
X319285D01*
Y112016D01*
D02*
G37*
G36*
X314992D02*
X311297D01*
Y108321D01*
X314992D01*
Y112016D01*
D02*
G37*
G36*
X319285Y107723D02*
X315591D01*
Y104028D01*
X319285D01*
Y107723D01*
D02*
G37*
G36*
X314992D02*
X311297D01*
Y104028D01*
X314992D01*
Y107723D01*
D02*
G37*
G36*
X305291Y112051D02*
X304249Y111913D01*
X303277Y111511D01*
X302443Y110871D01*
X301802Y110036D01*
X301400Y109065D01*
X301263Y108022D01*
X301400Y106979D01*
X301802Y106008D01*
X302443Y105173D01*
X303277Y104533D01*
X304249Y104131D01*
X305291Y103993D01*
X306334Y104131D01*
X307306Y104533D01*
X308140Y105173D01*
X308780Y106008D01*
X309183Y106979D01*
X309320Y108022D01*
X309183Y109065D01*
X308780Y110036D01*
X308140Y110871D01*
X307306Y111511D01*
X306334Y111913D01*
X305291Y112051D01*
D02*
G37*
G36*
X300429Y157277D02*
X299735Y157139D01*
X299146Y156746D01*
X298753Y156157D01*
X298615Y155463D01*
X298753Y154769D01*
X299146Y154180D01*
X299614Y153867D01*
Y146450D01*
X294715Y141551D01*
X294538Y141287D01*
X294476Y140975D01*
Y111943D01*
X294249Y111913D01*
X293277Y111511D01*
X292443Y110871D01*
X291803Y110036D01*
X291400Y109065D01*
X291263Y108022D01*
X291400Y106979D01*
X291803Y106008D01*
X292443Y105173D01*
X293277Y104533D01*
X294249Y104131D01*
X295291Y103993D01*
X296334Y104131D01*
X297306Y104533D01*
X298140Y105173D01*
X298780Y106008D01*
X299183Y106979D01*
X299320Y108022D01*
X299183Y109065D01*
X298780Y110036D01*
X298140Y110871D01*
X297306Y111511D01*
X296334Y111913D01*
X296106Y111943D01*
Y140637D01*
X301005Y145536D01*
X301182Y145801D01*
X301244Y146113D01*
Y153867D01*
X301712Y154180D01*
X302105Y154769D01*
X302243Y155463D01*
X302105Y156157D01*
X301712Y156746D01*
X301123Y157139D01*
X300429Y157277D01*
D02*
G37*
G36*
X296307Y174553D02*
X295612Y174415D01*
X295024Y174021D01*
X294630Y173433D01*
X294492Y172738D01*
X294630Y172044D01*
X295024Y171455D01*
X295492Y171142D01*
Y149867D01*
X284715Y139090D01*
X284539Y138826D01*
X284476Y138514D01*
Y111943D01*
X284249Y111913D01*
X283277Y111511D01*
X282443Y110871D01*
X281803Y110036D01*
X281400Y109065D01*
X281263Y108022D01*
X281400Y106979D01*
X281803Y106008D01*
X282443Y105173D01*
X283277Y104533D01*
X284249Y104131D01*
X285291Y103993D01*
X286334Y104131D01*
X287306Y104533D01*
X288140Y105173D01*
X288780Y106008D01*
X289183Y106979D01*
X289320Y108022D01*
X289183Y109065D01*
X288780Y110036D01*
X288140Y110871D01*
X287306Y111511D01*
X286334Y111913D01*
X286106Y111943D01*
Y138177D01*
X296883Y148953D01*
X297059Y149218D01*
X297122Y149530D01*
Y171142D01*
X297590Y171455D01*
X297983Y172044D01*
X298121Y172738D01*
X297983Y173433D01*
X297590Y174021D01*
X297001Y174415D01*
X296307Y174553D01*
D02*
G37*
G36*
X291000Y176017D02*
X290306Y175879D01*
X289717Y175486D01*
X289324Y174898D01*
X289186Y174203D01*
X289324Y173509D01*
X289717Y172920D01*
X290185Y172607D01*
Y150604D01*
X274715Y135134D01*
X274538Y134869D01*
X274476Y134557D01*
Y111943D01*
X274249Y111913D01*
X273277Y111511D01*
X272443Y110871D01*
X271802Y110036D01*
X271400Y109065D01*
X271263Y108022D01*
X271400Y106979D01*
X271802Y106008D01*
X272443Y105173D01*
X273277Y104533D01*
X274249Y104131D01*
X275291Y103993D01*
X276334Y104131D01*
X277306Y104533D01*
X278140Y105173D01*
X278780Y106008D01*
X279183Y106979D01*
X279320Y108022D01*
X279183Y109065D01*
X278780Y110036D01*
X278140Y110871D01*
X277306Y111511D01*
X276334Y111913D01*
X276106Y111943D01*
Y134220D01*
X291576Y149690D01*
X291753Y149954D01*
X291815Y150266D01*
Y172607D01*
X292283Y172920D01*
X292676Y173509D01*
X292814Y174203D01*
X292676Y174898D01*
X292283Y175486D01*
X291694Y175879D01*
X291000Y176017D01*
D02*
G37*
G36*
X193835Y286304D02*
X192807Y286169D01*
X191849Y285772D01*
X191027Y285141D01*
X190396Y284318D01*
X189999Y283361D01*
X189864Y282333D01*
X189999Y281305D01*
X190396Y280348D01*
X191027Y279525D01*
X191849Y278894D01*
X192807Y278497D01*
X193835Y278362D01*
X194862Y278497D01*
X195820Y278894D01*
X196642Y279525D01*
X197274Y280348D01*
X197670Y281305D01*
X197806Y282333D01*
X197670Y283361D01*
X197274Y284318D01*
X196642Y285141D01*
X195820Y285772D01*
X194862Y286169D01*
X193835Y286304D01*
D02*
G37*
G36*
X176118D02*
X175090Y286169D01*
X174133Y285772D01*
X173310Y285141D01*
X172679Y284318D01*
X172282Y283361D01*
X172147Y282333D01*
X172282Y281305D01*
X172679Y280348D01*
X173310Y279525D01*
X174133Y278894D01*
X175090Y278497D01*
X176118Y278362D01*
X177146Y278497D01*
X178104Y278894D01*
X178926Y279525D01*
X179557Y280348D01*
X179954Y281305D01*
X180089Y282333D01*
X179954Y283361D01*
X179557Y284318D01*
X178926Y285141D01*
X178104Y285772D01*
X177146Y286169D01*
X176118Y286304D01*
D02*
G37*
G36*
X207811Y289258D02*
X206987Y289149D01*
X206219Y288831D01*
X205559Y288325D01*
X205053Y287666D01*
X204735Y286897D01*
X204626Y286073D01*
Y278593D01*
X204735Y277769D01*
X205053Y277000D01*
X205559Y276341D01*
X206219Y275835D01*
X206987Y275517D01*
X207811Y275408D01*
X208635Y275517D01*
X209403Y275835D01*
X210063Y276341D01*
X210569Y277000D01*
X210887Y277769D01*
X210996Y278593D01*
Y286073D01*
X210887Y286897D01*
X210569Y287666D01*
X210063Y288325D01*
X209403Y288831D01*
X208635Y289149D01*
X207811Y289258D01*
D02*
G37*
G36*
X162142D02*
X161317Y289149D01*
X160549Y288831D01*
X159890Y288325D01*
X159384Y287666D01*
X159065Y286897D01*
X158957Y286073D01*
Y278593D01*
X159065Y277769D01*
X159384Y277000D01*
X159890Y276341D01*
X160549Y275835D01*
X161317Y275517D01*
X162142Y275408D01*
X162966Y275517D01*
X163734Y275835D01*
X164394Y276341D01*
X164900Y277000D01*
X165218Y277769D01*
X165326Y278593D01*
Y286073D01*
X165218Y286897D01*
X164900Y287666D01*
X164394Y288325D01*
X163734Y288831D01*
X162966Y289149D01*
X162142Y289258D01*
D02*
G37*
G36*
X170803Y266639D02*
X169878Y266455D01*
X169094Y265932D01*
X168571Y265148D01*
X168387Y264223D01*
X168571Y263298D01*
X169094Y262514D01*
X169878Y261990D01*
X170803Y261806D01*
X171015Y261848D01*
X173167Y259697D01*
X173663Y259365D01*
X174248Y259249D01*
X174737D01*
X175232Y259150D01*
X210032D01*
X212031Y257151D01*
X211989Y256939D01*
X212173Y256015D01*
X212697Y255231D01*
X213481Y254707D01*
X214405Y254523D01*
X215330Y254707D01*
X216114Y255231D01*
X216638Y256015D01*
X216822Y256939D01*
X216638Y257864D01*
X216114Y258648D01*
X215330Y259172D01*
X214405Y259356D01*
X214194Y259314D01*
X211747Y261761D01*
X211251Y262092D01*
X210665Y262209D01*
X175727D01*
X175232Y262307D01*
X174881D01*
X173178Y264011D01*
X173220Y264223D01*
X173036Y265148D01*
X172512Y265932D01*
X171728Y266455D01*
X170803Y266639D01*
D02*
G37*
G36*
X193638Y244088D02*
X192943Y243950D01*
X192355Y243557D01*
X191962Y242968D01*
X191823Y242274D01*
X191933Y241722D01*
X178298Y228086D01*
X178121Y227822D01*
X178059Y227510D01*
Y204511D01*
X177591Y204198D01*
X177198Y203610D01*
X177060Y202915D01*
X177198Y202221D01*
X177591Y201632D01*
X178180Y201239D01*
X178874Y201101D01*
X179568Y201239D01*
X180157Y201632D01*
X180550Y202221D01*
X180688Y202915D01*
X180550Y203610D01*
X180157Y204198D01*
X179689Y204511D01*
Y227173D01*
X193086Y240569D01*
X193638Y240460D01*
X194332Y240598D01*
X194921Y240991D01*
X195314Y241580D01*
X195452Y242274D01*
X195314Y242968D01*
X194921Y243557D01*
X194332Y243950D01*
X193638Y244088D01*
D02*
G37*
G36*
X195213Y236017D02*
X194518Y235879D01*
X193930Y235486D01*
X193536Y234897D01*
X193398Y234203D01*
X193508Y233651D01*
X182629Y222772D01*
X182452Y222507D01*
X182390Y222195D01*
Y207759D01*
X181922Y207446D01*
X181528Y206858D01*
X181390Y206163D01*
X181528Y205469D01*
X181922Y204880D01*
X182510Y204487D01*
X183205Y204349D01*
X183899Y204487D01*
X184488Y204880D01*
X184881Y205469D01*
X185019Y206163D01*
X184881Y206858D01*
X184488Y207446D01*
X184020Y207759D01*
Y221858D01*
X194660Y232499D01*
X195213Y232389D01*
X195907Y232527D01*
X196495Y232920D01*
X196889Y233509D01*
X197027Y234203D01*
X196889Y234897D01*
X196495Y235486D01*
X195907Y235879D01*
X195213Y236017D01*
D02*
G37*
G36*
X187043Y190781D02*
X186349Y190643D01*
X185760Y190250D01*
X185367Y189661D01*
X185229Y188967D01*
X185367Y188273D01*
X185760Y187684D01*
X186228Y187371D01*
Y181749D01*
X186290Y181438D01*
X186467Y181173D01*
X205227Y162413D01*
X205118Y161861D01*
X205256Y161166D01*
X205649Y160578D01*
X206238Y160184D01*
X206932Y160046D01*
X207626Y160184D01*
X208215Y160578D01*
X208608Y161166D01*
X208746Y161861D01*
X208608Y162555D01*
X208215Y163144D01*
X207626Y163537D01*
X206932Y163675D01*
X206380Y163565D01*
X187858Y182087D01*
Y187371D01*
X188326Y187684D01*
X188720Y188273D01*
X188858Y188967D01*
X188720Y189661D01*
X188326Y190250D01*
X187738Y190643D01*
X187043Y190781D01*
D02*
G37*
G36*
X197968Y204238D02*
X197044Y204054D01*
X196260Y203530D01*
X195736Y202746D01*
X195552Y201821D01*
X195736Y200897D01*
X196260Y200113D01*
X197044Y199589D01*
X197968Y199405D01*
X198180Y199447D01*
X211006Y186621D01*
Y163099D01*
X210827Y162979D01*
X210303Y162195D01*
X210119Y161270D01*
X210161Y161058D01*
X195267Y146164D01*
X195055Y146206D01*
X194130Y146022D01*
X193346Y145499D01*
X192823Y144714D01*
X192639Y143790D01*
X192823Y142865D01*
X193346Y142081D01*
X194130Y141557D01*
X195055Y141373D01*
X195980Y141557D01*
X196764Y142081D01*
X197288Y142865D01*
X197472Y143790D01*
X197430Y144001D01*
X212324Y158896D01*
X212535Y158854D01*
X213460Y159037D01*
X214244Y159561D01*
X214771Y159528D01*
X217207Y157093D01*
Y154943D01*
X217063D01*
X216534Y154838D01*
X216102Y155227D01*
X215933Y156072D01*
X215455Y156788D01*
X214739Y157266D01*
X213894Y157434D01*
X213049Y157266D01*
X212333Y156788D01*
X211854Y156072D01*
X211686Y155227D01*
X211854Y154382D01*
X212333Y153666D01*
X213049Y153187D01*
X213894Y153019D01*
X213977Y153036D01*
X214353Y152727D01*
X213977Y152418D01*
X213894Y152435D01*
X213049Y152267D01*
X212333Y151788D01*
X211854Y151072D01*
X211686Y150227D01*
X211854Y149382D01*
X212333Y148666D01*
X213049Y148187D01*
X213894Y148019D01*
X213977Y148036D01*
X214353Y147727D01*
X213977Y147418D01*
X213894Y147434D01*
X213049Y147266D01*
X212333Y146788D01*
X211854Y146072D01*
X211686Y145227D01*
X211854Y144382D01*
X212333Y143666D01*
X213049Y143187D01*
X213894Y143019D01*
X213977Y143036D01*
X214353Y142727D01*
X213977Y142418D01*
X213894Y142435D01*
X213049Y142266D01*
X212333Y141788D01*
X211854Y141072D01*
X211686Y140227D01*
X211854Y139382D01*
X212333Y138666D01*
X213049Y138187D01*
X213894Y138019D01*
X213977Y138036D01*
X214353Y137727D01*
X213977Y137418D01*
X213894Y137434D01*
X213049Y137267D01*
X212333Y136788D01*
X211854Y136072D01*
X211686Y135227D01*
X211854Y134382D01*
X212333Y133666D01*
X213049Y133187D01*
X213894Y133019D01*
X214739Y133187D01*
X215455Y133666D01*
X215933Y134382D01*
X216102Y135227D01*
X216534Y135616D01*
X217063Y135511D01*
X218141D01*
Y137727D01*
Y139943D01*
X217063D01*
X216847Y139900D01*
X216455Y140227D01*
X216847Y140554D01*
X217063Y140511D01*
X219819D01*
X220667Y140679D01*
X221386Y141160D01*
X221866Y141879D01*
X222035Y142727D01*
X221866Y143575D01*
X221386Y144294D01*
X220667Y144774D01*
X219819Y144943D01*
X217063D01*
X216847Y144900D01*
X216455Y145227D01*
X216847Y145554D01*
X217063Y145511D01*
X219819D01*
X220667Y145679D01*
X221386Y146160D01*
X221866Y146879D01*
X222035Y147727D01*
X221866Y148575D01*
X221386Y149294D01*
X220667Y149774D01*
X219819Y149943D01*
X217063D01*
X216847Y149900D01*
X216455Y150227D01*
X216847Y150554D01*
X217063Y150511D01*
X219819D01*
X220667Y150679D01*
X221386Y151160D01*
X221866Y151879D01*
X222035Y152727D01*
X221866Y153575D01*
X221386Y154294D01*
X220667Y154774D01*
X220265Y154854D01*
Y157727D01*
X220149Y158312D01*
X219817Y158808D01*
X216319Y162306D01*
X215823Y162638D01*
X215238Y162754D01*
X214394D01*
X214244Y162979D01*
X214065Y163099D01*
Y187254D01*
X213948Y187840D01*
X213617Y188336D01*
X200343Y201610D01*
X200385Y201821D01*
X200201Y202746D01*
X199677Y203530D01*
X198893Y204054D01*
X197968Y204238D01*
D02*
G37*
G36*
X156925Y181935D02*
X156000Y181751D01*
X155216Y181227D01*
X154693Y180443D01*
X154509Y179518D01*
X154693Y178593D01*
X155216Y177809D01*
X155396Y177690D01*
Y153761D01*
X155512Y153175D01*
X155844Y152679D01*
X164522Y144001D01*
X164479Y143790D01*
X164663Y142865D01*
X165187Y142081D01*
X165971Y141557D01*
X166896Y141373D01*
X167821Y141557D01*
X168605Y142081D01*
X169129Y142865D01*
X169312Y143790D01*
X169129Y144714D01*
X168605Y145499D01*
X167821Y146022D01*
X166896Y146206D01*
X166684Y146164D01*
X158455Y154394D01*
Y177690D01*
X158634Y177809D01*
X159158Y178593D01*
X159342Y179518D01*
X159158Y180443D01*
X158634Y181227D01*
X157850Y181751D01*
X156925Y181935D01*
D02*
G37*
G36*
X219819Y139943D02*
X218740D01*
Y138026D01*
X221975D01*
X221866Y138575D01*
X221386Y139294D01*
X220667Y139774D01*
X219819Y139943D01*
D02*
G37*
G36*
X221975Y137427D02*
X218740D01*
Y135511D01*
X219819D01*
X220667Y135679D01*
X221386Y136160D01*
X221866Y136879D01*
X221975Y137427D01*
D02*
G37*
G36*
X209049Y112016D02*
X205354D01*
Y108321D01*
X209049D01*
Y112016D01*
D02*
G37*
G36*
X204756D02*
X201061D01*
Y108321D01*
X204756D01*
Y112016D01*
D02*
G37*
G36*
X209049Y107723D02*
X205354D01*
Y104028D01*
X209049D01*
Y107723D01*
D02*
G37*
G36*
X204756D02*
X201061D01*
Y104028D01*
X204756D01*
Y107723D01*
D02*
G37*
G36*
X195055Y112051D02*
X194012Y111913D01*
X193041Y111511D01*
X192207Y110871D01*
X191566Y110036D01*
X191164Y109065D01*
X191026Y108022D01*
X191164Y106979D01*
X191566Y106008D01*
X192207Y105173D01*
X193041Y104533D01*
X194012Y104131D01*
X195055Y103993D01*
X196098Y104131D01*
X197069Y104533D01*
X197904Y105173D01*
X198544Y106008D01*
X198946Y106979D01*
X199084Y108022D01*
X198946Y109065D01*
X198544Y110036D01*
X197904Y110871D01*
X197069Y111511D01*
X196098Y111913D01*
X195055Y112051D01*
D02*
G37*
G36*
X190193Y157277D02*
X189498Y157139D01*
X188910Y156746D01*
X188517Y156157D01*
X188379Y155463D01*
X188517Y154769D01*
X188910Y154180D01*
X189378Y153867D01*
Y146450D01*
X184479Y141551D01*
X184302Y141287D01*
X184240Y140975D01*
Y111943D01*
X184012Y111913D01*
X183041Y111511D01*
X182206Y110871D01*
X181566Y110036D01*
X181164Y109065D01*
X181026Y108022D01*
X181164Y106979D01*
X181566Y106008D01*
X182206Y105173D01*
X183041Y104533D01*
X184012Y104131D01*
X185055Y103993D01*
X186098Y104131D01*
X187069Y104533D01*
X187904Y105173D01*
X188544Y106008D01*
X188946Y106979D01*
X189084Y108022D01*
X188946Y109065D01*
X188544Y110036D01*
X187904Y110871D01*
X187069Y111511D01*
X186098Y111913D01*
X185870Y111943D01*
Y140637D01*
X190769Y145536D01*
X190946Y145801D01*
X191008Y146113D01*
Y153867D01*
X191476Y154180D01*
X191869Y154769D01*
X192007Y155463D01*
X191869Y156157D01*
X191476Y156746D01*
X190887Y157139D01*
X190193Y157277D01*
D02*
G37*
G36*
X186071Y174553D02*
X185376Y174415D01*
X184787Y174021D01*
X184394Y173433D01*
X184256Y172738D01*
X184394Y172044D01*
X184787Y171455D01*
X185256Y171142D01*
Y149867D01*
X174479Y139090D01*
X174302Y138826D01*
X174240Y138514D01*
Y111943D01*
X174012Y111913D01*
X173041Y111511D01*
X172206Y110871D01*
X171566Y110036D01*
X171164Y109065D01*
X171027Y108022D01*
X171164Y106979D01*
X171566Y106008D01*
X172206Y105173D01*
X173041Y104533D01*
X174012Y104131D01*
X175055Y103993D01*
X176098Y104131D01*
X177069Y104533D01*
X177904Y105173D01*
X178544Y106008D01*
X178946Y106979D01*
X179084Y108022D01*
X178946Y109065D01*
X178544Y110036D01*
X177904Y110871D01*
X177069Y111511D01*
X176098Y111913D01*
X175870Y111943D01*
Y138177D01*
X186647Y148953D01*
X186823Y149218D01*
X186885Y149530D01*
Y171142D01*
X187353Y171455D01*
X187747Y172044D01*
X187885Y172738D01*
X187747Y173433D01*
X187353Y174021D01*
X186765Y174415D01*
X186071Y174553D01*
D02*
G37*
G36*
X180764Y176017D02*
X180069Y175879D01*
X179481Y175486D01*
X179087Y174898D01*
X178949Y174203D01*
X179087Y173509D01*
X179481Y172920D01*
X179949Y172607D01*
Y150604D01*
X164479Y135134D01*
X164302Y134869D01*
X164240Y134557D01*
Y111943D01*
X164012Y111913D01*
X163041Y111511D01*
X162206Y110871D01*
X161566Y110036D01*
X161164Y109065D01*
X161027Y108022D01*
X161164Y106979D01*
X161566Y106008D01*
X162206Y105173D01*
X163041Y104533D01*
X164012Y104131D01*
X165055Y103993D01*
X166098Y104131D01*
X167069Y104533D01*
X167904Y105173D01*
X168544Y106008D01*
X168946Y106979D01*
X169084Y108022D01*
X168946Y109065D01*
X168544Y110036D01*
X167904Y110871D01*
X167069Y111511D01*
X166098Y111913D01*
X165870Y111943D01*
Y134220D01*
X181340Y149690D01*
X181517Y149954D01*
X181579Y150266D01*
Y172607D01*
X182047Y172920D01*
X182440Y173509D01*
X182578Y174203D01*
X182440Y174898D01*
X182047Y175486D01*
X181458Y175879D01*
X180764Y176017D01*
D02*
G37*
G36*
X83598Y286304D02*
X82571Y286169D01*
X81613Y285772D01*
X80791Y285141D01*
X80159Y284318D01*
X79763Y283361D01*
X79627Y282333D01*
X79763Y281305D01*
X80159Y280348D01*
X80791Y279525D01*
X81613Y278894D01*
X82571Y278497D01*
X83598Y278362D01*
X84626Y278497D01*
X85584Y278894D01*
X86406Y279525D01*
X87037Y280348D01*
X87434Y281305D01*
X87569Y282333D01*
X87434Y283361D01*
X87037Y284318D01*
X86406Y285141D01*
X85584Y285772D01*
X84626Y286169D01*
X83598Y286304D01*
D02*
G37*
G36*
X65882D02*
X64854Y286169D01*
X63896Y285772D01*
X63074Y285141D01*
X62443Y284318D01*
X62046Y283361D01*
X61911Y282333D01*
X62046Y281305D01*
X62443Y280348D01*
X63074Y279525D01*
X63896Y278894D01*
X64854Y278497D01*
X65882Y278362D01*
X66910Y278497D01*
X67867Y278894D01*
X68690Y279525D01*
X69321Y280348D01*
X69718Y281305D01*
X69853Y282333D01*
X69718Y283361D01*
X69321Y284318D01*
X68690Y285141D01*
X67867Y285772D01*
X66910Y286169D01*
X65882Y286304D01*
D02*
G37*
G36*
X97575Y289258D02*
X96750Y289149D01*
X95982Y288831D01*
X95323Y288325D01*
X94817Y287666D01*
X94499Y286897D01*
X94390Y286073D01*
Y278593D01*
X94499Y277769D01*
X94817Y277000D01*
X95323Y276341D01*
X95982Y275835D01*
X96750Y275517D01*
X97575Y275408D01*
X98399Y275517D01*
X99167Y275835D01*
X99827Y276341D01*
X100333Y277000D01*
X100651Y277769D01*
X100759Y278593D01*
Y286073D01*
X100651Y286897D01*
X100333Y287666D01*
X99827Y288325D01*
X99167Y288831D01*
X98399Y289149D01*
X97575Y289258D01*
D02*
G37*
G36*
X51906D02*
X51081Y289149D01*
X50313Y288831D01*
X49654Y288325D01*
X49147Y287666D01*
X48829Y286897D01*
X48721Y286073D01*
Y278593D01*
X48829Y277769D01*
X49147Y277000D01*
X49654Y276341D01*
X50313Y275835D01*
X51081Y275517D01*
X51906Y275408D01*
X52730Y275517D01*
X53498Y275835D01*
X54157Y276341D01*
X54663Y277000D01*
X54982Y277769D01*
X55090Y278593D01*
Y286073D01*
X54982Y286897D01*
X54663Y287666D01*
X54157Y288325D01*
X53498Y288831D01*
X52730Y289149D01*
X51906Y289258D01*
D02*
G37*
G36*
X60567Y266639D02*
X59642Y266455D01*
X58858Y265932D01*
X58334Y265148D01*
X58150Y264223D01*
X58334Y263298D01*
X58858Y262514D01*
X59642Y261990D01*
X60567Y261806D01*
X60778Y261848D01*
X62930Y259697D01*
X63427Y259365D01*
X64012Y259249D01*
X64501D01*
X64996Y259150D01*
X99796D01*
X101795Y257151D01*
X101753Y256939D01*
X101937Y256015D01*
X102461Y255231D01*
X103244Y254707D01*
X104169Y254523D01*
X105094Y254707D01*
X105878Y255231D01*
X106402Y256015D01*
X106586Y256939D01*
X106402Y257864D01*
X105878Y258648D01*
X105094Y259172D01*
X104169Y259356D01*
X103958Y259314D01*
X101511Y261761D01*
X101014Y262092D01*
X100429Y262209D01*
X65491D01*
X64996Y262307D01*
X64645D01*
X62941Y264011D01*
X62983Y264223D01*
X62800Y265148D01*
X62276Y265932D01*
X61492Y266455D01*
X60567Y266639D01*
D02*
G37*
G36*
X83402Y244088D02*
X82707Y243950D01*
X82119Y243557D01*
X81725Y242968D01*
X81587Y242274D01*
X81697Y241722D01*
X68062Y228086D01*
X67885Y227822D01*
X67823Y227510D01*
Y204511D01*
X67355Y204198D01*
X66961Y203610D01*
X66823Y202915D01*
X66961Y202221D01*
X67355Y201632D01*
X67943Y201239D01*
X68638Y201101D01*
X69332Y201239D01*
X69921Y201632D01*
X70314Y202221D01*
X70452Y202915D01*
X70314Y203610D01*
X69921Y204198D01*
X69453Y204511D01*
Y227173D01*
X82849Y240569D01*
X83402Y240460D01*
X84096Y240598D01*
X84684Y240991D01*
X85078Y241580D01*
X85216Y242274D01*
X85078Y242968D01*
X84684Y243557D01*
X84096Y243950D01*
X83402Y244088D01*
D02*
G37*
G36*
X84976Y236017D02*
X84282Y235879D01*
X83693Y235486D01*
X83300Y234897D01*
X83162Y234203D01*
X83272Y233651D01*
X72392Y222772D01*
X72216Y222507D01*
X72154Y222195D01*
Y207759D01*
X71685Y207446D01*
X71292Y206858D01*
X71154Y206163D01*
X71292Y205469D01*
X71685Y204880D01*
X72274Y204487D01*
X72969Y204349D01*
X73663Y204487D01*
X74251Y204880D01*
X74645Y205469D01*
X74783Y206163D01*
X74645Y206858D01*
X74251Y207446D01*
X73783Y207759D01*
Y221858D01*
X84424Y232499D01*
X84976Y232389D01*
X85671Y232527D01*
X86259Y232920D01*
X86653Y233509D01*
X86791Y234203D01*
X86653Y234897D01*
X86259Y235486D01*
X85671Y235879D01*
X84976Y236017D01*
D02*
G37*
G36*
X76807Y190781D02*
X76113Y190643D01*
X75524Y190250D01*
X75131Y189661D01*
X74993Y188967D01*
X75131Y188273D01*
X75524Y187684D01*
X75992Y187371D01*
Y181749D01*
X76054Y181438D01*
X76231Y181173D01*
X94991Y162413D01*
X94881Y161861D01*
X95020Y161166D01*
X95413Y160578D01*
X96001Y160184D01*
X96696Y160046D01*
X97390Y160184D01*
X97979Y160578D01*
X98372Y161166D01*
X98510Y161861D01*
X98372Y162555D01*
X97979Y163144D01*
X97390Y163537D01*
X96696Y163675D01*
X96144Y163565D01*
X77622Y182087D01*
Y187371D01*
X78090Y187684D01*
X78483Y188273D01*
X78622Y188967D01*
X78483Y189661D01*
X78090Y190250D01*
X77501Y190643D01*
X76807Y190781D01*
D02*
G37*
G36*
X87732Y204238D02*
X86808Y204054D01*
X86023Y203530D01*
X85500Y202746D01*
X85316Y201821D01*
X85500Y200897D01*
X86023Y200113D01*
X86808Y199589D01*
X87732Y199405D01*
X87944Y199447D01*
X100770Y186621D01*
Y163099D01*
X100590Y162979D01*
X100067Y162195D01*
X99883Y161270D01*
X99925Y161058D01*
X85030Y146164D01*
X84819Y146206D01*
X83894Y146022D01*
X83110Y145499D01*
X82586Y144714D01*
X82402Y143790D01*
X82586Y142865D01*
X83110Y142081D01*
X83894Y141557D01*
X84819Y141373D01*
X85744Y141557D01*
X86528Y142081D01*
X87051Y142865D01*
X87235Y143790D01*
X87193Y144001D01*
X102088Y158896D01*
X102299Y158854D01*
X103224Y159037D01*
X104008Y159561D01*
X104535Y159528D01*
X106970Y157093D01*
Y154943D01*
X106826D01*
X106298Y154838D01*
X105865Y155227D01*
X105697Y156072D01*
X105219Y156788D01*
X104502Y157266D01*
X103657Y157434D01*
X102813Y157266D01*
X102096Y156788D01*
X101618Y156072D01*
X101450Y155227D01*
X101618Y154382D01*
X102096Y153666D01*
X102813Y153187D01*
X103657Y153019D01*
X103741Y153036D01*
X104117Y152727D01*
X103741Y152418D01*
X103657Y152435D01*
X102813Y152267D01*
X102096Y151788D01*
X101618Y151072D01*
X101450Y150227D01*
X101618Y149382D01*
X102096Y148666D01*
X102813Y148187D01*
X103657Y148019D01*
X103741Y148036D01*
X104117Y147727D01*
X103741Y147418D01*
X103657Y147434D01*
X102813Y147266D01*
X102096Y146788D01*
X101618Y146072D01*
X101450Y145227D01*
X101618Y144382D01*
X102096Y143666D01*
X102813Y143187D01*
X103657Y143019D01*
X103741Y143036D01*
X104117Y142727D01*
X103741Y142418D01*
X103657Y142435D01*
X102813Y142266D01*
X102096Y141788D01*
X101618Y141072D01*
X101450Y140227D01*
X101618Y139382D01*
X102096Y138666D01*
X102813Y138187D01*
X103657Y138019D01*
X103741Y138036D01*
X104117Y137727D01*
X103741Y137418D01*
X103657Y137434D01*
X102813Y137267D01*
X102096Y136788D01*
X101618Y136072D01*
X101450Y135227D01*
X101618Y134382D01*
X102096Y133666D01*
X102813Y133187D01*
X103657Y133019D01*
X104502Y133187D01*
X105219Y133666D01*
X105697Y134382D01*
X105865Y135227D01*
X106298Y135616D01*
X106826Y135511D01*
X107905D01*
Y137727D01*
Y139943D01*
X106826D01*
X106611Y139900D01*
X106219Y140227D01*
X106611Y140554D01*
X106826Y140511D01*
X109582D01*
X110431Y140679D01*
X111149Y141160D01*
X111630Y141879D01*
X111799Y142727D01*
X111630Y143575D01*
X111149Y144294D01*
X110431Y144774D01*
X109582Y144943D01*
X106826D01*
X106611Y144900D01*
X106219Y145227D01*
X106611Y145554D01*
X106826Y145511D01*
X109582D01*
X110431Y145679D01*
X111149Y146160D01*
X111630Y146879D01*
X111799Y147727D01*
X111630Y148575D01*
X111149Y149294D01*
X110431Y149774D01*
X109582Y149943D01*
X106826D01*
X106611Y149900D01*
X106219Y150227D01*
X106611Y150554D01*
X106826Y150511D01*
X109582D01*
X110431Y150679D01*
X111149Y151160D01*
X111630Y151879D01*
X111799Y152727D01*
X111630Y153575D01*
X111149Y154294D01*
X110431Y154774D01*
X110029Y154854D01*
Y157727D01*
X109913Y158312D01*
X109581Y158808D01*
X106083Y162306D01*
X105587Y162638D01*
X105002Y162754D01*
X104158D01*
X104008Y162979D01*
X103829Y163099D01*
Y187254D01*
X103712Y187840D01*
X103381Y188336D01*
X90107Y201610D01*
X90149Y201821D01*
X89965Y202746D01*
X89441Y203530D01*
X88657Y204054D01*
X87732Y204238D01*
D02*
G37*
G36*
X46689Y181935D02*
X45764Y181751D01*
X44980Y181227D01*
X44456Y180443D01*
X44272Y179518D01*
X44456Y178593D01*
X44980Y177809D01*
X45160Y177690D01*
Y153761D01*
X45276Y153175D01*
X45608Y152679D01*
X54285Y144001D01*
X54243Y143790D01*
X54427Y142865D01*
X54951Y142081D01*
X55735Y141557D01*
X56660Y141373D01*
X57585Y141557D01*
X58368Y142081D01*
X58892Y142865D01*
X59076Y143790D01*
X58892Y144714D01*
X58368Y145499D01*
X57585Y146022D01*
X56660Y146206D01*
X56448Y146164D01*
X48218Y154394D01*
Y177690D01*
X48398Y177809D01*
X48921Y178593D01*
X49106Y179518D01*
X48921Y180443D01*
X48398Y181227D01*
X47614Y181751D01*
X46689Y181935D01*
D02*
G37*
G36*
X109582Y139943D02*
X108504D01*
Y138026D01*
X111739D01*
X111630Y138575D01*
X111149Y139294D01*
X110431Y139774D01*
X109582Y139943D01*
D02*
G37*
G36*
X111739Y137427D02*
X108504D01*
Y135511D01*
X109582D01*
X110431Y135679D01*
X111149Y136160D01*
X111630Y136879D01*
X111739Y137427D01*
D02*
G37*
G36*
X98813Y112016D02*
X95118D01*
Y108321D01*
X98813D01*
Y112016D01*
D02*
G37*
G36*
X94520D02*
X90825D01*
Y108321D01*
X94520D01*
Y112016D01*
D02*
G37*
G36*
X98813Y107723D02*
X95118D01*
Y104028D01*
X98813D01*
Y107723D01*
D02*
G37*
G36*
X94520D02*
X90825D01*
Y104028D01*
X94520D01*
Y107723D01*
D02*
G37*
G36*
X84819Y112051D02*
X83776Y111913D01*
X82805Y111511D01*
X81970Y110871D01*
X81330Y110036D01*
X80928Y109065D01*
X80790Y108022D01*
X80928Y106979D01*
X81330Y106008D01*
X81970Y105173D01*
X82805Y104533D01*
X83776Y104131D01*
X84819Y103993D01*
X85861Y104131D01*
X86833Y104533D01*
X87668Y105173D01*
X88308Y106008D01*
X88710Y106979D01*
X88847Y108022D01*
X88710Y109065D01*
X88308Y110036D01*
X87668Y110871D01*
X86833Y111511D01*
X85861Y111913D01*
X84819Y112051D01*
D02*
G37*
G36*
X79957Y157277D02*
X79262Y157139D01*
X78674Y156746D01*
X78280Y156157D01*
X78142Y155463D01*
X78280Y154769D01*
X78674Y154180D01*
X79142Y153867D01*
Y146450D01*
X74243Y141551D01*
X74066Y141287D01*
X74004Y140975D01*
Y111943D01*
X73776Y111913D01*
X72805Y111511D01*
X71970Y110871D01*
X71330Y110036D01*
X70928Y109065D01*
X70790Y108022D01*
X70928Y106979D01*
X71330Y106008D01*
X71970Y105173D01*
X72805Y104533D01*
X73776Y104131D01*
X74819Y103993D01*
X75862Y104131D01*
X76833Y104533D01*
X77667Y105173D01*
X78308Y106008D01*
X78710Y106979D01*
X78847Y108022D01*
X78710Y109065D01*
X78308Y110036D01*
X77667Y110871D01*
X76833Y111511D01*
X75862Y111913D01*
X75634Y111943D01*
Y140637D01*
X80533Y145536D01*
X80709Y145801D01*
X80771Y146113D01*
Y153867D01*
X81240Y154180D01*
X81633Y154769D01*
X81771Y155463D01*
X81633Y156157D01*
X81240Y156746D01*
X80651Y157139D01*
X79957Y157277D01*
D02*
G37*
G36*
X75834Y174553D02*
X75140Y174415D01*
X74551Y174021D01*
X74158Y173433D01*
X74020Y172738D01*
X74158Y172044D01*
X74551Y171455D01*
X75019Y171142D01*
Y149867D01*
X64243Y139090D01*
X64066Y138826D01*
X64004Y138514D01*
Y111943D01*
X63776Y111913D01*
X62805Y111511D01*
X61970Y110871D01*
X61330Y110036D01*
X60928Y109065D01*
X60790Y108022D01*
X60928Y106979D01*
X61330Y106008D01*
X61970Y105173D01*
X62805Y104533D01*
X63776Y104131D01*
X64819Y103993D01*
X65861Y104131D01*
X66833Y104533D01*
X67668Y105173D01*
X68308Y106008D01*
X68710Y106979D01*
X68847Y108022D01*
X68710Y109065D01*
X68308Y110036D01*
X67668Y110871D01*
X66833Y111511D01*
X65861Y111913D01*
X65634Y111943D01*
Y138177D01*
X76411Y148953D01*
X76587Y149218D01*
X76649Y149530D01*
Y171142D01*
X77117Y171455D01*
X77510Y172044D01*
X77649Y172738D01*
X77510Y173433D01*
X77117Y174021D01*
X76529Y174415D01*
X75834Y174553D01*
D02*
G37*
G36*
X70527Y176017D02*
X69833Y175879D01*
X69245Y175486D01*
X68851Y174898D01*
X68713Y174203D01*
X68851Y173509D01*
X69245Y172920D01*
X69713Y172607D01*
Y150604D01*
X54243Y135134D01*
X54066Y134869D01*
X54004Y134557D01*
Y111943D01*
X53776Y111913D01*
X52805Y111511D01*
X51970Y110871D01*
X51330Y110036D01*
X50928Y109065D01*
X50790Y108022D01*
X50928Y106979D01*
X51330Y106008D01*
X51970Y105173D01*
X52805Y104533D01*
X53776Y104131D01*
X54819Y103993D01*
X55862Y104131D01*
X56833Y104533D01*
X57667Y105173D01*
X58308Y106008D01*
X58710Y106979D01*
X58847Y108022D01*
X58710Y109065D01*
X58308Y110036D01*
X57667Y110871D01*
X56833Y111511D01*
X55862Y111913D01*
X55634Y111943D01*
Y134220D01*
X71104Y149690D01*
X71280Y149954D01*
X71342Y150266D01*
Y172607D01*
X71811Y172920D01*
X72204Y173509D01*
X72342Y174203D01*
X72204Y174898D01*
X71811Y175486D01*
X71222Y175879D01*
X70527Y176017D01*
D02*
G37*
%LPD*%
D10*
X11811Y11811D02*
D03*
X578740D02*
D03*
Y381890D02*
D03*
X11811Y381890D02*
D03*
D14*
X108204Y152727D02*
D03*
Y147727D02*
D03*
Y142727D02*
D03*
Y137727D02*
D03*
X218441Y152727D02*
D03*
Y147727D02*
D03*
Y142727D02*
D03*
Y137727D02*
D03*
X328677Y152727D02*
D03*
Y147727D02*
D03*
Y142727D02*
D03*
Y137727D02*
D03*
X438913Y152727D02*
D03*
Y147727D02*
D03*
Y142727D02*
D03*
Y137727D02*
D03*
X549149Y152727D02*
D03*
Y147727D02*
D03*
Y142727D02*
D03*
Y137727D02*
D03*
D24*
X70527Y174203D02*
Y150266D01*
X54819Y134557D02*
Y108022D01*
X70527Y150266D02*
X54819Y134557D01*
X75834Y172738D02*
Y149530D01*
X64819Y138514D02*
Y108022D01*
X75834Y149530D02*
X64819Y138514D01*
X74819Y140975D02*
Y108022D01*
X79957Y155463D02*
Y146113D01*
X74819Y140975D01*
X72969Y206163D02*
Y205967D01*
Y222195D02*
Y206163D01*
X83402Y242274D02*
X68638Y227510D01*
Y202915D01*
X84976Y234203D02*
X72969Y222195D01*
X76807Y188967D02*
Y181749D01*
X96696Y161861D02*
X96696D01*
X76807Y181749D02*
X96696Y161861D01*
X180764Y174203D02*
Y150266D01*
X165055Y134557D02*
Y108022D01*
X180764Y150266D02*
X165055Y134557D01*
X186071Y172738D02*
Y149530D01*
X175055Y138514D02*
Y108022D01*
X186071Y149530D02*
X175055Y138514D01*
X185055Y140975D02*
Y108022D01*
X190193Y155463D02*
Y146113D01*
X185055Y140975D01*
X183205Y206163D02*
Y205967D01*
Y222195D02*
Y206163D01*
X193638Y242274D02*
X178874Y227510D01*
Y202915D01*
X195213Y234203D02*
X183205Y222195D01*
X187043Y188967D02*
Y181749D01*
X206932Y161861D02*
X206932D01*
X187043Y181749D02*
X206932Y161861D01*
X291000Y174203D02*
Y150266D01*
X275291Y134557D02*
Y108022D01*
X291000Y150266D02*
X275291Y134557D01*
X296307Y172738D02*
Y149530D01*
X285291Y138514D02*
Y108022D01*
X296307Y149530D02*
X285291Y138514D01*
X295291Y140975D02*
Y108022D01*
X300429Y155463D02*
Y146113D01*
X295291Y140975D01*
X293441Y206163D02*
Y205967D01*
Y222195D02*
Y206163D01*
X303874Y242274D02*
X289110Y227510D01*
Y202915D01*
X305449Y234203D02*
X293441Y222195D01*
X297280Y188967D02*
Y181749D01*
X317168Y161861D02*
X317168D01*
X297280Y181749D02*
X317168Y161861D01*
X401236Y174203D02*
Y150266D01*
X385527Y134557D02*
Y108022D01*
X401236Y150266D02*
X385527Y134557D01*
X406543Y172738D02*
Y149530D01*
X395528Y138514D02*
Y108022D01*
X406543Y149530D02*
X395528Y138514D01*
X405527Y140975D02*
Y108022D01*
X410665Y155463D02*
Y146113D01*
X405527Y140975D01*
X403677Y206163D02*
Y205967D01*
Y222195D02*
Y206163D01*
X414110Y242274D02*
X399346Y227510D01*
Y202915D01*
X415685Y234203D02*
X403677Y222195D01*
X407516Y188967D02*
Y181749D01*
X427404Y161861D02*
X427404D01*
X407516Y181749D02*
X427404Y161861D01*
X511472Y174203D02*
Y150266D01*
X495764Y134557D02*
Y108022D01*
X511472Y150266D02*
X495764Y134557D01*
X516779Y172738D02*
Y149530D01*
X505764Y138514D02*
Y108022D01*
X516779Y149530D02*
X505764Y138514D01*
X515764Y140975D02*
Y108022D01*
X520901Y155463D02*
Y146113D01*
X515764Y140975D01*
X513913Y206163D02*
Y205967D01*
Y222195D02*
Y206163D01*
X524346Y242274D02*
X509583Y227510D01*
Y202915D01*
X525921Y234203D02*
X513913Y222195D01*
X517752Y188967D02*
Y181749D01*
X537641Y161861D02*
X537641D01*
X517752Y181749D02*
X537641Y161861D01*
D25*
X108500Y157727D02*
Y152727D01*
X46689Y153761D02*
X56660Y143790D01*
X46689Y179518D02*
Y153761D01*
X87732Y201821D02*
X87732D01*
X102299Y187254D02*
Y161270D01*
X87732Y201821D02*
X102299Y187254D01*
X105002Y161225D02*
X108500Y157727D01*
X102299Y161270D02*
X102345Y161225D01*
X105002D01*
X102299Y161270D02*
X84819Y143790D01*
X64996Y260680D02*
X100429D01*
X60567Y264223D02*
X64012Y260778D01*
X64996D01*
Y260680D01*
X104169Y256939D02*
Y256939D01*
X100429Y260680D02*
X104169Y256939D01*
X218736Y157727D02*
Y152727D01*
X156925Y153761D02*
X166896Y143790D01*
X156925Y179518D02*
Y153761D01*
X197968Y201821D02*
X197968D01*
X212535Y187254D02*
Y161270D01*
X197968Y201821D02*
X212535Y187254D01*
X215238Y161225D02*
X218736Y157727D01*
X212535Y161270D02*
X212581Y161225D01*
X215238D01*
X212535Y161270D02*
X195055Y143790D01*
X175232Y260680D02*
X210665D01*
X170803Y264223D02*
X174248Y260778D01*
X175232D01*
Y260680D01*
X214405Y256939D02*
Y256939D01*
X210665Y260680D02*
X214405Y256939D01*
X328972Y157727D02*
Y152727D01*
X267161Y153761D02*
X277132Y143790D01*
X267161Y179518D02*
Y153761D01*
X308205Y201821D02*
X308205D01*
X322772Y187254D02*
Y161270D01*
X308205Y201821D02*
X322772Y187254D01*
X325474Y161225D02*
X328972Y157727D01*
X322772Y161270D02*
X322817Y161225D01*
X325474D01*
X322772Y161270D02*
X305291Y143790D01*
X285469Y260680D02*
X320901D01*
X281039Y264223D02*
X284484Y260778D01*
X285469D01*
Y260680D01*
X324642Y256939D02*
Y256939D01*
X320901Y260680D02*
X324642Y256939D01*
X439208Y157727D02*
Y152727D01*
X377398Y153761D02*
X387368Y143790D01*
X377398Y179518D02*
Y153761D01*
X418441Y201821D02*
X418441D01*
X433008Y187254D02*
Y161270D01*
X418441Y201821D02*
X433008Y187254D01*
X435710Y161225D02*
X439208Y157727D01*
X433008Y161270D02*
X433053Y161225D01*
X435710D01*
X433008Y161270D02*
X415527Y143790D01*
X395705Y260680D02*
X431138D01*
X391276Y264223D02*
X394720Y260778D01*
X395705D01*
Y260680D01*
X434878Y256939D02*
Y256939D01*
X431138Y260680D02*
X434878Y256939D01*
X549445Y157727D02*
Y152727D01*
X487634Y153761D02*
X497605Y143790D01*
X487634Y179518D02*
Y153761D01*
X528677Y201821D02*
X528677D01*
X543244Y187254D02*
Y161270D01*
X528677Y201821D02*
X543244Y187254D01*
X545947Y161225D02*
X549445Y157727D01*
X543244Y161270D02*
X543290Y161225D01*
X545947D01*
X543244Y161270D02*
X525764Y143790D01*
X505941Y260680D02*
X541374D01*
X501512Y264223D02*
X504957Y260778D01*
X505941D01*
Y260680D01*
X545114Y256939D02*
Y256939D01*
X541374Y260680D02*
X545114Y256939D01*
D27*
X507776Y294390D02*
D03*
X515650D02*
D03*
X523524D02*
D03*
X519587D02*
D03*
X511713D02*
D03*
X511713Y99016D02*
D03*
X519587D02*
D03*
X523524D02*
D03*
X515650D02*
D03*
X507776D02*
D03*
X476083Y249705D02*
D03*
Y257579D02*
D03*
Y261516D02*
D03*
Y253642D02*
D03*
Y245768D02*
D03*
X555217Y245768D02*
D03*
Y253642D02*
D03*
Y261516D02*
D03*
Y257579D02*
D03*
Y249705D02*
D03*
X476083Y157087D02*
D03*
Y164961D02*
D03*
Y172835D02*
D03*
Y168898D02*
D03*
Y161024D02*
D03*
X555315Y157087D02*
D03*
Y164961D02*
D03*
Y172835D02*
D03*
Y168898D02*
D03*
Y161024D02*
D03*
X397539Y294390D02*
D03*
X405413D02*
D03*
X413288D02*
D03*
X409351D02*
D03*
X401476D02*
D03*
X401476Y99016D02*
D03*
X409351D02*
D03*
X413288D02*
D03*
X405413D02*
D03*
X397539D02*
D03*
X365846Y249705D02*
D03*
Y257579D02*
D03*
Y261516D02*
D03*
Y253642D02*
D03*
Y245768D02*
D03*
X444980Y245768D02*
D03*
Y253642D02*
D03*
Y261516D02*
D03*
Y257579D02*
D03*
Y249705D02*
D03*
X365846Y157087D02*
D03*
Y164961D02*
D03*
Y172835D02*
D03*
Y168898D02*
D03*
Y161024D02*
D03*
X445079Y157087D02*
D03*
Y164961D02*
D03*
Y172835D02*
D03*
Y168898D02*
D03*
Y161024D02*
D03*
X287303Y294390D02*
D03*
X295177D02*
D03*
X303051D02*
D03*
X299114D02*
D03*
X291240D02*
D03*
X291240Y99016D02*
D03*
X299114D02*
D03*
X303051D02*
D03*
X295177D02*
D03*
X287303D02*
D03*
X255610Y249705D02*
D03*
Y257579D02*
D03*
Y261516D02*
D03*
Y253642D02*
D03*
Y245768D02*
D03*
X334744Y245768D02*
D03*
Y253642D02*
D03*
Y261516D02*
D03*
Y257579D02*
D03*
Y249705D02*
D03*
X255610Y157087D02*
D03*
Y164961D02*
D03*
Y172835D02*
D03*
Y168898D02*
D03*
Y161024D02*
D03*
X334842Y157087D02*
D03*
Y164961D02*
D03*
Y172835D02*
D03*
Y168898D02*
D03*
Y161024D02*
D03*
X177067Y294390D02*
D03*
X184941D02*
D03*
X192815D02*
D03*
X188878D02*
D03*
X181004D02*
D03*
X181004Y99016D02*
D03*
X188878D02*
D03*
X192815D02*
D03*
X184941D02*
D03*
X177067D02*
D03*
X145374Y249705D02*
D03*
Y257579D02*
D03*
Y261516D02*
D03*
Y253642D02*
D03*
Y245768D02*
D03*
X224508Y245768D02*
D03*
Y253642D02*
D03*
Y261516D02*
D03*
Y257579D02*
D03*
Y249705D02*
D03*
X145374Y157087D02*
D03*
Y164961D02*
D03*
Y172835D02*
D03*
Y168898D02*
D03*
Y161024D02*
D03*
X224606Y157087D02*
D03*
Y164961D02*
D03*
Y172835D02*
D03*
Y168898D02*
D03*
Y161024D02*
D03*
X66831Y294390D02*
D03*
X74705D02*
D03*
X82579D02*
D03*
X78642D02*
D03*
X70768D02*
D03*
X70768Y99016D02*
D03*
X78642D02*
D03*
X82579D02*
D03*
X74705D02*
D03*
X66831D02*
D03*
X35138Y249705D02*
D03*
Y257579D02*
D03*
Y261516D02*
D03*
Y253642D02*
D03*
Y245768D02*
D03*
X114272Y245768D02*
D03*
Y253642D02*
D03*
Y261516D02*
D03*
Y257579D02*
D03*
Y249705D02*
D03*
X35138Y157087D02*
D03*
Y164961D02*
D03*
Y172835D02*
D03*
Y168898D02*
D03*
Y161024D02*
D03*
X114370Y157087D02*
D03*
Y164961D02*
D03*
Y172835D02*
D03*
Y168898D02*
D03*
Y161024D02*
D03*
D28*
X65882Y282333D02*
D03*
X83598D02*
D03*
X103657Y155227D02*
D03*
Y150227D02*
D03*
Y145227D02*
D03*
Y140227D02*
D03*
Y135227D02*
D03*
X73264Y153761D02*
D03*
X56660Y148357D02*
D03*
X59976Y133317D02*
D03*
X68638Y202915D02*
D03*
X79957Y155463D02*
D03*
X76807Y188967D02*
D03*
X75834Y172738D02*
D03*
X72969Y206163D02*
D03*
X70527Y174203D02*
D03*
X53080Y102311D02*
D03*
X77884D02*
D03*
X102688D02*
D03*
X70791Y218750D02*
D03*
Y209400D02*
D03*
X74248Y181749D02*
D03*
X80843Y172738D02*
D03*
Y181349D02*
D03*
X63126Y209400D02*
D03*
X87929Y207394D02*
D03*
X99819Y134184D02*
D03*
X96000Y128888D02*
D03*
X61945Y158514D02*
D03*
X44130Y152353D02*
D03*
X59189Y163632D02*
D03*
X99248Y163829D02*
D03*
X77299Y147097D02*
D03*
X83697Y149853D02*
D03*
X53087Y185482D02*
D03*
X91669Y146408D02*
D03*
X95213Y149853D02*
D03*
X98697Y153199D02*
D03*
X73205Y168494D02*
D03*
X77201Y177412D02*
D03*
X66965Y189420D02*
D03*
Y166388D02*
D03*
X88717D02*
D03*
X89898Y189420D02*
D03*
X106433Y176172D02*
D03*
X89898Y179518D02*
D03*
X50232Y173416D02*
D03*
X66965Y176368D02*
D03*
X96696Y161861D02*
D03*
X104563Y196703D02*
D03*
X110764Y133987D02*
D03*
X77398Y121506D02*
D03*
X110764Y161270D02*
D03*
X110764Y113039D02*
D03*
X38913Y135874D02*
D03*
X77884Y133317D02*
D03*
X53087Y209496D02*
D03*
X81532Y219046D02*
D03*
X110764Y185482D02*
D03*
X44917Y196703D02*
D03*
X68638Y133317D02*
D03*
X70114Y115798D02*
D03*
X38913Y160678D02*
D03*
X87929Y216093D02*
D03*
X61945Y121506D02*
D03*
X110764Y209496D02*
D03*
X38913Y185482D02*
D03*
X53874Y237943D02*
D03*
X98067Y256644D02*
D03*
X49937Y259104D02*
D03*
X78677Y252510D02*
D03*
X81827Y235876D02*
D03*
X77398Y232727D02*
D03*
X86945Y230660D02*
D03*
X84976Y234203D02*
D03*
X83402Y242274D02*
D03*
X63028Y229085D02*
D03*
X65882Y272097D02*
D03*
X96000Y234794D02*
D03*
X88126Y223868D02*
D03*
X85961Y244833D02*
D03*
X108598Y244932D02*
D03*
X88520Y278495D02*
D03*
X83598Y272097D02*
D03*
X93638D02*
D03*
X89110Y263928D02*
D03*
X62142Y257825D02*
D03*
X53874Y228396D02*
D03*
X47969Y233219D02*
D03*
X61551Y234498D02*
D03*
X73756Y242274D02*
D03*
X38913Y113039D02*
D03*
Y209496D02*
D03*
Y234300D02*
D03*
Y259104D02*
D03*
Y283908D02*
D03*
X49937Y290798D02*
D03*
X74741D02*
D03*
X99545D02*
D03*
X110764Y234300D02*
D03*
Y259104D02*
D03*
Y283908D02*
D03*
X176118Y282333D02*
D03*
X193835D02*
D03*
X213894Y155227D02*
D03*
Y150227D02*
D03*
Y145227D02*
D03*
Y140227D02*
D03*
Y135227D02*
D03*
X183500Y153761D02*
D03*
X166896Y148357D02*
D03*
X170213Y133317D02*
D03*
X178874Y202915D02*
D03*
X190193Y155463D02*
D03*
X187043Y188967D02*
D03*
X186071Y172738D02*
D03*
X183205Y206163D02*
D03*
X180764Y174203D02*
D03*
X163316Y102311D02*
D03*
X188120D02*
D03*
X212924D02*
D03*
X181027Y218750D02*
D03*
Y209400D02*
D03*
X184484Y181749D02*
D03*
X191079Y172738D02*
D03*
Y181349D02*
D03*
X173362Y209400D02*
D03*
X198165Y207394D02*
D03*
X210055Y134184D02*
D03*
X206236Y128888D02*
D03*
X172181Y158514D02*
D03*
X154366Y152353D02*
D03*
X169425Y163632D02*
D03*
X209484Y163829D02*
D03*
X187535Y147097D02*
D03*
X193933Y149853D02*
D03*
X163323Y185482D02*
D03*
X201905Y146408D02*
D03*
X205449Y149853D02*
D03*
X208933Y153199D02*
D03*
X183441Y168494D02*
D03*
X187437Y177412D02*
D03*
X177201Y189420D02*
D03*
Y166388D02*
D03*
X198953D02*
D03*
X200134Y189420D02*
D03*
X216669Y176172D02*
D03*
X200134Y179518D02*
D03*
X160468Y173416D02*
D03*
X177201Y176368D02*
D03*
X206932Y161861D02*
D03*
X214799Y196703D02*
D03*
X221000Y133987D02*
D03*
X187634Y121506D02*
D03*
X221000Y161270D02*
D03*
X221000Y113039D02*
D03*
X149150Y135874D02*
D03*
X188120Y133317D02*
D03*
X163323Y209496D02*
D03*
X191768Y219046D02*
D03*
X221000Y185482D02*
D03*
X155154Y196703D02*
D03*
X178874Y133317D02*
D03*
X180350Y115798D02*
D03*
X149150Y160678D02*
D03*
X198165Y216093D02*
D03*
X172181Y121506D02*
D03*
X221000Y209496D02*
D03*
X149150Y185482D02*
D03*
X164110Y237943D02*
D03*
X208303Y256644D02*
D03*
X160173Y259104D02*
D03*
X188913Y252510D02*
D03*
X192063Y235876D02*
D03*
X187634Y232727D02*
D03*
X197181Y230660D02*
D03*
X195213Y234203D02*
D03*
X193638Y242274D02*
D03*
X173264Y229085D02*
D03*
X176118Y272097D02*
D03*
X206236Y234794D02*
D03*
X198362Y223868D02*
D03*
X196197Y244833D02*
D03*
X218835Y244932D02*
D03*
X198756Y278495D02*
D03*
X193835Y272097D02*
D03*
X203874D02*
D03*
X199346Y263928D02*
D03*
X172378Y257825D02*
D03*
X164110Y228396D02*
D03*
X158205Y233219D02*
D03*
X171787Y234498D02*
D03*
X183992Y242274D02*
D03*
X149150Y113039D02*
D03*
Y209496D02*
D03*
Y234300D02*
D03*
Y259104D02*
D03*
Y283908D02*
D03*
X160173Y290798D02*
D03*
X184977D02*
D03*
X209781D02*
D03*
X221000Y234300D02*
D03*
Y259104D02*
D03*
Y283908D02*
D03*
X286354Y282333D02*
D03*
X304071D02*
D03*
X324130Y155227D02*
D03*
Y150227D02*
D03*
Y145227D02*
D03*
Y140227D02*
D03*
Y135227D02*
D03*
X293736Y153761D02*
D03*
X277132Y148357D02*
D03*
X280449Y133317D02*
D03*
X289110Y202915D02*
D03*
X300429Y155463D02*
D03*
X297280Y188967D02*
D03*
X296307Y172738D02*
D03*
X293441Y206163D02*
D03*
X291000Y174203D02*
D03*
X273553Y102311D02*
D03*
X298357D02*
D03*
X323160D02*
D03*
X291264Y218750D02*
D03*
Y209400D02*
D03*
X294720Y181749D02*
D03*
X301315Y172738D02*
D03*
Y181349D02*
D03*
X283598Y209400D02*
D03*
X308401Y207394D02*
D03*
X320291Y134184D02*
D03*
X316472Y128888D02*
D03*
X282417Y158514D02*
D03*
X264602Y152353D02*
D03*
X279661Y163632D02*
D03*
X319720Y163829D02*
D03*
X297772Y147097D02*
D03*
X304169Y149853D02*
D03*
X273559Y185482D02*
D03*
X312142Y146408D02*
D03*
X315685Y149853D02*
D03*
X319169Y153199D02*
D03*
X293677Y168494D02*
D03*
X297673Y177412D02*
D03*
X287437Y189420D02*
D03*
Y166388D02*
D03*
X309189D02*
D03*
X310370Y189420D02*
D03*
X326905Y176172D02*
D03*
X310370Y179518D02*
D03*
X270705Y173416D02*
D03*
X287437Y176368D02*
D03*
X317168Y161861D02*
D03*
X325035Y196703D02*
D03*
X331236Y133987D02*
D03*
X297870Y121506D02*
D03*
X331236Y161270D02*
D03*
X331236Y113039D02*
D03*
X259386Y135874D02*
D03*
X298357Y133317D02*
D03*
X273559Y209496D02*
D03*
X302004Y219046D02*
D03*
X331236Y185482D02*
D03*
X265390Y196703D02*
D03*
X289110Y133317D02*
D03*
X290587Y115798D02*
D03*
X259386Y160678D02*
D03*
X308401Y216093D02*
D03*
X282417Y121506D02*
D03*
X331236Y209496D02*
D03*
X259386Y185482D02*
D03*
X274346Y237943D02*
D03*
X318539Y256644D02*
D03*
X270409Y259104D02*
D03*
X299150Y252510D02*
D03*
X302299Y235876D02*
D03*
X297870Y232727D02*
D03*
X307417Y230660D02*
D03*
X305449Y234203D02*
D03*
X303874Y242274D02*
D03*
X283500Y229085D02*
D03*
X286354Y272097D02*
D03*
X316472Y234794D02*
D03*
X308598Y223868D02*
D03*
X306433Y244833D02*
D03*
X329071Y244932D02*
D03*
X308992Y278495D02*
D03*
X304071Y272097D02*
D03*
X314110D02*
D03*
X309583Y263928D02*
D03*
X282614Y257825D02*
D03*
X274346Y228396D02*
D03*
X268441Y233219D02*
D03*
X282024Y234498D02*
D03*
X294228Y242274D02*
D03*
X259386Y113039D02*
D03*
Y209496D02*
D03*
Y234300D02*
D03*
Y259104D02*
D03*
Y283908D02*
D03*
X270409Y290798D02*
D03*
X295213D02*
D03*
X320017D02*
D03*
X331236Y234300D02*
D03*
Y259104D02*
D03*
Y283908D02*
D03*
X396590Y282333D02*
D03*
X414307D02*
D03*
X434366Y155227D02*
D03*
Y150227D02*
D03*
Y145227D02*
D03*
Y140227D02*
D03*
Y135227D02*
D03*
X403972Y153761D02*
D03*
X387368Y148357D02*
D03*
X390685Y133317D02*
D03*
X399346Y202915D02*
D03*
X410665Y155463D02*
D03*
X407516Y188967D02*
D03*
X406543Y172738D02*
D03*
X403677Y206163D02*
D03*
X401236Y174203D02*
D03*
X383789Y102311D02*
D03*
X408593D02*
D03*
X433397D02*
D03*
X401500Y218750D02*
D03*
Y209400D02*
D03*
X404957Y181749D02*
D03*
X411551Y172738D02*
D03*
Y181349D02*
D03*
X393835Y209400D02*
D03*
X418638Y207394D02*
D03*
X430527Y134184D02*
D03*
X426709Y128888D02*
D03*
X392653Y158514D02*
D03*
X374838Y152353D02*
D03*
X389898Y163632D02*
D03*
X429957Y163829D02*
D03*
X408008Y147097D02*
D03*
X414405Y149853D02*
D03*
X383795Y185482D02*
D03*
X422378Y146408D02*
D03*
X425921Y149853D02*
D03*
X429405Y153199D02*
D03*
X403913Y168494D02*
D03*
X407909Y177412D02*
D03*
X397673Y189420D02*
D03*
Y166388D02*
D03*
X419425D02*
D03*
X420606Y189420D02*
D03*
X437142Y176172D02*
D03*
X420606Y179518D02*
D03*
X380941Y173416D02*
D03*
X397673Y176368D02*
D03*
X427404Y161861D02*
D03*
X435272Y196703D02*
D03*
X441472Y133987D02*
D03*
X408106Y121506D02*
D03*
X441472Y161270D02*
D03*
X441472Y113039D02*
D03*
X369622Y135874D02*
D03*
X408593Y133317D02*
D03*
X383795Y209496D02*
D03*
X412240Y219046D02*
D03*
X441472Y185482D02*
D03*
X375626Y196703D02*
D03*
X399346Y133317D02*
D03*
X400823Y115798D02*
D03*
X369622Y160678D02*
D03*
X418638Y216093D02*
D03*
X392653Y121506D02*
D03*
X441472Y209496D02*
D03*
X369622Y185482D02*
D03*
X384583Y237943D02*
D03*
X428776Y256644D02*
D03*
X380646Y259104D02*
D03*
X409386Y252510D02*
D03*
X412535Y235876D02*
D03*
X408106Y232727D02*
D03*
X417654Y230660D02*
D03*
X415685Y234203D02*
D03*
X414110Y242274D02*
D03*
X393736Y229085D02*
D03*
X396590Y272097D02*
D03*
X426709Y234794D02*
D03*
X418835Y223868D02*
D03*
X416669Y244833D02*
D03*
X439307Y244932D02*
D03*
X419228Y278495D02*
D03*
X414307Y272097D02*
D03*
X424346D02*
D03*
X419819Y263928D02*
D03*
X392850Y257825D02*
D03*
X384583Y228396D02*
D03*
X378677Y233219D02*
D03*
X392260Y234498D02*
D03*
X404464Y242274D02*
D03*
X369622Y113039D02*
D03*
Y209496D02*
D03*
Y234300D02*
D03*
Y259104D02*
D03*
Y283908D02*
D03*
X380645Y290798D02*
D03*
X405449D02*
D03*
X430253D02*
D03*
X441472Y234300D02*
D03*
Y259104D02*
D03*
Y283908D02*
D03*
X506827Y282333D02*
D03*
X524543D02*
D03*
X544602Y155227D02*
D03*
Y150227D02*
D03*
Y145227D02*
D03*
Y140227D02*
D03*
Y135227D02*
D03*
X514209Y153761D02*
D03*
X497605Y148357D02*
D03*
X500921Y133317D02*
D03*
X509583Y202915D02*
D03*
X520901Y155463D02*
D03*
X517752Y188967D02*
D03*
X516779Y172738D02*
D03*
X513913Y206163D02*
D03*
X511472Y174203D02*
D03*
X494025Y102311D02*
D03*
X518829D02*
D03*
X543633D02*
D03*
X511736Y218750D02*
D03*
Y209400D02*
D03*
X515193Y181749D02*
D03*
X521787Y172738D02*
D03*
Y181349D02*
D03*
X504071Y209400D02*
D03*
X528874Y207394D02*
D03*
X540764Y134184D02*
D03*
X536945Y128888D02*
D03*
X502890Y158514D02*
D03*
X485075Y152353D02*
D03*
X500134Y163632D02*
D03*
X540193Y163829D02*
D03*
X518244Y147097D02*
D03*
X524642Y149853D02*
D03*
X494031Y185482D02*
D03*
X532614Y146408D02*
D03*
X536157Y149853D02*
D03*
X539642Y153199D02*
D03*
X514150Y168494D02*
D03*
X518146Y177412D02*
D03*
X507909Y189420D02*
D03*
Y166388D02*
D03*
X529661D02*
D03*
X530842Y189420D02*
D03*
X547378Y176172D02*
D03*
X530842Y179518D02*
D03*
X491177Y173416D02*
D03*
X507909Y176368D02*
D03*
X537641Y161861D02*
D03*
X545508Y196703D02*
D03*
X551709Y133987D02*
D03*
X518342Y121506D02*
D03*
X551709Y161270D02*
D03*
X551709Y113039D02*
D03*
X479858Y135874D02*
D03*
X518829Y133317D02*
D03*
X494031Y209496D02*
D03*
X522476Y219046D02*
D03*
X551709Y185482D02*
D03*
X485862Y196703D02*
D03*
X509583Y133317D02*
D03*
X511059Y115798D02*
D03*
X479858Y160678D02*
D03*
X528874Y216093D02*
D03*
X502890Y121506D02*
D03*
X551709Y209496D02*
D03*
X479858Y185482D02*
D03*
X494819Y237943D02*
D03*
X539012Y256644D02*
D03*
X490882Y259104D02*
D03*
X519622Y252510D02*
D03*
X522772Y235876D02*
D03*
X518342Y232727D02*
D03*
X527890Y230660D02*
D03*
X525921Y234203D02*
D03*
X524346Y242274D02*
D03*
X503972Y229085D02*
D03*
X506827Y272097D02*
D03*
X536945Y234794D02*
D03*
X529071Y223868D02*
D03*
X526905Y244833D02*
D03*
X549543Y244932D02*
D03*
X529464Y278495D02*
D03*
X524543Y272097D02*
D03*
X534583D02*
D03*
X530055Y263928D02*
D03*
X503087Y257825D02*
D03*
X494819Y228396D02*
D03*
X488913Y233219D02*
D03*
X502496Y234498D02*
D03*
X514701Y242274D02*
D03*
X479858Y113039D02*
D03*
Y209496D02*
D03*
Y234300D02*
D03*
Y259104D02*
D03*
Y283908D02*
D03*
X490882Y290798D02*
D03*
X515686D02*
D03*
X540489D02*
D03*
X551709Y234300D02*
D03*
Y259104D02*
D03*
Y283908D02*
D03*
D29*
X51906Y282333D02*
D03*
X97575D02*
D03*
X162142D02*
D03*
X207811D02*
D03*
X272378D02*
D03*
X318047D02*
D03*
X382614D02*
D03*
X428283D02*
D03*
X492850D02*
D03*
X538520D02*
D03*
D30*
X94819Y108022D02*
D03*
X205055D02*
D03*
X315291D02*
D03*
X425527D02*
D03*
X535764D02*
D03*
D31*
X84819D02*
D03*
X74819D02*
D03*
X64819D02*
D03*
X54819D02*
D03*
X195055D02*
D03*
X185055D02*
D03*
X175055D02*
D03*
X165055D02*
D03*
X305291D02*
D03*
X295291D02*
D03*
X285291D02*
D03*
X275291D02*
D03*
X415527D02*
D03*
X405527D02*
D03*
X395528D02*
D03*
X385527D02*
D03*
X525764D02*
D03*
X515764D02*
D03*
X505764D02*
D03*
X495764D02*
D03*
D32*
X56660Y143790D02*
D03*
X46689Y179518D02*
D03*
X84819Y143790D02*
D03*
X102299Y161270D02*
D03*
X87732Y201821D02*
D03*
X104169Y256939D02*
D03*
X60567Y264223D02*
D03*
X166896Y143790D02*
D03*
X156925Y179518D02*
D03*
X195055Y143790D02*
D03*
X212535Y161270D02*
D03*
X197968Y201821D02*
D03*
X214405Y256939D02*
D03*
X170803Y264223D02*
D03*
X277132Y143790D02*
D03*
X267161Y179518D02*
D03*
X305291Y143790D02*
D03*
X322772Y161270D02*
D03*
X308205Y201821D02*
D03*
X324642Y256939D02*
D03*
X281039Y264223D02*
D03*
X387368Y143790D02*
D03*
X377398Y179518D02*
D03*
X415527Y143790D02*
D03*
X433008Y161270D02*
D03*
X418441Y201821D02*
D03*
X434878Y256939D02*
D03*
X391276Y264223D02*
D03*
X497605Y143790D02*
D03*
X487634Y179518D02*
D03*
X525764Y143790D02*
D03*
X543244Y161270D02*
D03*
X528677Y201821D02*
D03*
X545114Y256939D02*
D03*
X501512Y264223D02*
D03*
M02*
