G04*
G04 #@! TF.GenerationSoftware,Altium Limited,Altium Designer,21.0.8 (223)*
G04*
G04 Layer_Color=65535*
%FSLAX25Y25*%
%MOIN*%
G70*
G04*
G04 #@! TF.SameCoordinates,FF83F617-0E9F-4FC0-9F70-085B7F74A640*
G04*
G04*
G04 #@! TF.FilePolarity,Positive*
G04*
G01*
G75*
%ADD33C,0.01575*%
%ADD34C,0.00787*%
%ADD35C,0.00394*%
%ADD36C,0.00591*%
%ADD37R,0.02118X0.11417*%
D33*
X84758Y235560D02*
Y236347D01*
Y235560D01*
X85272Y228691D02*
Y229479D01*
Y228691D01*
X78185D02*
Y229479D01*
Y228691D01*
X71098D02*
Y229479D01*
Y228691D01*
X68539Y187392D02*
Y188180D01*
Y187392D01*
X194994Y235560D02*
Y236347D01*
Y235560D01*
X195508Y228691D02*
Y229479D01*
Y228691D01*
X188421D02*
Y229479D01*
Y228691D01*
X181335D02*
Y229479D01*
Y228691D01*
X178776Y187392D02*
Y188180D01*
Y187392D01*
X305231Y235560D02*
Y236347D01*
Y235560D01*
X305744Y228691D02*
Y229479D01*
Y228691D01*
X298657D02*
Y229479D01*
Y228691D01*
X291571D02*
Y229479D01*
Y228691D01*
X289012Y187392D02*
Y188180D01*
Y187392D01*
X415467Y235560D02*
Y236347D01*
Y235560D01*
X415980Y228691D02*
Y229479D01*
Y228691D01*
X408894D02*
Y229479D01*
Y228691D01*
X401807D02*
Y229479D01*
Y228691D01*
X399248Y187392D02*
Y188180D01*
Y187392D01*
X525703Y235560D02*
Y236347D01*
Y235560D01*
X526217Y228691D02*
Y229479D01*
Y228691D01*
X519130D02*
Y229479D01*
Y228691D01*
X512043D02*
Y229479D01*
Y228691D01*
X509484Y187392D02*
Y188180D01*
Y187392D01*
D34*
X46492Y165606D02*
D03*
X156728D02*
D03*
X266965D02*
D03*
X377201D02*
D03*
X487437D02*
D03*
D35*
X72772Y253396D02*
Y233711D01*
Y253396D02*
X86945D01*
Y233711D01*
X72772D02*
X86945D01*
X80260Y229087D02*
X83409D01*
X80260Y222787D02*
X83409D01*
X80260Y229087D02*
Y222787D01*
X83409Y229087D02*
Y222787D01*
X80252Y229059D02*
X83402D01*
X80252Y222760D02*
X83402D01*
X80252Y229059D02*
Y222760D01*
X83402Y229059D02*
Y222760D01*
X73173Y229087D02*
X76323D01*
X73173Y222787D02*
X76323D01*
X73173Y229087D02*
Y222787D01*
X76323Y229087D02*
Y222787D01*
X73166Y229059D02*
X76315D01*
X73166Y222760D02*
X76315D01*
X73166Y229059D02*
Y222760D01*
X76315Y229059D02*
Y222760D01*
X66086Y229087D02*
X69236D01*
X66086Y222787D02*
X69236D01*
X66086Y229087D02*
Y222787D01*
X69236Y229087D02*
Y222787D01*
X66079Y229059D02*
X69229D01*
X66079Y222760D02*
X69229D01*
X66079Y229059D02*
Y222760D01*
X69229Y229059D02*
Y222760D01*
X51118Y293160D02*
Y278396D01*
Y293160D02*
X98362D01*
Y278396D01*
X51118D02*
X98362D01*
X101157Y132727D02*
X112657D01*
X101157Y157727D02*
X112657D01*
Y132727D01*
X101157Y157727D02*
Y132727D01*
X65980Y165542D02*
X90783D01*
Y190345D02*
Y165542D01*
X65980Y190345D02*
Y165542D01*
Y190345D02*
X90783D01*
X76709Y200246D02*
X83008D01*
X76709Y203396D02*
Y200246D01*
Y203396D02*
X83008D01*
Y200246D01*
X69563Y115798D02*
X85311D01*
Y127215D02*
Y115798D01*
X69563Y127215D02*
Y115798D01*
Y127215D02*
X85311D01*
X48461Y157274D02*
X56335D01*
Y167116D02*
Y157274D01*
X48461Y167116D02*
Y157274D01*
Y167116D02*
X56335D01*
X56039Y179616D02*
Y173317D01*
X52890D02*
X56039D01*
X52890Y179616D02*
X56039D01*
X52890D02*
Y173317D01*
X48756Y150778D02*
X55055D01*
X48756Y153928D02*
X55055D01*
Y150778D01*
X48756Y153928D02*
Y150778D01*
X45311Y165739D02*
Y159439D01*
X42161D02*
X45311D01*
X42161Y165739D02*
X45311D01*
X42161D02*
Y159439D01*
X100724Y169971D02*
X103874D01*
X100724Y176270D02*
X103874D01*
Y169971D01*
X100724Y176270D02*
Y169971D01*
X72713Y136467D02*
Y130168D01*
X85311Y136467D02*
Y130168D01*
X72713Y136467D02*
X85311D01*
X72713Y130168D02*
X85311D01*
X57024Y245325D02*
Y232727D01*
X50724Y245325D02*
Y232727D01*
Y245325D02*
X57024D01*
X50724Y232727D02*
X57024D01*
X49819Y103298D02*
X99819D01*
X49819Y112530D02*
X99819D01*
X49819D02*
Y103298D01*
X99819Y112530D02*
Y103298D01*
X64996Y257727D02*
X68146D01*
X64996Y264026D02*
X68146D01*
Y257727D01*
X64996Y264026D02*
Y257727D01*
X97969Y246506D02*
X104268D01*
X97969Y243357D02*
X104268D01*
Y246506D02*
Y243357D01*
X97969Y246506D02*
Y243357D01*
Y249557D02*
X104268D01*
X97969Y252707D02*
X104268D01*
X97969D02*
Y249557D01*
X104268Y252707D02*
Y249557D01*
X92161Y230660D02*
X98461D01*
X92161Y227510D02*
X98461D01*
Y230660D02*
Y227510D01*
X92161Y230660D02*
Y227510D01*
Y224164D02*
X98461D01*
X92161Y221014D02*
X98461D01*
Y224164D02*
Y221014D01*
X92161Y224164D02*
Y221014D01*
X84878Y259400D02*
Y256250D01*
X78579Y259400D02*
Y256250D01*
Y259400D02*
X84878D01*
X78579Y256250D02*
X84878D01*
X78579Y262353D02*
X84878D01*
X78579Y265502D02*
X84878D01*
X78579D02*
Y262353D01*
X84878Y265502D02*
Y262353D01*
X71098Y257727D02*
X74248D01*
X71098Y264026D02*
X74248D01*
Y257727D01*
X71098Y264026D02*
Y257727D01*
X92161Y217668D02*
X98461D01*
X92161Y214518D02*
X98461D01*
Y217668D02*
Y214518D01*
X92161Y217668D02*
Y214518D01*
X59976Y244932D02*
Y238632D01*
X63126Y244932D02*
Y238632D01*
X59976Y244932D02*
X63126D01*
X59976Y238632D02*
X63126D01*
X183008Y253396D02*
Y233711D01*
Y253396D02*
X197181D01*
Y233711D01*
X183008D02*
X197181D01*
X190496Y229087D02*
X193645D01*
X190496Y222787D02*
X193645D01*
X190496Y229087D02*
Y222787D01*
X193645Y229087D02*
Y222787D01*
X190489Y229059D02*
X193638D01*
X190489Y222760D02*
X193638D01*
X190489Y229059D02*
Y222760D01*
X193638Y229059D02*
Y222760D01*
X183409Y229087D02*
X186559D01*
X183409Y222787D02*
X186559D01*
X183409Y229087D02*
Y222787D01*
X186559Y229087D02*
Y222787D01*
X183402Y229059D02*
X186552D01*
X183402Y222760D02*
X186552D01*
X183402Y229059D02*
Y222760D01*
X186552Y229059D02*
Y222760D01*
X176322Y229087D02*
X179472D01*
X176322Y222787D02*
X179472D01*
X176322Y229087D02*
Y222787D01*
X179472Y229087D02*
Y222787D01*
X176315Y229059D02*
X179465D01*
X176315Y222760D02*
X179465D01*
X176315Y229059D02*
Y222760D01*
X179465Y229059D02*
Y222760D01*
X161354Y293160D02*
Y278396D01*
Y293160D02*
X208598D01*
Y278396D01*
X161354D02*
X208598D01*
X211394Y132727D02*
X222894D01*
X211394Y157727D02*
X222894D01*
Y132727D01*
X211394Y157727D02*
Y132727D01*
X176216Y165542D02*
X201020D01*
Y190345D02*
Y165542D01*
X176216Y190345D02*
Y165542D01*
Y190345D02*
X201020D01*
X186945Y200246D02*
X193244D01*
X186945Y203396D02*
Y200246D01*
Y203396D02*
X193244D01*
Y200246D01*
X179799Y115798D02*
X195547D01*
Y127215D02*
Y115798D01*
X179799Y127215D02*
Y115798D01*
Y127215D02*
X195547D01*
X158697Y157274D02*
X166571D01*
Y167116D02*
Y157274D01*
X158697Y167116D02*
Y157274D01*
Y167116D02*
X166571D01*
X166276Y179616D02*
Y173317D01*
X163126D02*
X166276D01*
X163126Y179616D02*
X166276D01*
X163126D02*
Y173317D01*
X158992Y150778D02*
X165291D01*
X158992Y153928D02*
X165291D01*
Y150778D01*
X158992Y153928D02*
Y150778D01*
X155547Y165739D02*
Y159439D01*
X152398D02*
X155547D01*
X152398Y165739D02*
X155547D01*
X152398D02*
Y159439D01*
X210961Y169971D02*
X214110D01*
X210961Y176270D02*
X214110D01*
Y169971D01*
X210961Y176270D02*
Y169971D01*
X182949Y136467D02*
Y130168D01*
X195547Y136467D02*
Y130168D01*
X182949Y136467D02*
X195547D01*
X182949Y130168D02*
X195547D01*
X167260Y245325D02*
Y232727D01*
X160961Y245325D02*
Y232727D01*
Y245325D02*
X167260D01*
X160961Y232727D02*
X167260D01*
X160055Y103298D02*
X210055D01*
X160055Y112530D02*
X210055D01*
X160055D02*
Y103298D01*
X210055Y112530D02*
Y103298D01*
X175232Y257727D02*
X178382D01*
X175232Y264026D02*
X178382D01*
Y257727D01*
X175232Y264026D02*
Y257727D01*
X208205Y246506D02*
X214504D01*
X208205Y243357D02*
X214504D01*
Y246506D02*
Y243357D01*
X208205Y246506D02*
Y243357D01*
Y249557D02*
X214504D01*
X208205Y252707D02*
X214504D01*
X208205D02*
Y249557D01*
X214504Y252707D02*
Y249557D01*
X202398Y230660D02*
X208697D01*
X202398Y227510D02*
X208697D01*
Y230660D02*
Y227510D01*
X202398Y230660D02*
Y227510D01*
Y224164D02*
X208697D01*
X202398Y221014D02*
X208697D01*
Y224164D02*
Y221014D01*
X202398Y224164D02*
Y221014D01*
X195114Y259400D02*
Y256250D01*
X188815Y259400D02*
Y256250D01*
Y259400D02*
X195114D01*
X188815Y256250D02*
X195114D01*
X188815Y262353D02*
X195114D01*
X188815Y265502D02*
X195114D01*
X188815D02*
Y262353D01*
X195114Y265502D02*
Y262353D01*
X181335Y257727D02*
X184484D01*
X181335Y264026D02*
X184484D01*
Y257727D01*
X181335Y264026D02*
Y257727D01*
X202398Y217668D02*
X208697D01*
X202398Y214518D02*
X208697D01*
Y217668D02*
Y214518D01*
X202398Y217668D02*
Y214518D01*
X170213Y244932D02*
Y238632D01*
X173362Y244932D02*
Y238632D01*
X170213Y244932D02*
X173362D01*
X170213Y238632D02*
X173362D01*
X293244Y253396D02*
Y233711D01*
Y253396D02*
X307417D01*
Y233711D01*
X293244D02*
X307417D01*
X300732Y229087D02*
X303882D01*
X300732Y222787D02*
X303882D01*
X300732Y229087D02*
Y222787D01*
X303882Y229087D02*
Y222787D01*
X300725Y229059D02*
X303874D01*
X300725Y222760D02*
X303874D01*
X300725Y229059D02*
Y222760D01*
X303874Y229059D02*
Y222760D01*
X293645Y229087D02*
X296795D01*
X293645Y222787D02*
X296795D01*
X293645Y229087D02*
Y222787D01*
X296795Y229087D02*
Y222787D01*
X293638Y229059D02*
X296788D01*
X293638Y222760D02*
X296788D01*
X293638Y229059D02*
Y222760D01*
X296788Y229059D02*
Y222760D01*
X286559Y229087D02*
X289708D01*
X286559Y222787D02*
X289708D01*
X286559Y229087D02*
Y222787D01*
X289708Y229087D02*
Y222787D01*
X286552Y229059D02*
X289701D01*
X286552Y222760D02*
X289701D01*
X286552Y229059D02*
Y222760D01*
X289701Y229059D02*
Y222760D01*
X271590Y293160D02*
Y278396D01*
Y293160D02*
X318835D01*
Y278396D01*
X271590D02*
X318835D01*
X321630Y132727D02*
X333130D01*
X321630Y157727D02*
X333130D01*
Y132727D01*
X321630Y157727D02*
Y132727D01*
X286453Y165542D02*
X311256D01*
Y190345D02*
Y165542D01*
X286453Y190345D02*
Y165542D01*
Y190345D02*
X311256D01*
X297181Y200246D02*
X303480D01*
X297181Y203396D02*
Y200246D01*
Y203396D02*
X303480D01*
Y200246D01*
X290035Y115798D02*
X305783D01*
Y127215D02*
Y115798D01*
X290035Y127215D02*
Y115798D01*
Y127215D02*
X305783D01*
X268933Y157274D02*
X276807D01*
Y167116D02*
Y157274D01*
X268933Y167116D02*
Y157274D01*
Y167116D02*
X276807D01*
X276512Y179616D02*
Y173317D01*
X273362D02*
X276512D01*
X273362Y179616D02*
X276512D01*
X273362D02*
Y173317D01*
X269228Y150778D02*
X275528D01*
X269228Y153928D02*
X275528D01*
Y150778D01*
X269228Y153928D02*
Y150778D01*
X265783Y165739D02*
Y159439D01*
X262634D02*
X265783D01*
X262634Y165739D02*
X265783D01*
X262634D02*
Y159439D01*
X321197Y169971D02*
X324346D01*
X321197Y176270D02*
X324346D01*
Y169971D01*
X321197Y176270D02*
Y169971D01*
X293185Y136467D02*
Y130168D01*
X305783Y136467D02*
Y130168D01*
X293185Y136467D02*
X305783D01*
X293185Y130168D02*
X305783D01*
X277496Y245325D02*
Y232727D01*
X271197Y245325D02*
Y232727D01*
Y245325D02*
X277496D01*
X271197Y232727D02*
X277496D01*
X270291Y103298D02*
X320291D01*
X270291Y112530D02*
X320291D01*
X270291D02*
Y103298D01*
X320291Y112530D02*
Y103298D01*
X285469Y257727D02*
X288618D01*
X285469Y264026D02*
X288618D01*
Y257727D01*
X285469Y264026D02*
Y257727D01*
X318441Y246506D02*
X324740D01*
X318441Y243357D02*
X324740D01*
Y246506D02*
Y243357D01*
X318441Y246506D02*
Y243357D01*
Y249557D02*
X324740D01*
X318441Y252707D02*
X324740D01*
X318441D02*
Y249557D01*
X324740Y252707D02*
Y249557D01*
X312634Y230660D02*
X318933D01*
X312634Y227510D02*
X318933D01*
Y230660D02*
Y227510D01*
X312634Y230660D02*
Y227510D01*
Y224164D02*
X318933D01*
X312634Y221014D02*
X318933D01*
Y224164D02*
Y221014D01*
X312634Y224164D02*
Y221014D01*
X305350Y259400D02*
Y256250D01*
X299051Y259400D02*
Y256250D01*
Y259400D02*
X305350D01*
X299051Y256250D02*
X305350D01*
X299051Y262353D02*
X305350D01*
X299051Y265502D02*
X305350D01*
X299051D02*
Y262353D01*
X305350Y265502D02*
Y262353D01*
X291571Y257727D02*
X294720D01*
X291571Y264026D02*
X294720D01*
Y257727D01*
X291571Y264026D02*
Y257727D01*
X312634Y217668D02*
X318933D01*
X312634Y214518D02*
X318933D01*
Y217668D02*
Y214518D01*
X312634Y217668D02*
Y214518D01*
X280449Y244932D02*
Y238632D01*
X283598Y244932D02*
Y238632D01*
X280449Y244932D02*
X283598D01*
X280449Y238632D02*
X283598D01*
X403480Y253396D02*
Y233711D01*
Y253396D02*
X417654D01*
Y233711D01*
X403480D02*
X417654D01*
X410968Y229087D02*
X414118D01*
X410968Y222787D02*
X414118D01*
X410968Y229087D02*
Y222787D01*
X414118Y229087D02*
Y222787D01*
X410961Y229059D02*
X414111D01*
X410961Y222760D02*
X414111D01*
X410961Y229059D02*
Y222760D01*
X414111Y229059D02*
Y222760D01*
X403882Y229087D02*
X407031D01*
X403882Y222787D02*
X407031D01*
X403882Y229087D02*
Y222787D01*
X407031Y229087D02*
Y222787D01*
X403874Y229059D02*
X407024D01*
X403874Y222760D02*
X407024D01*
X403874Y229059D02*
Y222760D01*
X407024Y229059D02*
Y222760D01*
X396795Y229087D02*
X399945D01*
X396795Y222787D02*
X399945D01*
X396795Y229087D02*
Y222787D01*
X399945Y229087D02*
Y222787D01*
X396788Y229059D02*
X399938D01*
X396788Y222760D02*
X399938D01*
X396788Y229059D02*
Y222760D01*
X399938Y229059D02*
Y222760D01*
X381827Y293160D02*
Y278396D01*
Y293160D02*
X429071D01*
Y278396D01*
X381827D02*
X429071D01*
X431866Y132727D02*
X443366D01*
X431866Y157727D02*
X443366D01*
Y132727D01*
X431866Y157727D02*
Y132727D01*
X396689Y165542D02*
X421492D01*
Y190345D02*
Y165542D01*
X396689Y190345D02*
Y165542D01*
Y190345D02*
X421492D01*
X407417Y200246D02*
X413717D01*
X407417Y203396D02*
Y200246D01*
Y203396D02*
X413717D01*
Y200246D01*
X400272Y115798D02*
X416020D01*
Y127215D02*
Y115798D01*
X400272Y127215D02*
Y115798D01*
Y127215D02*
X416020D01*
X379169Y157274D02*
X387043D01*
Y167116D02*
Y157274D01*
X379169Y167116D02*
Y157274D01*
Y167116D02*
X387043D01*
X386748Y179616D02*
Y173317D01*
X383598D02*
X386748D01*
X383598Y179616D02*
X386748D01*
X383598D02*
Y173317D01*
X379465Y150778D02*
X385764D01*
X379465Y153928D02*
X385764D01*
Y150778D01*
X379465Y153928D02*
Y150778D01*
X376020Y165739D02*
Y159439D01*
X372870D02*
X376020D01*
X372870Y165739D02*
X376020D01*
X372870D02*
Y159439D01*
X431433Y169971D02*
X434583D01*
X431433Y176270D02*
X434583D01*
Y169971D01*
X431433Y176270D02*
Y169971D01*
X403421Y136467D02*
Y130168D01*
X416020Y136467D02*
Y130168D01*
X403421Y136467D02*
X416020D01*
X403421Y130168D02*
X416020D01*
X387732Y245325D02*
Y232727D01*
X381433Y245325D02*
Y232727D01*
Y245325D02*
X387732D01*
X381433Y232727D02*
X387732D01*
X380527Y103298D02*
X430527D01*
X380527Y112530D02*
X430527D01*
X380527D02*
Y103298D01*
X430527Y112530D02*
Y103298D01*
X395705Y257727D02*
X398854D01*
X395705Y264026D02*
X398854D01*
Y257727D01*
X395705Y264026D02*
Y257727D01*
X428677Y246506D02*
X434976D01*
X428677Y243357D02*
X434976D01*
Y246506D02*
Y243357D01*
X428677Y246506D02*
Y243357D01*
Y249557D02*
X434976D01*
X428677Y252707D02*
X434976D01*
X428677D02*
Y249557D01*
X434976Y252707D02*
Y249557D01*
X422870Y230660D02*
X429169D01*
X422870Y227510D02*
X429169D01*
Y230660D02*
Y227510D01*
X422870Y230660D02*
Y227510D01*
Y224164D02*
X429169D01*
X422870Y221014D02*
X429169D01*
Y224164D02*
Y221014D01*
X422870Y224164D02*
Y221014D01*
X415587Y259400D02*
Y256250D01*
X409287Y259400D02*
Y256250D01*
Y259400D02*
X415587D01*
X409287Y256250D02*
X415587D01*
X409287Y262353D02*
X415587D01*
X409287Y265502D02*
X415587D01*
X409287D02*
Y262353D01*
X415587Y265502D02*
Y262353D01*
X401807Y257727D02*
X404957D01*
X401807Y264026D02*
X404957D01*
Y257727D01*
X401807Y264026D02*
Y257727D01*
X422870Y217668D02*
X429169D01*
X422870Y214518D02*
X429169D01*
Y217668D02*
Y214518D01*
X422870Y217668D02*
Y214518D01*
X390685Y244932D02*
Y238632D01*
X393835Y244932D02*
Y238632D01*
X390685Y244932D02*
X393835D01*
X390685Y238632D02*
X393835D01*
X513717Y253396D02*
Y233711D01*
Y253396D02*
X527890D01*
Y233711D01*
X513717D02*
X527890D01*
X521204Y229087D02*
X524354D01*
X521204Y222787D02*
X524354D01*
X521204Y229087D02*
Y222787D01*
X524354Y229087D02*
Y222787D01*
X521197Y229059D02*
X524347D01*
X521197Y222760D02*
X524347D01*
X521197Y229059D02*
Y222760D01*
X524347Y229059D02*
Y222760D01*
X514118Y229087D02*
X517267D01*
X514118Y222787D02*
X517267D01*
X514118Y229087D02*
Y222787D01*
X517267Y229087D02*
Y222787D01*
X514111Y229059D02*
X517260D01*
X514111Y222760D02*
X517260D01*
X514111Y229059D02*
Y222760D01*
X517260Y229059D02*
Y222760D01*
X507031Y229087D02*
X510181D01*
X507031Y222787D02*
X510181D01*
X507031Y229087D02*
Y222787D01*
X510181Y229087D02*
Y222787D01*
X507024Y229059D02*
X510174D01*
X507024Y222760D02*
X510174D01*
X507024Y229059D02*
Y222760D01*
X510174Y229059D02*
Y222760D01*
X492063Y293160D02*
Y278396D01*
Y293160D02*
X539307D01*
Y278396D01*
X492063D02*
X539307D01*
X542102Y132727D02*
X553602D01*
X542102Y157727D02*
X553602D01*
Y132727D01*
X542102Y157727D02*
Y132727D01*
X506925Y165542D02*
X531728D01*
Y190345D02*
Y165542D01*
X506925Y190345D02*
Y165542D01*
Y190345D02*
X531728D01*
X517654Y200246D02*
X523953D01*
X517654Y203396D02*
Y200246D01*
Y203396D02*
X523953D01*
Y200246D01*
X510508Y115798D02*
X526256D01*
Y127215D02*
Y115798D01*
X510508Y127215D02*
Y115798D01*
Y127215D02*
X526256D01*
X489405Y157274D02*
X497280D01*
Y167116D02*
Y157274D01*
X489405Y167116D02*
Y157274D01*
Y167116D02*
X497280D01*
X496984Y179616D02*
Y173317D01*
X493835D02*
X496984D01*
X493835Y179616D02*
X496984D01*
X493835D02*
Y173317D01*
X489701Y150778D02*
X496000D01*
X489701Y153928D02*
X496000D01*
Y150778D01*
X489701Y153928D02*
Y150778D01*
X486256Y165739D02*
Y159439D01*
X483106D02*
X486256D01*
X483106Y165739D02*
X486256D01*
X483106D02*
Y159439D01*
X541669Y169971D02*
X544819D01*
X541669Y176270D02*
X544819D01*
Y169971D01*
X541669Y176270D02*
Y169971D01*
X513657Y136467D02*
Y130168D01*
X526256Y136467D02*
Y130168D01*
X513657Y136467D02*
X526256D01*
X513657Y130168D02*
X526256D01*
X497968Y245325D02*
Y232727D01*
X491669Y245325D02*
Y232727D01*
Y245325D02*
X497968D01*
X491669Y232727D02*
X497968D01*
X490764Y103298D02*
X540764D01*
X490764Y112530D02*
X540764D01*
X490764D02*
Y103298D01*
X540764Y112530D02*
Y103298D01*
X505941Y257727D02*
X509091D01*
X505941Y264026D02*
X509091D01*
Y257727D01*
X505941Y264026D02*
Y257727D01*
X538913Y246506D02*
X545213D01*
X538913Y243357D02*
X545213D01*
Y246506D02*
Y243357D01*
X538913Y246506D02*
Y243357D01*
Y249557D02*
X545213D01*
X538913Y252707D02*
X545213D01*
X538913D02*
Y249557D01*
X545213Y252707D02*
Y249557D01*
X533106Y230660D02*
X539405D01*
X533106Y227510D02*
X539405D01*
Y230660D02*
Y227510D01*
X533106Y230660D02*
Y227510D01*
Y224164D02*
X539405D01*
X533106Y221014D02*
X539405D01*
Y224164D02*
Y221014D01*
X533106Y224164D02*
Y221014D01*
X525823Y259400D02*
Y256250D01*
X519524Y259400D02*
Y256250D01*
Y259400D02*
X525823D01*
X519524Y256250D02*
X525823D01*
X519524Y262353D02*
X525823D01*
X519524Y265502D02*
X525823D01*
X519524D02*
Y262353D01*
X525823Y265502D02*
Y262353D01*
X512043Y257727D02*
X515193D01*
X512043Y264026D02*
X515193D01*
Y257727D01*
X512043Y264026D02*
Y257727D01*
X533106Y217668D02*
X539405D01*
X533106Y214518D02*
X539405D01*
Y217668D02*
Y214518D01*
X533106Y217668D02*
Y214518D01*
X500921Y244932D02*
Y238632D01*
X504071Y244932D02*
Y238632D01*
X500921Y244932D02*
X504071D01*
X500921Y238632D02*
X504071D01*
D36*
X42259Y281939D02*
X41734D01*
X40685Y280890D01*
X41734Y279840D01*
X42259D01*
X40685Y280890D02*
X39110D01*
X41734Y276692D02*
X42259Y277217D01*
Y278266D01*
X41734Y278791D01*
X39635D01*
X39110Y278266D01*
Y277217D01*
X39635Y276692D01*
X40685D01*
Y277741D01*
X39110Y275642D02*
X42259D01*
X39110Y273543D01*
X42259D01*
X40685Y269345D02*
Y267246D01*
X41734Y260949D02*
X42259Y261473D01*
Y262523D01*
X41734Y263048D01*
X41209D01*
X40685Y262523D01*
Y261473D01*
X40160Y260949D01*
X39635D01*
X39110Y261473D01*
Y262523D01*
X39635Y263048D01*
X38061Y259899D02*
X41209D01*
Y258325D01*
X40685Y257800D01*
X39635D01*
X39110Y258325D01*
Y259899D01*
Y256751D02*
Y255701D01*
Y256226D01*
X41209D01*
Y256751D01*
X39110Y254127D02*
X41209D01*
Y252553D01*
X40685Y252028D01*
X39110D01*
Y250978D02*
X41209D01*
X42259Y249929D01*
X41209Y248879D01*
X39110D01*
X40685D01*
Y250978D01*
X41734Y245731D02*
X42259Y246255D01*
Y247305D01*
X41734Y247830D01*
X41209D01*
X40685Y247305D01*
Y246255D01*
X40160Y245731D01*
X39635D01*
X39110Y246255D01*
Y247305D01*
X39635Y247830D01*
X39110Y244681D02*
X42259D01*
X41209Y243632D01*
X42259Y242582D01*
X39110D01*
X41209Y238384D02*
X39110Y237334D01*
X41209Y236285D01*
X39110Y235235D02*
Y234186D01*
Y234711D01*
X42259D01*
X41734Y235235D01*
X39110Y232611D02*
X39635D01*
Y232087D01*
X39110D01*
Y232611D01*
Y229988D02*
Y228938D01*
Y229463D01*
X42259D01*
X41734Y229988D01*
X82581Y208711D02*
Y205562D01*
X81006D01*
X80481Y206087D01*
Y207136D01*
X81006Y207661D01*
X82581D01*
X81531D02*
X80481Y208711D01*
X79432Y206087D02*
X78907Y205562D01*
X77858D01*
X77333Y206087D01*
Y206611D01*
X77858Y207136D01*
X77333Y207661D01*
Y208186D01*
X77858Y208711D01*
X78907D01*
X79432Y208186D01*
Y207661D01*
X78907Y207136D01*
X79432Y206611D01*
Y206087D01*
X78907Y207136D02*
X77858D01*
X100074Y150737D02*
Y149687D01*
Y150212D01*
X96926D01*
Y150737D01*
Y149687D01*
X99550Y146014D02*
X100074Y146539D01*
Y147588D01*
X99550Y148113D01*
X97451D01*
X96926Y147588D01*
Y146539D01*
X97451Y146014D01*
X99550Y142865D02*
X100074Y143390D01*
Y144440D01*
X99550Y144964D01*
X99025D01*
X98500Y144440D01*
Y143390D01*
X97975Y142865D01*
X97451D01*
X96926Y143390D01*
Y144440D01*
X97451Y144964D01*
X96926Y141816D02*
X100074D01*
Y140242D01*
X99550Y139717D01*
X98500D01*
X97975Y140242D01*
Y141816D01*
X92194Y132268D02*
X92719Y131743D01*
X93768D01*
X94293Y132268D01*
Y134367D01*
X93768Y134892D01*
X92719D01*
X92194Y134367D01*
X89045Y131743D02*
X91145D01*
Y133317D01*
X90095Y132792D01*
X89570D01*
X89045Y133317D01*
Y134367D01*
X89570Y134892D01*
X90620D01*
X91145Y134367D01*
X96947Y119932D02*
Y123081D01*
X95372D01*
X94848Y122556D01*
Y120457D01*
X95372Y119932D01*
X96947D01*
X92224Y123081D02*
Y119932D01*
X93798Y121506D01*
X91699D01*
X103742Y236171D02*
Y233022D01*
X102168D01*
X101643Y233547D01*
Y234597D01*
X102168Y235122D01*
X103742D01*
X102692D02*
X101643Y236171D01*
X99019D02*
Y233022D01*
X100593Y234597D01*
X98494D01*
X103742Y240896D02*
Y237747D01*
X102168D01*
X101643Y238272D01*
Y239321D01*
X102168Y239846D01*
X103742D01*
X102692D02*
X101643Y240896D01*
X100593Y238272D02*
X100068Y237747D01*
X99019D01*
X98494Y238272D01*
Y238796D01*
X99019Y239321D01*
X99544D01*
X99019D01*
X98494Y239846D01*
Y240371D01*
X99019Y240896D01*
X100068D01*
X100593Y240371D01*
X107285Y230659D02*
Y227511D01*
X105711D01*
X105186Y228035D01*
Y229085D01*
X105711Y229610D01*
X107285D01*
X106236D02*
X105186Y230659D01*
X104137Y227511D02*
X102038D01*
Y228035D01*
X104137Y230135D01*
Y230659D01*
X107285Y224163D02*
Y221015D01*
X105711D01*
X105186Y221539D01*
Y222589D01*
X105711Y223114D01*
X107285D01*
X106236D02*
X105186Y224163D01*
X102038Y221015D02*
X103087Y221539D01*
X104137Y222589D01*
Y223639D01*
X103612Y224163D01*
X102562D01*
X102038Y223639D01*
Y223114D01*
X102562Y222589D01*
X104137D01*
X107285Y217667D02*
Y214519D01*
X105711D01*
X105186Y215043D01*
Y216093D01*
X105711Y216618D01*
X107285D01*
X106236D02*
X105186Y217667D01*
X102038Y214519D02*
X104137D01*
Y216093D01*
X103087Y215568D01*
X102562D01*
X102038Y216093D01*
Y217142D01*
X102562Y217667D01*
X103612D01*
X104137Y217142D01*
X83401Y219110D02*
X80252D01*
Y217536D01*
X80777Y217011D01*
X82876D01*
X83401Y217536D01*
Y219110D01*
X82876Y215962D02*
X83401Y215437D01*
Y214387D01*
X82876Y213863D01*
X82351D01*
X81827Y214387D01*
Y214912D01*
Y214387D01*
X81302Y213863D01*
X80777D01*
X80252Y214387D01*
Y215437D01*
X80777Y215962D01*
X76314Y219110D02*
X73166D01*
Y217536D01*
X73691Y217011D01*
X75790D01*
X76314Y217536D01*
Y219110D01*
X73166Y213863D02*
Y215962D01*
X75265Y213863D01*
X75790D01*
X76314Y214387D01*
Y215437D01*
X75790Y215962D01*
X69228Y219078D02*
X66079D01*
Y217503D01*
X66604Y216979D01*
X68703D01*
X69228Y217503D01*
Y219078D01*
X66079Y215929D02*
Y214880D01*
Y215404D01*
X69228D01*
X68703Y215929D01*
X61452Y162877D02*
X60927D01*
X59878Y161828D01*
X60927Y160778D01*
X61452D01*
X59878Y161828D02*
X58304D01*
Y159728D02*
Y158679D01*
Y159204D01*
X61452D01*
X60927Y159728D01*
X87830Y187916D02*
X85206D01*
X84682Y187392D01*
Y186342D01*
X85206Y185817D01*
X87830D01*
X84682Y184768D02*
Y183718D01*
Y184243D01*
X87830D01*
X87305Y184768D01*
X93899Y259400D02*
Y256251D01*
X92325D01*
X91800Y256776D01*
Y257825D01*
X92325Y258350D01*
X93899D01*
X92850D02*
X91800Y259400D01*
X88652D02*
X90751D01*
X88652Y257300D01*
Y256776D01*
X89176Y256251D01*
X90226D01*
X90751Y256776D01*
X59189Y261597D02*
X62338D01*
Y260023D01*
X61813Y259498D01*
X60764D01*
X60239Y260023D01*
Y261597D01*
Y260548D02*
X59189Y259498D01*
Y258449D02*
Y257399D01*
Y257924D01*
X62338D01*
X61813Y258449D01*
X105448Y280463D02*
Y281512D01*
Y280988D01*
X102824D01*
X102300Y281512D01*
Y282037D01*
X102824Y282562D01*
X102300Y279413D02*
Y278364D01*
Y278889D01*
X105448D01*
X104923Y279413D01*
X83663Y242078D02*
X82613D01*
X83138D01*
Y245226D01*
X83663D01*
X82613D01*
X78940Y242602D02*
X79465Y242078D01*
X80514D01*
X81039Y242602D01*
Y244702D01*
X80514Y245226D01*
X79465D01*
X78940Y244702D01*
X77890Y245226D02*
X76841D01*
X77366D01*
Y242078D01*
X77890Y242602D01*
X62174Y151303D02*
X62699Y150778D01*
X63749D01*
X64273Y151303D01*
Y153402D01*
X63749Y153927D01*
X62699D01*
X62174Y153402D01*
X61125D02*
X60600Y153927D01*
X59550D01*
X59026Y153402D01*
Y151303D01*
X59550Y150778D01*
X60600D01*
X61125Y151303D01*
Y151828D01*
X60600Y152353D01*
X59026D01*
X44786Y172818D02*
X45311Y173343D01*
Y174393D01*
X44786Y174917D01*
X42687D01*
X42162Y174393D01*
Y173343D01*
X42687Y172818D01*
X44786Y171769D02*
X45311Y171244D01*
Y170195D01*
X44786Y169670D01*
X44261D01*
X43736Y170195D01*
X43211Y169670D01*
X42687D01*
X42162Y170195D01*
Y171244D01*
X42687Y171769D01*
X43211D01*
X43736Y171244D01*
X44261Y171769D01*
X44786D01*
X43736Y171244D02*
Y170195D01*
X103349Y183193D02*
X103874Y183717D01*
Y184767D01*
X103349Y185292D01*
X101250D01*
X100725Y184767D01*
Y183717D01*
X101250Y183193D01*
X103874Y182143D02*
Y180044D01*
X103349D01*
X101250Y182143D01*
X100725D01*
X55514Y186342D02*
X56039Y186867D01*
Y187916D01*
X55514Y188441D01*
X53415D01*
X52890Y187916D01*
Y186867D01*
X53415Y186342D01*
X56039Y183194D02*
X55514Y184243D01*
X54465Y185292D01*
X53415D01*
X52890Y184768D01*
Y183718D01*
X53415Y183194D01*
X53940D01*
X54465Y183718D01*
Y185292D01*
X91800Y262878D02*
X92325Y262353D01*
X93375D01*
X93899Y262878D01*
Y264977D01*
X93375Y265502D01*
X92325D01*
X91800Y264977D01*
X89176Y265502D02*
Y262353D01*
X90751Y263928D01*
X88652D01*
X56498Y259925D02*
X57023Y260450D01*
Y261499D01*
X56498Y262024D01*
X54399D01*
X53874Y261499D01*
Y260450D01*
X54399Y259925D01*
X56498Y258875D02*
X57023Y258350D01*
Y257301D01*
X56498Y256776D01*
X55974D01*
X55449Y257301D01*
Y257826D01*
Y257301D01*
X54924Y256776D01*
X54399D01*
X53874Y257301D01*
Y258350D01*
X54399Y258875D01*
X55022Y227510D02*
X55547Y228035D01*
Y229084D01*
X55022Y229609D01*
X52923D01*
X52398Y229084D01*
Y228035D01*
X52923Y227510D01*
X52398Y226461D02*
Y225411D01*
Y225936D01*
X55547D01*
X55022Y226461D01*
X62601Y233448D02*
X63125Y233973D01*
Y235023D01*
X62601Y235547D01*
X60502D01*
X59977Y235023D01*
Y233973D01*
X60502Y233448D01*
X59977Y230300D02*
Y232399D01*
X62076Y230300D01*
X62601D01*
X63125Y230824D01*
Y231874D01*
X62601Y232399D01*
X152495Y281939D02*
X151970D01*
X150921Y280890D01*
X151970Y279840D01*
X152495D01*
X150921Y280890D02*
X149346D01*
X151970Y276692D02*
X152495Y277217D01*
Y278266D01*
X151970Y278791D01*
X149871D01*
X149346Y278266D01*
Y277217D01*
X149871Y276692D01*
X150921D01*
Y277741D01*
X149346Y275642D02*
X152495D01*
X149346Y273543D01*
X152495D01*
X150921Y269345D02*
Y267246D01*
X151970Y260949D02*
X152495Y261473D01*
Y262523D01*
X151970Y263048D01*
X151445D01*
X150921Y262523D01*
Y261473D01*
X150396Y260949D01*
X149871D01*
X149346Y261473D01*
Y262523D01*
X149871Y263048D01*
X148297Y259899D02*
X151445D01*
Y258325D01*
X150921Y257800D01*
X149871D01*
X149346Y258325D01*
Y259899D01*
Y256751D02*
Y255701D01*
Y256226D01*
X151445D01*
Y256751D01*
X149346Y254127D02*
X151445D01*
Y252553D01*
X150921Y252028D01*
X149346D01*
Y250978D02*
X151445D01*
X152495Y249929D01*
X151445Y248879D01*
X149346D01*
X150921D01*
Y250978D01*
X151970Y245731D02*
X152495Y246255D01*
Y247305D01*
X151970Y247830D01*
X151445D01*
X150921Y247305D01*
Y246255D01*
X150396Y245731D01*
X149871D01*
X149346Y246255D01*
Y247305D01*
X149871Y247830D01*
X149346Y244681D02*
X152495D01*
X151445Y243632D01*
X152495Y242582D01*
X149346D01*
X151445Y238384D02*
X149346Y237334D01*
X151445Y236285D01*
X149346Y235235D02*
Y234186D01*
Y234711D01*
X152495D01*
X151970Y235235D01*
X149346Y232611D02*
X149871D01*
Y232087D01*
X149346D01*
Y232611D01*
Y229988D02*
Y228938D01*
Y229463D01*
X152495D01*
X151970Y229988D01*
X192817Y208711D02*
Y205562D01*
X191242D01*
X190718Y206087D01*
Y207136D01*
X191242Y207661D01*
X192817D01*
X191767D02*
X190718Y208711D01*
X189668Y206087D02*
X189143Y205562D01*
X188094D01*
X187569Y206087D01*
Y206611D01*
X188094Y207136D01*
X187569Y207661D01*
Y208186D01*
X188094Y208711D01*
X189143D01*
X189668Y208186D01*
Y207661D01*
X189143Y207136D01*
X189668Y206611D01*
Y206087D01*
X189143Y207136D02*
X188094D01*
X210311Y150737D02*
Y149687D01*
Y150212D01*
X207162D01*
Y150737D01*
Y149687D01*
X209786Y146014D02*
X210311Y146539D01*
Y147588D01*
X209786Y148113D01*
X207687D01*
X207162Y147588D01*
Y146539D01*
X207687Y146014D01*
X209786Y142865D02*
X210311Y143390D01*
Y144440D01*
X209786Y144964D01*
X209261D01*
X208736Y144440D01*
Y143390D01*
X208211Y142865D01*
X207687D01*
X207162Y143390D01*
Y144440D01*
X207687Y144964D01*
X207162Y141816D02*
X210311D01*
Y140242D01*
X209786Y139717D01*
X208736D01*
X208211Y140242D01*
Y141816D01*
X202430Y132268D02*
X202955Y131743D01*
X204005D01*
X204529Y132268D01*
Y134367D01*
X204005Y134892D01*
X202955D01*
X202430Y134367D01*
X199282Y131743D02*
X201381D01*
Y133317D01*
X200331Y132792D01*
X199806D01*
X199282Y133317D01*
Y134367D01*
X199806Y134892D01*
X200856D01*
X201381Y134367D01*
X207183Y119932D02*
Y123081D01*
X205609D01*
X205084Y122556D01*
Y120457D01*
X205609Y119932D01*
X207183D01*
X202460Y123081D02*
Y119932D01*
X204034Y121506D01*
X201935D01*
X213978Y236171D02*
Y233022D01*
X212404D01*
X211879Y233547D01*
Y234597D01*
X212404Y235122D01*
X213978D01*
X212929D02*
X211879Y236171D01*
X209255D02*
Y233022D01*
X210829Y234597D01*
X208731D01*
X213978Y240896D02*
Y237747D01*
X212404D01*
X211879Y238272D01*
Y239321D01*
X212404Y239846D01*
X213978D01*
X212929D02*
X211879Y240896D01*
X210829Y238272D02*
X210305Y237747D01*
X209255D01*
X208731Y238272D01*
Y238796D01*
X209255Y239321D01*
X209780D01*
X209255D01*
X208731Y239846D01*
Y240371D01*
X209255Y240896D01*
X210305D01*
X210829Y240371D01*
X217521Y230659D02*
Y227511D01*
X215947D01*
X215422Y228035D01*
Y229085D01*
X215947Y229610D01*
X217521D01*
X216472D02*
X215422Y230659D01*
X214373Y227511D02*
X212274D01*
Y228035D01*
X214373Y230135D01*
Y230659D01*
X217521Y224163D02*
Y221015D01*
X215947D01*
X215422Y221539D01*
Y222589D01*
X215947Y223114D01*
X217521D01*
X216472D02*
X215422Y224163D01*
X212274Y221015D02*
X213323Y221539D01*
X214373Y222589D01*
Y223639D01*
X213848Y224163D01*
X212799D01*
X212274Y223639D01*
Y223114D01*
X212799Y222589D01*
X214373D01*
X217521Y217667D02*
Y214519D01*
X215947D01*
X215422Y215043D01*
Y216093D01*
X215947Y216618D01*
X217521D01*
X216472D02*
X215422Y217667D01*
X212274Y214519D02*
X214373D01*
Y216093D01*
X213323Y215568D01*
X212799D01*
X212274Y216093D01*
Y217142D01*
X212799Y217667D01*
X213848D01*
X214373Y217142D01*
X193637Y219110D02*
X190489D01*
Y217536D01*
X191013Y217011D01*
X193113D01*
X193637Y217536D01*
Y219110D01*
X193113Y215962D02*
X193637Y215437D01*
Y214387D01*
X193113Y213863D01*
X192588D01*
X192063Y214387D01*
Y214912D01*
Y214387D01*
X191538Y213863D01*
X191013D01*
X190489Y214387D01*
Y215437D01*
X191013Y215962D01*
X186551Y219110D02*
X183402D01*
Y217536D01*
X183927Y217011D01*
X186026D01*
X186551Y217536D01*
Y219110D01*
X183402Y213863D02*
Y215962D01*
X185501Y213863D01*
X186026D01*
X186551Y214387D01*
Y215437D01*
X186026Y215962D01*
X179464Y219078D02*
X176315D01*
Y217503D01*
X176840Y216979D01*
X178939D01*
X179464Y217503D01*
Y219078D01*
X176315Y215929D02*
Y214880D01*
Y215404D01*
X179464D01*
X178939Y215929D01*
X171688Y162877D02*
X171164D01*
X170114Y161828D01*
X171164Y160778D01*
X171688D01*
X170114Y161828D02*
X168540D01*
Y159728D02*
Y158679D01*
Y159204D01*
X171688D01*
X171164Y159728D01*
X198066Y187916D02*
X195443D01*
X194918Y187392D01*
Y186342D01*
X195443Y185817D01*
X198066D01*
X194918Y184768D02*
Y183718D01*
Y184243D01*
X198066D01*
X197542Y184768D01*
X204136Y259400D02*
Y256251D01*
X202561D01*
X202037Y256776D01*
Y257825D01*
X202561Y258350D01*
X204136D01*
X203086D02*
X202037Y259400D01*
X198888D02*
X200987D01*
X198888Y257300D01*
Y256776D01*
X199413Y256251D01*
X200462D01*
X200987Y256776D01*
X169426Y261597D02*
X172574D01*
Y260023D01*
X172049Y259498D01*
X171000D01*
X170475Y260023D01*
Y261597D01*
Y260548D02*
X169426Y259498D01*
Y258449D02*
Y257399D01*
Y257924D01*
X172574D01*
X172049Y258449D01*
X215685Y280463D02*
Y281512D01*
Y280988D01*
X213061D01*
X212536Y281512D01*
Y282037D01*
X213061Y282562D01*
X212536Y279413D02*
Y278364D01*
Y278889D01*
X215685D01*
X215160Y279413D01*
X193899Y242078D02*
X192850D01*
X193374D01*
Y245226D01*
X193899D01*
X192850D01*
X189176Y242602D02*
X189701Y242078D01*
X190751D01*
X191275Y242602D01*
Y244702D01*
X190751Y245226D01*
X189701D01*
X189176Y244702D01*
X188127Y245226D02*
X187077D01*
X187602D01*
Y242078D01*
X188127Y242602D01*
X172411Y151303D02*
X172935Y150778D01*
X173985D01*
X174510Y151303D01*
Y153402D01*
X173985Y153927D01*
X172935D01*
X172411Y153402D01*
X171361D02*
X170836Y153927D01*
X169787D01*
X169262Y153402D01*
Y151303D01*
X169787Y150778D01*
X170836D01*
X171361Y151303D01*
Y151828D01*
X170836Y152353D01*
X169262D01*
X155022Y172818D02*
X155547Y173343D01*
Y174393D01*
X155022Y174917D01*
X152923D01*
X152398Y174393D01*
Y173343D01*
X152923Y172818D01*
X155022Y171769D02*
X155547Y171244D01*
Y170195D01*
X155022Y169670D01*
X154497D01*
X153972Y170195D01*
X153448Y169670D01*
X152923D01*
X152398Y170195D01*
Y171244D01*
X152923Y171769D01*
X153448D01*
X153972Y171244D01*
X154497Y171769D01*
X155022D01*
X153972Y171244D02*
Y170195D01*
X213585Y183193D02*
X214110Y183717D01*
Y184767D01*
X213585Y185292D01*
X211486D01*
X210961Y184767D01*
Y183717D01*
X211486Y183193D01*
X214110Y182143D02*
Y180044D01*
X213585D01*
X211486Y182143D01*
X210961D01*
X165750Y186342D02*
X166275Y186867D01*
Y187916D01*
X165750Y188441D01*
X163651D01*
X163127Y187916D01*
Y186867D01*
X163651Y186342D01*
X166275Y183194D02*
X165750Y184243D01*
X164701Y185292D01*
X163651D01*
X163127Y184768D01*
Y183718D01*
X163651Y183194D01*
X164176D01*
X164701Y183718D01*
Y185292D01*
X202037Y262878D02*
X202561Y262353D01*
X203611D01*
X204136Y262878D01*
Y264977D01*
X203611Y265502D01*
X202561D01*
X202037Y264977D01*
X199413Y265502D02*
Y262353D01*
X200987Y263928D01*
X198888D01*
X166735Y259925D02*
X167259Y260450D01*
Y261499D01*
X166735Y262024D01*
X164636D01*
X164111Y261499D01*
Y260450D01*
X164636Y259925D01*
X166735Y258875D02*
X167259Y258350D01*
Y257301D01*
X166735Y256776D01*
X166210D01*
X165685Y257301D01*
Y257826D01*
Y257301D01*
X165160Y256776D01*
X164636D01*
X164111Y257301D01*
Y258350D01*
X164636Y258875D01*
X165258Y227510D02*
X165783Y228035D01*
Y229084D01*
X165258Y229609D01*
X163159D01*
X162634Y229084D01*
Y228035D01*
X163159Y227510D01*
X162634Y226461D02*
Y225411D01*
Y225936D01*
X165783D01*
X165258Y226461D01*
X172837Y233448D02*
X173362Y233973D01*
Y235023D01*
X172837Y235547D01*
X170738D01*
X170213Y235023D01*
Y233973D01*
X170738Y233448D01*
X170213Y230300D02*
Y232399D01*
X172312Y230300D01*
X172837D01*
X173362Y230824D01*
Y231874D01*
X172837Y232399D01*
X262731Y281939D02*
X262207D01*
X261157Y280890D01*
X262207Y279840D01*
X262731D01*
X261157Y280890D02*
X259583D01*
X262207Y276692D02*
X262731Y277217D01*
Y278266D01*
X262207Y278791D01*
X260107D01*
X259583Y278266D01*
Y277217D01*
X260107Y276692D01*
X261157D01*
Y277741D01*
X259583Y275642D02*
X262731D01*
X259583Y273543D01*
X262731D01*
X261157Y269345D02*
Y267246D01*
X262207Y260949D02*
X262731Y261473D01*
Y262523D01*
X262207Y263048D01*
X261682D01*
X261157Y262523D01*
Y261473D01*
X260632Y260949D01*
X260107D01*
X259583Y261473D01*
Y262523D01*
X260107Y263048D01*
X258533Y259899D02*
X261682D01*
Y258325D01*
X261157Y257800D01*
X260107D01*
X259583Y258325D01*
Y259899D01*
Y256751D02*
Y255701D01*
Y256226D01*
X261682D01*
Y256751D01*
X259583Y254127D02*
X261682D01*
Y252553D01*
X261157Y252028D01*
X259583D01*
Y250978D02*
X261682D01*
X262731Y249929D01*
X261682Y248879D01*
X259583D01*
X261157D01*
Y250978D01*
X262207Y245731D02*
X262731Y246255D01*
Y247305D01*
X262207Y247830D01*
X261682D01*
X261157Y247305D01*
Y246255D01*
X260632Y245731D01*
X260107D01*
X259583Y246255D01*
Y247305D01*
X260107Y247830D01*
X259583Y244681D02*
X262731D01*
X261682Y243632D01*
X262731Y242582D01*
X259583D01*
X261682Y238384D02*
X259583Y237334D01*
X261682Y236285D01*
X259583Y235235D02*
Y234186D01*
Y234711D01*
X262731D01*
X262207Y235235D01*
X259583Y232611D02*
X260107D01*
Y232087D01*
X259583D01*
Y232611D01*
Y229988D02*
Y228938D01*
Y229463D01*
X262731D01*
X262207Y229988D01*
X303053Y208711D02*
Y205562D01*
X301479D01*
X300954Y206087D01*
Y207136D01*
X301479Y207661D01*
X303053D01*
X302003D02*
X300954Y208711D01*
X299904Y206087D02*
X299380Y205562D01*
X298330D01*
X297805Y206087D01*
Y206611D01*
X298330Y207136D01*
X297805Y207661D01*
Y208186D01*
X298330Y208711D01*
X299380D01*
X299904Y208186D01*
Y207661D01*
X299380Y207136D01*
X299904Y206611D01*
Y206087D01*
X299380Y207136D02*
X298330D01*
X320547Y150737D02*
Y149687D01*
Y150212D01*
X317398D01*
Y150737D01*
Y149687D01*
X320022Y146014D02*
X320547Y146539D01*
Y147588D01*
X320022Y148113D01*
X317923D01*
X317398Y147588D01*
Y146539D01*
X317923Y146014D01*
X320022Y142865D02*
X320547Y143390D01*
Y144440D01*
X320022Y144964D01*
X319497D01*
X318972Y144440D01*
Y143390D01*
X318448Y142865D01*
X317923D01*
X317398Y143390D01*
Y144440D01*
X317923Y144964D01*
X317398Y141816D02*
X320547D01*
Y140242D01*
X320022Y139717D01*
X318972D01*
X318448Y140242D01*
Y141816D01*
X312667Y132268D02*
X313191Y131743D01*
X314241D01*
X314766Y132268D01*
Y134367D01*
X314241Y134892D01*
X313191D01*
X312667Y134367D01*
X309518Y131743D02*
X311617D01*
Y133317D01*
X310567Y132792D01*
X310043D01*
X309518Y133317D01*
Y134367D01*
X310043Y134892D01*
X311092D01*
X311617Y134367D01*
X317419Y119932D02*
Y123081D01*
X315845D01*
X315320Y122556D01*
Y120457D01*
X315845Y119932D01*
X317419D01*
X312696Y123081D02*
Y119932D01*
X314270Y121506D01*
X312171D01*
X324214Y236171D02*
Y233022D01*
X322640D01*
X322115Y233547D01*
Y234597D01*
X322640Y235122D01*
X324214D01*
X323165D02*
X322115Y236171D01*
X319491D02*
Y233022D01*
X321066Y234597D01*
X318967D01*
X324214Y240896D02*
Y237747D01*
X322640D01*
X322115Y238272D01*
Y239321D01*
X322640Y239846D01*
X324214D01*
X323165D02*
X322115Y240896D01*
X321066Y238272D02*
X320541Y237747D01*
X319491D01*
X318967Y238272D01*
Y238796D01*
X319491Y239321D01*
X320016D01*
X319491D01*
X318967Y239846D01*
Y240371D01*
X319491Y240896D01*
X320541D01*
X321066Y240371D01*
X327758Y230659D02*
Y227511D01*
X326183D01*
X325659Y228035D01*
Y229085D01*
X326183Y229610D01*
X327758D01*
X326708D02*
X325659Y230659D01*
X324609Y227511D02*
X322510D01*
Y228035D01*
X324609Y230135D01*
Y230659D01*
X327758Y224163D02*
Y221015D01*
X326183D01*
X325659Y221539D01*
Y222589D01*
X326183Y223114D01*
X327758D01*
X326708D02*
X325659Y224163D01*
X322510Y221015D02*
X323559Y221539D01*
X324609Y222589D01*
Y223639D01*
X324084Y224163D01*
X323035D01*
X322510Y223639D01*
Y223114D01*
X323035Y222589D01*
X324609D01*
X327758Y217667D02*
Y214519D01*
X326183D01*
X325659Y215043D01*
Y216093D01*
X326183Y216618D01*
X327758D01*
X326708D02*
X325659Y217667D01*
X322510Y214519D02*
X324609D01*
Y216093D01*
X323559Y215568D01*
X323035D01*
X322510Y216093D01*
Y217142D01*
X323035Y217667D01*
X324084D01*
X324609Y217142D01*
X303873Y219110D02*
X300725D01*
Y217536D01*
X301250Y217011D01*
X303349D01*
X303873Y217536D01*
Y219110D01*
X303349Y215962D02*
X303873Y215437D01*
Y214387D01*
X303349Y213863D01*
X302824D01*
X302299Y214387D01*
Y214912D01*
Y214387D01*
X301774Y213863D01*
X301250D01*
X300725Y214387D01*
Y215437D01*
X301250Y215962D01*
X296787Y219110D02*
X293638D01*
Y217536D01*
X294163Y217011D01*
X296262D01*
X296787Y217536D01*
Y219110D01*
X293638Y213863D02*
Y215962D01*
X295737Y213863D01*
X296262D01*
X296787Y214387D01*
Y215437D01*
X296262Y215962D01*
X289700Y219078D02*
X286552D01*
Y217503D01*
X287076Y216979D01*
X289176D01*
X289700Y217503D01*
Y219078D01*
X286552Y215929D02*
Y214880D01*
Y215404D01*
X289700D01*
X289176Y215929D01*
X281925Y162877D02*
X281400D01*
X280350Y161828D01*
X281400Y160778D01*
X281925D01*
X280350Y161828D02*
X278776D01*
Y159728D02*
Y158679D01*
Y159204D01*
X281925D01*
X281400Y159728D01*
X308303Y187916D02*
X305679D01*
X305154Y187392D01*
Y186342D01*
X305679Y185817D01*
X308303D01*
X305154Y184768D02*
Y183718D01*
Y184243D01*
X308303D01*
X307778Y184768D01*
X314372Y259400D02*
Y256251D01*
X312797D01*
X312273Y256776D01*
Y257825D01*
X312797Y258350D01*
X314372D01*
X313322D02*
X312273Y259400D01*
X309124D02*
X311223D01*
X309124Y257300D01*
Y256776D01*
X309649Y256251D01*
X310699D01*
X311223Y256776D01*
X279662Y261597D02*
X282810D01*
Y260023D01*
X282286Y259498D01*
X281236D01*
X280711Y260023D01*
Y261597D01*
Y260548D02*
X279662Y259498D01*
Y258449D02*
Y257399D01*
Y257924D01*
X282810D01*
X282286Y258449D01*
X325921Y280463D02*
Y281512D01*
Y280988D01*
X323297D01*
X322772Y281512D01*
Y282037D01*
X323297Y282562D01*
X322772Y279413D02*
Y278364D01*
Y278889D01*
X325921D01*
X325396Y279413D01*
X304135Y242078D02*
X303086D01*
X303611D01*
Y245226D01*
X304135D01*
X303086D01*
X299412Y242602D02*
X299937Y242078D01*
X300987D01*
X301512Y242602D01*
Y244702D01*
X300987Y245226D01*
X299937D01*
X299412Y244702D01*
X298363Y245226D02*
X297313D01*
X297838D01*
Y242078D01*
X298363Y242602D01*
X282647Y151303D02*
X283172Y150778D01*
X284221D01*
X284746Y151303D01*
Y153402D01*
X284221Y153927D01*
X283172D01*
X282647Y153402D01*
X281597D02*
X281072Y153927D01*
X280023D01*
X279498Y153402D01*
Y151303D01*
X280023Y150778D01*
X281072D01*
X281597Y151303D01*
Y151828D01*
X281072Y152353D01*
X279498D01*
X265258Y172818D02*
X265783Y173343D01*
Y174393D01*
X265258Y174917D01*
X263159D01*
X262634Y174393D01*
Y173343D01*
X263159Y172818D01*
X265258Y171769D02*
X265783Y171244D01*
Y170195D01*
X265258Y169670D01*
X264733D01*
X264209Y170195D01*
X263684Y169670D01*
X263159D01*
X262634Y170195D01*
Y171244D01*
X263159Y171769D01*
X263684D01*
X264209Y171244D01*
X264733Y171769D01*
X265258D01*
X264209Y171244D02*
Y170195D01*
X323821Y183193D02*
X324346Y183717D01*
Y184767D01*
X323821Y185292D01*
X321722D01*
X321197Y184767D01*
Y183717D01*
X321722Y183193D01*
X324346Y182143D02*
Y180044D01*
X323821D01*
X321722Y182143D01*
X321197D01*
X275987Y186342D02*
X276511Y186867D01*
Y187916D01*
X275987Y188441D01*
X273887D01*
X273363Y187916D01*
Y186867D01*
X273887Y186342D01*
X276511Y183194D02*
X275987Y184243D01*
X274937Y185292D01*
X273887D01*
X273363Y184768D01*
Y183718D01*
X273887Y183194D01*
X274412D01*
X274937Y183718D01*
Y185292D01*
X312273Y262878D02*
X312797Y262353D01*
X313847D01*
X314372Y262878D01*
Y264977D01*
X313847Y265502D01*
X312797D01*
X312273Y264977D01*
X309649Y265502D02*
Y262353D01*
X311223Y263928D01*
X309124D01*
X276971Y259925D02*
X277496Y260450D01*
Y261499D01*
X276971Y262024D01*
X274872D01*
X274347Y261499D01*
Y260450D01*
X274872Y259925D01*
X276971Y258875D02*
X277496Y258350D01*
Y257301D01*
X276971Y256776D01*
X276446D01*
X275921Y257301D01*
Y257826D01*
Y257301D01*
X275396Y256776D01*
X274872D01*
X274347Y257301D01*
Y258350D01*
X274872Y258875D01*
X275494Y227510D02*
X276019Y228035D01*
Y229084D01*
X275494Y229609D01*
X273395D01*
X272871Y229084D01*
Y228035D01*
X273395Y227510D01*
X272871Y226461D02*
Y225411D01*
Y225936D01*
X276019D01*
X275494Y226461D01*
X283073Y233448D02*
X283598Y233973D01*
Y235023D01*
X283073Y235547D01*
X280974D01*
X280449Y235023D01*
Y233973D01*
X280974Y233448D01*
X280449Y230300D02*
Y232399D01*
X282548Y230300D01*
X283073D01*
X283598Y230824D01*
Y231874D01*
X283073Y232399D01*
X372968Y281939D02*
X372443D01*
X371393Y280890D01*
X372443Y279840D01*
X372968D01*
X371393Y280890D02*
X369819D01*
X372443Y276692D02*
X372968Y277217D01*
Y278266D01*
X372443Y278791D01*
X370344D01*
X369819Y278266D01*
Y277217D01*
X370344Y276692D01*
X371393D01*
Y277741D01*
X369819Y275642D02*
X372968D01*
X369819Y273543D01*
X372968D01*
X371393Y269345D02*
Y267246D01*
X372443Y260949D02*
X372968Y261473D01*
Y262523D01*
X372443Y263048D01*
X371918D01*
X371393Y262523D01*
Y261473D01*
X370868Y260949D01*
X370344D01*
X369819Y261473D01*
Y262523D01*
X370344Y263048D01*
X368769Y259899D02*
X371918D01*
Y258325D01*
X371393Y257800D01*
X370344D01*
X369819Y258325D01*
Y259899D01*
Y256751D02*
Y255701D01*
Y256226D01*
X371918D01*
Y256751D01*
X369819Y254127D02*
X371918D01*
Y252553D01*
X371393Y252028D01*
X369819D01*
Y250978D02*
X371918D01*
X372968Y249929D01*
X371918Y248879D01*
X369819D01*
X371393D01*
Y250978D01*
X372443Y245731D02*
X372968Y246255D01*
Y247305D01*
X372443Y247830D01*
X371918D01*
X371393Y247305D01*
Y246255D01*
X370868Y245731D01*
X370344D01*
X369819Y246255D01*
Y247305D01*
X370344Y247830D01*
X369819Y244681D02*
X372968D01*
X371918Y243632D01*
X372968Y242582D01*
X369819D01*
X371918Y238384D02*
X369819Y237334D01*
X371918Y236285D01*
X369819Y235235D02*
Y234186D01*
Y234711D01*
X372968D01*
X372443Y235235D01*
X369819Y232611D02*
X370344D01*
Y232087D01*
X369819D01*
Y232611D01*
Y229988D02*
Y228938D01*
Y229463D01*
X372968D01*
X372443Y229988D01*
X413289Y208711D02*
Y205562D01*
X411715D01*
X411190Y206087D01*
Y207136D01*
X411715Y207661D01*
X413289D01*
X412240D02*
X411190Y208711D01*
X410141Y206087D02*
X409616Y205562D01*
X408566D01*
X408041Y206087D01*
Y206611D01*
X408566Y207136D01*
X408041Y207661D01*
Y208186D01*
X408566Y208711D01*
X409616D01*
X410141Y208186D01*
Y207661D01*
X409616Y207136D01*
X410141Y206611D01*
Y206087D01*
X409616Y207136D02*
X408566D01*
X430783Y150737D02*
Y149687D01*
Y150212D01*
X427634D01*
Y150737D01*
Y149687D01*
X430258Y146014D02*
X430783Y146539D01*
Y147588D01*
X430258Y148113D01*
X428159D01*
X427634Y147588D01*
Y146539D01*
X428159Y146014D01*
X430258Y142865D02*
X430783Y143390D01*
Y144440D01*
X430258Y144964D01*
X429733D01*
X429209Y144440D01*
Y143390D01*
X428684Y142865D01*
X428159D01*
X427634Y143390D01*
Y144440D01*
X428159Y144964D01*
X427634Y141816D02*
X430783D01*
Y140242D01*
X430258Y139717D01*
X429209D01*
X428684Y140242D01*
Y141816D01*
X422903Y132268D02*
X423427Y131743D01*
X424477D01*
X425002Y132268D01*
Y134367D01*
X424477Y134892D01*
X423427D01*
X422903Y134367D01*
X419754Y131743D02*
X421853D01*
Y133317D01*
X420804Y132792D01*
X420279D01*
X419754Y133317D01*
Y134367D01*
X420279Y134892D01*
X421328D01*
X421853Y134367D01*
X427655Y119932D02*
Y123081D01*
X426081D01*
X425556Y122556D01*
Y120457D01*
X426081Y119932D01*
X427655D01*
X422932Y123081D02*
Y119932D01*
X424507Y121506D01*
X422408D01*
X434451Y236171D02*
Y233022D01*
X432876D01*
X432351Y233547D01*
Y234597D01*
X432876Y235122D01*
X434451D01*
X433401D02*
X432351Y236171D01*
X429728D02*
Y233022D01*
X431302Y234597D01*
X429203D01*
X434451Y240896D02*
Y237747D01*
X432876D01*
X432351Y238272D01*
Y239321D01*
X432876Y239846D01*
X434451D01*
X433401D02*
X432351Y240896D01*
X431302Y238272D02*
X430777Y237747D01*
X429728D01*
X429203Y238272D01*
Y238796D01*
X429728Y239321D01*
X430252D01*
X429728D01*
X429203Y239846D01*
Y240371D01*
X429728Y240896D01*
X430777D01*
X431302Y240371D01*
X437994Y230659D02*
Y227511D01*
X436420D01*
X435895Y228035D01*
Y229085D01*
X436420Y229610D01*
X437994D01*
X436944D02*
X435895Y230659D01*
X434845Y227511D02*
X432746D01*
Y228035D01*
X434845Y230135D01*
Y230659D01*
X437994Y224163D02*
Y221015D01*
X436420D01*
X435895Y221539D01*
Y222589D01*
X436420Y223114D01*
X437994D01*
X436944D02*
X435895Y224163D01*
X432746Y221015D02*
X433796Y221539D01*
X434845Y222589D01*
Y223639D01*
X434320Y224163D01*
X433271D01*
X432746Y223639D01*
Y223114D01*
X433271Y222589D01*
X434845D01*
X437994Y217667D02*
Y214519D01*
X436420D01*
X435895Y215043D01*
Y216093D01*
X436420Y216618D01*
X437994D01*
X436944D02*
X435895Y217667D01*
X432746Y214519D02*
X434845D01*
Y216093D01*
X433796Y215568D01*
X433271D01*
X432746Y216093D01*
Y217142D01*
X433271Y217667D01*
X434320D01*
X434845Y217142D01*
X414110Y219110D02*
X410961D01*
Y217536D01*
X411486Y217011D01*
X413585D01*
X414110Y217536D01*
Y219110D01*
X413585Y215962D02*
X414110Y215437D01*
Y214387D01*
X413585Y213863D01*
X413060D01*
X412535Y214387D01*
Y214912D01*
Y214387D01*
X412011Y213863D01*
X411486D01*
X410961Y214387D01*
Y215437D01*
X411486Y215962D01*
X407023Y219110D02*
X403874D01*
Y217536D01*
X404399Y217011D01*
X406498D01*
X407023Y217536D01*
Y219110D01*
X403874Y213863D02*
Y215962D01*
X405974Y213863D01*
X406498D01*
X407023Y214387D01*
Y215437D01*
X406498Y215962D01*
X399937Y219078D02*
X396788D01*
Y217503D01*
X397313Y216979D01*
X399412D01*
X399937Y217503D01*
Y219078D01*
X396788Y215929D02*
Y214880D01*
Y215404D01*
X399937D01*
X399412Y215929D01*
X392161Y162877D02*
X391636D01*
X390587Y161828D01*
X391636Y160778D01*
X392161D01*
X390587Y161828D02*
X389012D01*
Y159728D02*
Y158679D01*
Y159204D01*
X392161D01*
X391636Y159728D01*
X418539Y187916D02*
X415915D01*
X415390Y187392D01*
Y186342D01*
X415915Y185817D01*
X418539D01*
X415390Y184768D02*
Y183718D01*
Y184243D01*
X418539D01*
X418014Y184768D01*
X424608Y259400D02*
Y256251D01*
X423034D01*
X422509Y256776D01*
Y257825D01*
X423034Y258350D01*
X424608D01*
X423559D02*
X422509Y259400D01*
X419360D02*
X421459D01*
X419360Y257300D01*
Y256776D01*
X419885Y256251D01*
X420935D01*
X421459Y256776D01*
X389898Y261597D02*
X393047D01*
Y260023D01*
X392522Y259498D01*
X391472D01*
X390948Y260023D01*
Y261597D01*
Y260548D02*
X389898Y259498D01*
Y258449D02*
Y257399D01*
Y257924D01*
X393047D01*
X392522Y258449D01*
X436157Y280463D02*
Y281512D01*
Y280988D01*
X433533D01*
X433008Y281512D01*
Y282037D01*
X433533Y282562D01*
X433008Y279413D02*
Y278364D01*
Y278889D01*
X436157D01*
X435632Y279413D01*
X414372Y242078D02*
X413322D01*
X413847D01*
Y245226D01*
X414372D01*
X413322D01*
X409649Y242602D02*
X410173Y242078D01*
X411223D01*
X411748Y242602D01*
Y244702D01*
X411223Y245226D01*
X410173D01*
X409649Y244702D01*
X408599Y245226D02*
X407550D01*
X408074D01*
Y242078D01*
X408599Y242602D01*
X392883Y151303D02*
X393408Y150778D01*
X394457D01*
X394982Y151303D01*
Y153402D01*
X394457Y153927D01*
X393408D01*
X392883Y153402D01*
X391833D02*
X391309Y153927D01*
X390259D01*
X389734Y153402D01*
Y151303D01*
X390259Y150778D01*
X391309D01*
X391833Y151303D01*
Y151828D01*
X391309Y152353D01*
X389734D01*
X375494Y172818D02*
X376019Y173343D01*
Y174393D01*
X375494Y174917D01*
X373395D01*
X372871Y174393D01*
Y173343D01*
X373395Y172818D01*
X375494Y171769D02*
X376019Y171244D01*
Y170195D01*
X375494Y169670D01*
X374970D01*
X374445Y170195D01*
X373920Y169670D01*
X373395D01*
X372871Y170195D01*
Y171244D01*
X373395Y171769D01*
X373920D01*
X374445Y171244D01*
X374970Y171769D01*
X375494D01*
X374445Y171244D02*
Y170195D01*
X434057Y183193D02*
X434582Y183717D01*
Y184767D01*
X434057Y185292D01*
X431958D01*
X431434Y184767D01*
Y183717D01*
X431958Y183193D01*
X434582Y182143D02*
Y180044D01*
X434057D01*
X431958Y182143D01*
X431434D01*
X386223Y186342D02*
X386748Y186867D01*
Y187916D01*
X386223Y188441D01*
X384124D01*
X383599Y187916D01*
Y186867D01*
X384124Y186342D01*
X386748Y183194D02*
X386223Y184243D01*
X385173Y185292D01*
X384124D01*
X383599Y184768D01*
Y183718D01*
X384124Y183194D01*
X384648D01*
X385173Y183718D01*
Y185292D01*
X422509Y262878D02*
X423034Y262353D01*
X424083D01*
X424608Y262878D01*
Y264977D01*
X424083Y265502D01*
X423034D01*
X422509Y264977D01*
X419885Y265502D02*
Y262353D01*
X421459Y263928D01*
X419360D01*
X387207Y259925D02*
X387732Y260450D01*
Y261499D01*
X387207Y262024D01*
X385108D01*
X384583Y261499D01*
Y260450D01*
X385108Y259925D01*
X387207Y258875D02*
X387732Y258350D01*
Y257301D01*
X387207Y256776D01*
X386682D01*
X386157Y257301D01*
Y257826D01*
Y257301D01*
X385633Y256776D01*
X385108D01*
X384583Y257301D01*
Y258350D01*
X385108Y258875D01*
X385731Y227510D02*
X386255Y228035D01*
Y229084D01*
X385731Y229609D01*
X383632D01*
X383107Y229084D01*
Y228035D01*
X383632Y227510D01*
X383107Y226461D02*
Y225411D01*
Y225936D01*
X386255D01*
X385731Y226461D01*
X393309Y233448D02*
X393834Y233973D01*
Y235023D01*
X393309Y235547D01*
X391210D01*
X390686Y235023D01*
Y233973D01*
X391210Y233448D01*
X390686Y230300D02*
Y232399D01*
X392785Y230300D01*
X393309D01*
X393834Y230824D01*
Y231874D01*
X393309Y232399D01*
X483204Y281939D02*
X482679D01*
X481629Y280890D01*
X482679Y279840D01*
X483204D01*
X481629Y280890D02*
X480055D01*
X482679Y276692D02*
X483204Y277217D01*
Y278266D01*
X482679Y278791D01*
X480580D01*
X480055Y278266D01*
Y277217D01*
X480580Y276692D01*
X481629D01*
Y277741D01*
X480055Y275642D02*
X483204D01*
X480055Y273543D01*
X483204D01*
X481629Y269345D02*
Y267246D01*
X482679Y260949D02*
X483204Y261473D01*
Y262523D01*
X482679Y263048D01*
X482154D01*
X481629Y262523D01*
Y261473D01*
X481105Y260949D01*
X480580D01*
X480055Y261473D01*
Y262523D01*
X480580Y263048D01*
X479006Y259899D02*
X482154D01*
Y258325D01*
X481629Y257800D01*
X480580D01*
X480055Y258325D01*
Y259899D01*
Y256751D02*
Y255701D01*
Y256226D01*
X482154D01*
Y256751D01*
X480055Y254127D02*
X482154D01*
Y252553D01*
X481629Y252028D01*
X480055D01*
Y250978D02*
X482154D01*
X483204Y249929D01*
X482154Y248879D01*
X480055D01*
X481629D01*
Y250978D01*
X482679Y245731D02*
X483204Y246255D01*
Y247305D01*
X482679Y247830D01*
X482154D01*
X481629Y247305D01*
Y246255D01*
X481105Y245731D01*
X480580D01*
X480055Y246255D01*
Y247305D01*
X480580Y247830D01*
X480055Y244681D02*
X483204D01*
X482154Y243632D01*
X483204Y242582D01*
X480055D01*
X482154Y238384D02*
X480055Y237334D01*
X482154Y236285D01*
X480055Y235235D02*
Y234186D01*
Y234711D01*
X483204D01*
X482679Y235235D01*
X480055Y232611D02*
X480580D01*
Y232087D01*
X480055D01*
Y232611D01*
Y229988D02*
Y228938D01*
Y229463D01*
X483204D01*
X482679Y229988D01*
X523525Y208711D02*
Y205562D01*
X521951D01*
X521426Y206087D01*
Y207136D01*
X521951Y207661D01*
X523525D01*
X522476D02*
X521426Y208711D01*
X520377Y206087D02*
X519852Y205562D01*
X518802D01*
X518278Y206087D01*
Y206611D01*
X518802Y207136D01*
X518278Y207661D01*
Y208186D01*
X518802Y208711D01*
X519852D01*
X520377Y208186D01*
Y207661D01*
X519852Y207136D01*
X520377Y206611D01*
Y206087D01*
X519852Y207136D02*
X518802D01*
X541019Y150737D02*
Y149687D01*
Y150212D01*
X537871D01*
Y150737D01*
Y149687D01*
X540494Y146014D02*
X541019Y146539D01*
Y147588D01*
X540494Y148113D01*
X538395D01*
X537871Y147588D01*
Y146539D01*
X538395Y146014D01*
X540494Y142865D02*
X541019Y143390D01*
Y144440D01*
X540494Y144964D01*
X539970D01*
X539445Y144440D01*
Y143390D01*
X538920Y142865D01*
X538395D01*
X537871Y143390D01*
Y144440D01*
X538395Y144964D01*
X537871Y141816D02*
X541019D01*
Y140242D01*
X540494Y139717D01*
X539445D01*
X538920Y140242D01*
Y141816D01*
X533139Y132268D02*
X533664Y131743D01*
X534713D01*
X535238Y132268D01*
Y134367D01*
X534713Y134892D01*
X533664D01*
X533139Y134367D01*
X529990Y131743D02*
X532089D01*
Y133317D01*
X531040Y132792D01*
X530515D01*
X529990Y133317D01*
Y134367D01*
X530515Y134892D01*
X531565D01*
X532089Y134367D01*
X537891Y119932D02*
Y123081D01*
X536317D01*
X535792Y122556D01*
Y120457D01*
X536317Y119932D01*
X537891D01*
X533169Y123081D02*
Y119932D01*
X534743Y121506D01*
X532644D01*
X544687Y236171D02*
Y233022D01*
X543113D01*
X542588Y233547D01*
Y234597D01*
X543113Y235122D01*
X544687D01*
X543637D02*
X542588Y236171D01*
X539964D02*
Y233022D01*
X541538Y234597D01*
X539439D01*
X544687Y240896D02*
Y237747D01*
X543113D01*
X542588Y238272D01*
Y239321D01*
X543113Y239846D01*
X544687D01*
X543637D02*
X542588Y240896D01*
X541538Y238272D02*
X541013Y237747D01*
X539964D01*
X539439Y238272D01*
Y238796D01*
X539964Y239321D01*
X540489D01*
X539964D01*
X539439Y239846D01*
Y240371D01*
X539964Y240896D01*
X541013D01*
X541538Y240371D01*
X548230Y230659D02*
Y227511D01*
X546656D01*
X546131Y228035D01*
Y229085D01*
X546656Y229610D01*
X548230D01*
X547181D02*
X546131Y230659D01*
X545082Y227511D02*
X542982D01*
Y228035D01*
X545082Y230135D01*
Y230659D01*
X548230Y224163D02*
Y221015D01*
X546656D01*
X546131Y221539D01*
Y222589D01*
X546656Y223114D01*
X548230D01*
X547181D02*
X546131Y224163D01*
X542982Y221015D02*
X544032Y221539D01*
X545082Y222589D01*
Y223639D01*
X544557Y224163D01*
X543507D01*
X542982Y223639D01*
Y223114D01*
X543507Y222589D01*
X545082D01*
X548230Y217667D02*
Y214519D01*
X546656D01*
X546131Y215043D01*
Y216093D01*
X546656Y216618D01*
X548230D01*
X547181D02*
X546131Y217667D01*
X542982Y214519D02*
X545082D01*
Y216093D01*
X544032Y215568D01*
X543507D01*
X542982Y216093D01*
Y217142D01*
X543507Y217667D01*
X544557D01*
X545082Y217142D01*
X524346Y219110D02*
X521197D01*
Y217536D01*
X521722Y217011D01*
X523821D01*
X524346Y217536D01*
Y219110D01*
X523821Y215962D02*
X524346Y215437D01*
Y214387D01*
X523821Y213863D01*
X523296D01*
X522772Y214387D01*
Y214912D01*
Y214387D01*
X522247Y213863D01*
X521722D01*
X521197Y214387D01*
Y215437D01*
X521722Y215962D01*
X517259Y219110D02*
X514111D01*
Y217536D01*
X514636Y217011D01*
X516735D01*
X517259Y217536D01*
Y219110D01*
X514111Y213863D02*
Y215962D01*
X516210Y213863D01*
X516735D01*
X517259Y214387D01*
Y215437D01*
X516735Y215962D01*
X510173Y219078D02*
X507024D01*
Y217503D01*
X507549Y216979D01*
X509648D01*
X510173Y217503D01*
Y219078D01*
X507024Y215929D02*
Y214880D01*
Y215404D01*
X510173D01*
X509648Y215929D01*
X502397Y162877D02*
X501872D01*
X500823Y161828D01*
X501872Y160778D01*
X502397D01*
X500823Y161828D02*
X499249D01*
Y159728D02*
Y158679D01*
Y159204D01*
X502397D01*
X501872Y159728D01*
X528775Y187916D02*
X526151D01*
X525627Y187392D01*
Y186342D01*
X526151Y185817D01*
X528775D01*
X525627Y184768D02*
Y183718D01*
Y184243D01*
X528775D01*
X528250Y184768D01*
X534844Y259400D02*
Y256251D01*
X533270D01*
X532745Y256776D01*
Y257825D01*
X533270Y258350D01*
X534844D01*
X533795D02*
X532745Y259400D01*
X529597D02*
X531696D01*
X529597Y257300D01*
Y256776D01*
X530121Y256251D01*
X531171D01*
X531696Y256776D01*
X500134Y261597D02*
X503283D01*
Y260023D01*
X502758Y259498D01*
X501709D01*
X501184Y260023D01*
Y261597D01*
Y260548D02*
X500134Y259498D01*
Y258449D02*
Y257399D01*
Y257924D01*
X503283D01*
X502758Y258449D01*
X546393Y280463D02*
Y281512D01*
Y280988D01*
X543769D01*
X543245Y281512D01*
Y282037D01*
X543769Y282562D01*
X543245Y279413D02*
Y278364D01*
Y278889D01*
X546393D01*
X545868Y279413D01*
X524608Y242078D02*
X523558D01*
X524083D01*
Y245226D01*
X524608D01*
X523558D01*
X519885Y242602D02*
X520410Y242078D01*
X521459D01*
X521984Y242602D01*
Y244702D01*
X521459Y245226D01*
X520410D01*
X519885Y244702D01*
X518835Y245226D02*
X517786D01*
X518311D01*
Y242078D01*
X518835Y242602D01*
X503119Y151303D02*
X503644Y150778D01*
X504694D01*
X505218Y151303D01*
Y153402D01*
X504694Y153927D01*
X503644D01*
X503119Y153402D01*
X502070D02*
X501545Y153927D01*
X500495D01*
X499971Y153402D01*
Y151303D01*
X500495Y150778D01*
X501545D01*
X502070Y151303D01*
Y151828D01*
X501545Y152353D01*
X499971D01*
X485731Y172818D02*
X486255Y173343D01*
Y174393D01*
X485731Y174917D01*
X483632D01*
X483107Y174393D01*
Y173343D01*
X483632Y172818D01*
X485731Y171769D02*
X486255Y171244D01*
Y170195D01*
X485731Y169670D01*
X485206D01*
X484681Y170195D01*
X484156Y169670D01*
X483632D01*
X483107Y170195D01*
Y171244D01*
X483632Y171769D01*
X484156D01*
X484681Y171244D01*
X485206Y171769D01*
X485731D01*
X484681Y171244D02*
Y170195D01*
X544294Y183193D02*
X544818Y183717D01*
Y184767D01*
X544294Y185292D01*
X542195D01*
X541670Y184767D01*
Y183717D01*
X542195Y183193D01*
X544818Y182143D02*
Y180044D01*
X544294D01*
X542195Y182143D01*
X541670D01*
X496459Y186342D02*
X496984Y186867D01*
Y187916D01*
X496459Y188441D01*
X494360D01*
X493835Y187916D01*
Y186867D01*
X494360Y186342D01*
X496984Y183194D02*
X496459Y184243D01*
X495409Y185292D01*
X494360D01*
X493835Y184768D01*
Y183718D01*
X494360Y183194D01*
X494885D01*
X495409Y183718D01*
Y185292D01*
X532745Y262878D02*
X533270Y262353D01*
X534319D01*
X534844Y262878D01*
Y264977D01*
X534319Y265502D01*
X533270D01*
X532745Y264977D01*
X530121Y265502D02*
Y262353D01*
X531696Y263928D01*
X529597D01*
X497443Y259925D02*
X497968Y260450D01*
Y261499D01*
X497443Y262024D01*
X495344D01*
X494819Y261499D01*
Y260450D01*
X495344Y259925D01*
X497443Y258875D02*
X497968Y258350D01*
Y257301D01*
X497443Y256776D01*
X496918D01*
X496394Y257301D01*
Y257826D01*
Y257301D01*
X495869Y256776D01*
X495344D01*
X494819Y257301D01*
Y258350D01*
X495344Y258875D01*
X495967Y227510D02*
X496492Y228035D01*
Y229084D01*
X495967Y229609D01*
X493868D01*
X493343Y229084D01*
Y228035D01*
X493868Y227510D01*
X493343Y226461D02*
Y225411D01*
Y225936D01*
X496492D01*
X495967Y226461D01*
X503546Y233448D02*
X504070Y233973D01*
Y235023D01*
X503546Y235547D01*
X501446D01*
X500922Y235023D01*
Y233973D01*
X501446Y233448D01*
X500922Y230300D02*
Y232399D01*
X503021Y230300D01*
X503546D01*
X504070Y230824D01*
Y231874D01*
X503546Y232399D01*
D37*
X84252Y121506D02*
D03*
X194488D02*
D03*
X304724D02*
D03*
X414961D02*
D03*
X525197D02*
D03*
M02*
