M48
;Layer_Color=9474304
;FILE_FORMAT=2:4
INCH,TZ
;TYPE=PLATED
T3F00S00C0.0276
;TYPE=NON_PLATED
%
G90
G05
T03
G00X49285Y28588
M15
G01Y27879
M16
G00X53852Y28588
M15
G01Y27879
M16
G00X42828Y28588
M15
G01Y27879
M16
G00X38261Y28588
M15
G01Y27879
M16
G00X31805Y28588
M15
G01Y27879
M16
G00X27238Y28588
M15
G01Y27879
M16
G00X20781Y28588
M15
G01Y27879
M16
G00X16214Y28588
M15
G01Y27879
M16
G00X9757Y28588
M15
G01Y27879
M16
G00X5191Y28588
M15
G01Y27879
M16
M17
M30
