G04*
G04 #@! TF.GenerationSoftware,Altium Limited,Altium Designer,21.0.8 (223)*
G04*
G04 Layer_Color=32896*
%FSLAX25Y25*%
%MOIN*%
G70*
G04*
G04 #@! TF.SameCoordinates,FF83F617-0E9F-4FC0-9F70-085B7F74A640*
G04*
G04*
G04 #@! TF.FilePolarity,Positive*
G04*
G01*
G75*
%ADD66C,0.00787*%
D66*
X95951Y116466D02*
X96738Y115679D01*
Y114104D01*
X95951Y113317D01*
X92802D01*
X92015Y114104D01*
Y115679D01*
X92802Y116466D01*
X94376D01*
Y114892D01*
X92015Y118040D02*
X96738D01*
X92015Y121189D01*
X96738D01*
Y122763D02*
X92015D01*
Y125125D01*
X92802Y125912D01*
X95951D01*
X96738Y125125D01*
Y122763D01*
X86550Y113337D02*
X87337Y114124D01*
Y115698D01*
X86550Y116486D01*
X85763D01*
X84976Y115698D01*
Y114911D01*
Y115698D01*
X84188Y116486D01*
X83401D01*
X82614Y115698D01*
Y114124D01*
X83401Y113337D01*
X82614Y118060D02*
X83401D01*
Y118847D01*
X82614D01*
Y118060D01*
X86550Y121996D02*
X87337Y122783D01*
Y124357D01*
X86550Y125144D01*
X85763D01*
X84976Y124357D01*
Y123570D01*
Y124357D01*
X84188Y125144D01*
X83401D01*
X82614Y124357D01*
Y122783D01*
X83401Y121996D01*
X77101Y116879D02*
Y113731D01*
X74739D01*
Y115305D01*
Y113731D01*
X72378D01*
X77101Y118454D02*
X73952D01*
X72378Y120028D01*
X73952Y121602D01*
X77101D01*
X72378Y123176D02*
Y124751D01*
Y123964D01*
X77101D01*
X76314Y123176D01*
X66471Y116879D02*
X67258Y116092D01*
Y114518D01*
X66471Y113731D01*
X65684D01*
X64897Y114518D01*
Y116092D01*
X64110Y116879D01*
X63323D01*
X62535Y116092D01*
Y114518D01*
X63323Y113731D01*
X67258Y118454D02*
X62535D01*
Y120815D01*
X63323Y121602D01*
X66471D01*
X67258Y120815D01*
Y118454D01*
X62535Y123176D02*
X65684D01*
X67258Y124751D01*
X65684Y126325D01*
X62535D01*
X64897D01*
Y123176D01*
X56629Y116879D02*
X57416Y116092D01*
Y114518D01*
X56629Y113731D01*
X55841D01*
X55054Y114518D01*
Y116092D01*
X54267Y116879D01*
X53480D01*
X52693Y116092D01*
Y114518D01*
X53480Y113731D01*
X56629Y121602D02*
X57416Y120815D01*
Y119241D01*
X56629Y118454D01*
X53480D01*
X52693Y119241D01*
Y120815D01*
X53480Y121602D01*
X57416Y123176D02*
X52693D01*
Y126325D01*
X206187Y116466D02*
X206974Y115679D01*
Y114104D01*
X206187Y113317D01*
X203038D01*
X202251Y114104D01*
Y115679D01*
X203038Y116466D01*
X204612D01*
Y114892D01*
X202251Y118040D02*
X206974D01*
X202251Y121189D01*
X206974D01*
Y122763D02*
X202251D01*
Y125125D01*
X203038Y125912D01*
X206187D01*
X206974Y125125D01*
Y122763D01*
X196786Y113337D02*
X197573Y114124D01*
Y115698D01*
X196786Y116486D01*
X195999D01*
X195212Y115698D01*
Y114911D01*
Y115698D01*
X194425Y116486D01*
X193638D01*
X192850Y115698D01*
Y114124D01*
X193638Y113337D01*
X192850Y118060D02*
X193638D01*
Y118847D01*
X192850D01*
Y118060D01*
X196786Y121996D02*
X197573Y122783D01*
Y124357D01*
X196786Y125144D01*
X195999D01*
X195212Y124357D01*
Y123570D01*
Y124357D01*
X194425Y125144D01*
X193638D01*
X192850Y124357D01*
Y122783D01*
X193638Y121996D01*
X187337Y116879D02*
Y113731D01*
X184976D01*
Y115305D01*
Y113731D01*
X182614D01*
X187337Y118454D02*
X184188D01*
X182614Y120028D01*
X184188Y121602D01*
X187337D01*
X182614Y123176D02*
Y124751D01*
Y123964D01*
X187337D01*
X186550Y123176D01*
X176707Y116879D02*
X177495Y116092D01*
Y114518D01*
X176707Y113731D01*
X175920D01*
X175133Y114518D01*
Y116092D01*
X174346Y116879D01*
X173559D01*
X172772Y116092D01*
Y114518D01*
X173559Y113731D01*
X177495Y118454D02*
X172772D01*
Y120815D01*
X173559Y121602D01*
X176707D01*
X177495Y120815D01*
Y118454D01*
X172772Y123176D02*
X175920D01*
X177495Y124751D01*
X175920Y126325D01*
X172772D01*
X175133D01*
Y123176D01*
X166865Y116879D02*
X167652Y116092D01*
Y114518D01*
X166865Y113731D01*
X166078D01*
X165290Y114518D01*
Y116092D01*
X164503Y116879D01*
X163716D01*
X162929Y116092D01*
Y114518D01*
X163716Y113731D01*
X166865Y121602D02*
X167652Y120815D01*
Y119241D01*
X166865Y118454D01*
X163716D01*
X162929Y119241D01*
Y120815D01*
X163716Y121602D01*
X167652Y123176D02*
X162929D01*
Y126325D01*
X316423Y116466D02*
X317210Y115679D01*
Y114104D01*
X316423Y113317D01*
X313274D01*
X312487Y114104D01*
Y115679D01*
X313274Y116466D01*
X314849D01*
Y114892D01*
X312487Y118040D02*
X317210D01*
X312487Y121189D01*
X317210D01*
Y122763D02*
X312487D01*
Y125125D01*
X313274Y125912D01*
X316423D01*
X317210Y125125D01*
Y122763D01*
X307022Y113337D02*
X307809Y114124D01*
Y115698D01*
X307022Y116486D01*
X306235D01*
X305448Y115698D01*
Y114911D01*
Y115698D01*
X304661Y116486D01*
X303874D01*
X303087Y115698D01*
Y114124D01*
X303874Y113337D01*
X303087Y118060D02*
X303874D01*
Y118847D01*
X303087D01*
Y118060D01*
X307022Y121996D02*
X307809Y122783D01*
Y124357D01*
X307022Y125144D01*
X306235D01*
X305448Y124357D01*
Y123570D01*
Y124357D01*
X304661Y125144D01*
X303874D01*
X303087Y124357D01*
Y122783D01*
X303874Y121996D01*
X297573Y116879D02*
Y113731D01*
X295212D01*
Y115305D01*
Y113731D01*
X292850D01*
X297573Y118454D02*
X294425D01*
X292850Y120028D01*
X294425Y121602D01*
X297573D01*
X292850Y123176D02*
Y124751D01*
Y123964D01*
X297573D01*
X296786Y123176D01*
X286944Y116879D02*
X287731Y116092D01*
Y114518D01*
X286944Y113731D01*
X286156D01*
X285369Y114518D01*
Y116092D01*
X284582Y116879D01*
X283795D01*
X283008Y116092D01*
Y114518D01*
X283795Y113731D01*
X287731Y118454D02*
X283008D01*
Y120815D01*
X283795Y121602D01*
X286944D01*
X287731Y120815D01*
Y118454D01*
X283008Y123176D02*
X286156D01*
X287731Y124751D01*
X286156Y126325D01*
X283008D01*
X285369D01*
Y123176D01*
X277101Y116879D02*
X277888Y116092D01*
Y114518D01*
X277101Y113731D01*
X276314D01*
X275527Y114518D01*
Y116092D01*
X274740Y116879D01*
X273953D01*
X273165Y116092D01*
Y114518D01*
X273953Y113731D01*
X277101Y121602D02*
X277888Y120815D01*
Y119241D01*
X277101Y118454D01*
X273953D01*
X273165Y119241D01*
Y120815D01*
X273953Y121602D01*
X277888Y123176D02*
X273165D01*
Y126325D01*
X426659Y116466D02*
X427446Y115679D01*
Y114104D01*
X426659Y113317D01*
X423511D01*
X422723Y114104D01*
Y115679D01*
X423511Y116466D01*
X425085D01*
Y114892D01*
X422723Y118040D02*
X427446D01*
X422723Y121189D01*
X427446D01*
Y122763D02*
X422723D01*
Y125125D01*
X423511Y125912D01*
X426659D01*
X427446Y125125D01*
Y122763D01*
X417259Y113337D02*
X418046Y114124D01*
Y115698D01*
X417259Y116486D01*
X416471D01*
X415684Y115698D01*
Y114911D01*
Y115698D01*
X414897Y116486D01*
X414110D01*
X413323Y115698D01*
Y114124D01*
X414110Y113337D01*
X413323Y118060D02*
X414110D01*
Y118847D01*
X413323D01*
Y118060D01*
X417259Y121996D02*
X418046Y122783D01*
Y124357D01*
X417259Y125144D01*
X416471D01*
X415684Y124357D01*
Y123570D01*
Y124357D01*
X414897Y125144D01*
X414110D01*
X413323Y124357D01*
Y122783D01*
X414110Y121996D01*
X407809Y116879D02*
Y113731D01*
X405448D01*
Y115305D01*
Y113731D01*
X403087D01*
X407809Y118454D02*
X404661D01*
X403087Y120028D01*
X404661Y121602D01*
X407809D01*
X403087Y123176D02*
Y124751D01*
Y123964D01*
X407809D01*
X407022Y123176D01*
X397180Y116879D02*
X397967Y116092D01*
Y114518D01*
X397180Y113731D01*
X396393D01*
X395605Y114518D01*
Y116092D01*
X394818Y116879D01*
X394031D01*
X393244Y116092D01*
Y114518D01*
X394031Y113731D01*
X397967Y118454D02*
X393244D01*
Y120815D01*
X394031Y121602D01*
X397180D01*
X397967Y120815D01*
Y118454D01*
X393244Y123176D02*
X396393D01*
X397967Y124751D01*
X396393Y126325D01*
X393244D01*
X395605D01*
Y123176D01*
X387337Y116879D02*
X388124Y116092D01*
Y114518D01*
X387337Y113731D01*
X386550D01*
X385763Y114518D01*
Y116092D01*
X384976Y116879D01*
X384189D01*
X383401Y116092D01*
Y114518D01*
X384189Y113731D01*
X387337Y121602D02*
X388124Y120815D01*
Y119241D01*
X387337Y118454D01*
X384189D01*
X383401Y119241D01*
Y120815D01*
X384189Y121602D01*
X388124Y123176D02*
X383401D01*
Y126325D01*
X536896Y116466D02*
X537683Y115679D01*
Y114104D01*
X536896Y113317D01*
X533747D01*
X532960Y114104D01*
Y115679D01*
X533747Y116466D01*
X535321D01*
Y114892D01*
X532960Y118040D02*
X537683D01*
X532960Y121189D01*
X537683D01*
Y122763D02*
X532960D01*
Y125125D01*
X533747Y125912D01*
X536896D01*
X537683Y125125D01*
Y122763D01*
X527495Y113337D02*
X528282Y114124D01*
Y115698D01*
X527495Y116486D01*
X526708D01*
X525920Y115698D01*
Y114911D01*
Y115698D01*
X525133Y116486D01*
X524346D01*
X523559Y115698D01*
Y114124D01*
X524346Y113337D01*
X523559Y118060D02*
X524346D01*
Y118847D01*
X523559D01*
Y118060D01*
X527495Y121996D02*
X528282Y122783D01*
Y124357D01*
X527495Y125144D01*
X526708D01*
X525920Y124357D01*
Y123570D01*
Y124357D01*
X525133Y125144D01*
X524346D01*
X523559Y124357D01*
Y122783D01*
X524346Y121996D01*
X518046Y116879D02*
Y113731D01*
X515684D01*
Y115305D01*
Y113731D01*
X513323D01*
X518046Y118454D02*
X514897D01*
X513323Y120028D01*
X514897Y121602D01*
X518046D01*
X513323Y123176D02*
Y124751D01*
Y123964D01*
X518046D01*
X517259Y123176D01*
X507416Y116879D02*
X508203Y116092D01*
Y114518D01*
X507416Y113731D01*
X506629D01*
X505842Y114518D01*
Y116092D01*
X505055Y116879D01*
X504267D01*
X503480Y116092D01*
Y114518D01*
X504267Y113731D01*
X508203Y118454D02*
X503480D01*
Y120815D01*
X504267Y121602D01*
X507416D01*
X508203Y120815D01*
Y118454D01*
X503480Y123176D02*
X506629D01*
X508203Y124751D01*
X506629Y126325D01*
X503480D01*
X505842D01*
Y123176D01*
X497574Y116879D02*
X498361Y116092D01*
Y114518D01*
X497574Y113731D01*
X496786D01*
X495999Y114518D01*
Y116092D01*
X495212Y116879D01*
X494425D01*
X493638Y116092D01*
Y114518D01*
X494425Y113731D01*
X497574Y121602D02*
X498361Y120815D01*
Y119241D01*
X497574Y118454D01*
X494425D01*
X493638Y119241D01*
Y120815D01*
X494425Y121602D01*
X498361Y123176D02*
X493638D01*
Y126325D01*
M02*
