G04*
G04 #@! TF.GenerationSoftware,Altium Limited,Altium Designer,20.2.6 (244)*
G04*
G04 Layer_Color=8388736*
%FSLAX25Y25*%
%MOIN*%
G70*
G04*
G04 #@! TF.SameCoordinates,1A3BA952-A66C-493A-B53E-150E5816C36F*
G04*
G04*
G04 #@! TF.FilePolarity,Negative*
G04*
G01*
G75*
%ADD25R,0.02362X0.06102*%
%ADD26R,0.03740X0.04331*%
%ADD27R,0.08465X0.05315*%
G04:AMPARAMS|DCode=28|XSize=37.41mil|YSize=64.97mil|CornerRadius=18.7mil|HoleSize=0mil|Usage=FLASHONLY|Rotation=0.000|XOffset=0mil|YOffset=0mil|HoleType=Round|Shape=RoundedRectangle|*
%AMROUNDEDRECTD28*
21,1,0.03741,0.02756,0,0,0.0*
21,1,0.00000,0.06497,0,0,0.0*
1,1,0.03741,0.00000,-0.01378*
1,1,0.03741,0.00000,-0.01378*
1,1,0.03741,0.00000,0.01378*
1,1,0.03741,0.00000,0.01378*
%
%ADD28ROUNDEDRECTD28*%
%ADD29R,0.06496X0.02953*%
%ADD30R,0.02953X0.06496*%
%ADD31R,0.04331X0.04134*%
%ADD32R,0.07087X0.10433*%
%ADD33R,0.05118X0.04528*%
%ADD34R,0.04134X0.04331*%
%ADD35R,0.07480X0.04921*%
%ADD36R,0.04921X0.07480*%
%ADD37C,0.02953*%
%ADD38O,0.13189X0.05709*%
%ADD39R,0.07382X0.07382*%
%ADD40C,0.07382*%
%ADD41C,0.04134*%
D25*
X58563Y54921D02*
D03*
X56004D02*
D03*
X53445D02*
D03*
X50886D02*
D03*
X48327D02*
D03*
X45768D02*
D03*
X43209D02*
D03*
X40650D02*
D03*
X58563Y32087D02*
D03*
X56004D02*
D03*
X53445D02*
D03*
X50886D02*
D03*
X48327D02*
D03*
X45768D02*
D03*
X43209D02*
D03*
X40650D02*
D03*
D26*
X64075Y45472D02*
D03*
X70374D02*
D03*
X64075Y38386D02*
D03*
X70374D02*
D03*
X64075Y31299D02*
D03*
X70374D02*
D03*
D27*
X21063Y52165D02*
D03*
Y42323D02*
D03*
Y34449D02*
D03*
Y24606D02*
D03*
D28*
X155433Y71850D02*
D03*
X150433D02*
D03*
X145433D02*
D03*
X140433D02*
D03*
D29*
X131949Y49902D02*
D03*
Y46752D02*
D03*
Y53051D02*
D03*
Y40453D02*
D03*
Y37303D02*
D03*
Y43602D02*
D03*
Y34154D02*
D03*
Y31004D02*
D03*
X98484Y53051D02*
D03*
Y46752D02*
D03*
Y43602D02*
D03*
Y49902D02*
D03*
Y37303D02*
D03*
Y34154D02*
D03*
Y40453D02*
D03*
Y31004D02*
D03*
D30*
X113642Y58760D02*
D03*
X116791D02*
D03*
X110492D02*
D03*
X123091D02*
D03*
X126240D02*
D03*
X119941D02*
D03*
X126240Y25295D02*
D03*
X113642D02*
D03*
X116791D02*
D03*
X110492D02*
D03*
X123091D02*
D03*
X119941D02*
D03*
X104193Y58760D02*
D03*
X107343D02*
D03*
Y25295D02*
D03*
X104193D02*
D03*
D31*
X91339Y46555D02*
D03*
Y40453D02*
D03*
X140807Y18602D02*
D03*
Y12500D02*
D03*
X48228Y67815D02*
D03*
Y61713D02*
D03*
X42028D02*
D03*
Y67815D02*
D03*
X64075Y62008D02*
D03*
Y55905D02*
D03*
X70571Y62008D02*
D03*
Y55905D02*
D03*
X35335Y48425D02*
D03*
Y42323D02*
D03*
X29232D02*
D03*
Y48425D02*
D03*
X77067Y62008D02*
D03*
Y55905D02*
D03*
D32*
X171653Y48465D02*
D03*
Y33701D02*
D03*
D33*
X134409Y18602D02*
D03*
Y13484D02*
D03*
X127520Y18602D02*
D03*
Y13484D02*
D03*
D34*
X119744Y18110D02*
D03*
X113642D02*
D03*
X133622Y7382D02*
D03*
X127520D02*
D03*
X123091Y65945D02*
D03*
X116988D02*
D03*
X35335Y30217D02*
D03*
X29232D02*
D03*
X35335Y36319D02*
D03*
X29232D02*
D03*
X48327Y25197D02*
D03*
X54429D02*
D03*
D35*
X159843Y36850D02*
D03*
Y48465D02*
D03*
D36*
X48327Y17520D02*
D03*
X59941D02*
D03*
D37*
X10827Y29528D02*
D03*
Y47244D02*
D03*
X137933Y67303D02*
D03*
X142933D02*
D03*
X147933D02*
D03*
X152933D02*
D03*
X157933D02*
D03*
X90244Y32283D02*
D03*
X137697Y43602D02*
D03*
X104193Y40453D02*
D03*
X120422Y39480D02*
D03*
X86996Y36614D02*
D03*
X118957Y34173D02*
D03*
X131299Y60342D02*
D03*
X58957Y48622D02*
D03*
X50886Y47047D02*
D03*
D38*
X10827Y15551D02*
D03*
Y61221D02*
D03*
D39*
X185138Y58465D02*
D03*
D40*
Y48465D02*
D03*
Y38465D02*
D03*
Y28465D02*
D03*
Y18465D02*
D03*
D41*
X149370Y20305D02*
D03*
X113642Y10335D02*
D03*
X149370Y48465D02*
D03*
X131890Y65945D02*
D03*
X91339Y51378D02*
D03*
X36220Y67815D02*
D03*
X28937Y24213D02*
D03*
M02*
