M48
;Layer_Color=9474304
;FILE_FORMAT=2:5
INCH,TZ
;TYPE=PLATED
T1F00S00C0.01181
T2F00S00C0.01968
T4F00S00C0.04331
;TYPE=NON_PLATED
T5F00S00C0.02362
T6F00S00C0.05906
%
T01
X9252Y2559
X2362Y13582
Y38386
X14665Y52165
X21063Y47244
X29232Y52756
X40650Y42323
X50886Y47047
X48327Y49606
X58957Y48622
X57284Y45472
X50886Y37402
X58661Y25197
X55216Y17520
X59941Y11614
X58860Y2559
X34056
Y13583
X35335Y25787
X21063Y29528
X64075Y26673
X64764Y17520
X83664Y16732
X83760Y26772
Y34437
X86996Y36614
X90244Y32283
X103740Y30610
X104193Y40453
X111410Y37894
X111811Y44488
X115748Y40846
X120422Y39480
Y44488
X118957Y34173
X116791Y30610
X126772
X124665Y36850
X139399Y36909
X137697Y43602
X143307Y47343
X146063Y40945
X159843Y41530
Y32283
Y23622
X171653Y25591
X177362Y33760
X171653Y41043
X190849Y41530
Y16726
X180121Y2559
X157286
X140807Y7776
X132482Y2559
X129528Y22835
X134646Y25591
X144803Y20305
X119744Y13878
X107678Y16732
Y2559
X96457Y8563
X83664Y2559
X74410Y34437
X74114Y45177
X77067Y51575
X69291Y51772
X62500Y50591
X60433Y41043
X85766Y51575
X103740Y53543
X113642
X126772Y52362
X131299Y60342
X129331Y62894
X139961Y62343
X143307Y58858
X146752Y55315
X158976Y63465
X164272Y59646
X159172Y74410
X180121Y74409
X190849Y66334
X131890Y74410
X116988Y70079
X107678Y74409
X96457Y68209
X83664Y74409
X58860
X48228Y72244
X34056Y74409
X36516Y61713
X21063Y57284
X2362Y63190
X9252Y74409
X58366Y59646
T02
X28937Y24213
X91339Y51378
X149370Y48465
Y20305
X113642Y10335
X131890Y65945
X36220Y67815
T04
X185138Y18465
Y28465
Y38465
Y48465
Y58465
T05
X137933Y67303
X142933
X147933
X152933
X157933
T06
X10827Y29528
Y47244
M30
