G04*
G04 #@! TF.GenerationSoftware,Altium Limited,Altium Designer,20.2.6 (244)*
G04*
G04 Layer_Color=16711935*
%FSLAX25Y25*%
%MOIN*%
G70*
G04*
G04 #@! TF.SameCoordinates,E18C8A27-7A4C-4C86-8F13-DB4CBD3CA756*
G04*
G04*
G04 #@! TF.FilePolarity,Negative*
G04*
G01*
G75*
%ADD10C,0.11811*%
%ADD39C,0.01968*%
G04:AMPARAMS|DCode=59|XSize=37.41mil|YSize=64.97mil|CornerRadius=18.7mil|HoleSize=0mil|Usage=FLASHONLY|Rotation=360.000|XOffset=0mil|YOffset=0mil|HoleType=Round|Shape=RoundedRectangle|*
%AMROUNDEDRECTD59*
21,1,0.03741,0.02756,0,0,360.0*
21,1,0.00000,0.06497,0,0,360.0*
1,1,0.03741,0.00000,-0.01378*
1,1,0.03741,0.00000,-0.01378*
1,1,0.03741,0.00000,0.01378*
1,1,0.03741,0.00000,0.01378*
%
%ADD59ROUNDEDRECTD59*%
G04:AMPARAMS|DCode=74|XSize=37.41mil|YSize=64.97mil|CornerRadius=18.7mil|HoleSize=0mil|Usage=FLASHONLY|Rotation=270.000|XOffset=0mil|YOffset=0mil|HoleType=Round|Shape=RoundedRectangle|*
%AMROUNDEDRECTD74*
21,1,0.03741,0.02756,0,0,270.0*
21,1,0.00000,0.06497,0,0,270.0*
1,1,0.03741,-0.01378,0.00000*
1,1,0.03741,-0.01378,0.00000*
1,1,0.03741,0.01378,0.00000*
1,1,0.03741,0.01378,0.00000*
%
%ADD74ROUNDEDRECTD74*%
%ADD80C,0.02953*%
%ADD81R,0.07382X0.07382*%
%ADD82C,0.07382*%
%ADD83O,0.13189X0.05709*%
%ADD84C,0.04134*%
%ADD85R,0.07382X0.07382*%
%ADD86O,0.05709X0.13189*%
D10*
X11811Y11811D02*
D03*
X578740D02*
D03*
Y381890D02*
D03*
X11811Y381890D02*
D03*
D39*
X483464Y39961D02*
D03*
Y119193D02*
D03*
X491338Y39961D02*
D03*
Y119193D02*
D03*
X495276Y39961D02*
D03*
X487401D02*
D03*
X479527D02*
D03*
X495276Y119193D02*
D03*
X487401D02*
D03*
X479527D02*
D03*
X190453Y39961D02*
D03*
X186515D02*
D03*
X190453Y119193D02*
D03*
X186515D02*
D03*
X198327Y39961D02*
D03*
X194390D02*
D03*
X198327Y119193D02*
D03*
X194390D02*
D03*
X202264Y39961D02*
D03*
Y119193D02*
D03*
X504823Y362303D02*
D03*
X512697D02*
D03*
X520571D02*
D03*
X516634D02*
D03*
X508760D02*
D03*
X508760Y166929D02*
D03*
X516634D02*
D03*
X520571D02*
D03*
X512697D02*
D03*
X504823D02*
D03*
X473130Y317618D02*
D03*
Y325492D02*
D03*
Y329429D02*
D03*
Y321555D02*
D03*
Y313681D02*
D03*
X552264Y313681D02*
D03*
Y321555D02*
D03*
Y329429D02*
D03*
Y325492D02*
D03*
Y317618D02*
D03*
X473130Y225000D02*
D03*
Y232874D02*
D03*
Y240748D02*
D03*
Y236811D02*
D03*
Y228937D02*
D03*
X552362Y225000D02*
D03*
Y232874D02*
D03*
Y240748D02*
D03*
Y236811D02*
D03*
Y228937D02*
D03*
X394587Y362303D02*
D03*
X402461D02*
D03*
X410335D02*
D03*
X406398D02*
D03*
X398524D02*
D03*
X398524Y166929D02*
D03*
X406398D02*
D03*
X410335D02*
D03*
X402461D02*
D03*
X394587D02*
D03*
X362894Y317618D02*
D03*
Y325492D02*
D03*
Y329429D02*
D03*
Y321555D02*
D03*
Y313681D02*
D03*
X442028Y313681D02*
D03*
Y321555D02*
D03*
Y329429D02*
D03*
Y325492D02*
D03*
Y317618D02*
D03*
X362894Y225000D02*
D03*
Y232874D02*
D03*
Y240748D02*
D03*
Y236811D02*
D03*
Y228937D02*
D03*
X442126Y225000D02*
D03*
Y232874D02*
D03*
Y240748D02*
D03*
Y236811D02*
D03*
Y228937D02*
D03*
X284350Y362303D02*
D03*
X292225D02*
D03*
X300099D02*
D03*
X296162D02*
D03*
X288287D02*
D03*
X288287Y166929D02*
D03*
X296162D02*
D03*
X300099D02*
D03*
X292225D02*
D03*
X284350D02*
D03*
X252658Y317618D02*
D03*
Y325492D02*
D03*
Y329429D02*
D03*
Y321555D02*
D03*
Y313681D02*
D03*
X331791Y313681D02*
D03*
Y321555D02*
D03*
Y329429D02*
D03*
Y325492D02*
D03*
Y317618D02*
D03*
X252658Y225000D02*
D03*
Y232874D02*
D03*
Y240748D02*
D03*
Y236811D02*
D03*
Y228937D02*
D03*
X331890Y225000D02*
D03*
Y232874D02*
D03*
Y240748D02*
D03*
Y236811D02*
D03*
Y228937D02*
D03*
X174114Y362303D02*
D03*
X181988D02*
D03*
X189863D02*
D03*
X185925D02*
D03*
X178051D02*
D03*
X178051Y166929D02*
D03*
X185925D02*
D03*
X189863D02*
D03*
X181988D02*
D03*
X174114D02*
D03*
X142421Y317618D02*
D03*
Y325492D02*
D03*
Y329429D02*
D03*
Y321555D02*
D03*
Y313681D02*
D03*
X221555Y313681D02*
D03*
Y321555D02*
D03*
Y329429D02*
D03*
Y325492D02*
D03*
Y317618D02*
D03*
X142421Y225000D02*
D03*
Y232874D02*
D03*
Y240748D02*
D03*
Y236811D02*
D03*
Y228937D02*
D03*
X221654Y225000D02*
D03*
Y232874D02*
D03*
Y240748D02*
D03*
Y236811D02*
D03*
Y228937D02*
D03*
X63878Y362303D02*
D03*
X71752D02*
D03*
X79626D02*
D03*
X75689D02*
D03*
X67815D02*
D03*
X67815Y166929D02*
D03*
X75689D02*
D03*
X79626D02*
D03*
X71752D02*
D03*
X63878D02*
D03*
X32185Y317618D02*
D03*
Y325492D02*
D03*
Y329429D02*
D03*
Y321555D02*
D03*
Y313681D02*
D03*
X111319Y313681D02*
D03*
Y321555D02*
D03*
Y329429D02*
D03*
Y325492D02*
D03*
Y317618D02*
D03*
X32185Y225000D02*
D03*
Y232874D02*
D03*
Y240748D02*
D03*
Y236811D02*
D03*
Y228937D02*
D03*
X111417Y225000D02*
D03*
Y232874D02*
D03*
Y240748D02*
D03*
Y236811D02*
D03*
Y228937D02*
D03*
X358268Y71653D02*
D03*
Y79528D02*
D03*
Y87402D02*
D03*
Y83465D02*
D03*
Y75591D02*
D03*
X553642Y75591D02*
D03*
Y83465D02*
D03*
Y87402D02*
D03*
Y79528D02*
D03*
Y71653D02*
D03*
X402953Y39961D02*
D03*
X395079D02*
D03*
X391142D02*
D03*
X399016D02*
D03*
X406890D02*
D03*
X406890Y119095D02*
D03*
X399016D02*
D03*
X391142D02*
D03*
X395079D02*
D03*
X402953D02*
D03*
X109941Y119095D02*
D03*
X102067D02*
D03*
X98130D02*
D03*
X106004D02*
D03*
X113878D02*
D03*
X113878Y39961D02*
D03*
X106004D02*
D03*
X98130D02*
D03*
X102067D02*
D03*
X109941D02*
D03*
X260630Y71653D02*
D03*
Y79528D02*
D03*
Y87402D02*
D03*
Y83465D02*
D03*
Y75591D02*
D03*
X65256Y75591D02*
D03*
Y83465D02*
D03*
Y87402D02*
D03*
Y79528D02*
D03*
Y71653D02*
D03*
D59*
X514874Y113041D02*
D03*
X509874D02*
D03*
X504874D02*
D03*
X499874D02*
D03*
X221898Y113041D02*
D03*
X216898D02*
D03*
X211898D02*
D03*
X206898D02*
D03*
D74*
X105252Y205640D02*
D03*
Y210640D02*
D03*
Y215640D02*
D03*
Y220640D02*
D03*
X215488Y205640D02*
D03*
Y210640D02*
D03*
Y215640D02*
D03*
Y220640D02*
D03*
X325724Y205640D02*
D03*
Y210640D02*
D03*
Y215640D02*
D03*
Y220640D02*
D03*
X435960Y205640D02*
D03*
Y210640D02*
D03*
Y215640D02*
D03*
Y220640D02*
D03*
X546197Y205640D02*
D03*
Y210640D02*
D03*
Y215640D02*
D03*
Y220640D02*
D03*
D80*
X517374Y108494D02*
D03*
X512374D02*
D03*
X507374D02*
D03*
X502374D02*
D03*
X497374D02*
D03*
X370268Y70718D02*
D03*
Y88435D02*
D03*
X449686Y73474D02*
D03*
X497138Y84793D02*
D03*
X463634Y81643D02*
D03*
X479863Y80670D02*
D03*
X446438Y77805D02*
D03*
X478398Y75364D02*
D03*
X490740Y101532D02*
D03*
X418398Y89813D02*
D03*
X410327Y88238D02*
D03*
X224398Y108494D02*
D03*
X219398D02*
D03*
X214398D02*
D03*
X209398D02*
D03*
X204398D02*
D03*
X77291Y70718D02*
D03*
Y88435D02*
D03*
X156709Y73474D02*
D03*
X204161Y84793D02*
D03*
X170657Y81643D02*
D03*
X186886Y80670D02*
D03*
X153461Y77805D02*
D03*
X185421Y75364D02*
D03*
X197764Y101532D02*
D03*
X125421Y89813D02*
D03*
X117350Y88238D02*
D03*
X100705Y203140D02*
D03*
Y208140D02*
D03*
Y213140D02*
D03*
Y218140D02*
D03*
Y223140D02*
D03*
X62929Y350247D02*
D03*
X80646D02*
D03*
X65685Y270829D02*
D03*
X77004Y223376D02*
D03*
X73854Y256880D02*
D03*
X72882Y240652D02*
D03*
X70016Y274077D02*
D03*
X67575Y242116D02*
D03*
X93743Y229774D02*
D03*
X82024Y302117D02*
D03*
X80449Y310187D02*
D03*
X210941Y203140D02*
D03*
Y208140D02*
D03*
Y213140D02*
D03*
Y218140D02*
D03*
Y223140D02*
D03*
X173165Y350247D02*
D03*
X190882D02*
D03*
X175921Y270829D02*
D03*
X187240Y223376D02*
D03*
X184090Y256880D02*
D03*
X183118Y240652D02*
D03*
X180252Y274077D02*
D03*
X177811Y242116D02*
D03*
X203979Y229774D02*
D03*
X192260Y302117D02*
D03*
X190685Y310187D02*
D03*
X321177Y203140D02*
D03*
Y208140D02*
D03*
Y213140D02*
D03*
Y218140D02*
D03*
Y223140D02*
D03*
X283401Y350247D02*
D03*
X301118D02*
D03*
X286157Y270829D02*
D03*
X297476Y223376D02*
D03*
X294327Y256880D02*
D03*
X293354Y240652D02*
D03*
X290488Y274077D02*
D03*
X288047Y242116D02*
D03*
X314215Y229774D02*
D03*
X302496Y302117D02*
D03*
X300921Y310187D02*
D03*
X431413Y203140D02*
D03*
Y208140D02*
D03*
Y213140D02*
D03*
Y218140D02*
D03*
Y223140D02*
D03*
X393638Y350247D02*
D03*
X411354D02*
D03*
X396394Y270829D02*
D03*
X407713Y223376D02*
D03*
X404563Y256880D02*
D03*
X403590Y240652D02*
D03*
X400724Y274077D02*
D03*
X398283Y242116D02*
D03*
X424452Y229774D02*
D03*
X412732Y302117D02*
D03*
X411158Y310187D02*
D03*
X541650Y203140D02*
D03*
Y208140D02*
D03*
Y213140D02*
D03*
Y218140D02*
D03*
Y223140D02*
D03*
X503874Y350247D02*
D03*
X521591D02*
D03*
X506630Y270829D02*
D03*
X517949Y223376D02*
D03*
X514799Y256880D02*
D03*
X513826Y240652D02*
D03*
X510961Y274077D02*
D03*
X508520Y242116D02*
D03*
X534688Y229774D02*
D03*
X522968Y302117D02*
D03*
X521394Y310187D02*
D03*
D81*
X544579Y99655D02*
D03*
X251602Y99655D02*
D03*
D82*
X544579Y89655D02*
D03*
Y79655D02*
D03*
Y69655D02*
D03*
Y59655D02*
D03*
X251602Y89655D02*
D03*
Y79655D02*
D03*
Y69655D02*
D03*
Y59655D02*
D03*
X81866Y175935D02*
D03*
X71866D02*
D03*
X61866D02*
D03*
X51866D02*
D03*
X192102D02*
D03*
X182102D02*
D03*
X172102D02*
D03*
X162102D02*
D03*
X302339D02*
D03*
X292339D02*
D03*
X282339D02*
D03*
X272339D02*
D03*
X412575D02*
D03*
X402575D02*
D03*
X392575D02*
D03*
X382575D02*
D03*
X522811D02*
D03*
X512811D02*
D03*
X502811D02*
D03*
X492811D02*
D03*
D83*
X370268Y56742D02*
D03*
Y102411D02*
D03*
X77291Y56742D02*
D03*
Y102411D02*
D03*
D84*
X508811Y55862D02*
D03*
X473083Y51525D02*
D03*
X508811Y89655D02*
D03*
X491331Y107135D02*
D03*
X450780Y92568D02*
D03*
X395662Y109005D02*
D03*
X388378Y65403D02*
D03*
X215834Y55862D02*
D03*
X180106Y51525D02*
D03*
X215834Y89655D02*
D03*
X198354Y107135D02*
D03*
X157803Y92568D02*
D03*
X102685Y109005D02*
D03*
X95402Y65403D02*
D03*
X48073Y211703D02*
D03*
X43736Y247431D02*
D03*
X81866Y211703D02*
D03*
X99346Y229184D02*
D03*
X84780Y269735D02*
D03*
X101216Y324853D02*
D03*
X57614Y332136D02*
D03*
X158309Y211703D02*
D03*
X153972Y247431D02*
D03*
X192102Y211703D02*
D03*
X209583Y229184D02*
D03*
X195016Y269735D02*
D03*
X211453Y324853D02*
D03*
X167850Y332136D02*
D03*
X268546Y211703D02*
D03*
X264209Y247431D02*
D03*
X302339Y211703D02*
D03*
X319819Y229184D02*
D03*
X305252Y269735D02*
D03*
X321689Y324853D02*
D03*
X278087Y332136D02*
D03*
X378782Y211703D02*
D03*
X374445Y247431D02*
D03*
X412575Y211703D02*
D03*
X430055Y229184D02*
D03*
X415488Y269735D02*
D03*
X431925Y324853D02*
D03*
X388323Y332136D02*
D03*
X489018Y211703D02*
D03*
X484681Y247431D02*
D03*
X522811Y211703D02*
D03*
X540291Y229184D02*
D03*
X525724Y269735D02*
D03*
X542161Y324853D02*
D03*
X498559Y332136D02*
D03*
D85*
X91866Y175935D02*
D03*
X202102D02*
D03*
X312339D02*
D03*
X422575D02*
D03*
X532811D02*
D03*
D86*
X48953Y350247D02*
D03*
X94622D02*
D03*
X159189D02*
D03*
X204858D02*
D03*
X269425D02*
D03*
X315094D02*
D03*
X379661D02*
D03*
X425331D02*
D03*
X489898D02*
D03*
X535567D02*
D03*
M02*
