M48
;Layer_Color=9474304
;FILE_FORMAT=2:4
INCH,TZ
;TYPE=PLATED
T1F00S00C0.0118
T2F00S00C0.0197
T4F00S00C0.0433
;TYPE=NON_PLATED
T5F00S00C0.0197
T6F00S00C0.0236
T7F00S00C0.0591
T8F00S00C0.1181
%
T01
X3891Y11304
Y13587
X4413Y15235
X5666Y14836
X5998Y13332
X6864
X7788
X7740Y12151
X7011Y11580
X6194Y12151
X5308Y10231
X7788
X10269
X11076Y11304
X11076Y13399
X9982Y13418
X9600Y12889
X9521Y14985
X9870Y15320
X9167Y14641
X8370Y14985
X7730Y14710
X7326Y15376
X7996Y15546
X15437Y15235
X14915Y13587
Y11304
X16332Y10231
X18812
X18763Y12151
X18812Y13332
X17887
X17021
X17218Y12151
X18035Y11580
X18754Y14710
X19393Y14985
X19019Y15546
X18350Y15376
X16690Y14836
X20191Y14641
X20545Y14985
X20893Y15320
X21006Y13418
X20624Y12889
X22100Y13399
X22100Y11304
X21292Y10231
X25939Y11304
Y13587
X26460Y15235
X27713Y14836
X28045Y13332
X28911
X29836
X29787Y12151
X29059Y11580
X28242Y12151
X27355Y10231
X29836
X29777Y14710
X30417Y14985
X30043Y15546
X29374Y15376
X31214Y14641
X31569Y14985
X31917Y15320
X32029Y13418
X31647Y12889
X33124Y13399
X33124Y11304
X32316Y10231
X36962Y11304
Y13587
X37484Y15235
X38737Y14836
X39069Y13332
X39935
X40859
X40811Y12151
X40082Y11580
X39265Y12151
X38379Y10231
X40859
X43340
X44147Y11304
X44147Y13399
X43053Y13418
X42671Y12889
X42592Y14985
X42941Y15320
X42238Y14641
X41441Y14985
X40801Y14710
X40397Y15376
X41067Y15546
X48507Y15235
X49760Y14836
X50092Y13332
X50958
X51883
X51834Y12151
X51106Y11580
X50289Y12151
X49402Y10231
X51883
X54363
X55171Y11304
X55171Y13399
X54076Y13418
X53694Y12889
X53616Y14985
X53964Y15320
X53261Y14641
X52464Y14985
X51824Y14710
X51421Y15376
X52090Y15546
X47986Y13587
Y11304
Y16068
X50013Y16363
X50289Y15851
X50791Y16639
X51415Y16849
X51678Y17274
X52179
X51815Y17741
X51519Y18175
X52179Y18135
X53084Y17952
Y18942
X51775Y18897
X50791Y18942
Y17637
X51147Y17420
X49118Y17342
X49403Y18548
X47986
X48586Y19670
X47986Y20950
X49403
X50407Y20940
X51174
X51391Y20616
X50958Y20292
X51174Y21875
X52248Y21905
X52887Y21609
X52907Y22387
X52789Y23066
X52592Y23420
X52277Y23588
X51834Y23273
X51470Y24227
X52435
X52691Y24483
X51962Y25251
X53006Y26393
X53458Y27210
X52454
X52946Y27849
X54049Y29080
X55171Y28391
Y25910
X53901Y25664
X54954Y24493
X55171Y23430
X53694Y23479
X50250Y23450
X50397Y22908
X49482Y22840
Y23794
X48891Y23322
X47986Y23430
Y25910
X49088
X50309Y25783
X50683Y27210
X51569Y29080
X49088
X47986Y28391
X52887Y20739
X55171Y20950
X54551Y19670
X55171Y18548
X54738Y17617
X55171Y16127
X54019Y16383
X53764Y16186
X52966Y16639
X44147Y16127
X42996Y16383
X42740Y16186
X41943Y16639
X41155Y17274
X40654
X40791Y17741
X40496Y18175
X41155Y18135
X42061Y17952
Y18942
X40752Y18897
X39767Y18942
Y17637
X40124Y17420
X40391Y16849
X39767Y16639
X38990Y16363
X39265Y15851
X36962Y16068
X38094Y17342
X38380Y18548
X36962
X37563Y19670
X36962Y20950
X38380
X39383Y20940
X40150
X40368Y20616
X39935Y20292
X40150Y21875
X41224Y21905
X41864Y21609
X41883Y22387
X41765Y23066
X41568Y23420
X41254Y23588
X40811Y23273
X40446Y24227
X41411
X41667Y24483
X40939Y25251
X41982Y26393
X42435Y27210
X41431
X41923Y27849
X43025Y29080
X44147Y28391
Y25910
X42878Y25664
X43931Y24493
X44147Y23430
X42671Y23479
X39226Y23450
X39374Y22908
X38458Y22840
Y23794
X37868Y23322
X36962Y23430
Y25910
X38065
X39285Y25783
X39659Y27210
X40545Y29080
X38065
X36962Y28391
X33124
X32002Y29080
X31411Y27210
X31854Y25664
X33124Y25910
X32907Y24493
X33124Y23430
X31647Y23479
X33124Y20950
X32504Y19670
X33124Y18548
X32691Y17617
X33124Y16127
X31972Y16383
X31717Y16186
X43714Y17617
X44147Y18548
X43527Y19670
X44147Y20950
X41864Y20739
X30840
Y21609
X30860Y22387
X30742Y23066
X30545Y23420
X30230Y23588
X29787Y23273
X29423Y24227
X30387
X30643Y24483
X29915Y25251
X30958Y26393
X30407Y27210
X30899Y27849
X29521Y29080
X27041
X25939Y28391
Y25910
X27041
X28261Y25783
X28635Y27210
X28202Y23450
X28350Y22908
X27435Y22840
Y23794
X26844Y23322
X25939Y23430
Y20950
X27356
X28360Y20940
X29126
X29344Y20616
X28911Y20292
X28744Y18942
X29728Y18897
X29472Y18175
X30131Y18135
X29767Y17741
X29631Y17274
X30131
X29100Y17420
X28744Y17637
Y16639
X29368Y16849
X30919Y16639
X31037Y17952
Y18942
X30200Y21905
X29126Y21875
X26539Y19670
X25939Y18548
X27356
X27070Y17342
X27966Y16363
X28242Y15851
X25939Y16068
X22100Y16127
X20948Y16383
X20693Y16186
X19895Y16639
X19108Y17274
X18607
X18744Y17741
X18448Y18175
X19108Y18135
X20013Y17952
Y18942
X18704Y18897
X17720Y18942
Y17637
X18076Y17420
X18344Y16849
X17720Y16639
X16943Y16363
X17218Y15851
X16047Y17342
X16332Y18548
Y20950
X17336Y20940
X18103
X18320Y20616
X17887Y20292
X18103Y21875
X19177Y21905
X19817Y21609
X19836Y22387
X19718Y23066
X19521Y23420
X19206Y23588
X18763Y23273
X18399Y24227
X19364
X19620Y24483
X18891Y25251
X19935Y26393
X20387Y27210
X19383
X19876Y27849
X20978Y29080
X22100Y28391
Y25910
X20830Y25664
X21883Y24493
X22100Y23430
X20624Y23479
X17179Y23450
X17326Y22908
X16411Y22840
Y23794
X15820Y23322
X16017Y25910
X17238Y25783
X17612Y27210
X18498Y29080
X16017
X19817Y20739
X22100Y20950
X21480Y19670
X22100Y18548
X21667Y17617
X14915Y18548
X15515Y19670
X14915Y20950
Y23430
Y25910
Y28391
X11076
X9954Y29080
X8852Y27849
X8360Y27210
X9364
X8911Y26393
X9807Y25664
X11076Y25910
X10860Y24493
X11076Y23430
X9600Y23479
X8498Y23420
X8183Y23588
X7740Y23273
X8694Y23066
X8813Y22387
X8793Y21609
Y20739
X7297Y20616
X7079Y20940
X6313
X5309Y20950
X3891
X4492Y19670
X3891Y18548
X5309
X5023Y17342
X5919Y16363
X6194Y15851
X6696Y16639
X7320Y16849
X7583Y17274
X8084
X7720Y17741
X7425Y18175
X8084Y18135
X8990Y17952
Y18942
X7681Y18897
X6696Y18942
Y17637
X7053Y17420
X8872Y16639
X9670Y16186
X9925Y16383
X11076Y16127
X10643Y17617
X11076Y18548
X10456Y19670
X11076Y20950
X8153Y21905
X7079Y21875
X6864Y20292
X6303Y22908
X6155Y23450
X5387Y23794
Y22840
X4797Y23322
X3891Y23430
Y25910
X4994
X6214Y25783
X6588Y27210
X7474Y29080
X4994
X3891Y28391
X7868Y25251
X8340Y24227
X8596Y24483
X7376Y24227
X3891Y16068
X14915
T02
X5666Y14379
X8482
X16690
X19506
X27713
X30529
X38737
X41553
X49760
X52576
X54324Y16127
X52868Y20182
X48763Y17952
X50151Y26422
X54511Y25694
X43488
X39128Y26422
X32464Y25694
X32277Y16127
X37740Y17952
X41844Y20182
X43301Y16127
X30820Y20182
X26716Y17952
X21254Y16127
X19797Y20182
X15693Y17952
X17080Y26422
X21441Y25694
X28104Y26422
X10417Y25694
X6057Y26422
X8773Y20182
X10230Y16127
X4669Y17952
T04
X5482Y10802
X6482
X7482
X8482
X9482
X16506
X17506
X18506
X19506
X20506
X27529
X28529
X29529
X30529
X31529
X38553
X39553
X40553
X41553
X42553
X49576
X50576
X51576
X52576
X53576
T05
X6683Y9902
X7077
X7470
X7864
X8258
X17707
X18100
X18494
X18888
X19282
X28730
X29124
X29518
X29911
X30305
X39754
X40148
X40541
X40935
X41329
X50778
X51171
X51565
X51959
X52352
X55531Y15709
Y16102
Y16496
Y16890
Y17283
X55522Y24577
Y24970
Y25364
Y25758
Y26152
X52352Y29439
X51959
X51565
X51171
X50778
X47608Y26152
Y25758
Y25364
Y24970
Y24577
X47608Y17283
Y16890
Y16496
Y16102
Y15709
X44508
Y16102
Y16496
Y16890
Y17283
X44498Y24577
Y24970
Y25364
Y25758
Y26152
X41329Y29439
X40935
X40541
X40148
X39754
X36585Y26152
Y25758
Y25364
Y24970
Y24577
X33474Y24577
Y24970
Y25364
Y25758
Y26152
X33484Y17283
Y16890
Y16496
Y16102
Y15709
X36585
Y16102
Y16496
Y16890
Y17283
X25561
Y16890
Y16496
Y16102
Y15709
X22461
Y16102
Y16496
Y16890
Y17283
X22451Y24577
Y24970
Y25364
Y25758
Y26152
X25561Y26152
Y25758
Y25364
Y24970
Y24577
X28730Y29439
X29124
X29518
X29911
X30305
X19282
X18888
X18494
X18100
X17707
X14537Y26152
Y25758
Y25364
Y24970
Y24577
X11427Y24577
Y24970
Y25364
Y25758
Y26152
X8258Y29439
X7864
X7470
X7077
X6683
X3514Y26152
Y25758
Y25364
Y24970
Y24577
X3514Y17283
Y16890
Y16496
Y16102
Y15709
X11437
Y16102
Y16496
Y16890
Y17283
X14537
Y16890
Y16496
Y16102
Y15709
T06
X10366Y13523
Y14023
Y14523
Y15023
Y15523
X21389
Y15023
Y14523
Y14023
Y13523
X32413
Y14023
Y14523
Y15023
Y15523
X43437
Y15023
Y14523
Y14023
Y13523
X54460
Y14023
Y14523
Y15023
Y15523
T07
X50683Y28233
X52454
X41431
X39659
X30407
X28635
X19383
X17612
X8360
X6588
T08
X1181Y1181
X57874
X1181Y38189
X57874Y38189
M30
