M48
;Layer_Color=9474304
;FILE_FORMAT=2:5
INCH,TZ
;TYPE=PLATED
T3F00S00C0.02756
;TYPE=NON_PLATED
%
G90
G05
T03
G00X73748Y56742
M15
G01X80835
M16
G00X73748Y102411
M15
G01X80835
M16
G00X366725Y102411
M15
G01X373811
M16
G00X366725Y56742
M15
G01X373811
M16
G00X94622Y353790
M15
G01Y346703
M16
G00X48953Y353790
M15
G01Y346703
M16
G00X159189Y353790
M15
G01Y346703
M16
G00X204858Y353790
M15
G01Y346703
M16
G00X269425Y353790
M15
G01Y346703
M16
G00X315094Y353790
M15
G01Y346703
M16
G00X379661Y353790
M15
G01Y346703
M16
G00X425331Y353790
M15
G01Y346703
M16
G00X489898Y353790
M15
G01Y346703
M16
G00X535567Y353790
M15
G01Y346703
M16
M17
M30
