G04*
G04 #@! TF.GenerationSoftware,Altium Limited,Altium Designer,21.0.8 (223)*
G04*
G04 Layer_Color=32768*
%FSLAX25Y25*%
%MOIN*%
G70*
G04*
G04 #@! TF.SameCoordinates,FF83F617-0E9F-4FC0-9F70-085B7F74A640*
G04*
G04*
G04 #@! TF.FilePolarity,Positive*
G04*
G01*
G75*
%ADD67C,0.00100*%
%ADD68C,0.05512*%
D67*
Y3937D01*
Y393701D01*
X590551D01*
X590551Y0D01*
X0D02*
X590551D01*
D68*
X36354Y288928D02*
X35300Y288718D01*
X34405Y288120D01*
X33808Y287226D01*
X33598Y286172D01*
X36354Y288928D02*
X35300Y288718D01*
X34405Y288120D01*
X33808Y287226D01*
X33598Y286172D01*
X36354Y288928D02*
X35300Y288718D01*
X34405Y288120D01*
X33808Y287226D01*
X33598Y286172D01*
X36354Y288928D02*
X35300Y288718D01*
X34405Y288120D01*
X33808Y287226D01*
X33598Y286172D01*
X43244Y295916D02*
X42189Y295706D01*
X41295Y295109D01*
X40698Y294215D01*
X40488Y293160D01*
X43244Y295916D02*
X42189Y295706D01*
X41295Y295109D01*
X40698Y294215D01*
X40488Y293160D01*
X43244Y295916D02*
X42189Y295706D01*
X41295Y295109D01*
X40698Y294215D01*
X40488Y293160D01*
X43244Y295916D02*
X42189Y295706D01*
X41295Y295109D01*
X40698Y294215D01*
X40488Y293160D01*
X36354Y192471D02*
X35300Y192261D01*
X34405Y191664D01*
X33808Y190770D01*
X33598Y189715D01*
X36354Y192471D02*
X35300Y192261D01*
X34405Y191664D01*
X33808Y190770D01*
X33598Y189715D01*
X36354Y192471D02*
X35300Y192261D01*
X34405Y191664D01*
X33808Y190770D01*
X33598Y189715D01*
X36354Y192471D02*
X35300Y192261D01*
X34405Y191664D01*
X33808Y190770D01*
X33598Y189715D01*
Y203495D02*
X33808Y202440D01*
X34405Y201546D01*
X35300Y200948D01*
X36354Y200739D01*
X33598Y203495D02*
X33808Y202440D01*
X34405Y201546D01*
X35300Y200948D01*
X36354Y200739D01*
X33598Y203495D02*
X33808Y202440D01*
X34405Y201546D01*
X35300Y200948D01*
X36354Y200739D01*
X33598Y203495D02*
X33808Y202440D01*
X34405Y201546D01*
X35300Y200948D01*
X36354Y200739D01*
X33598Y131644D02*
X33808Y130589D01*
X34405Y129695D01*
X35300Y129098D01*
X36354Y128888D01*
X33598Y131644D02*
X33808Y130589D01*
X34405Y129695D01*
X35300Y129098D01*
X36354Y128888D01*
X36354Y128495D02*
X35300Y128285D01*
X34405Y127687D01*
X33808Y126793D01*
X33598Y125739D01*
X36354Y128495D02*
X35300Y128285D01*
X34405Y127687D01*
X33808Y126793D01*
X33598Y125739D01*
X33598Y131644D02*
X33808Y130589D01*
X34405Y129695D01*
X35300Y129098D01*
X36354Y128888D01*
X33598Y131644D02*
X33808Y130589D01*
X34405Y129695D01*
X35300Y129098D01*
X36354Y128888D01*
X36354Y128495D02*
X35300Y128285D01*
X34405Y127687D01*
X33808Y126793D01*
X33598Y125739D01*
X36354Y128495D02*
X35300Y128285D01*
X34405Y127687D01*
X33808Y126793D01*
X33598Y125739D01*
Y108022D02*
X33808Y106967D01*
X34405Y106073D01*
X35300Y105476D01*
X36354Y105266D01*
X33598Y108022D02*
X33808Y106967D01*
X34405Y106073D01*
X35300Y105476D01*
X36354Y105266D01*
X33598Y108022D02*
X33808Y106967D01*
X34405Y106073D01*
X35300Y105476D01*
X36354Y105266D01*
X33598Y108022D02*
X33808Y106967D01*
X34405Y106073D01*
X35300Y105476D01*
X36354Y105266D01*
X41472Y100148D02*
X41682Y99093D01*
X42279Y98199D01*
X43174Y97602D01*
X44228Y97392D01*
X41472Y100148D02*
X41682Y99093D01*
X42279Y98199D01*
X43174Y97602D01*
X44228Y97392D01*
X41472Y100148D02*
X41682Y99093D01*
X42279Y98199D01*
X43174Y97602D01*
X44228Y97392D01*
X41472Y100148D02*
X41682Y99093D01*
X42279Y98199D01*
X43174Y97602D01*
X44228Y97392D01*
X105252D02*
X106307Y97602D01*
X107201Y98199D01*
X107798Y99093D01*
X108008Y100148D01*
X105252Y97392D02*
X106307Y97602D01*
X107201Y98199D01*
X107798Y99093D01*
X108008Y100148D01*
X105252Y97392D02*
X106307Y97602D01*
X107201Y98199D01*
X107798Y99093D01*
X108008Y100148D01*
X105252Y97392D02*
X106307Y97602D01*
X107201Y98199D01*
X107798Y99093D01*
X108008Y100148D01*
X115882Y125739D02*
X115672Y126793D01*
X115075Y127687D01*
X114181Y128285D01*
X113126Y128495D01*
X115882Y125739D02*
X115672Y126793D01*
X115075Y127687D01*
X114181Y128285D01*
X113126Y128495D01*
X115882Y125739D02*
X115672Y126793D01*
X115075Y127687D01*
X114181Y128285D01*
X113126Y128495D01*
X115882Y125739D02*
X115672Y126793D01*
X115075Y127687D01*
X114181Y128285D01*
X113126Y128495D01*
Y105266D02*
X114181Y105476D01*
X115075Y106073D01*
X115672Y106967D01*
X115882Y108022D01*
X113126Y105266D02*
X114181Y105476D01*
X115075Y106073D01*
X115672Y106967D01*
X115882Y108022D01*
X113126Y105266D02*
X114181Y105476D01*
X115075Y106073D01*
X115672Y106967D01*
X115882Y108022D01*
X113126Y105266D02*
X114181Y105476D01*
X115075Y106073D01*
X115672Y106967D01*
X115882Y108022D01*
X113126Y128888D02*
X114181Y129098D01*
X115075Y129695D01*
X115672Y130589D01*
X115882Y131644D01*
X113126Y128888D02*
X114181Y129098D01*
X115075Y129695D01*
X115672Y130589D01*
X115882Y131644D01*
X113126Y128888D02*
X114181Y129098D01*
X115075Y129695D01*
X115672Y130589D01*
X115882Y131644D01*
X113126Y128888D02*
X114181Y129098D01*
X115075Y129695D01*
X115672Y130589D01*
X115882Y131644D01*
Y189715D02*
X115672Y190770D01*
X115075Y191664D01*
X114181Y192261D01*
X113126Y192471D01*
X115882Y189715D02*
X115672Y190770D01*
X115075Y191664D01*
X114181Y192261D01*
X113126Y192471D01*
X115882Y189715D02*
X115672Y190770D01*
X115075Y191664D01*
X114181Y192261D01*
X113126Y192471D01*
X115882Y189715D02*
X115672Y190770D01*
X115075Y191664D01*
X114181Y192261D01*
X113126Y192471D01*
X113126Y200739D02*
X114181Y200948D01*
X115075Y201546D01*
X115672Y202440D01*
X115882Y203495D01*
X113126Y200739D02*
X114181Y200948D01*
X115075Y201546D01*
X115672Y202440D01*
X115882Y203495D01*
X113126Y200739D02*
X114181Y200948D01*
X115075Y201546D01*
X115672Y202440D01*
X115882Y203495D01*
X113126Y200739D02*
X114181Y200948D01*
X115075Y201546D01*
X115672Y202440D01*
X115882Y203495D01*
X115882Y286172D02*
X115672Y287226D01*
X115075Y288120D01*
X114181Y288718D01*
X113126Y288928D01*
X115882Y286172D02*
X115672Y287226D01*
X115075Y288120D01*
X114181Y288718D01*
X113126Y288928D01*
X115882Y286172D02*
X115672Y287226D01*
X115075Y288120D01*
X114181Y288718D01*
X113126Y288928D01*
X115882Y286172D02*
X115672Y287226D01*
X115075Y288120D01*
X114181Y288718D01*
X113126Y288928D01*
X108992Y293160D02*
X108782Y294215D01*
X108185Y295109D01*
X107291Y295706D01*
X106236Y295916D01*
X108992Y293160D02*
X108782Y294215D01*
X108185Y295109D01*
X107291Y295706D01*
X106236Y295916D01*
X108992Y293160D02*
X108782Y294215D01*
X108185Y295109D01*
X107291Y295706D01*
X106236Y295916D01*
X108992Y293160D02*
X108782Y294215D01*
X108185Y295109D01*
X107291Y295706D01*
X106236Y295916D01*
X115882Y189715D02*
Y177805D01*
X33598Y189715D02*
Y177805D01*
X109976Y192471D02*
X113126D01*
X109976Y200739D02*
Y192471D01*
X40488Y293160D02*
Y288928D01*
Y293160D02*
Y288928D01*
X33598Y286172D02*
X33598Y266487D01*
X33598Y286172D02*
X33598Y266487D01*
X36354Y288928D02*
X40488D01*
X36354D02*
X40488D01*
X43244Y295916D02*
X61945D01*
X43244D02*
X61945D01*
X33598Y240798D02*
X33598Y203495D01*
X33598Y240798D02*
X33598Y203495D01*
X39504Y200739D02*
X39504Y192471D01*
X39504Y200739D02*
X39504Y192471D01*
X36354Y192471D01*
X39504Y192471D02*
X36354Y192471D01*
X39504Y200739D02*
X36354Y200739D01*
X39504Y200739D02*
X36354Y200739D01*
X33598Y152215D02*
Y131644D01*
X36354Y128888D02*
X48362Y128888D01*
X36354Y128495D02*
X48362D01*
X36354Y128888D02*
X48362Y128888D01*
X36354Y128495D02*
X48362D01*
Y128888D02*
Y128495D01*
Y128888D02*
Y128495D01*
X33598Y125739D02*
Y108022D01*
Y125739D02*
Y108022D01*
X36354Y105266D02*
X41472D01*
X36354D02*
X41472D01*
Y100148D01*
Y105266D02*
Y100148D01*
X44228Y97392D02*
X61945D01*
X44228D02*
X61945D01*
X108008Y105266D02*
Y100148D01*
Y105266D02*
Y100148D01*
X87535Y97392D02*
X105252D01*
X87535D02*
X105252D01*
X101118Y128888D02*
Y128495D01*
Y128888D02*
Y128495D01*
X115882Y152215D02*
Y131644D01*
Y125739D02*
Y108022D01*
Y125739D02*
Y108022D01*
X101118Y128888D02*
X113126D01*
X101118Y128495D02*
X113126D01*
X101118Y128888D02*
X113126D01*
X101118Y128495D02*
X113126D01*
X108008Y105266D02*
X113126D01*
X108008D02*
X113126D01*
X115882Y240798D02*
Y203037D01*
Y240798D02*
Y203037D01*
X109976Y200739D02*
Y192471D01*
X113126D01*
X113126Y200739D02*
X109976Y200739D01*
X113126Y200739D02*
X109976Y200739D01*
X108992Y293160D02*
Y288928D01*
X115882Y286172D02*
Y266388D01*
Y286172D02*
Y266388D01*
X87535Y295916D02*
X106236D01*
X87535D02*
X106236D01*
X108992Y288928D02*
X113126D01*
X108992D02*
X113126D01*
X146590Y288928D02*
X145536Y288718D01*
X144642Y288120D01*
X144044Y287226D01*
X143834Y286172D01*
X146590Y288928D02*
X145536Y288718D01*
X144642Y288120D01*
X144044Y287226D01*
X143834Y286172D01*
X146590Y288928D02*
X145536Y288718D01*
X144642Y288120D01*
X144044Y287226D01*
X143834Y286172D01*
X146590Y288928D02*
X145536Y288718D01*
X144642Y288120D01*
X144044Y287226D01*
X143834Y286172D01*
X153480Y295916D02*
X152426Y295706D01*
X151532Y295109D01*
X150934Y294215D01*
X150724Y293160D01*
X153480Y295916D02*
X152426Y295706D01*
X151532Y295109D01*
X150934Y294215D01*
X150724Y293160D01*
X153480Y295916D02*
X152426Y295706D01*
X151532Y295109D01*
X150934Y294215D01*
X150724Y293160D01*
X153480Y295916D02*
X152426Y295706D01*
X151532Y295109D01*
X150934Y294215D01*
X150724Y293160D01*
X146590Y192471D02*
X145536Y192261D01*
X144642Y191664D01*
X144044Y190770D01*
X143834Y189715D01*
X146590Y192471D02*
X145536Y192261D01*
X144642Y191664D01*
X144044Y190770D01*
X143834Y189715D01*
X146590Y192471D02*
X145536Y192261D01*
X144642Y191664D01*
X144044Y190770D01*
X143834Y189715D01*
X146590Y192471D02*
X145536Y192261D01*
X144642Y191664D01*
X144044Y190770D01*
X143834Y189715D01*
Y203495D02*
X144044Y202440D01*
X144642Y201546D01*
X145536Y200948D01*
X146590Y200739D01*
X143834Y203495D02*
X144044Y202440D01*
X144642Y201546D01*
X145536Y200948D01*
X146590Y200739D01*
X143834Y203495D02*
X144044Y202440D01*
X144642Y201546D01*
X145536Y200948D01*
X146590Y200739D01*
X143834Y203495D02*
X144044Y202440D01*
X144642Y201546D01*
X145536Y200948D01*
X146590Y200739D01*
X143834Y131644D02*
X144044Y130589D01*
X144642Y129695D01*
X145536Y129098D01*
X146590Y128888D01*
X143834Y131644D02*
X144044Y130589D01*
X144642Y129695D01*
X145536Y129098D01*
X146590Y128888D01*
X146590Y128495D02*
X145536Y128285D01*
X144642Y127687D01*
X144044Y126793D01*
X143834Y125739D01*
X146590Y128495D02*
X145536Y128285D01*
X144642Y127687D01*
X144044Y126793D01*
X143834Y125739D01*
X143834Y131644D02*
X144044Y130589D01*
X144642Y129695D01*
X145536Y129098D01*
X146590Y128888D01*
X143834Y131644D02*
X144044Y130589D01*
X144642Y129695D01*
X145536Y129098D01*
X146590Y128888D01*
X146590Y128495D02*
X145536Y128285D01*
X144642Y127687D01*
X144044Y126793D01*
X143834Y125739D01*
X146590Y128495D02*
X145536Y128285D01*
X144642Y127687D01*
X144044Y126793D01*
X143834Y125739D01*
Y108022D02*
X144044Y106967D01*
X144642Y106073D01*
X145536Y105476D01*
X146590Y105266D01*
X143834Y108022D02*
X144044Y106967D01*
X144642Y106073D01*
X145536Y105476D01*
X146590Y105266D01*
X143834Y108022D02*
X144044Y106967D01*
X144642Y106073D01*
X145536Y105476D01*
X146590Y105266D01*
X143834Y108022D02*
X144044Y106967D01*
X144642Y106073D01*
X145536Y105476D01*
X146590Y105266D01*
X151708Y100148D02*
X151918Y99093D01*
X152516Y98199D01*
X153410Y97602D01*
X154464Y97392D01*
X151708Y100148D02*
X151918Y99093D01*
X152516Y98199D01*
X153410Y97602D01*
X154464Y97392D01*
X151708Y100148D02*
X151918Y99093D01*
X152516Y98199D01*
X153410Y97602D01*
X154464Y97392D01*
X151708Y100148D02*
X151918Y99093D01*
X152516Y98199D01*
X153410Y97602D01*
X154464Y97392D01*
X215488D02*
X216543Y97602D01*
X217437Y98199D01*
X218034Y99093D01*
X218244Y100148D01*
X215488Y97392D02*
X216543Y97602D01*
X217437Y98199D01*
X218034Y99093D01*
X218244Y100148D01*
X215488Y97392D02*
X216543Y97602D01*
X217437Y98199D01*
X218034Y99093D01*
X218244Y100148D01*
X215488Y97392D02*
X216543Y97602D01*
X217437Y98199D01*
X218034Y99093D01*
X218244Y100148D01*
X226118Y125739D02*
X225908Y126793D01*
X225311Y127687D01*
X224417Y128285D01*
X223362Y128495D01*
X226118Y125739D02*
X225908Y126793D01*
X225311Y127687D01*
X224417Y128285D01*
X223362Y128495D01*
X226118Y125739D02*
X225908Y126793D01*
X225311Y127687D01*
X224417Y128285D01*
X223362Y128495D01*
X226118Y125739D02*
X225908Y126793D01*
X225311Y127687D01*
X224417Y128285D01*
X223362Y128495D01*
Y105266D02*
X224417Y105476D01*
X225311Y106073D01*
X225908Y106967D01*
X226118Y108022D01*
X223362Y105266D02*
X224417Y105476D01*
X225311Y106073D01*
X225908Y106967D01*
X226118Y108022D01*
X223362Y105266D02*
X224417Y105476D01*
X225311Y106073D01*
X225908Y106967D01*
X226118Y108022D01*
X223362Y105266D02*
X224417Y105476D01*
X225311Y106073D01*
X225908Y106967D01*
X226118Y108022D01*
X223362Y128888D02*
X224417Y129098D01*
X225311Y129695D01*
X225908Y130589D01*
X226118Y131644D01*
X223362Y128888D02*
X224417Y129098D01*
X225311Y129695D01*
X225908Y130589D01*
X226118Y131644D01*
X223362Y128888D02*
X224417Y129098D01*
X225311Y129695D01*
X225908Y130589D01*
X226118Y131644D01*
X223362Y128888D02*
X224417Y129098D01*
X225311Y129695D01*
X225908Y130589D01*
X226118Y131644D01*
Y189715D02*
X225908Y190770D01*
X225311Y191664D01*
X224417Y192261D01*
X223362Y192471D01*
X226118Y189715D02*
X225908Y190770D01*
X225311Y191664D01*
X224417Y192261D01*
X223362Y192471D01*
X226118Y189715D02*
X225908Y190770D01*
X225311Y191664D01*
X224417Y192261D01*
X223362Y192471D01*
X226118Y189715D02*
X225908Y190770D01*
X225311Y191664D01*
X224417Y192261D01*
X223362Y192471D01*
X223362Y200739D02*
X224417Y200948D01*
X225311Y201546D01*
X225908Y202440D01*
X226118Y203495D01*
X223362Y200739D02*
X224417Y200948D01*
X225311Y201546D01*
X225908Y202440D01*
X226118Y203495D01*
X223362Y200739D02*
X224417Y200948D01*
X225311Y201546D01*
X225908Y202440D01*
X226118Y203495D01*
X223362Y200739D02*
X224417Y200948D01*
X225311Y201546D01*
X225908Y202440D01*
X226118Y203495D01*
X226118Y286172D02*
X225908Y287226D01*
X225311Y288120D01*
X224417Y288718D01*
X223362Y288928D01*
X226118Y286172D02*
X225908Y287226D01*
X225311Y288120D01*
X224417Y288718D01*
X223362Y288928D01*
X226118Y286172D02*
X225908Y287226D01*
X225311Y288120D01*
X224417Y288718D01*
X223362Y288928D01*
X226118Y286172D02*
X225908Y287226D01*
X225311Y288120D01*
X224417Y288718D01*
X223362Y288928D01*
X219228Y293160D02*
X219019Y294215D01*
X218421Y295109D01*
X217527Y295706D01*
X216472Y295916D01*
X219228Y293160D02*
X219019Y294215D01*
X218421Y295109D01*
X217527Y295706D01*
X216472Y295916D01*
X219228Y293160D02*
X219019Y294215D01*
X218421Y295109D01*
X217527Y295706D01*
X216472Y295916D01*
X219228Y293160D02*
X219019Y294215D01*
X218421Y295109D01*
X217527Y295706D01*
X216472Y295916D01*
X226118Y189715D02*
Y177805D01*
X143834Y189715D02*
Y177805D01*
X220213Y192471D02*
X223362D01*
X220213Y200739D02*
Y192471D01*
X150724Y293160D02*
Y288928D01*
Y293160D02*
Y288928D01*
X143834Y286172D02*
X143834Y266487D01*
X143834Y286172D02*
X143834Y266487D01*
X146590Y288928D02*
X150724D01*
X146590D02*
X150724D01*
X153480Y295916D02*
X172181D01*
X153480D02*
X172181D01*
X143834Y240798D02*
X143834Y203495D01*
X143834Y240798D02*
X143834Y203495D01*
X149740Y200739D02*
X149740Y192471D01*
X149740Y200739D02*
X149740Y192471D01*
X146590Y192471D01*
X149740Y192471D02*
X146590Y192471D01*
X149740Y200739D02*
X146590Y200739D01*
X149740Y200739D02*
X146590Y200739D01*
X143834Y152215D02*
Y131644D01*
X146590Y128888D02*
X158598Y128888D01*
X146590Y128495D02*
X158598D01*
X146590Y128888D02*
X158598Y128888D01*
X146590Y128495D02*
X158598D01*
Y128888D02*
Y128495D01*
Y128888D02*
Y128495D01*
X143834Y125739D02*
Y108022D01*
Y125739D02*
Y108022D01*
X146590Y105266D02*
X151708D01*
X146590D02*
X151708D01*
Y100148D01*
Y105266D02*
Y100148D01*
X154464Y97392D02*
X172181D01*
X154464D02*
X172181D01*
X218244Y105266D02*
Y100148D01*
Y105266D02*
Y100148D01*
X197772Y97392D02*
X215488D01*
X197772D02*
X215488D01*
X211354Y128888D02*
Y128495D01*
Y128888D02*
Y128495D01*
X226118Y152215D02*
Y131644D01*
Y125739D02*
Y108022D01*
Y125739D02*
Y108022D01*
X211354Y128888D02*
X223362D01*
X211354Y128495D02*
X223362D01*
X211354Y128888D02*
X223362D01*
X211354Y128495D02*
X223362D01*
X218244Y105266D02*
X223362D01*
X218244D02*
X223362D01*
X226118Y240798D02*
Y203037D01*
Y240798D02*
Y203037D01*
X220213Y200739D02*
Y192471D01*
X223362D01*
X223362Y200739D02*
X220213Y200739D01*
X223362Y200739D02*
X220213Y200739D01*
X219228Y293160D02*
Y288928D01*
X226118Y286172D02*
Y266388D01*
Y286172D02*
Y266388D01*
X197772Y295916D02*
X216472D01*
X197772D02*
X216472D01*
X219228Y288928D02*
X223362D01*
X219228D02*
X223362D01*
X256827Y288928D02*
X255772Y288718D01*
X254878Y288120D01*
X254280Y287226D01*
X254071Y286172D01*
X256827Y288928D02*
X255772Y288718D01*
X254878Y288120D01*
X254280Y287226D01*
X254071Y286172D01*
X256827Y288928D02*
X255772Y288718D01*
X254878Y288120D01*
X254280Y287226D01*
X254071Y286172D01*
X256827Y288928D02*
X255772Y288718D01*
X254878Y288120D01*
X254280Y287226D01*
X254071Y286172D01*
X263717Y295916D02*
X262662Y295706D01*
X261768Y295109D01*
X261170Y294215D01*
X260961Y293160D01*
X263717Y295916D02*
X262662Y295706D01*
X261768Y295109D01*
X261170Y294215D01*
X260961Y293160D01*
X263717Y295916D02*
X262662Y295706D01*
X261768Y295109D01*
X261170Y294215D01*
X260961Y293160D01*
X263717Y295916D02*
X262662Y295706D01*
X261768Y295109D01*
X261170Y294215D01*
X260961Y293160D01*
X256827Y192471D02*
X255772Y192261D01*
X254878Y191664D01*
X254280Y190770D01*
X254071Y189715D01*
X256827Y192471D02*
X255772Y192261D01*
X254878Y191664D01*
X254280Y190770D01*
X254071Y189715D01*
X256827Y192471D02*
X255772Y192261D01*
X254878Y191664D01*
X254280Y190770D01*
X254071Y189715D01*
X256827Y192471D02*
X255772Y192261D01*
X254878Y191664D01*
X254280Y190770D01*
X254071Y189715D01*
Y203495D02*
X254280Y202440D01*
X254878Y201546D01*
X255772Y200948D01*
X256827Y200739D01*
X254071Y203495D02*
X254280Y202440D01*
X254878Y201546D01*
X255772Y200948D01*
X256827Y200739D01*
X254071Y203495D02*
X254280Y202440D01*
X254878Y201546D01*
X255772Y200948D01*
X256827Y200739D01*
X254071Y203495D02*
X254280Y202440D01*
X254878Y201546D01*
X255772Y200948D01*
X256827Y200739D01*
X254071Y131644D02*
X254280Y130589D01*
X254878Y129695D01*
X255772Y129098D01*
X256827Y128888D01*
X254071Y131644D02*
X254280Y130589D01*
X254878Y129695D01*
X255772Y129098D01*
X256827Y128888D01*
X256827Y128495D02*
X255772Y128285D01*
X254878Y127687D01*
X254280Y126793D01*
X254071Y125739D01*
X256827Y128495D02*
X255772Y128285D01*
X254878Y127687D01*
X254280Y126793D01*
X254071Y125739D01*
X254071Y131644D02*
X254280Y130589D01*
X254878Y129695D01*
X255772Y129098D01*
X256827Y128888D01*
X254071Y131644D02*
X254280Y130589D01*
X254878Y129695D01*
X255772Y129098D01*
X256827Y128888D01*
X256827Y128495D02*
X255772Y128285D01*
X254878Y127687D01*
X254280Y126793D01*
X254071Y125739D01*
X256827Y128495D02*
X255772Y128285D01*
X254878Y127687D01*
X254280Y126793D01*
X254071Y125739D01*
Y108022D02*
X254280Y106967D01*
X254878Y106073D01*
X255772Y105476D01*
X256827Y105266D01*
X254071Y108022D02*
X254280Y106967D01*
X254878Y106073D01*
X255772Y105476D01*
X256827Y105266D01*
X254071Y108022D02*
X254280Y106967D01*
X254878Y106073D01*
X255772Y105476D01*
X256827Y105266D01*
X254071Y108022D02*
X254280Y106967D01*
X254878Y106073D01*
X255772Y105476D01*
X256827Y105266D01*
X261945Y100148D02*
X262155Y99093D01*
X262752Y98199D01*
X263646Y97602D01*
X264701Y97392D01*
X261945Y100148D02*
X262155Y99093D01*
X262752Y98199D01*
X263646Y97602D01*
X264701Y97392D01*
X261945Y100148D02*
X262155Y99093D01*
X262752Y98199D01*
X263646Y97602D01*
X264701Y97392D01*
X261945Y100148D02*
X262155Y99093D01*
X262752Y98199D01*
X263646Y97602D01*
X264701Y97392D01*
X325724D02*
X326779Y97602D01*
X327673Y98199D01*
X328271Y99093D01*
X328480Y100148D01*
X325724Y97392D02*
X326779Y97602D01*
X327673Y98199D01*
X328271Y99093D01*
X328480Y100148D01*
X325724Y97392D02*
X326779Y97602D01*
X327673Y98199D01*
X328271Y99093D01*
X328480Y100148D01*
X325724Y97392D02*
X326779Y97602D01*
X327673Y98199D01*
X328271Y99093D01*
X328480Y100148D01*
X336354Y125739D02*
X336145Y126793D01*
X335547Y127687D01*
X334653Y128285D01*
X333598Y128495D01*
X336354Y125739D02*
X336145Y126793D01*
X335547Y127687D01*
X334653Y128285D01*
X333598Y128495D01*
X336354Y125739D02*
X336145Y126793D01*
X335547Y127687D01*
X334653Y128285D01*
X333598Y128495D01*
X336354Y125739D02*
X336145Y126793D01*
X335547Y127687D01*
X334653Y128285D01*
X333598Y128495D01*
Y105266D02*
X334653Y105476D01*
X335547Y106073D01*
X336145Y106967D01*
X336354Y108022D01*
X333598Y105266D02*
X334653Y105476D01*
X335547Y106073D01*
X336145Y106967D01*
X336354Y108022D01*
X333598Y105266D02*
X334653Y105476D01*
X335547Y106073D01*
X336145Y106967D01*
X336354Y108022D01*
X333598Y105266D02*
X334653Y105476D01*
X335547Y106073D01*
X336145Y106967D01*
X336354Y108022D01*
X333598Y128888D02*
X334653Y129098D01*
X335547Y129695D01*
X336145Y130589D01*
X336354Y131644D01*
X333598Y128888D02*
X334653Y129098D01*
X335547Y129695D01*
X336145Y130589D01*
X336354Y131644D01*
X333598Y128888D02*
X334653Y129098D01*
X335547Y129695D01*
X336145Y130589D01*
X336354Y131644D01*
X333598Y128888D02*
X334653Y129098D01*
X335547Y129695D01*
X336145Y130589D01*
X336354Y131644D01*
Y189715D02*
X336145Y190770D01*
X335547Y191664D01*
X334653Y192261D01*
X333598Y192471D01*
X336354Y189715D02*
X336145Y190770D01*
X335547Y191664D01*
X334653Y192261D01*
X333598Y192471D01*
X336354Y189715D02*
X336145Y190770D01*
X335547Y191664D01*
X334653Y192261D01*
X333598Y192471D01*
X336354Y189715D02*
X336145Y190770D01*
X335547Y191664D01*
X334653Y192261D01*
X333598Y192471D01*
X333598Y200739D02*
X334653Y200948D01*
X335547Y201546D01*
X336145Y202440D01*
X336354Y203495D01*
X333598Y200739D02*
X334653Y200948D01*
X335547Y201546D01*
X336145Y202440D01*
X336354Y203495D01*
X333598Y200739D02*
X334653Y200948D01*
X335547Y201546D01*
X336145Y202440D01*
X336354Y203495D01*
X333598Y200739D02*
X334653Y200948D01*
X335547Y201546D01*
X336145Y202440D01*
X336354Y203495D01*
X336354Y286172D02*
X336145Y287226D01*
X335547Y288120D01*
X334653Y288718D01*
X333598Y288928D01*
X336354Y286172D02*
X336145Y287226D01*
X335547Y288120D01*
X334653Y288718D01*
X333598Y288928D01*
X336354Y286172D02*
X336145Y287226D01*
X335547Y288120D01*
X334653Y288718D01*
X333598Y288928D01*
X336354Y286172D02*
X336145Y287226D01*
X335547Y288120D01*
X334653Y288718D01*
X333598Y288928D01*
X329465Y293160D02*
X329255Y294215D01*
X328657Y295109D01*
X327763Y295706D01*
X326709Y295916D01*
X329465Y293160D02*
X329255Y294215D01*
X328657Y295109D01*
X327763Y295706D01*
X326709Y295916D01*
X329465Y293160D02*
X329255Y294215D01*
X328657Y295109D01*
X327763Y295706D01*
X326709Y295916D01*
X329465Y293160D02*
X329255Y294215D01*
X328657Y295109D01*
X327763Y295706D01*
X326709Y295916D01*
X336354Y189715D02*
Y177805D01*
X254071Y189715D02*
Y177805D01*
X330449Y192471D02*
X333598D01*
X330449Y200739D02*
Y192471D01*
X260961Y293160D02*
Y288928D01*
Y293160D02*
Y288928D01*
X254071Y286172D02*
X254071Y266487D01*
X254071Y286172D02*
X254071Y266487D01*
X256827Y288928D02*
X260961D01*
X256827D02*
X260961D01*
X263717Y295916D02*
X282417D01*
X263717D02*
X282417D01*
X254071Y240798D02*
X254071Y203495D01*
X254071Y240798D02*
X254071Y203495D01*
X259976Y200739D02*
X259976Y192471D01*
X259976Y200739D02*
X259976Y192471D01*
X256827Y192471D01*
X259976Y192471D02*
X256827Y192471D01*
X259976Y200739D02*
X256827Y200739D01*
X259976Y200739D02*
X256827Y200739D01*
X254071Y152215D02*
Y131644D01*
X256827Y128888D02*
X268834Y128888D01*
X256827Y128495D02*
X268834D01*
X256827Y128888D02*
X268834Y128888D01*
X256827Y128495D02*
X268834D01*
Y128888D02*
Y128495D01*
Y128888D02*
Y128495D01*
X254071Y125739D02*
Y108022D01*
Y125739D02*
Y108022D01*
X256827Y105266D02*
X261945D01*
X256827D02*
X261945D01*
Y100148D01*
Y105266D02*
Y100148D01*
X264701Y97392D02*
X282417D01*
X264701D02*
X282417D01*
X328480Y105266D02*
Y100148D01*
Y105266D02*
Y100148D01*
X308008Y97392D02*
X325724D01*
X308008D02*
X325724D01*
X321591Y128888D02*
Y128495D01*
Y128888D02*
Y128495D01*
X336354Y152215D02*
Y131644D01*
Y125739D02*
Y108022D01*
Y125739D02*
Y108022D01*
X321591Y128888D02*
X333598D01*
X321591Y128495D02*
X333598D01*
X321591Y128888D02*
X333598D01*
X321591Y128495D02*
X333598D01*
X328480Y105266D02*
X333598D01*
X328480D02*
X333598D01*
X336354Y240798D02*
Y203037D01*
Y240798D02*
Y203037D01*
X330449Y200739D02*
Y192471D01*
X333598D01*
X333598Y200739D02*
X330449Y200739D01*
X333598Y200739D02*
X330449Y200739D01*
X329465Y293160D02*
Y288928D01*
X336354Y286172D02*
Y266388D01*
Y286172D02*
Y266388D01*
X308008Y295916D02*
X326709D01*
X308008D02*
X326709D01*
X329465Y288928D02*
X333598D01*
X329465D02*
X333598D01*
X367063Y288928D02*
X366008Y288718D01*
X365114Y288120D01*
X364517Y287226D01*
X364307Y286172D01*
X367063Y288928D02*
X366008Y288718D01*
X365114Y288120D01*
X364517Y287226D01*
X364307Y286172D01*
X367063Y288928D02*
X366008Y288718D01*
X365114Y288120D01*
X364517Y287226D01*
X364307Y286172D01*
X367063Y288928D02*
X366008Y288718D01*
X365114Y288120D01*
X364517Y287226D01*
X364307Y286172D01*
X373953Y295916D02*
X372898Y295706D01*
X372004Y295109D01*
X371407Y294215D01*
X371197Y293160D01*
X373953Y295916D02*
X372898Y295706D01*
X372004Y295109D01*
X371407Y294215D01*
X371197Y293160D01*
X373953Y295916D02*
X372898Y295706D01*
X372004Y295109D01*
X371407Y294215D01*
X371197Y293160D01*
X373953Y295916D02*
X372898Y295706D01*
X372004Y295109D01*
X371407Y294215D01*
X371197Y293160D01*
X367063Y192471D02*
X366008Y192261D01*
X365114Y191664D01*
X364517Y190770D01*
X364307Y189715D01*
X367063Y192471D02*
X366008Y192261D01*
X365114Y191664D01*
X364517Y190770D01*
X364307Y189715D01*
X367063Y192471D02*
X366008Y192261D01*
X365114Y191664D01*
X364517Y190770D01*
X364307Y189715D01*
X367063Y192471D02*
X366008Y192261D01*
X365114Y191664D01*
X364517Y190770D01*
X364307Y189715D01*
Y203495D02*
X364517Y202440D01*
X365114Y201546D01*
X366008Y200948D01*
X367063Y200739D01*
X364307Y203495D02*
X364517Y202440D01*
X365114Y201546D01*
X366008Y200948D01*
X367063Y200739D01*
X364307Y203495D02*
X364517Y202440D01*
X365114Y201546D01*
X366008Y200948D01*
X367063Y200739D01*
X364307Y203495D02*
X364517Y202440D01*
X365114Y201546D01*
X366008Y200948D01*
X367063Y200739D01*
X364307Y131644D02*
X364517Y130589D01*
X365114Y129695D01*
X366008Y129098D01*
X367063Y128888D01*
X364307Y131644D02*
X364517Y130589D01*
X365114Y129695D01*
X366008Y129098D01*
X367063Y128888D01*
X367063Y128495D02*
X366008Y128285D01*
X365114Y127687D01*
X364517Y126793D01*
X364307Y125739D01*
X367063Y128495D02*
X366008Y128285D01*
X365114Y127687D01*
X364517Y126793D01*
X364307Y125739D01*
X364307Y131644D02*
X364517Y130589D01*
X365114Y129695D01*
X366008Y129098D01*
X367063Y128888D01*
X364307Y131644D02*
X364517Y130589D01*
X365114Y129695D01*
X366008Y129098D01*
X367063Y128888D01*
X367063Y128495D02*
X366008Y128285D01*
X365114Y127687D01*
X364517Y126793D01*
X364307Y125739D01*
X367063Y128495D02*
X366008Y128285D01*
X365114Y127687D01*
X364517Y126793D01*
X364307Y125739D01*
Y108022D02*
X364517Y106967D01*
X365114Y106073D01*
X366008Y105476D01*
X367063Y105266D01*
X364307Y108022D02*
X364517Y106967D01*
X365114Y106073D01*
X366008Y105476D01*
X367063Y105266D01*
X364307Y108022D02*
X364517Y106967D01*
X365114Y106073D01*
X366008Y105476D01*
X367063Y105266D01*
X364307Y108022D02*
X364517Y106967D01*
X365114Y106073D01*
X366008Y105476D01*
X367063Y105266D01*
X372181Y100148D02*
X372391Y99093D01*
X372988Y98199D01*
X373882Y97602D01*
X374937Y97392D01*
X372181Y100148D02*
X372391Y99093D01*
X372988Y98199D01*
X373882Y97602D01*
X374937Y97392D01*
X372181Y100148D02*
X372391Y99093D01*
X372988Y98199D01*
X373882Y97602D01*
X374937Y97392D01*
X372181Y100148D02*
X372391Y99093D01*
X372988Y98199D01*
X373882Y97602D01*
X374937Y97392D01*
X435961D02*
X437015Y97602D01*
X437909Y98199D01*
X438507Y99093D01*
X438717Y100148D01*
X435961Y97392D02*
X437015Y97602D01*
X437909Y98199D01*
X438507Y99093D01*
X438717Y100148D01*
X435961Y97392D02*
X437015Y97602D01*
X437909Y98199D01*
X438507Y99093D01*
X438717Y100148D01*
X435961Y97392D02*
X437015Y97602D01*
X437909Y98199D01*
X438507Y99093D01*
X438717Y100148D01*
X446591Y125739D02*
X446381Y126793D01*
X445783Y127687D01*
X444889Y128285D01*
X443835Y128495D01*
X446591Y125739D02*
X446381Y126793D01*
X445783Y127687D01*
X444889Y128285D01*
X443835Y128495D01*
X446591Y125739D02*
X446381Y126793D01*
X445783Y127687D01*
X444889Y128285D01*
X443835Y128495D01*
X446591Y125739D02*
X446381Y126793D01*
X445783Y127687D01*
X444889Y128285D01*
X443835Y128495D01*
Y105266D02*
X444889Y105476D01*
X445783Y106073D01*
X446381Y106967D01*
X446591Y108022D01*
X443835Y105266D02*
X444889Y105476D01*
X445783Y106073D01*
X446381Y106967D01*
X446591Y108022D01*
X443835Y105266D02*
X444889Y105476D01*
X445783Y106073D01*
X446381Y106967D01*
X446591Y108022D01*
X443835Y105266D02*
X444889Y105476D01*
X445783Y106073D01*
X446381Y106967D01*
X446591Y108022D01*
X443835Y128888D02*
X444889Y129098D01*
X445783Y129695D01*
X446381Y130589D01*
X446591Y131644D01*
X443835Y128888D02*
X444889Y129098D01*
X445783Y129695D01*
X446381Y130589D01*
X446591Y131644D01*
X443835Y128888D02*
X444889Y129098D01*
X445783Y129695D01*
X446381Y130589D01*
X446591Y131644D01*
X443835Y128888D02*
X444889Y129098D01*
X445783Y129695D01*
X446381Y130589D01*
X446591Y131644D01*
Y189715D02*
X446381Y190770D01*
X445783Y191664D01*
X444889Y192261D01*
X443835Y192471D01*
X446591Y189715D02*
X446381Y190770D01*
X445783Y191664D01*
X444889Y192261D01*
X443835Y192471D01*
X446591Y189715D02*
X446381Y190770D01*
X445783Y191664D01*
X444889Y192261D01*
X443835Y192471D01*
X446591Y189715D02*
X446381Y190770D01*
X445783Y191664D01*
X444889Y192261D01*
X443835Y192471D01*
X443835Y200739D02*
X444889Y200948D01*
X445783Y201546D01*
X446381Y202440D01*
X446591Y203495D01*
X443835Y200739D02*
X444889Y200948D01*
X445783Y201546D01*
X446381Y202440D01*
X446591Y203495D01*
X443835Y200739D02*
X444889Y200948D01*
X445783Y201546D01*
X446381Y202440D01*
X446591Y203495D01*
X443835Y200739D02*
X444889Y200948D01*
X445783Y201546D01*
X446381Y202440D01*
X446591Y203495D01*
X446591Y286172D02*
X446381Y287226D01*
X445783Y288120D01*
X444889Y288718D01*
X443835Y288928D01*
X446591Y286172D02*
X446381Y287226D01*
X445783Y288120D01*
X444889Y288718D01*
X443835Y288928D01*
X446591Y286172D02*
X446381Y287226D01*
X445783Y288120D01*
X444889Y288718D01*
X443835Y288928D01*
X446591Y286172D02*
X446381Y287226D01*
X445783Y288120D01*
X444889Y288718D01*
X443835Y288928D01*
X439701Y293160D02*
X439491Y294215D01*
X438894Y295109D01*
X437999Y295706D01*
X436945Y295916D01*
X439701Y293160D02*
X439491Y294215D01*
X438894Y295109D01*
X437999Y295706D01*
X436945Y295916D01*
X439701Y293160D02*
X439491Y294215D01*
X438894Y295109D01*
X437999Y295706D01*
X436945Y295916D01*
X439701Y293160D02*
X439491Y294215D01*
X438894Y295109D01*
X437999Y295706D01*
X436945Y295916D01*
X446591Y189715D02*
Y177805D01*
X364307Y189715D02*
Y177805D01*
X440685Y192471D02*
X443835D01*
X440685Y200739D02*
Y192471D01*
X371197Y293160D02*
Y288928D01*
Y293160D02*
Y288928D01*
X364307Y286172D02*
X364307Y266487D01*
X364307Y286172D02*
X364307Y266487D01*
X367063Y288928D02*
X371197D01*
X367063D02*
X371197D01*
X373953Y295916D02*
X392653D01*
X373953D02*
X392653D01*
X364307Y240798D02*
X364307Y203495D01*
X364307Y240798D02*
X364307Y203495D01*
X370213Y200739D02*
X370212Y192471D01*
X370213Y200739D02*
X370212Y192471D01*
X367063Y192471D01*
X370212Y192471D02*
X367063Y192471D01*
X370213Y200739D02*
X367063Y200739D01*
X370213Y200739D02*
X367063Y200739D01*
X364307Y152215D02*
Y131644D01*
X367063Y128888D02*
X379071Y128888D01*
X367063Y128495D02*
X379071D01*
X367063Y128888D02*
X379071Y128888D01*
X367063Y128495D02*
X379071D01*
Y128888D02*
Y128495D01*
Y128888D02*
Y128495D01*
X364307Y125739D02*
Y108022D01*
Y125739D02*
Y108022D01*
X367063Y105266D02*
X372181D01*
X367063D02*
X372181D01*
Y100148D01*
Y105266D02*
Y100148D01*
X374937Y97392D02*
X392653D01*
X374937D02*
X392653D01*
X438717Y105266D02*
Y100148D01*
Y105266D02*
Y100148D01*
X418244Y97392D02*
X435961D01*
X418244D02*
X435961D01*
X431827Y128888D02*
Y128495D01*
Y128888D02*
Y128495D01*
X446591Y152215D02*
Y131644D01*
Y125739D02*
Y108022D01*
Y125739D02*
Y108022D01*
X431827Y128888D02*
X443835D01*
X431827Y128495D02*
X443835D01*
X431827Y128888D02*
X443835D01*
X431827Y128495D02*
X443835D01*
X438717Y105266D02*
X443835D01*
X438717D02*
X443835D01*
X446591Y240798D02*
Y203037D01*
Y240798D02*
Y203037D01*
X440685Y200739D02*
Y192471D01*
X443835D01*
X443835Y200739D02*
X440685Y200739D01*
X443835Y200739D02*
X440685Y200739D01*
X439701Y293160D02*
Y288928D01*
X446591Y286172D02*
Y266388D01*
Y286172D02*
Y266388D01*
X418244Y295916D02*
X436945D01*
X418244D02*
X436945D01*
X439701Y288928D02*
X443835D01*
X439701D02*
X443835D01*
X477299Y288928D02*
X476244Y288718D01*
X475350Y288120D01*
X474753Y287226D01*
X474543Y286172D01*
X477299Y288928D02*
X476244Y288718D01*
X475350Y288120D01*
X474753Y287226D01*
X474543Y286172D01*
X477299Y288928D02*
X476244Y288718D01*
X475350Y288120D01*
X474753Y287226D01*
X474543Y286172D01*
X477299Y288928D02*
X476244Y288718D01*
X475350Y288120D01*
X474753Y287226D01*
X474543Y286172D01*
X484189Y295916D02*
X483134Y295706D01*
X482240Y295109D01*
X481643Y294215D01*
X481433Y293160D01*
X484189Y295916D02*
X483134Y295706D01*
X482240Y295109D01*
X481643Y294215D01*
X481433Y293160D01*
X484189Y295916D02*
X483134Y295706D01*
X482240Y295109D01*
X481643Y294215D01*
X481433Y293160D01*
X484189Y295916D02*
X483134Y295706D01*
X482240Y295109D01*
X481643Y294215D01*
X481433Y293160D01*
X477299Y192471D02*
X476244Y192261D01*
X475350Y191664D01*
X474753Y190770D01*
X474543Y189715D01*
X477299Y192471D02*
X476244Y192261D01*
X475350Y191664D01*
X474753Y190770D01*
X474543Y189715D01*
X477299Y192471D02*
X476244Y192261D01*
X475350Y191664D01*
X474753Y190770D01*
X474543Y189715D01*
X477299Y192471D02*
X476244Y192261D01*
X475350Y191664D01*
X474753Y190770D01*
X474543Y189715D01*
Y203495D02*
X474753Y202440D01*
X475350Y201546D01*
X476244Y200948D01*
X477299Y200739D01*
X474543Y203495D02*
X474753Y202440D01*
X475350Y201546D01*
X476244Y200948D01*
X477299Y200739D01*
X474543Y203495D02*
X474753Y202440D01*
X475350Y201546D01*
X476244Y200948D01*
X477299Y200739D01*
X474543Y203495D02*
X474753Y202440D01*
X475350Y201546D01*
X476244Y200948D01*
X477299Y200739D01*
X474543Y131644D02*
X474753Y130589D01*
X475350Y129695D01*
X476244Y129098D01*
X477299Y128888D01*
X474543Y131644D02*
X474753Y130589D01*
X475350Y129695D01*
X476244Y129098D01*
X477299Y128888D01*
X477299Y128495D02*
X476244Y128285D01*
X475350Y127687D01*
X474753Y126793D01*
X474543Y125739D01*
X477299Y128495D02*
X476244Y128285D01*
X475350Y127687D01*
X474753Y126793D01*
X474543Y125739D01*
X474543Y131644D02*
X474753Y130589D01*
X475350Y129695D01*
X476244Y129098D01*
X477299Y128888D01*
X474543Y131644D02*
X474753Y130589D01*
X475350Y129695D01*
X476244Y129098D01*
X477299Y128888D01*
X477299Y128495D02*
X476244Y128285D01*
X475350Y127687D01*
X474753Y126793D01*
X474543Y125739D01*
X477299Y128495D02*
X476244Y128285D01*
X475350Y127687D01*
X474753Y126793D01*
X474543Y125739D01*
Y108022D02*
X474753Y106967D01*
X475350Y106073D01*
X476244Y105476D01*
X477299Y105266D01*
X474543Y108022D02*
X474753Y106967D01*
X475350Y106073D01*
X476244Y105476D01*
X477299Y105266D01*
X474543Y108022D02*
X474753Y106967D01*
X475350Y106073D01*
X476244Y105476D01*
X477299Y105266D01*
X474543Y108022D02*
X474753Y106967D01*
X475350Y106073D01*
X476244Y105476D01*
X477299Y105266D01*
X482417Y100148D02*
X482627Y99093D01*
X483224Y98199D01*
X484119Y97602D01*
X485173Y97392D01*
X482417Y100148D02*
X482627Y99093D01*
X483224Y98199D01*
X484119Y97602D01*
X485173Y97392D01*
X482417Y100148D02*
X482627Y99093D01*
X483224Y98199D01*
X484119Y97602D01*
X485173Y97392D01*
X482417Y100148D02*
X482627Y99093D01*
X483224Y98199D01*
X484119Y97602D01*
X485173Y97392D01*
X546197D02*
X547252Y97602D01*
X548146Y98199D01*
X548743Y99093D01*
X548953Y100148D01*
X546197Y97392D02*
X547252Y97602D01*
X548146Y98199D01*
X548743Y99093D01*
X548953Y100148D01*
X546197Y97392D02*
X547252Y97602D01*
X548146Y98199D01*
X548743Y99093D01*
X548953Y100148D01*
X546197Y97392D02*
X547252Y97602D01*
X548146Y98199D01*
X548743Y99093D01*
X548953Y100148D01*
X556827Y125739D02*
X556617Y126793D01*
X556020Y127687D01*
X555126Y128285D01*
X554071Y128495D01*
X556827Y125739D02*
X556617Y126793D01*
X556020Y127687D01*
X555126Y128285D01*
X554071Y128495D01*
X556827Y125739D02*
X556617Y126793D01*
X556020Y127687D01*
X555126Y128285D01*
X554071Y128495D01*
X556827Y125739D02*
X556617Y126793D01*
X556020Y127687D01*
X555126Y128285D01*
X554071Y128495D01*
Y105266D02*
X555126Y105476D01*
X556020Y106073D01*
X556617Y106967D01*
X556827Y108022D01*
X554071Y105266D02*
X555126Y105476D01*
X556020Y106073D01*
X556617Y106967D01*
X556827Y108022D01*
X554071Y105266D02*
X555126Y105476D01*
X556020Y106073D01*
X556617Y106967D01*
X556827Y108022D01*
X554071Y105266D02*
X555126Y105476D01*
X556020Y106073D01*
X556617Y106967D01*
X556827Y108022D01*
X554071Y128888D02*
X555126Y129098D01*
X556020Y129695D01*
X556617Y130589D01*
X556827Y131644D01*
X554071Y128888D02*
X555126Y129098D01*
X556020Y129695D01*
X556617Y130589D01*
X556827Y131644D01*
X554071Y128888D02*
X555126Y129098D01*
X556020Y129695D01*
X556617Y130589D01*
X556827Y131644D01*
X554071Y128888D02*
X555126Y129098D01*
X556020Y129695D01*
X556617Y130589D01*
X556827Y131644D01*
Y189715D02*
X556617Y190770D01*
X556020Y191664D01*
X555126Y192261D01*
X554071Y192471D01*
X556827Y189715D02*
X556617Y190770D01*
X556020Y191664D01*
X555126Y192261D01*
X554071Y192471D01*
X556827Y189715D02*
X556617Y190770D01*
X556020Y191664D01*
X555126Y192261D01*
X554071Y192471D01*
X556827Y189715D02*
X556617Y190770D01*
X556020Y191664D01*
X555126Y192261D01*
X554071Y192471D01*
X554071Y200739D02*
X555126Y200948D01*
X556020Y201546D01*
X556617Y202440D01*
X556827Y203495D01*
X554071Y200739D02*
X555126Y200948D01*
X556020Y201546D01*
X556617Y202440D01*
X556827Y203495D01*
X554071Y200739D02*
X555126Y200948D01*
X556020Y201546D01*
X556617Y202440D01*
X556827Y203495D01*
X554071Y200739D02*
X555126Y200948D01*
X556020Y201546D01*
X556617Y202440D01*
X556827Y203495D01*
X556827Y286172D02*
X556617Y287226D01*
X556020Y288120D01*
X555126Y288718D01*
X554071Y288928D01*
X556827Y286172D02*
X556617Y287226D01*
X556020Y288120D01*
X555126Y288718D01*
X554071Y288928D01*
X556827Y286172D02*
X556617Y287226D01*
X556020Y288120D01*
X555126Y288718D01*
X554071Y288928D01*
X556827Y286172D02*
X556617Y287226D01*
X556020Y288120D01*
X555126Y288718D01*
X554071Y288928D01*
X549937Y293160D02*
X549727Y294215D01*
X549130Y295109D01*
X548236Y295706D01*
X547181Y295916D01*
X549937Y293160D02*
X549727Y294215D01*
X549130Y295109D01*
X548236Y295706D01*
X547181Y295916D01*
X549937Y293160D02*
X549727Y294215D01*
X549130Y295109D01*
X548236Y295706D01*
X547181Y295916D01*
X549937Y293160D02*
X549727Y294215D01*
X549130Y295109D01*
X548236Y295706D01*
X547181Y295916D01*
X556827Y189715D02*
Y177805D01*
X474543Y189715D02*
Y177805D01*
X550921Y192471D02*
X554071D01*
X550921Y200739D02*
Y192471D01*
X481433Y293160D02*
Y288928D01*
Y293160D02*
Y288928D01*
X474543Y286172D02*
X474543Y266487D01*
X474543Y286172D02*
X474543Y266487D01*
X477299Y288928D02*
X481433D01*
X477299D02*
X481433D01*
X484189Y295916D02*
X502890D01*
X484189D02*
X502890D01*
X474543Y240798D02*
X474543Y203495D01*
X474543Y240798D02*
X474543Y203495D01*
X480449Y200739D02*
X480449Y192471D01*
X480449Y200739D02*
X480449Y192471D01*
X477299Y192471D01*
X480449Y192471D02*
X477299Y192471D01*
X480449Y200739D02*
X477299Y200739D01*
X480449Y200739D02*
X477299Y200739D01*
X474543Y152215D02*
Y131644D01*
X477299Y128888D02*
X489307Y128888D01*
X477299Y128495D02*
X489307D01*
X477299Y128888D02*
X489307Y128888D01*
X477299Y128495D02*
X489307D01*
Y128888D02*
Y128495D01*
Y128888D02*
Y128495D01*
X474543Y125739D02*
Y108022D01*
Y125739D02*
Y108022D01*
X477299Y105266D02*
X482417D01*
X477299D02*
X482417D01*
Y100148D01*
Y105266D02*
Y100148D01*
X485173Y97392D02*
X502890D01*
X485173D02*
X502890D01*
X548953Y105266D02*
Y100148D01*
Y105266D02*
Y100148D01*
X528480Y97392D02*
X546197D01*
X528480D02*
X546197D01*
X542063Y128888D02*
Y128495D01*
Y128888D02*
Y128495D01*
X556827Y152215D02*
Y131644D01*
Y125739D02*
Y108022D01*
Y125739D02*
Y108022D01*
X542063Y128888D02*
X554071D01*
X542063Y128495D02*
X554071D01*
X542063Y128888D02*
X554071D01*
X542063Y128495D02*
X554071D01*
X548953Y105266D02*
X554071D01*
X548953D02*
X554071D01*
X556827Y240798D02*
Y203037D01*
Y240798D02*
Y203037D01*
X550921Y200739D02*
Y192471D01*
X554071D01*
X554071Y200739D02*
X550921Y200739D01*
X554071Y200739D02*
X550921Y200739D01*
X549937Y293160D02*
Y288928D01*
X556827Y286172D02*
Y266388D01*
Y286172D02*
Y266388D01*
X528480Y295916D02*
X547181D01*
X528480D02*
X547181D01*
X549937Y288928D02*
X554071D01*
X549937D02*
X554071D01*
M02*
