G04*
G04 #@! TF.GenerationSoftware,Altium Limited,Altium Designer,20.2.6 (244)*
G04*
G04 Layer_Color=8421504*
%FSLAX25Y25*%
%MOIN*%
G70*
G04*
G04 #@! TF.SameCoordinates,04AE22C5-7487-4C5A-A48C-FC1B26360BE3*
G04*
G04*
G04 #@! TF.FilePolarity,Positive*
G04*
G01*
G75*
%ADD10C,0.11811*%
%ADD11R,0.05906X0.02362*%
%ADD12R,0.02362X0.05906*%
%ADD13R,0.03740X0.03543*%
G04:AMPARAMS|DCode=14|XSize=31.5mil|YSize=59.06mil|CornerRadius=15.75mil|HoleSize=0mil|Usage=FLASHONLY|Rotation=360.000|XOffset=0mil|YOffset=0mil|HoleType=Round|Shape=RoundedRectangle|*
%AMROUNDEDRECTD14*
21,1,0.03150,0.02756,0,0,360.0*
21,1,0.00000,0.05906,0,0,360.0*
1,1,0.03150,0.00000,-0.01378*
1,1,0.03150,0.00000,-0.01378*
1,1,0.03150,0.00000,0.01378*
1,1,0.03150,0.00000,0.01378*
%
%ADD14ROUNDEDRECTD14*%
%ADD15R,0.06496X0.09843*%
%ADD16R,0.04528X0.03937*%
%ADD17R,0.03543X0.03740*%
%ADD18R,0.06890X0.04331*%
%ADD19R,0.04331X0.06890*%
%ADD20R,0.03150X0.03740*%
%ADD21R,0.07874X0.04724*%
%ADD22R,0.01772X0.05512*%
%ADD27R,0.03740X0.03543*%
G04:AMPARAMS|DCode=28|XSize=31.5mil|YSize=59.06mil|CornerRadius=15.75mil|HoleSize=0mil|Usage=FLASHONLY|Rotation=0.000|XOffset=0mil|YOffset=0mil|HoleType=Round|Shape=RoundedRectangle|*
%AMROUNDEDRECTD28*
21,1,0.03150,0.02756,0,0,0.0*
21,1,0.00000,0.05906,0,0,0.0*
1,1,0.03150,0.00000,-0.01378*
1,1,0.03150,0.00000,-0.01378*
1,1,0.03150,0.00000,0.01378*
1,1,0.03150,0.00000,0.01378*
%
%ADD28ROUNDEDRECTD28*%
%ADD29R,0.06496X0.09843*%
%ADD30R,0.04528X0.03937*%
%ADD31R,0.07874X0.04724*%
%ADD32R,0.01772X0.05512*%
G04:AMPARAMS|DCode=33|XSize=31.5mil|YSize=59.06mil|CornerRadius=15.75mil|HoleSize=0mil|Usage=FLASHONLY|Rotation=270.000|XOffset=0mil|YOffset=0mil|HoleType=Round|Shape=RoundedRectangle|*
%AMROUNDEDRECTD33*
21,1,0.03150,0.02756,0,0,270.0*
21,1,0.00000,0.05906,0,0,270.0*
1,1,0.03150,-0.01378,0.00000*
1,1,0.03150,-0.01378,0.00000*
1,1,0.03150,0.01378,0.00000*
1,1,0.03150,0.01378,0.00000*
%
%ADD33ROUNDEDRECTD33*%
%ADD34R,0.09843X0.06496*%
%ADD35R,0.03937X0.04528*%
%ADD36R,0.03740X0.03150*%
%ADD37R,0.04724X0.07874*%
%ADD38R,0.05512X0.01772*%
D10*
X11811Y11811D02*
D03*
X578740Y11811D02*
D03*
Y381890D02*
D03*
X11811Y381890D02*
D03*
D11*
X491390Y91092D02*
D03*
Y87942D02*
D03*
Y94242D02*
D03*
Y81643D02*
D03*
Y78494D02*
D03*
Y84793D02*
D03*
Y75344D02*
D03*
Y72194D02*
D03*
X457926Y94242D02*
D03*
Y87942D02*
D03*
Y84793D02*
D03*
Y91092D02*
D03*
Y78494D02*
D03*
Y75344D02*
D03*
Y81643D02*
D03*
Y72194D02*
D03*
X198413Y91092D02*
D03*
Y87942D02*
D03*
Y94242D02*
D03*
Y81643D02*
D03*
Y78494D02*
D03*
Y84793D02*
D03*
Y75344D02*
D03*
Y72194D02*
D03*
X164949Y94242D02*
D03*
Y87942D02*
D03*
Y84793D02*
D03*
Y91092D02*
D03*
Y78494D02*
D03*
Y75344D02*
D03*
Y81643D02*
D03*
Y72194D02*
D03*
X92161Y247431D02*
D03*
Y244282D02*
D03*
Y250581D02*
D03*
Y237983D02*
D03*
Y234833D02*
D03*
Y241132D02*
D03*
X58697Y234833D02*
D03*
Y247431D02*
D03*
Y244282D02*
D03*
Y250581D02*
D03*
Y237983D02*
D03*
Y241132D02*
D03*
X92161Y256880D02*
D03*
Y253731D02*
D03*
X58697D02*
D03*
Y256880D02*
D03*
X202398Y247431D02*
D03*
Y244282D02*
D03*
Y250581D02*
D03*
Y237983D02*
D03*
Y234833D02*
D03*
Y241132D02*
D03*
X168933Y234833D02*
D03*
Y247431D02*
D03*
Y244282D02*
D03*
Y250581D02*
D03*
Y237983D02*
D03*
Y241132D02*
D03*
X202398Y256880D02*
D03*
Y253731D02*
D03*
X168933D02*
D03*
Y256880D02*
D03*
X312634Y247431D02*
D03*
Y244282D02*
D03*
Y250581D02*
D03*
Y237983D02*
D03*
Y234833D02*
D03*
Y241132D02*
D03*
X279169Y234833D02*
D03*
Y247431D02*
D03*
Y244282D02*
D03*
Y250581D02*
D03*
Y237983D02*
D03*
Y241132D02*
D03*
X312634Y256880D02*
D03*
Y253731D02*
D03*
X279169D02*
D03*
Y256880D02*
D03*
X422870Y247431D02*
D03*
Y244282D02*
D03*
Y250581D02*
D03*
Y237983D02*
D03*
Y234833D02*
D03*
Y241132D02*
D03*
X389405Y234833D02*
D03*
Y247431D02*
D03*
Y244282D02*
D03*
Y250581D02*
D03*
Y237983D02*
D03*
Y241132D02*
D03*
X422870Y256880D02*
D03*
Y253731D02*
D03*
X389405D02*
D03*
Y256880D02*
D03*
X533106Y247431D02*
D03*
Y244282D02*
D03*
Y250581D02*
D03*
Y237983D02*
D03*
Y234833D02*
D03*
Y241132D02*
D03*
X499642Y234833D02*
D03*
Y247431D02*
D03*
Y244282D02*
D03*
Y250581D02*
D03*
Y237983D02*
D03*
Y241132D02*
D03*
X533106Y256880D02*
D03*
Y253731D02*
D03*
X499642D02*
D03*
Y256880D02*
D03*
D12*
X473083Y99950D02*
D03*
X476233D02*
D03*
X469934D02*
D03*
X482532D02*
D03*
X485681D02*
D03*
X479382D02*
D03*
X485681Y66486D02*
D03*
X473083D02*
D03*
X476233D02*
D03*
X469934D02*
D03*
X482532D02*
D03*
X479382D02*
D03*
X463634Y99950D02*
D03*
X466784D02*
D03*
Y66486D02*
D03*
X463634D02*
D03*
X180106Y99950D02*
D03*
X183256D02*
D03*
X176957D02*
D03*
X189555D02*
D03*
X192705D02*
D03*
X186405D02*
D03*
X192705Y66486D02*
D03*
X180106D02*
D03*
X183256D02*
D03*
X176957D02*
D03*
X189555D02*
D03*
X186405D02*
D03*
X170657Y99950D02*
D03*
X173807D02*
D03*
Y66486D02*
D03*
X170657D02*
D03*
X83303Y229124D02*
D03*
X80154D02*
D03*
X86453D02*
D03*
X73854D02*
D03*
X70705D02*
D03*
X77004D02*
D03*
X67555D02*
D03*
X64406D02*
D03*
X86453Y262589D02*
D03*
X80154D02*
D03*
X77004D02*
D03*
X83303D02*
D03*
X70705D02*
D03*
X67555D02*
D03*
X73854D02*
D03*
X64406D02*
D03*
X193539Y229124D02*
D03*
X190390D02*
D03*
X196689D02*
D03*
X184090D02*
D03*
X180941D02*
D03*
X187240D02*
D03*
X177791D02*
D03*
X174642D02*
D03*
X196689Y262589D02*
D03*
X190390D02*
D03*
X187240D02*
D03*
X193539D02*
D03*
X180941D02*
D03*
X177791D02*
D03*
X184090D02*
D03*
X174642D02*
D03*
X303776Y229124D02*
D03*
X300626D02*
D03*
X306925D02*
D03*
X294327D02*
D03*
X291177D02*
D03*
X297476D02*
D03*
X288028D02*
D03*
X284878D02*
D03*
X306925Y262589D02*
D03*
X300626D02*
D03*
X297476D02*
D03*
X303776D02*
D03*
X291177D02*
D03*
X288028D02*
D03*
X294327D02*
D03*
X284878D02*
D03*
X414012Y229124D02*
D03*
X410862D02*
D03*
X417161D02*
D03*
X404563D02*
D03*
X401413D02*
D03*
X407713D02*
D03*
X398264D02*
D03*
X395114D02*
D03*
X417161Y262589D02*
D03*
X410862D02*
D03*
X407713D02*
D03*
X414012D02*
D03*
X401413D02*
D03*
X398264D02*
D03*
X404563D02*
D03*
X395114D02*
D03*
X524248Y229124D02*
D03*
X521098D02*
D03*
X527398D02*
D03*
X514799D02*
D03*
X511650D02*
D03*
X517949D02*
D03*
X508500D02*
D03*
X505350D02*
D03*
X527398Y262589D02*
D03*
X521098D02*
D03*
X517949D02*
D03*
X524248D02*
D03*
X511650D02*
D03*
X508500D02*
D03*
X514799D02*
D03*
X505350D02*
D03*
D13*
X450780Y87746D02*
D03*
Y81643D02*
D03*
X500248Y59793D02*
D03*
Y53691D02*
D03*
X407670Y109005D02*
D03*
Y102903D02*
D03*
X401469D02*
D03*
Y109005D02*
D03*
X423516Y103199D02*
D03*
Y97096D02*
D03*
X430012Y103199D02*
D03*
Y97096D02*
D03*
X394776Y89616D02*
D03*
Y83513D02*
D03*
X388674D02*
D03*
Y89616D02*
D03*
X436508Y103199D02*
D03*
Y97096D02*
D03*
X108492Y102903D02*
D03*
Y109005D02*
D03*
X101799Y89616D02*
D03*
Y83513D02*
D03*
X95697D02*
D03*
Y89616D02*
D03*
X51512Y241329D02*
D03*
Y247431D02*
D03*
X40783Y227451D02*
D03*
Y233554D02*
D03*
X99346Y237983D02*
D03*
Y244085D02*
D03*
X63618Y325739D02*
D03*
Y331841D02*
D03*
X69721Y325739D02*
D03*
Y331841D02*
D03*
X58598Y312747D02*
D03*
Y306644D02*
D03*
X161748Y241329D02*
D03*
Y247431D02*
D03*
X151020Y227451D02*
D03*
Y233554D02*
D03*
X209583Y237983D02*
D03*
Y244085D02*
D03*
X173854Y325739D02*
D03*
Y331841D02*
D03*
X179957Y325739D02*
D03*
Y331841D02*
D03*
X168835Y312747D02*
D03*
Y306644D02*
D03*
X271984Y241329D02*
D03*
Y247431D02*
D03*
X261256Y227451D02*
D03*
Y233554D02*
D03*
X319819Y237983D02*
D03*
Y244085D02*
D03*
X284090Y325739D02*
D03*
Y331841D02*
D03*
X290193Y325739D02*
D03*
Y331841D02*
D03*
X279071Y312747D02*
D03*
Y306644D02*
D03*
X382220Y241329D02*
D03*
Y247431D02*
D03*
X371492Y227451D02*
D03*
Y233554D02*
D03*
X430055Y237983D02*
D03*
Y244085D02*
D03*
X394327Y325739D02*
D03*
Y331841D02*
D03*
X400429Y325739D02*
D03*
Y331841D02*
D03*
X389307Y312747D02*
D03*
Y306644D02*
D03*
X492457Y241329D02*
D03*
Y247431D02*
D03*
X481728Y227451D02*
D03*
Y233554D02*
D03*
X540291Y237983D02*
D03*
Y244085D02*
D03*
X504563Y325739D02*
D03*
Y331841D02*
D03*
X510665Y325739D02*
D03*
Y331841D02*
D03*
X499543Y312747D02*
D03*
Y306644D02*
D03*
D14*
X499874Y113041D02*
D03*
X504874D02*
D03*
X509874D02*
D03*
X514874D02*
D03*
D15*
X531095Y89655D02*
D03*
Y74891D02*
D03*
D16*
X493851Y59793D02*
D03*
Y54675D02*
D03*
X486961Y59793D02*
D03*
Y54675D02*
D03*
D17*
X479185Y59301D02*
D03*
X473083D02*
D03*
X493063Y48572D02*
D03*
X486961D02*
D03*
X482532Y107135D02*
D03*
X476430D02*
D03*
X394776Y71407D02*
D03*
X388674D02*
D03*
X394776Y77509D02*
D03*
X388674D02*
D03*
X407768Y66387D02*
D03*
X413870D02*
D03*
X186209Y59301D02*
D03*
X180106D02*
D03*
X200086Y48572D02*
D03*
X193984D02*
D03*
X189555Y107135D02*
D03*
X183453D02*
D03*
X101799Y71407D02*
D03*
X95697D02*
D03*
X101799Y77509D02*
D03*
X95697D02*
D03*
X114791Y66387D02*
D03*
X120894D02*
D03*
X79957Y269735D02*
D03*
X73854D02*
D03*
X52004Y220266D02*
D03*
X45902D02*
D03*
X101216Y312845D02*
D03*
X95114D02*
D03*
Y319046D02*
D03*
X101216D02*
D03*
X95409Y296998D02*
D03*
X89307D02*
D03*
X95409Y290502D02*
D03*
X89307D02*
D03*
X81827Y325739D02*
D03*
X75724D02*
D03*
Y331841D02*
D03*
X81827D02*
D03*
X95409Y284006D02*
D03*
X89307D02*
D03*
X190193Y269735D02*
D03*
X184090D02*
D03*
X162240Y220266D02*
D03*
X156138D02*
D03*
X211453Y312845D02*
D03*
X205350D02*
D03*
Y319046D02*
D03*
X211453D02*
D03*
X205646Y296998D02*
D03*
X199543D02*
D03*
X205646Y290502D02*
D03*
X199543D02*
D03*
X192063Y325739D02*
D03*
X185961D02*
D03*
Y331841D02*
D03*
X192063D02*
D03*
X205646Y284006D02*
D03*
X199543D02*
D03*
X300429Y269735D02*
D03*
X294327D02*
D03*
X272476Y220266D02*
D03*
X266374D02*
D03*
X321689Y312845D02*
D03*
X315587D02*
D03*
Y319046D02*
D03*
X321689D02*
D03*
X315882Y296998D02*
D03*
X309780D02*
D03*
X315882Y290502D02*
D03*
X309780D02*
D03*
X302299Y325739D02*
D03*
X296197D02*
D03*
Y331841D02*
D03*
X302299D02*
D03*
X315882Y284006D02*
D03*
X309780D02*
D03*
X410665Y269735D02*
D03*
X404563D02*
D03*
X382713Y220266D02*
D03*
X376610D02*
D03*
X431925Y312845D02*
D03*
X425823D02*
D03*
Y319046D02*
D03*
X431925D02*
D03*
X426118Y296998D02*
D03*
X420016D02*
D03*
X426118Y290502D02*
D03*
X420016D02*
D03*
X412535Y325739D02*
D03*
X406433D02*
D03*
Y331841D02*
D03*
X412535D02*
D03*
X426118Y284006D02*
D03*
X420016D02*
D03*
X520902Y269735D02*
D03*
X514799D02*
D03*
X492949Y220266D02*
D03*
X486846D02*
D03*
X542161Y312845D02*
D03*
X536059D02*
D03*
Y319046D02*
D03*
X542161D02*
D03*
X536354Y296998D02*
D03*
X530252D02*
D03*
X536354Y290502D02*
D03*
X530252D02*
D03*
X522772Y325739D02*
D03*
X516669D02*
D03*
Y331841D02*
D03*
X522772D02*
D03*
X536354Y284006D02*
D03*
X530252D02*
D03*
D18*
X519284Y78041D02*
D03*
Y89655D02*
D03*
X226307Y78041D02*
D03*
Y89655D02*
D03*
X50921Y312747D02*
D03*
Y301132D02*
D03*
X161158Y312747D02*
D03*
Y301132D02*
D03*
X271394Y312747D02*
D03*
Y301132D02*
D03*
X381630Y312747D02*
D03*
Y301132D02*
D03*
X491866Y312747D02*
D03*
Y301132D02*
D03*
D19*
X407768Y58710D02*
D03*
X419382D02*
D03*
X114791Y58710D02*
D03*
X126405D02*
D03*
X70252Y201231D02*
D03*
X81866D02*
D03*
X180488D02*
D03*
X192102D02*
D03*
X290724D02*
D03*
X302339D02*
D03*
X400961D02*
D03*
X412575D02*
D03*
X511197D02*
D03*
X522811D02*
D03*
D20*
X423516Y86663D02*
D03*
X429815D02*
D03*
X423516Y79576D02*
D03*
X429815D02*
D03*
X423516Y72490D02*
D03*
X429815D02*
D03*
X130539Y86663D02*
D03*
X136838D02*
D03*
X130539Y79576D02*
D03*
X136838D02*
D03*
X130539Y72490D02*
D03*
X136838D02*
D03*
D21*
X380504Y93356D02*
D03*
Y83513D02*
D03*
Y75639D02*
D03*
Y65797D02*
D03*
D22*
X402650Y73277D02*
D03*
X400091D02*
D03*
Y96112D02*
D03*
X402650D02*
D03*
X405209D02*
D03*
X410327Y73277D02*
D03*
X405209D02*
D03*
X407768D02*
D03*
X412886D02*
D03*
X415445D02*
D03*
X418004D02*
D03*
X412886Y96112D02*
D03*
X415445D02*
D03*
X407768D02*
D03*
X410327D02*
D03*
X418004D02*
D03*
D27*
X157803Y87746D02*
D03*
Y81643D02*
D03*
X207272Y59793D02*
D03*
Y53691D02*
D03*
X114693Y109005D02*
D03*
Y102903D02*
D03*
X130539Y103198D02*
D03*
Y97096D02*
D03*
X137035Y103198D02*
D03*
Y97096D02*
D03*
X143531Y103198D02*
D03*
Y97096D02*
D03*
D28*
X206898Y113041D02*
D03*
X211898D02*
D03*
X216898D02*
D03*
X221898D02*
D03*
D29*
X238118Y89655D02*
D03*
Y74891D02*
D03*
D30*
X200874Y59793D02*
D03*
Y54675D02*
D03*
X193984Y59793D02*
D03*
Y54675D02*
D03*
D31*
X87528Y93356D02*
D03*
Y83513D02*
D03*
Y75639D02*
D03*
Y65797D02*
D03*
D32*
X109673Y73277D02*
D03*
X107114D02*
D03*
Y96112D02*
D03*
X109673D02*
D03*
X112232D02*
D03*
X117350Y73277D02*
D03*
X112232D02*
D03*
X114791D02*
D03*
X119909D02*
D03*
X122468D02*
D03*
X125028D02*
D03*
X119909Y96112D02*
D03*
X122468D02*
D03*
X114791D02*
D03*
X117350D02*
D03*
X125028D02*
D03*
D33*
X105252Y220640D02*
D03*
Y215640D02*
D03*
Y210640D02*
D03*
Y205640D02*
D03*
X215488Y220640D02*
D03*
Y215640D02*
D03*
Y210640D02*
D03*
Y205640D02*
D03*
X325724Y220640D02*
D03*
Y215640D02*
D03*
Y210640D02*
D03*
Y205640D02*
D03*
X435960Y220640D02*
D03*
Y215640D02*
D03*
Y210640D02*
D03*
Y205640D02*
D03*
X546197Y220640D02*
D03*
Y215640D02*
D03*
Y210640D02*
D03*
Y205640D02*
D03*
D34*
X81866Y189420D02*
D03*
X67102D02*
D03*
X192102D02*
D03*
X177339D02*
D03*
X302339D02*
D03*
X287575D02*
D03*
X412575D02*
D03*
X397811D02*
D03*
X522811D02*
D03*
X508047D02*
D03*
D35*
X52004Y226664D02*
D03*
X46886D02*
D03*
X52004Y233554D02*
D03*
X46886D02*
D03*
X162240Y226664D02*
D03*
X157122D02*
D03*
X162240Y233554D02*
D03*
X157122D02*
D03*
X272476Y226664D02*
D03*
X267358D02*
D03*
X272476Y233554D02*
D03*
X267358D02*
D03*
X382713Y226664D02*
D03*
X377594D02*
D03*
X382713Y233554D02*
D03*
X377594D02*
D03*
X492949Y226664D02*
D03*
X487831D02*
D03*
X492949Y233554D02*
D03*
X487831D02*
D03*
D36*
X78874Y296999D02*
D03*
Y290699D02*
D03*
X71787Y296999D02*
D03*
Y290699D02*
D03*
X64701Y296999D02*
D03*
Y290699D02*
D03*
X189110Y296999D02*
D03*
Y290699D02*
D03*
X182024Y296999D02*
D03*
Y290699D02*
D03*
X174937Y296999D02*
D03*
Y290699D02*
D03*
X299346Y296999D02*
D03*
Y290699D02*
D03*
X292260Y296999D02*
D03*
Y290699D02*
D03*
X285173Y296999D02*
D03*
Y290699D02*
D03*
X409583Y296999D02*
D03*
Y290699D02*
D03*
X402496Y296999D02*
D03*
Y290699D02*
D03*
X395409Y296999D02*
D03*
Y290699D02*
D03*
X519819Y296999D02*
D03*
Y290699D02*
D03*
X512732Y296999D02*
D03*
Y290699D02*
D03*
X505646Y296999D02*
D03*
Y290699D02*
D03*
D37*
X85567Y340010D02*
D03*
X75724D02*
D03*
X67850D02*
D03*
X58008D02*
D03*
X195803D02*
D03*
X185961D02*
D03*
X178087D02*
D03*
X168244D02*
D03*
X306039D02*
D03*
X296197D02*
D03*
X288323D02*
D03*
X278480D02*
D03*
X416276D02*
D03*
X406433D02*
D03*
X398559D02*
D03*
X388717D02*
D03*
X526512D02*
D03*
X516669D02*
D03*
X508795D02*
D03*
X498953D02*
D03*
D38*
X65488Y317865D02*
D03*
Y320424D02*
D03*
X88323D02*
D03*
Y317865D02*
D03*
Y315305D02*
D03*
X65488Y310187D02*
D03*
Y315305D02*
D03*
Y312747D02*
D03*
Y307628D02*
D03*
Y305069D02*
D03*
Y302510D02*
D03*
X88323Y307628D02*
D03*
Y305069D02*
D03*
Y312747D02*
D03*
Y310187D02*
D03*
Y302510D02*
D03*
X175724Y317865D02*
D03*
Y320424D02*
D03*
X198559D02*
D03*
Y317865D02*
D03*
Y315305D02*
D03*
X175724Y310187D02*
D03*
Y315305D02*
D03*
Y312747D02*
D03*
Y307628D02*
D03*
Y305069D02*
D03*
Y302510D02*
D03*
X198559Y307628D02*
D03*
Y305069D02*
D03*
Y312747D02*
D03*
Y310187D02*
D03*
Y302510D02*
D03*
X285961Y317865D02*
D03*
Y320424D02*
D03*
X308795D02*
D03*
Y317865D02*
D03*
Y315305D02*
D03*
X285961Y310187D02*
D03*
Y315305D02*
D03*
Y312747D02*
D03*
Y307628D02*
D03*
Y305069D02*
D03*
Y302510D02*
D03*
X308795Y307628D02*
D03*
Y305069D02*
D03*
Y312747D02*
D03*
Y310187D02*
D03*
Y302510D02*
D03*
X396197Y317865D02*
D03*
Y320424D02*
D03*
X419031D02*
D03*
Y317865D02*
D03*
Y315305D02*
D03*
X396197Y310187D02*
D03*
Y315305D02*
D03*
Y312747D02*
D03*
Y307628D02*
D03*
Y305069D02*
D03*
Y302510D02*
D03*
X419031Y307628D02*
D03*
Y305069D02*
D03*
Y312747D02*
D03*
Y310187D02*
D03*
Y302510D02*
D03*
X506433Y317865D02*
D03*
Y320424D02*
D03*
X529268D02*
D03*
Y317865D02*
D03*
Y315305D02*
D03*
X506433Y310187D02*
D03*
Y315305D02*
D03*
Y312747D02*
D03*
Y307628D02*
D03*
Y305069D02*
D03*
Y302510D02*
D03*
X529268Y307628D02*
D03*
Y305069D02*
D03*
Y312747D02*
D03*
Y310187D02*
D03*
Y302510D02*
D03*
M02*
