G04*
G04 #@! TF.GenerationSoftware,Altium Limited,Altium Designer,20.2.6 (244)*
G04*
G04 Layer_Color=65535*
%FSLAX25Y25*%
%MOIN*%
G70*
G04*
G04 #@! TF.SameCoordinates,04AE22C5-7487-4C5A-A48C-FC1B26360BE3*
G04*
G04*
G04 #@! TF.FilePolarity,Positive*
G04*
G01*
G75*
%ADD47C,0.01575*%
%ADD48C,0.00787*%
%ADD49C,0.00787*%
%ADD50C,0.02362*%
%ADD51C,0.00394*%
%ADD52C,0.00591*%
%ADD53R,0.11417X0.02118*%
%ADD54R,0.02118X0.11417*%
D47*
X465209Y73376D02*
X464422D01*
X465209D01*
X172232Y73376D02*
X171445D01*
X172232D01*
X65587Y255306D02*
Y256093D01*
Y255306D01*
X175823D02*
Y256093D01*
Y255306D01*
X286059D02*
Y256093D01*
Y255306D01*
X396295D02*
Y256093D01*
Y255306D01*
X506531D02*
Y256093D01*
Y255306D01*
D48*
X486995Y51328D02*
D03*
X194018Y51328D02*
D03*
X43539Y233519D02*
D03*
X153776D02*
D03*
X264012D02*
D03*
X374248D02*
D03*
X484484D02*
D03*
D49*
X423811Y89911D02*
X423024D01*
X423811D01*
Y82824D02*
X423024D01*
X423811D01*
Y75738D02*
X423024D01*
X423811D01*
X130835Y89911D02*
X130047D01*
X130835D01*
Y82824D02*
X130047D01*
X130835D01*
Y75738D02*
X130047D01*
X130835D01*
X82122Y296703D02*
Y297491D01*
Y296703D01*
X75035D02*
Y297491D01*
Y296703D01*
X67949D02*
Y297491D01*
Y296703D01*
X192358D02*
Y297491D01*
Y296703D01*
X185272D02*
Y297491D01*
Y296703D01*
X178185D02*
Y297491D01*
Y296703D01*
X302594D02*
Y297491D01*
Y296703D01*
X295508D02*
Y297491D01*
Y296703D01*
X288421D02*
Y297491D01*
Y296703D01*
X412831D02*
Y297491D01*
Y296703D01*
X405744D02*
Y297491D01*
Y296703D01*
X398657D02*
Y297491D01*
Y296703D01*
X523067D02*
Y297491D01*
Y296703D01*
X515980D02*
Y297491D01*
Y296703D01*
X508894D02*
Y297491D01*
Y296703D01*
D50*
X416335Y88695D02*
X415791Y89443D01*
X414911Y89157D01*
Y88232D01*
X415791Y87946D01*
X416335Y88695D01*
X123358Y88695D02*
X122814Y89443D01*
X121934Y89157D01*
Y88232D01*
X122814Y87946D01*
X123358Y88695D01*
X80905Y304180D02*
X81654Y304724D01*
X81368Y305604D01*
X80443D01*
X80157Y304724D01*
X80905Y304180D01*
X191142D02*
X191891Y304724D01*
X191604Y305604D01*
X190679D01*
X190393Y304724D01*
X191142Y304180D01*
X301378D02*
X302127Y304724D01*
X301841Y305604D01*
X300915D01*
X300629Y304724D01*
X301378Y304180D01*
X411614D02*
X412363Y304724D01*
X412077Y305604D01*
X411151D01*
X410865Y304724D01*
X411614Y304180D01*
X521850D02*
X522599Y304724D01*
X522313Y305604D01*
X521388D01*
X521102Y304724D01*
X521850Y304180D01*
D51*
X487059Y70817D02*
Y95620D01*
X462256D02*
X487059D01*
X462256Y70817D02*
X487059D01*
X462256D02*
Y95620D01*
X452355Y81545D02*
Y87844D01*
X449205Y81545D02*
X452355D01*
X449205D02*
Y87844D01*
X452355D01*
X494874Y105994D02*
X519874D01*
X494874Y117494D02*
X519874D01*
X494874Y105994D02*
Y117494D01*
X519874Y105994D02*
Y117494D01*
X536804Y74399D02*
Y90147D01*
X525386D02*
X536804D01*
X525386Y74399D02*
X536804D01*
X525386D02*
Y90147D01*
X495327Y53297D02*
Y61171D01*
X485485D02*
X495327D01*
X485485Y53297D02*
X495327D01*
X485485D02*
Y61171D01*
X472985Y60876D02*
X479284D01*
Y57726D02*
Y60876D01*
X472985Y57726D02*
Y60876D01*
Y57726D02*
X479284D01*
X501823Y53592D02*
Y59891D01*
X498674Y53592D02*
Y59891D01*
X501823D01*
X498674Y53592D02*
X501823D01*
X486863Y50147D02*
X493162D01*
Y46998D02*
Y50147D01*
X486863Y46998D02*
Y50147D01*
Y46998D02*
X493162D01*
X482630Y105561D02*
Y108710D01*
X476331Y105561D02*
Y108710D01*
X482630D01*
X476331Y105561D02*
X482630D01*
X516134Y77549D02*
X522434D01*
X516134Y90147D02*
X522434D01*
X516134Y77549D02*
Y90147D01*
X522434Y77549D02*
Y90147D01*
X407276Y61860D02*
X419874D01*
X407276Y55561D02*
X419874D01*
X407276D02*
Y61860D01*
X419874Y55561D02*
Y61860D01*
X549304Y54655D02*
Y104655D01*
X540071Y54655D02*
Y104655D01*
Y54655D02*
X549304D01*
X540071Y104655D02*
X549304D01*
X423515Y85096D02*
Y88245D01*
X429814Y85096D02*
Y88245D01*
X423515Y85096D02*
X429814D01*
X423515Y88245D02*
X429814D01*
X423542Y85089D02*
Y88238D01*
X429841Y85089D02*
Y88238D01*
X423542Y85089D02*
X429841D01*
X423542Y88238D02*
X429841D01*
X423515Y78009D02*
Y81159D01*
X429814Y78009D02*
Y81159D01*
X423515Y78009D02*
X429814D01*
X423515Y81159D02*
X429814D01*
X423542Y78002D02*
Y81152D01*
X429841Y78002D02*
Y81152D01*
X423542Y78002D02*
X429841D01*
X423542Y81152D02*
X429841D01*
X423515Y70923D02*
Y74072D01*
X429814Y70923D02*
Y74072D01*
X423515Y70923D02*
X429814D01*
X423515Y74072D02*
X429814D01*
X423542Y70916D02*
Y74065D01*
X429841Y70916D02*
Y74065D01*
X423542Y70916D02*
X429841D01*
X423542Y74065D02*
X429841D01*
X359441Y55954D02*
X374205D01*
X359441D02*
Y103199D01*
X374205D01*
Y55954D02*
Y103199D01*
X399205Y77608D02*
X418890D01*
X399205D02*
Y91781D01*
X418890D01*
Y77608D02*
Y91781D01*
X394874Y69832D02*
Y72982D01*
X388575Y69832D02*
Y72982D01*
X394874D01*
X388575Y69832D02*
X394874D01*
X406095Y102805D02*
Y109104D01*
X409244Y102805D02*
Y109104D01*
X406095D02*
X409244D01*
X406095Y102805D02*
X409244D01*
X403044D02*
Y109104D01*
X399894Y102805D02*
Y109104D01*
Y102805D02*
X403044D01*
X399894Y109104D02*
X403044D01*
X421941Y96998D02*
Y103297D01*
X425091Y96998D02*
Y103297D01*
X421941D02*
X425091D01*
X421941Y96998D02*
X425091D01*
X428437D02*
Y103297D01*
X431587Y96998D02*
Y103297D01*
X428437D02*
X431587D01*
X428437Y96998D02*
X431587D01*
X393201Y89714D02*
X396351D01*
X393201Y83415D02*
X396351D01*
X393201D02*
Y89714D01*
X396351Y83415D02*
Y89714D01*
X390248Y83415D02*
Y89714D01*
X387099Y83415D02*
Y89714D01*
Y83415D02*
X390248D01*
X387099Y89714D02*
X390248D01*
X394874Y75935D02*
Y79084D01*
X388575Y75935D02*
Y79084D01*
X394874D01*
X388575Y75935D02*
X394874D01*
X434934Y96998D02*
Y103297D01*
X438083Y96998D02*
Y103297D01*
X434934D02*
X438083D01*
X434934Y96998D02*
X438083D01*
X407670Y64813D02*
X413969D01*
X407670Y67962D02*
X413969D01*
X407670Y64813D02*
Y67962D01*
X413969Y64813D02*
Y67962D01*
X194083Y70816D02*
Y95620D01*
X169280D02*
X194083D01*
X169280Y70816D02*
X194083D01*
X169280D02*
Y95620D01*
X159378Y81545D02*
Y87844D01*
X156228Y81545D02*
X159378D01*
X156228D02*
Y87844D01*
X159378D01*
X201898Y105994D02*
X226898D01*
X201898Y117494D02*
X226898D01*
X201898Y105994D02*
Y117494D01*
X226898Y105994D02*
Y117494D01*
X243827Y74399D02*
Y90147D01*
X232409D02*
X243827D01*
X232409Y74399D02*
X243827D01*
X232409D02*
Y90147D01*
X202350Y53297D02*
Y61171D01*
X192508D02*
X202350D01*
X192508Y53297D02*
X202350D01*
X192508D02*
Y61171D01*
X180008Y60876D02*
X186307D01*
Y57726D02*
Y60876D01*
X180008Y57726D02*
Y60876D01*
Y57726D02*
X186307D01*
X208846Y53592D02*
Y59891D01*
X205697Y53592D02*
Y59891D01*
X208846D01*
X205697Y53592D02*
X208846D01*
X193886Y50147D02*
X200185D01*
Y46998D02*
Y50147D01*
X193886Y46998D02*
Y50147D01*
Y46998D02*
X200185D01*
X189654Y105561D02*
Y108710D01*
X183354Y105561D02*
Y108710D01*
X189654D01*
X183354Y105561D02*
X189654D01*
X223157Y77549D02*
X229457D01*
X223157Y90147D02*
X229457D01*
X223157Y77549D02*
Y90147D01*
X229457Y77549D02*
Y90147D01*
X114299Y61860D02*
X126898D01*
X114299Y55561D02*
X126898D01*
X114299D02*
Y61860D01*
X126898Y55561D02*
Y61860D01*
X256327Y54655D02*
Y104655D01*
X247094Y54655D02*
Y104655D01*
Y54655D02*
X256327D01*
X247094Y104655D02*
X256327D01*
X130538Y85096D02*
Y88245D01*
X136837Y85096D02*
Y88245D01*
X130538Y85096D02*
X136837D01*
X130538Y88245D02*
X136837D01*
X130565Y85089D02*
Y88238D01*
X136864Y85089D02*
Y88238D01*
X130565Y85089D02*
X136864D01*
X130565Y88238D02*
X136864D01*
X130538Y78009D02*
Y81159D01*
X136837Y78009D02*
Y81159D01*
X130538Y78009D02*
X136837D01*
X130538Y81159D02*
X136837D01*
X130565Y78002D02*
Y81152D01*
X136864Y78002D02*
Y81152D01*
X130565Y78002D02*
X136864D01*
X130565Y81152D02*
X136864D01*
X130538Y70923D02*
Y74072D01*
X136837Y70923D02*
Y74072D01*
X130538Y70923D02*
X136837D01*
X130538Y74072D02*
X136837D01*
X130565Y70915D02*
Y74065D01*
X136864Y70915D02*
Y74065D01*
X130565Y70915D02*
X136864D01*
X130565Y74065D02*
X136864D01*
X66465Y55954D02*
X81228D01*
X66465D02*
Y103198D01*
X81228D01*
Y55954D02*
Y103198D01*
X106228Y77608D02*
X125913D01*
X106228D02*
Y91781D01*
X125913D01*
Y77608D02*
Y91781D01*
X101898Y69832D02*
Y72982D01*
X95598Y69832D02*
Y72982D01*
X101898D01*
X95598Y69832D02*
X101898D01*
X113118Y102805D02*
Y109104D01*
X116268Y102805D02*
Y109104D01*
X113118D02*
X116268D01*
X113118Y102805D02*
X116268D01*
X110067D02*
Y109104D01*
X106917Y102805D02*
Y109104D01*
Y102805D02*
X110067D01*
X106917Y109104D02*
X110067D01*
X128964Y96998D02*
Y103297D01*
X132114Y96998D02*
Y103297D01*
X128964D02*
X132114D01*
X128964Y96998D02*
X132114D01*
X135461D02*
Y103297D01*
X138610Y96998D02*
Y103297D01*
X135461D02*
X138610D01*
X135461Y96998D02*
X138610D01*
X100224Y89714D02*
X103374D01*
X100224Y83415D02*
X103374D01*
X100224D02*
Y89714D01*
X103374Y83415D02*
Y89714D01*
X97272Y83415D02*
Y89714D01*
X94122Y83415D02*
Y89714D01*
Y83415D02*
X97272D01*
X94122Y89714D02*
X97272D01*
X101898Y75935D02*
Y79084D01*
X95598Y75935D02*
Y79084D01*
X101898D01*
X95598Y75935D02*
X101898D01*
X141957Y96998D02*
Y103297D01*
X145106Y96998D02*
Y103297D01*
X141957D02*
X145106D01*
X141957Y96998D02*
X145106D01*
X114693Y64813D02*
X120992D01*
X114693Y67962D02*
X120992D01*
X114693Y64813D02*
Y67962D01*
X120992Y64813D02*
Y67962D01*
X63028Y233455D02*
X87831D01*
Y258258D02*
Y233455D01*
X63028Y258258D02*
Y233455D01*
Y258258D02*
X87831D01*
X73756Y268160D02*
X80055D01*
X73756Y271309D02*
Y268160D01*
Y271309D02*
X80055D01*
Y268160D01*
X98205Y225640D02*
Y200640D01*
X109705Y225640D02*
Y200640D01*
X98205Y225640D02*
X109705D01*
X98205Y200640D02*
X109705D01*
X66610Y183711D02*
X82358D01*
Y195128D02*
Y183711D01*
X66610Y195128D02*
Y183711D01*
Y195128D02*
X82358D01*
X45508Y225187D02*
X53382D01*
Y235030D02*
Y225187D01*
X45508Y235030D02*
Y225187D01*
Y235030D02*
X53382D01*
X53087Y247530D02*
Y241231D01*
X49937D02*
X53087D01*
X49937Y247530D02*
X53087D01*
X49937D02*
Y241231D01*
X45803Y218691D02*
X52102D01*
X45803Y221841D02*
X52102D01*
Y218691D01*
X45803Y221841D02*
Y218691D01*
X42358Y233652D02*
Y227353D01*
X39209D02*
X42358D01*
X39209Y233652D02*
X42358D01*
X39209D02*
Y227353D01*
X97772Y237884D02*
X100921D01*
X97772Y244183D02*
X100921D01*
Y237884D01*
X97772Y244183D02*
Y237884D01*
X69760Y204380D02*
Y198081D01*
X82358Y204380D02*
Y198081D01*
X69760Y204380D02*
X82358D01*
X69760Y198081D02*
X82358D01*
X54071Y313239D02*
Y300640D01*
X47772Y313239D02*
Y300640D01*
Y313239D02*
X54071D01*
X47772Y300640D02*
X54071D01*
X46866Y171211D02*
X96866D01*
X46866Y180443D02*
X96866D01*
X46866D02*
Y171211D01*
X96866Y180443D02*
Y171211D01*
X77307Y297000D02*
X80456D01*
X77307Y290701D02*
X80456D01*
X77307Y297000D02*
Y290701D01*
X80456Y297000D02*
Y290701D01*
X77300Y296972D02*
X80449D01*
X77300Y290673D02*
X80449D01*
X77300Y296972D02*
Y290673D01*
X80449Y296972D02*
Y290673D01*
X70220Y297000D02*
X73370D01*
X70220Y290701D02*
X73370D01*
X70220Y297000D02*
Y290701D01*
X73370Y297000D02*
Y290701D01*
X70213Y296972D02*
X73363D01*
X70213Y290673D02*
X73363D01*
X70213Y296972D02*
Y290673D01*
X73363Y296972D02*
Y290673D01*
X63134Y297000D02*
X66283D01*
X63134Y290701D02*
X66283D01*
X63134Y297000D02*
Y290701D01*
X66283Y297000D02*
Y290701D01*
X63126Y296972D02*
X66276D01*
X63126Y290673D02*
X66276D01*
X63126Y296972D02*
Y290673D01*
X66276Y296972D02*
Y290673D01*
X48165Y361073D02*
Y346309D01*
Y361073D02*
X95409D01*
Y346309D01*
X48165D02*
X95409D01*
X69819Y321309D02*
Y301624D01*
Y321309D02*
X83992D01*
Y301624D01*
X69819D02*
X83992D01*
X62043Y325640D02*
X65193D01*
X62043Y331939D02*
X65193D01*
Y325640D01*
X62043Y331939D02*
Y325640D01*
X95016Y314420D02*
X101315D01*
X95016Y311270D02*
X101315D01*
Y314420D02*
Y311270D01*
X95016Y314420D02*
Y311270D01*
Y317471D02*
X101315D01*
X95016Y320620D02*
X101315D01*
X95016D02*
Y317471D01*
X101315Y320620D02*
Y317471D01*
X89209Y298573D02*
X95508D01*
X89209Y295424D02*
X95508D01*
Y298573D02*
Y295424D01*
X89209Y298573D02*
Y295424D01*
Y292077D02*
X95508D01*
X89209Y288928D02*
X95508D01*
Y292077D02*
Y288928D01*
X89209Y292077D02*
Y288928D01*
X81925Y327313D02*
Y324164D01*
X75626Y327313D02*
Y324164D01*
Y327313D02*
X81925D01*
X75626Y324164D02*
X81925D01*
X75626Y330266D02*
X81925D01*
X75626Y333416D02*
X81925D01*
X75626D02*
Y330266D01*
X81925Y333416D02*
Y330266D01*
X68146Y325640D02*
X71295D01*
X68146Y331939D02*
X71295D01*
Y325640D01*
X68146Y331939D02*
Y325640D01*
X89209Y285581D02*
X95508D01*
X89209Y282432D02*
X95508D01*
Y285581D02*
Y282432D01*
X89209Y285581D02*
Y282432D01*
X57024Y312845D02*
Y306546D01*
X60173Y312845D02*
Y306546D01*
X57024Y312845D02*
X60173D01*
X57024Y306546D02*
X60173D01*
X173264Y233455D02*
X198067D01*
Y258258D02*
Y233455D01*
X173264Y258258D02*
Y233455D01*
Y258258D02*
X198067D01*
X183992Y268160D02*
X190291D01*
X183992Y271309D02*
Y268160D01*
Y271309D02*
X190291D01*
Y268160D01*
X208441Y225640D02*
Y200640D01*
X219941Y225640D02*
Y200640D01*
X208441Y225640D02*
X219941D01*
X208441Y200640D02*
X219941D01*
X176846Y183711D02*
X192595D01*
Y195128D02*
Y183711D01*
X176846Y195128D02*
Y183711D01*
Y195128D02*
X192595D01*
X155744Y225187D02*
X163618D01*
Y235030D02*
Y225187D01*
X155744Y235030D02*
Y225187D01*
Y235030D02*
X163618D01*
X163323Y247530D02*
Y241231D01*
X160173D02*
X163323D01*
X160173Y247530D02*
X163323D01*
X160173D02*
Y241231D01*
X156039Y218691D02*
X162339D01*
X156039Y221841D02*
X162339D01*
Y218691D01*
X156039Y221841D02*
Y218691D01*
X152594Y233652D02*
Y227353D01*
X149445D02*
X152594D01*
X149445Y233652D02*
X152594D01*
X149445D02*
Y227353D01*
X208008Y237884D02*
X211157D01*
X208008Y244183D02*
X211157D01*
Y237884D01*
X208008Y244183D02*
Y237884D01*
X179996Y204380D02*
Y198081D01*
X192595Y204380D02*
Y198081D01*
X179996Y204380D02*
X192595D01*
X179996Y198081D02*
X192595D01*
X164307Y313239D02*
Y300640D01*
X158008Y313239D02*
Y300640D01*
Y313239D02*
X164307D01*
X158008Y300640D02*
X164307D01*
X157102Y171211D02*
X207102D01*
X157102Y180443D02*
X207102D01*
X157102D02*
Y171211D01*
X207102Y180443D02*
Y171211D01*
X187543Y297000D02*
X190693D01*
X187543Y290701D02*
X190693D01*
X187543Y297000D02*
Y290701D01*
X190693Y297000D02*
Y290701D01*
X187536Y296972D02*
X190685D01*
X187536Y290673D02*
X190685D01*
X187536Y296972D02*
Y290673D01*
X190685Y296972D02*
Y290673D01*
X180456Y297000D02*
X183606D01*
X180456Y290701D02*
X183606D01*
X180456Y297000D02*
Y290701D01*
X183606Y297000D02*
Y290701D01*
X180449Y296972D02*
X183599D01*
X180449Y290673D02*
X183599D01*
X180449Y296972D02*
Y290673D01*
X183599Y296972D02*
Y290673D01*
X173370Y297000D02*
X176519D01*
X173370Y290701D02*
X176519D01*
X173370Y297000D02*
Y290701D01*
X176519Y297000D02*
Y290701D01*
X173363Y296972D02*
X176512D01*
X173363Y290673D02*
X176512D01*
X173363Y296972D02*
Y290673D01*
X176512Y296972D02*
Y290673D01*
X158402Y361073D02*
Y346309D01*
Y361073D02*
X205646D01*
Y346309D01*
X158402D02*
X205646D01*
X180055Y321309D02*
Y301624D01*
Y321309D02*
X194228D01*
Y301624D01*
X180055D02*
X194228D01*
X172280Y325640D02*
X175429D01*
X172280Y331939D02*
X175429D01*
Y325640D01*
X172280Y331939D02*
Y325640D01*
X205252Y314420D02*
X211551D01*
X205252Y311270D02*
X211551D01*
Y314420D02*
Y311270D01*
X205252Y314420D02*
Y311270D01*
Y317471D02*
X211551D01*
X205252Y320620D02*
X211551D01*
X205252D02*
Y317471D01*
X211551Y320620D02*
Y317471D01*
X199445Y298573D02*
X205744D01*
X199445Y295424D02*
X205744D01*
Y298573D02*
Y295424D01*
X199445Y298573D02*
Y295424D01*
Y292077D02*
X205744D01*
X199445Y288928D02*
X205744D01*
Y292077D02*
Y288928D01*
X199445Y292077D02*
Y288928D01*
X192161Y327313D02*
Y324164D01*
X185862Y327313D02*
Y324164D01*
Y327313D02*
X192161D01*
X185862Y324164D02*
X192161D01*
X185862Y330266D02*
X192161D01*
X185862Y333416D02*
X192161D01*
X185862D02*
Y330266D01*
X192161Y333416D02*
Y330266D01*
X178382Y325640D02*
X181532D01*
X178382Y331939D02*
X181532D01*
Y325640D01*
X178382Y331939D02*
Y325640D01*
X199445Y285581D02*
X205744D01*
X199445Y282432D02*
X205744D01*
Y285581D02*
Y282432D01*
X199445Y285581D02*
Y282432D01*
X167260Y312845D02*
Y306546D01*
X170409Y312845D02*
Y306546D01*
X167260Y312845D02*
X170409D01*
X167260Y306546D02*
X170409D01*
X283500Y233455D02*
X308303D01*
Y258258D02*
Y233455D01*
X283500Y258258D02*
Y233455D01*
Y258258D02*
X308303D01*
X294228Y268160D02*
X300528D01*
X294228Y271309D02*
Y268160D01*
Y271309D02*
X300528D01*
Y268160D01*
X318677Y225640D02*
Y200640D01*
X330177Y225640D02*
Y200640D01*
X318677Y225640D02*
X330177D01*
X318677Y200640D02*
X330177D01*
X287083Y183711D02*
X302831D01*
Y195128D02*
Y183711D01*
X287083Y195128D02*
Y183711D01*
Y195128D02*
X302831D01*
X265980Y225187D02*
X273854D01*
Y235030D02*
Y225187D01*
X265980Y235030D02*
Y225187D01*
Y235030D02*
X273854D01*
X273559Y247530D02*
Y241231D01*
X270409D02*
X273559D01*
X270409Y247530D02*
X273559D01*
X270409D02*
Y241231D01*
X266276Y218691D02*
X272575D01*
X266276Y221841D02*
X272575D01*
Y218691D01*
X266276Y221841D02*
Y218691D01*
X262831Y233652D02*
Y227353D01*
X259681D02*
X262831D01*
X259681Y233652D02*
X262831D01*
X259681D02*
Y227353D01*
X318244Y237884D02*
X321394D01*
X318244Y244183D02*
X321394D01*
Y237884D01*
X318244Y244183D02*
Y237884D01*
X290232Y204380D02*
Y198081D01*
X302831Y204380D02*
Y198081D01*
X290232Y204380D02*
X302831D01*
X290232Y198081D02*
X302831D01*
X274543Y313239D02*
Y300640D01*
X268244Y313239D02*
Y300640D01*
Y313239D02*
X274543D01*
X268244Y300640D02*
X274543D01*
X267339Y171211D02*
X317339D01*
X267339Y180443D02*
X317339D01*
X267339D02*
Y171211D01*
X317339Y180443D02*
Y171211D01*
X297779Y297000D02*
X300929D01*
X297779Y290701D02*
X300929D01*
X297779Y297000D02*
Y290701D01*
X300929Y297000D02*
Y290701D01*
X297772Y296972D02*
X300922D01*
X297772Y290673D02*
X300922D01*
X297772Y296972D02*
Y290673D01*
X300922Y296972D02*
Y290673D01*
X290693Y297000D02*
X293842D01*
X290693Y290701D02*
X293842D01*
X290693Y297000D02*
Y290701D01*
X293842Y297000D02*
Y290701D01*
X290686Y296972D02*
X293835D01*
X290686Y290673D02*
X293835D01*
X290686Y296972D02*
Y290673D01*
X293835Y296972D02*
Y290673D01*
X283606Y297000D02*
X286756D01*
X283606Y290701D02*
X286756D01*
X283606Y297000D02*
Y290701D01*
X286756Y297000D02*
Y290701D01*
X283599Y296972D02*
X286749D01*
X283599Y290673D02*
X286749D01*
X283599Y296972D02*
Y290673D01*
X286749Y296972D02*
Y290673D01*
X268638Y361073D02*
Y346309D01*
Y361073D02*
X315882D01*
Y346309D01*
X268638D02*
X315882D01*
X290291Y321309D02*
Y301624D01*
Y321309D02*
X304465D01*
Y301624D01*
X290291D02*
X304465D01*
X282516Y325640D02*
X285665D01*
X282516Y331939D02*
X285665D01*
Y325640D01*
X282516Y331939D02*
Y325640D01*
X315488Y314420D02*
X321787D01*
X315488Y311270D02*
X321787D01*
Y314420D02*
Y311270D01*
X315488Y314420D02*
Y311270D01*
Y317471D02*
X321787D01*
X315488Y320620D02*
X321787D01*
X315488D02*
Y317471D01*
X321787Y320620D02*
Y317471D01*
X309681Y298573D02*
X315980D01*
X309681Y295424D02*
X315980D01*
Y298573D02*
Y295424D01*
X309681Y298573D02*
Y295424D01*
Y292077D02*
X315980D01*
X309681Y288928D02*
X315980D01*
Y292077D02*
Y288928D01*
X309681Y292077D02*
Y288928D01*
X302398Y327313D02*
Y324164D01*
X296098Y327313D02*
Y324164D01*
Y327313D02*
X302398D01*
X296098Y324164D02*
X302398D01*
X296098Y330266D02*
X302398D01*
X296098Y333416D02*
X302398D01*
X296098D02*
Y330266D01*
X302398Y333416D02*
Y330266D01*
X288618Y325640D02*
X291768D01*
X288618Y331939D02*
X291768D01*
Y325640D01*
X288618Y331939D02*
Y325640D01*
X309681Y285581D02*
X315980D01*
X309681Y282432D02*
X315980D01*
Y285581D02*
Y282432D01*
X309681Y285581D02*
Y282432D01*
X277496Y312845D02*
Y306546D01*
X280646Y312845D02*
Y306546D01*
X277496Y312845D02*
X280646D01*
X277496Y306546D02*
X280646D01*
X393736Y233455D02*
X418539D01*
Y258258D02*
Y233455D01*
X393736Y258258D02*
Y233455D01*
Y258258D02*
X418539D01*
X404464Y268160D02*
X410764D01*
X404464Y271309D02*
Y268160D01*
Y271309D02*
X410764D01*
Y268160D01*
X428913Y225640D02*
Y200640D01*
X440413Y225640D02*
Y200640D01*
X428913Y225640D02*
X440413D01*
X428913Y200640D02*
X440413D01*
X397319Y183711D02*
X413067D01*
Y195128D02*
Y183711D01*
X397319Y195128D02*
Y183711D01*
Y195128D02*
X413067D01*
X376217Y225187D02*
X384090D01*
Y235030D02*
Y225187D01*
X376217Y235030D02*
Y225187D01*
Y235030D02*
X384090D01*
X383795Y247530D02*
Y241231D01*
X380646D02*
X383795D01*
X380646Y247530D02*
X383795D01*
X380646D02*
Y241231D01*
X376512Y218691D02*
X382811D01*
X376512Y221841D02*
X382811D01*
Y218691D01*
X376512Y221841D02*
Y218691D01*
X373067Y233652D02*
Y227353D01*
X369917D02*
X373067D01*
X369917Y233652D02*
X373067D01*
X369917D02*
Y227353D01*
X428480Y237884D02*
X431630D01*
X428480Y244183D02*
X431630D01*
Y237884D01*
X428480Y244183D02*
Y237884D01*
X400468Y204380D02*
Y198081D01*
X413067Y204380D02*
Y198081D01*
X400468Y204380D02*
X413067D01*
X400468Y198081D02*
X413067D01*
X384780Y313239D02*
Y300640D01*
X378480Y313239D02*
Y300640D01*
Y313239D02*
X384780D01*
X378480Y300640D02*
X384780D01*
X377575Y171211D02*
X427575D01*
X377575Y180443D02*
X427575D01*
X377575D02*
Y171211D01*
X427575Y180443D02*
Y171211D01*
X408015Y297000D02*
X411165D01*
X408015Y290701D02*
X411165D01*
X408015Y297000D02*
Y290701D01*
X411165Y297000D02*
Y290701D01*
X408008Y296972D02*
X411158D01*
X408008Y290673D02*
X411158D01*
X408008Y296972D02*
Y290673D01*
X411158Y296972D02*
Y290673D01*
X400929Y297000D02*
X404078D01*
X400929Y290701D02*
X404078D01*
X400929Y297000D02*
Y290701D01*
X404078Y297000D02*
Y290701D01*
X400922Y296972D02*
X404071D01*
X400922Y290673D02*
X404071D01*
X400922Y296972D02*
Y290673D01*
X404071Y296972D02*
Y290673D01*
X393842Y297000D02*
X396992D01*
X393842Y290701D02*
X396992D01*
X393842Y297000D02*
Y290701D01*
X396992Y297000D02*
Y290701D01*
X393835Y296972D02*
X396985D01*
X393835Y290673D02*
X396985D01*
X393835Y296972D02*
Y290673D01*
X396985Y296972D02*
Y290673D01*
X378874Y361073D02*
Y346309D01*
Y361073D02*
X426118D01*
Y346309D01*
X378874D02*
X426118D01*
X400528Y321309D02*
Y301624D01*
Y321309D02*
X414701D01*
Y301624D01*
X400528D02*
X414701D01*
X392752Y325640D02*
X395902D01*
X392752Y331939D02*
X395902D01*
Y325640D01*
X392752Y331939D02*
Y325640D01*
X425724Y314420D02*
X432024D01*
X425724Y311270D02*
X432024D01*
Y314420D02*
Y311270D01*
X425724Y314420D02*
Y311270D01*
Y317471D02*
X432024D01*
X425724Y320620D02*
X432024D01*
X425724D02*
Y317471D01*
X432024Y320620D02*
Y317471D01*
X419917Y298573D02*
X426217D01*
X419917Y295424D02*
X426217D01*
Y298573D02*
Y295424D01*
X419917Y298573D02*
Y295424D01*
Y292077D02*
X426217D01*
X419917Y288928D02*
X426217D01*
Y292077D02*
Y288928D01*
X419917Y292077D02*
Y288928D01*
X412634Y327313D02*
Y324164D01*
X406335Y327313D02*
Y324164D01*
Y327313D02*
X412634D01*
X406335Y324164D02*
X412634D01*
X406335Y330266D02*
X412634D01*
X406335Y333416D02*
X412634D01*
X406335D02*
Y330266D01*
X412634Y333416D02*
Y330266D01*
X398854Y325640D02*
X402004D01*
X398854Y331939D02*
X402004D01*
Y325640D01*
X398854Y331939D02*
Y325640D01*
X419917Y285581D02*
X426217D01*
X419917Y282432D02*
X426217D01*
Y285581D02*
Y282432D01*
X419917Y285581D02*
Y282432D01*
X387732Y312845D02*
Y306546D01*
X390882Y312845D02*
Y306546D01*
X387732Y312845D02*
X390882D01*
X387732Y306546D02*
X390882D01*
X503972Y233455D02*
X528776D01*
Y258258D02*
Y233455D01*
X503972Y258258D02*
Y233455D01*
Y258258D02*
X528776D01*
X514701Y268160D02*
X521000D01*
X514701Y271309D02*
Y268160D01*
Y271309D02*
X521000D01*
Y268160D01*
X539150Y225640D02*
Y200640D01*
X550650Y225640D02*
Y200640D01*
X539150Y225640D02*
X550650D01*
X539150Y200640D02*
X550650D01*
X507555Y183711D02*
X523303D01*
Y195128D02*
Y183711D01*
X507555Y195128D02*
Y183711D01*
Y195128D02*
X523303D01*
X486453Y225187D02*
X494327D01*
Y235030D02*
Y225187D01*
X486453Y235030D02*
Y225187D01*
Y235030D02*
X494327D01*
X494031Y247530D02*
Y241231D01*
X490882D02*
X494031D01*
X490882Y247530D02*
X494031D01*
X490882D02*
Y241231D01*
X486748Y218691D02*
X493047D01*
X486748Y221841D02*
X493047D01*
Y218691D01*
X486748Y221841D02*
Y218691D01*
X483303Y233652D02*
Y227353D01*
X480154D02*
X483303D01*
X480154Y233652D02*
X483303D01*
X480154D02*
Y227353D01*
X538717Y237884D02*
X541866D01*
X538717Y244183D02*
X541866D01*
Y237884D01*
X538717Y244183D02*
Y237884D01*
X510705Y204380D02*
Y198081D01*
X523303Y204380D02*
Y198081D01*
X510705Y204380D02*
X523303D01*
X510705Y198081D02*
X523303D01*
X495016Y313239D02*
Y300640D01*
X488717Y313239D02*
Y300640D01*
Y313239D02*
X495016D01*
X488717Y300640D02*
X495016D01*
X487811Y171211D02*
X537811D01*
X487811Y180443D02*
X537811D01*
X487811D02*
Y171211D01*
X537811Y180443D02*
Y171211D01*
X518252Y297000D02*
X521401D01*
X518252Y290701D02*
X521401D01*
X518252Y297000D02*
Y290701D01*
X521401Y297000D02*
Y290701D01*
X518245Y296972D02*
X521394D01*
X518245Y290673D02*
X521394D01*
X518245Y296972D02*
Y290673D01*
X521394Y296972D02*
Y290673D01*
X511165Y297000D02*
X514315D01*
X511165Y290701D02*
X514315D01*
X511165Y297000D02*
Y290701D01*
X514315Y297000D02*
Y290701D01*
X511158Y296972D02*
X514307D01*
X511158Y290673D02*
X514307D01*
X511158Y296972D02*
Y290673D01*
X514307Y296972D02*
Y290673D01*
X504078Y297000D02*
X507228D01*
X504078Y290701D02*
X507228D01*
X504078Y297000D02*
Y290701D01*
X507228Y297000D02*
Y290701D01*
X504071Y296972D02*
X507221D01*
X504071Y290673D02*
X507221D01*
X504071Y296972D02*
Y290673D01*
X507221Y296972D02*
Y290673D01*
X489110Y361073D02*
Y346309D01*
Y361073D02*
X536354D01*
Y346309D01*
X489110D02*
X536354D01*
X510764Y321309D02*
Y301624D01*
Y321309D02*
X524937D01*
Y301624D01*
X510764D02*
X524937D01*
X502988Y325640D02*
X506138D01*
X502988Y331939D02*
X506138D01*
Y325640D01*
X502988Y331939D02*
Y325640D01*
X535961Y314420D02*
X542260D01*
X535961Y311270D02*
X542260D01*
Y314420D02*
Y311270D01*
X535961Y314420D02*
Y311270D01*
Y317471D02*
X542260D01*
X535961Y320620D02*
X542260D01*
X535961D02*
Y317471D01*
X542260Y320620D02*
Y317471D01*
X530154Y298573D02*
X536453D01*
X530154Y295424D02*
X536453D01*
Y298573D02*
Y295424D01*
X530154Y298573D02*
Y295424D01*
Y292077D02*
X536453D01*
X530154Y288928D02*
X536453D01*
Y292077D02*
Y288928D01*
X530154Y292077D02*
Y288928D01*
X522870Y327313D02*
Y324164D01*
X516571Y327313D02*
Y324164D01*
Y327313D02*
X522870D01*
X516571Y324164D02*
X522870D01*
X516571Y330266D02*
X522870D01*
X516571Y333416D02*
X522870D01*
X516571D02*
Y330266D01*
X522870Y333416D02*
Y330266D01*
X509091Y325640D02*
X512240D01*
X509091Y331939D02*
X512240D01*
Y325640D01*
X509091Y331939D02*
Y325640D01*
X530154Y285581D02*
X536453D01*
X530154Y282432D02*
X536453D01*
Y285581D02*
Y282432D01*
X530154Y285581D02*
Y282432D01*
X497968Y312845D02*
Y306546D01*
X501118Y312845D02*
Y306546D01*
X497968Y312845D02*
X501118D01*
X497968Y306546D02*
X501118D01*
D52*
X370662Y47095D02*
Y46570D01*
X371711Y45521D01*
X372761Y46570D01*
Y47095D01*
X371711Y45521D02*
Y43946D01*
X375909Y46570D02*
X375385Y47095D01*
X374335D01*
X373810Y46570D01*
Y44471D01*
X374335Y43946D01*
X375385D01*
X375909Y44471D01*
Y45521D01*
X374860D01*
X376959Y43946D02*
Y47095D01*
X379058Y43946D01*
Y47095D01*
X383256Y45521D02*
X385355D01*
X391652Y46570D02*
X391128Y47095D01*
X390078D01*
X389553Y46570D01*
Y46046D01*
X390078Y45521D01*
X391128D01*
X391652Y44996D01*
Y44471D01*
X391128Y43946D01*
X390078D01*
X389553Y44471D01*
X392702Y42897D02*
Y46046D01*
X394276D01*
X394801Y45521D01*
Y44471D01*
X394276Y43946D01*
X392702D01*
X395850D02*
X396900D01*
X396375D01*
Y46046D01*
X395850D01*
X398474Y43946D02*
Y46046D01*
X400049D01*
X400573Y45521D01*
Y43946D01*
X401623D02*
Y46046D01*
X402672Y47095D01*
X403722Y46046D01*
Y43946D01*
Y45521D01*
X401623D01*
X406871Y46570D02*
X406346Y47095D01*
X405296D01*
X404772Y46570D01*
Y46046D01*
X405296Y45521D01*
X406346D01*
X406871Y44996D01*
Y44471D01*
X406346Y43946D01*
X405296D01*
X404772Y44471D01*
X407920Y43946D02*
Y47095D01*
X408970Y46046D01*
X410019Y47095D01*
Y43946D01*
X414217Y46046D02*
X415267Y43946D01*
X416316Y46046D01*
X417366Y43946D02*
X418415D01*
X417891D01*
Y47095D01*
X417366Y46570D01*
X419990Y43946D02*
Y44471D01*
X420514D01*
Y43946D01*
X419990D01*
X422614Y46570D02*
X423138Y47095D01*
X424188D01*
X424713Y46570D01*
Y44471D01*
X424188Y43946D01*
X423138D01*
X422614Y44471D01*
Y46570D01*
X443891Y87417D02*
X447039D01*
Y85842D01*
X446515Y85318D01*
X445465D01*
X444940Y85842D01*
Y87417D01*
Y86367D02*
X443891Y85318D01*
X446515Y84268D02*
X447039Y83743D01*
Y82694D01*
X446515Y82169D01*
X445990D01*
X445465Y82694D01*
X444940Y82169D01*
X444416D01*
X443891Y82694D01*
Y83743D01*
X444416Y84268D01*
X444940D01*
X445465Y83743D01*
X445990Y84268D01*
X446515D01*
X445465Y83743D02*
Y82694D01*
X501864Y104911D02*
X502914D01*
X502389D01*
Y101762D01*
X501864D01*
X502914D01*
X506587Y104386D02*
X506063Y104911D01*
X505013D01*
X504488Y104386D01*
Y102287D01*
X505013Y101762D01*
X506063D01*
X506587Y102287D01*
X509736Y104386D02*
X509211Y104911D01*
X508162D01*
X507637Y104386D01*
Y103861D01*
X508162Y103336D01*
X509211D01*
X509736Y102812D01*
Y102287D01*
X509211Y101762D01*
X508162D01*
X507637Y102287D01*
X510785Y101762D02*
Y104911D01*
X512360D01*
X512885Y104386D01*
Y103336D01*
X512360Y102812D01*
X510785D01*
X520333Y97030D02*
X520858Y97555D01*
Y98605D01*
X520333Y99129D01*
X518234D01*
X517710Y98605D01*
Y97555D01*
X518234Y97030D01*
X520858Y93882D02*
Y95981D01*
X519284D01*
X519809Y94931D01*
Y94406D01*
X519284Y93882D01*
X518234D01*
X517710Y94406D01*
Y95456D01*
X518234Y95981D01*
X532669Y101783D02*
X529521D01*
Y100209D01*
X530045Y99684D01*
X532144D01*
X532669Y100209D01*
Y101783D01*
X529521Y97060D02*
X532669D01*
X531095Y98634D01*
Y96535D01*
X416430Y108578D02*
X419579D01*
Y107004D01*
X419054Y106479D01*
X418004D01*
X417480Y107004D01*
Y108578D01*
Y107529D02*
X416430Y106479D01*
Y103855D02*
X419579D01*
X418004Y105430D01*
Y103331D01*
X411706Y108578D02*
X414854D01*
Y107004D01*
X414329Y106479D01*
X413280D01*
X412755Y107004D01*
Y108578D01*
Y107529D02*
X411706Y106479D01*
X414329Y105430D02*
X414854Y104905D01*
Y103855D01*
X414329Y103331D01*
X413805D01*
X413280Y103855D01*
Y104380D01*
Y103855D01*
X412755Y103331D01*
X412230D01*
X411706Y103855D01*
Y104905D01*
X412230Y105430D01*
X421942Y112121D02*
X425090D01*
Y110547D01*
X424566Y110022D01*
X423516D01*
X422991Y110547D01*
Y112121D01*
Y111072D02*
X421942Y110022D01*
X425090Y108973D02*
Y106874D01*
X424566D01*
X422467Y108973D01*
X421942D01*
X428438Y112121D02*
X431587D01*
Y110547D01*
X431062Y110022D01*
X430012D01*
X429488Y110547D01*
Y112121D01*
Y111072D02*
X428438Y110022D01*
X431587Y106874D02*
X431062Y107923D01*
X430012Y108973D01*
X428963D01*
X428438Y108448D01*
Y107399D01*
X428963Y106874D01*
X429488D01*
X430012Y107399D01*
Y108973D01*
X434934Y112121D02*
X438083D01*
Y110547D01*
X437558Y110022D01*
X436508D01*
X435984Y110547D01*
Y112121D01*
Y111072D02*
X434934Y110022D01*
X438083Y106874D02*
Y108973D01*
X436508D01*
X437033Y107923D01*
Y107399D01*
X436508Y106874D01*
X435459D01*
X434934Y107399D01*
Y108448D01*
X435459Y108973D01*
X433491Y88237D02*
Y85089D01*
X435065D01*
X435590Y85614D01*
Y87713D01*
X435065Y88237D01*
X433491D01*
X436639Y87713D02*
X437164Y88237D01*
X438214D01*
X438738Y87713D01*
Y87188D01*
X438214Y86663D01*
X437689D01*
X438214D01*
X438738Y86138D01*
Y85614D01*
X438214Y85089D01*
X437164D01*
X436639Y85614D01*
X433491Y81151D02*
Y78002D01*
X435065D01*
X435590Y78527D01*
Y80626D01*
X435065Y81151D01*
X433491D01*
X438738Y78002D02*
X436639D01*
X438738Y80101D01*
Y80626D01*
X438214Y81151D01*
X437164D01*
X436639Y80626D01*
X433523Y74064D02*
Y70916D01*
X435098D01*
X435623Y71440D01*
Y73539D01*
X435098Y74064D01*
X433523D01*
X436672Y70916D02*
X437721D01*
X437197D01*
Y74064D01*
X436672Y73539D01*
X489724Y66289D02*
Y65764D01*
X490774Y64714D01*
X491823Y65764D01*
Y66289D01*
X490774Y64714D02*
Y63140D01*
X492873D02*
X493922D01*
X493398D01*
Y66289D01*
X492873Y65764D01*
X464685Y92666D02*
Y90043D01*
X465210Y89518D01*
X466259D01*
X466784Y90043D01*
Y92666D01*
X467833Y89518D02*
X468883D01*
X468358D01*
Y92666D01*
X467833Y92142D01*
X393202Y98736D02*
X396350D01*
Y97161D01*
X395826Y96637D01*
X394776D01*
X394251Y97161D01*
Y98736D01*
Y97686D02*
X393202Y96637D01*
Y93488D02*
Y95587D01*
X395301Y93488D01*
X395826D01*
X396350Y94013D01*
Y95062D01*
X395826Y95587D01*
X391004Y64026D02*
Y67174D01*
X392578D01*
X393103Y66650D01*
Y65600D01*
X392578Y65075D01*
X391004D01*
X392053D02*
X393103Y64026D01*
X394152D02*
X395202D01*
X394677D01*
Y67174D01*
X394152Y66650D01*
X372138Y110285D02*
X371089D01*
X371613D01*
Y107661D01*
X371089Y107136D01*
X370564D01*
X370039Y107661D01*
X373188Y107136D02*
X374237D01*
X373712D01*
Y110285D01*
X373188Y109760D01*
X410524Y88499D02*
Y87450D01*
Y87974D01*
X407375D01*
Y88499D01*
Y87450D01*
X409999Y83776D02*
X410524Y84301D01*
Y85351D01*
X409999Y85875D01*
X407900D01*
X407375Y85351D01*
Y84301D01*
X407900Y83776D01*
X407375Y82727D02*
Y81677D01*
Y82202D01*
X410524D01*
X409999Y82727D01*
X501298Y67011D02*
X501823Y67535D01*
Y68585D01*
X501298Y69110D01*
X499199D01*
X498674Y68585D01*
Y67535D01*
X499199Y67011D01*
Y65961D02*
X498674Y65436D01*
Y64387D01*
X499199Y63862D01*
X501298D01*
X501823Y64387D01*
Y65436D01*
X501298Y65961D01*
X500773D01*
X500248Y65436D01*
Y63862D01*
X479783Y49622D02*
X479258Y50147D01*
X478208D01*
X477684Y49622D01*
Y47523D01*
X478208Y46998D01*
X479258D01*
X479783Y47523D01*
X480832Y49622D02*
X481357Y50147D01*
X482407D01*
X482931Y49622D01*
Y49097D01*
X482407Y48572D01*
X482931Y48048D01*
Y47523D01*
X482407Y46998D01*
X481357D01*
X480832Y47523D01*
Y48048D01*
X481357Y48572D01*
X480832Y49097D01*
Y49622D01*
X481357Y48572D02*
X482407D01*
X469409Y108185D02*
X468884Y108710D01*
X467834D01*
X467310Y108185D01*
Y106086D01*
X467834Y105561D01*
X468884D01*
X469409Y106086D01*
X470458Y108710D02*
X472557D01*
Y108185D01*
X470458Y106086D01*
Y105561D01*
X466259Y60350D02*
X465734Y60875D01*
X464685D01*
X464160Y60350D01*
Y58251D01*
X464685Y57727D01*
X465734D01*
X466259Y58251D01*
X469408Y60875D02*
X468358Y60350D01*
X467309Y59301D01*
Y58251D01*
X467833Y57727D01*
X468883D01*
X469408Y58251D01*
Y58776D01*
X468883Y59301D01*
X467309D01*
X389723Y96637D02*
X390248Y97161D01*
Y98211D01*
X389723Y98736D01*
X387624D01*
X387099Y98211D01*
Y97161D01*
X387624Y96637D01*
X387099Y94013D02*
X390248D01*
X388674Y95587D01*
Y93488D01*
X392676Y61335D02*
X392152Y61859D01*
X391102D01*
X390577Y61335D01*
Y59236D01*
X391102Y58711D01*
X392152D01*
X392676Y59236D01*
X393726Y61335D02*
X394251Y61859D01*
X395300D01*
X395825Y61335D01*
Y60810D01*
X395300Y60285D01*
X394776D01*
X395300D01*
X395825Y59760D01*
Y59236D01*
X395300Y58711D01*
X394251D01*
X393726Y59236D01*
X425091Y59858D02*
X424566Y60383D01*
X423517D01*
X422992Y59858D01*
Y57759D01*
X423517Y57234D01*
X424566D01*
X425091Y57759D01*
X426140Y57234D02*
X427190D01*
X426665D01*
Y60383D01*
X426140Y59858D01*
X419153Y67437D02*
X418628Y67962D01*
X417579D01*
X417054Y67437D01*
Y65338D01*
X417579Y64813D01*
X418628D01*
X419153Y65338D01*
X422301Y64813D02*
X420202D01*
X422301Y66912D01*
Y67437D01*
X421777Y67962D01*
X420727D01*
X420202Y67437D01*
X77685Y47095D02*
Y46570D01*
X78734Y45521D01*
X79784Y46570D01*
Y47095D01*
X78734Y45521D02*
Y43946D01*
X82933Y46570D02*
X82408Y47095D01*
X81358D01*
X80834Y46570D01*
Y44471D01*
X81358Y43946D01*
X82408D01*
X82933Y44471D01*
Y45521D01*
X81883D01*
X83982Y43946D02*
Y47095D01*
X86081Y43946D01*
Y47095D01*
X90279Y45521D02*
X92378D01*
X98676Y46570D02*
X98151Y47095D01*
X97101D01*
X96576Y46570D01*
Y46046D01*
X97101Y45521D01*
X98151D01*
X98676Y44996D01*
Y44471D01*
X98151Y43946D01*
X97101D01*
X96576Y44471D01*
X99725Y42897D02*
Y46046D01*
X101299D01*
X101824Y45521D01*
Y44471D01*
X101299Y43946D01*
X99725D01*
X102874D02*
X103923D01*
X103399D01*
Y46046D01*
X102874D01*
X105498Y43946D02*
Y46046D01*
X107072D01*
X107597Y45521D01*
Y43946D01*
X108646D02*
Y46046D01*
X109696Y47095D01*
X110745Y46046D01*
Y43946D01*
Y45521D01*
X108646D01*
X113894Y46570D02*
X113369Y47095D01*
X112320D01*
X111795Y46570D01*
Y46046D01*
X112320Y45521D01*
X113369D01*
X113894Y44996D01*
Y44471D01*
X113369Y43946D01*
X112320D01*
X111795Y44471D01*
X114943Y43946D02*
Y47095D01*
X115993Y46046D01*
X117042Y47095D01*
Y43946D01*
X121240Y46046D02*
X122290Y43946D01*
X123339Y46046D01*
X124389Y43946D02*
X125439D01*
X124914D01*
Y47095D01*
X124389Y46570D01*
X127013Y43946D02*
Y44471D01*
X127538D01*
Y43946D01*
X127013D01*
X129637Y46570D02*
X130161Y47095D01*
X131211D01*
X131736Y46570D01*
Y44471D01*
X131211Y43946D01*
X130161D01*
X129637Y44471D01*
Y46570D01*
X150914Y87417D02*
X154062D01*
Y85842D01*
X153538Y85318D01*
X152488D01*
X151963Y85842D01*
Y87417D01*
Y86367D02*
X150914Y85318D01*
X153538Y84268D02*
X154062Y83743D01*
Y82694D01*
X153538Y82169D01*
X153013D01*
X152488Y82694D01*
X151963Y82169D01*
X151439D01*
X150914Y82694D01*
Y83743D01*
X151439Y84268D01*
X151963D01*
X152488Y83743D01*
X153013Y84268D01*
X153538D01*
X152488Y83743D02*
Y82694D01*
X208888Y104911D02*
X209937D01*
X209412D01*
Y101762D01*
X208888D01*
X209937D01*
X213610Y104386D02*
X213086Y104911D01*
X212036D01*
X211511Y104386D01*
Y102287D01*
X212036Y101762D01*
X213086D01*
X213610Y102287D01*
X216759Y104386D02*
X216234Y104911D01*
X215185D01*
X214660Y104386D01*
Y103861D01*
X215185Y103336D01*
X216234D01*
X216759Y102812D01*
Y102287D01*
X216234Y101762D01*
X215185D01*
X214660Y102287D01*
X217809Y101762D02*
Y104911D01*
X219383D01*
X219908Y104386D01*
Y103336D01*
X219383Y102812D01*
X217809D01*
X227357Y97030D02*
X227881Y97555D01*
Y98605D01*
X227357Y99129D01*
X225257D01*
X224733Y98605D01*
Y97555D01*
X225257Y97030D01*
X227881Y93882D02*
Y95981D01*
X226307D01*
X226832Y94931D01*
Y94406D01*
X226307Y93882D01*
X225257D01*
X224733Y94406D01*
Y95456D01*
X225257Y95981D01*
X239692Y101783D02*
X236544D01*
Y100209D01*
X237069Y99684D01*
X239168D01*
X239692Y100209D01*
Y101783D01*
X236544Y97060D02*
X239692D01*
X238118Y98634D01*
Y96535D01*
X123453Y108578D02*
X126602D01*
Y107004D01*
X126077Y106479D01*
X125028D01*
X124503Y107004D01*
Y108578D01*
Y107529D02*
X123453Y106479D01*
Y103855D02*
X126602D01*
X125028Y105430D01*
Y103331D01*
X118729Y108578D02*
X121877D01*
Y107004D01*
X121353Y106479D01*
X120303D01*
X119778Y107004D01*
Y108578D01*
Y107529D02*
X118729Y106479D01*
X121353Y105430D02*
X121877Y104905D01*
Y103855D01*
X121353Y103331D01*
X120828D01*
X120303Y103855D01*
Y104380D01*
Y103855D01*
X119778Y103331D01*
X119254D01*
X118729Y103855D01*
Y104905D01*
X119254Y105430D01*
X128965Y112121D02*
X132114D01*
Y110547D01*
X131589Y110022D01*
X130539D01*
X130015Y110547D01*
Y112121D01*
Y111072D02*
X128965Y110022D01*
X132114Y108973D02*
Y106874D01*
X131589D01*
X129490Y108973D01*
X128965D01*
X135461Y112121D02*
X138610D01*
Y110547D01*
X138085Y110022D01*
X137035D01*
X136511Y110547D01*
Y112121D01*
Y111072D02*
X135461Y110022D01*
X138610Y106874D02*
X138085Y107923D01*
X137035Y108973D01*
X135986D01*
X135461Y108448D01*
Y107399D01*
X135986Y106874D01*
X136511D01*
X137035Y107399D01*
Y108973D01*
X141957Y112121D02*
X145106D01*
Y110547D01*
X144581Y110022D01*
X143531D01*
X143007Y110547D01*
Y112121D01*
Y111072D02*
X141957Y110022D01*
X145106Y106874D02*
Y108973D01*
X143531D01*
X144056Y107923D01*
Y107399D01*
X143531Y106874D01*
X142482D01*
X141957Y107399D01*
Y108448D01*
X142482Y108973D01*
X140514Y88237D02*
Y85089D01*
X142088D01*
X142613Y85614D01*
Y87713D01*
X142088Y88237D01*
X140514D01*
X143663Y87713D02*
X144187Y88237D01*
X145237D01*
X145762Y87713D01*
Y87188D01*
X145237Y86663D01*
X144712D01*
X145237D01*
X145762Y86138D01*
Y85614D01*
X145237Y85089D01*
X144187D01*
X143663Y85614D01*
X140514Y81151D02*
Y78002D01*
X142088D01*
X142613Y78527D01*
Y80626D01*
X142088Y81151D01*
X140514D01*
X145762Y78002D02*
X143663D01*
X145762Y80101D01*
Y80626D01*
X145237Y81151D01*
X144187D01*
X143663Y80626D01*
X140547Y74064D02*
Y70916D01*
X142121D01*
X142646Y71440D01*
Y73539D01*
X142121Y74064D01*
X140547D01*
X143695Y70916D02*
X144745D01*
X144220D01*
Y74064D01*
X143695Y73539D01*
X196747Y66289D02*
Y65764D01*
X197797Y64714D01*
X198846Y65764D01*
Y66289D01*
X197797Y64714D02*
Y63140D01*
X199896D02*
X200945D01*
X200421D01*
Y66289D01*
X199896Y65764D01*
X171708Y92666D02*
Y90043D01*
X172233Y89518D01*
X173282D01*
X173807Y90043D01*
Y92666D01*
X174856Y89518D02*
X175906D01*
X175381D01*
Y92666D01*
X174856Y92142D01*
X100225Y98736D02*
X103373D01*
Y97161D01*
X102849Y96637D01*
X101799D01*
X101274Y97161D01*
Y98736D01*
Y97686D02*
X100225Y96637D01*
Y93488D02*
Y95587D01*
X102324Y93488D01*
X102849D01*
X103373Y94013D01*
Y95062D01*
X102849Y95587D01*
X98027Y64026D02*
Y67174D01*
X99601D01*
X100126Y66650D01*
Y65600D01*
X99601Y65075D01*
X98027D01*
X99076D02*
X100126Y64026D01*
X101175D02*
X102225D01*
X101700D01*
Y67174D01*
X101175Y66650D01*
X79161Y110284D02*
X78112D01*
X78637D01*
Y107661D01*
X78112Y107136D01*
X77587D01*
X77062Y107661D01*
X80211Y107136D02*
X81260D01*
X80736D01*
Y110284D01*
X80211Y109760D01*
X117547Y88499D02*
Y87450D01*
Y87974D01*
X114398D01*
Y88499D01*
Y87450D01*
X117022Y83776D02*
X117547Y84301D01*
Y85351D01*
X117022Y85875D01*
X114923D01*
X114398Y85351D01*
Y84301D01*
X114923Y83776D01*
X114398Y82727D02*
Y81677D01*
Y82202D01*
X117547D01*
X117022Y82727D01*
X208321Y67011D02*
X208846Y67535D01*
Y68585D01*
X208321Y69110D01*
X206222D01*
X205697Y68585D01*
Y67535D01*
X206222Y67011D01*
Y65961D02*
X205697Y65436D01*
Y64387D01*
X206222Y63862D01*
X208321D01*
X208846Y64387D01*
Y65436D01*
X208321Y65961D01*
X207796D01*
X207272Y65436D01*
Y63862D01*
X186806Y49622D02*
X186281Y50147D01*
X185232D01*
X184707Y49622D01*
Y47523D01*
X185232Y46998D01*
X186281D01*
X186806Y47523D01*
X187855Y49622D02*
X188380Y50147D01*
X189430D01*
X189954Y49622D01*
Y49097D01*
X189430Y48572D01*
X189954Y48048D01*
Y47523D01*
X189430Y46998D01*
X188380D01*
X187855Y47523D01*
Y48048D01*
X188380Y48572D01*
X187855Y49097D01*
Y49622D01*
X188380Y48572D02*
X189430D01*
X176432Y108185D02*
X175907Y108710D01*
X174858D01*
X174333Y108185D01*
Y106086D01*
X174858Y105561D01*
X175907D01*
X176432Y106086D01*
X177481Y108710D02*
X179580D01*
Y108185D01*
X177481Y106086D01*
Y105561D01*
X173282Y60350D02*
X172757Y60875D01*
X171708D01*
X171183Y60350D01*
Y58251D01*
X171708Y57727D01*
X172757D01*
X173282Y58251D01*
X176431Y60875D02*
X175381Y60350D01*
X174332Y59301D01*
Y58251D01*
X174856Y57727D01*
X175906D01*
X176431Y58251D01*
Y58776D01*
X175906Y59301D01*
X174332D01*
X96746Y96637D02*
X97271Y97161D01*
Y98211D01*
X96746Y98736D01*
X94647D01*
X94122Y98211D01*
Y97161D01*
X94647Y96637D01*
X94122Y94013D02*
X97271D01*
X95697Y95587D01*
Y93488D01*
X99700Y61335D02*
X99175Y61859D01*
X98125D01*
X97601Y61335D01*
Y59236D01*
X98125Y58711D01*
X99175D01*
X99700Y59236D01*
X100749Y61335D02*
X101274Y61859D01*
X102323D01*
X102848Y61335D01*
Y60810D01*
X102323Y60285D01*
X101799D01*
X102323D01*
X102848Y59760D01*
Y59236D01*
X102323Y58711D01*
X101274D01*
X100749Y59236D01*
X132114Y59858D02*
X131589Y60383D01*
X130540D01*
X130015Y59858D01*
Y57759D01*
X130540Y57234D01*
X131589D01*
X132114Y57759D01*
X133164Y57234D02*
X134213D01*
X133688D01*
Y60383D01*
X133164Y59858D01*
X126176Y67437D02*
X125651Y67962D01*
X124602D01*
X124077Y67437D01*
Y65338D01*
X124602Y64813D01*
X125651D01*
X126176Y65338D01*
X129324Y64813D02*
X127225D01*
X129324Y66912D01*
Y67437D01*
X128800Y67962D01*
X127750D01*
X127225Y67437D01*
X39306Y349853D02*
X38781D01*
X37732Y348803D01*
X38781Y347754D01*
X39306D01*
X37732Y348803D02*
X36158D01*
X38781Y344605D02*
X39306Y345130D01*
Y346179D01*
X38781Y346704D01*
X36682D01*
X36158Y346179D01*
Y345130D01*
X36682Y344605D01*
X37732D01*
Y345655D01*
X36158Y343556D02*
X39306D01*
X36158Y341457D01*
X39306D01*
X37732Y337258D02*
Y335159D01*
X38781Y328862D02*
X39306Y329387D01*
Y330436D01*
X38781Y330961D01*
X38256D01*
X37732Y330436D01*
Y329387D01*
X37207Y328862D01*
X36682D01*
X36158Y329387D01*
Y330436D01*
X36682Y330961D01*
X35108Y327813D02*
X38256D01*
Y326238D01*
X37732Y325714D01*
X36682D01*
X36158Y326238D01*
Y327813D01*
Y324664D02*
Y323615D01*
Y324139D01*
X38256D01*
Y324664D01*
X36158Y322040D02*
X38256D01*
Y320466D01*
X37732Y319941D01*
X36158D01*
Y318892D02*
X38256D01*
X39306Y317842D01*
X38256Y316793D01*
X36158D01*
X37732D01*
Y318892D01*
X38781Y313644D02*
X39306Y314169D01*
Y315218D01*
X38781Y315743D01*
X38256D01*
X37732Y315218D01*
Y314169D01*
X37207Y313644D01*
X36682D01*
X36158Y314169D01*
Y315218D01*
X36682Y315743D01*
X36158Y312595D02*
X39306D01*
X38256Y311545D01*
X39306Y310495D01*
X36158D01*
X38256Y306297D02*
X36158Y305248D01*
X38256Y304198D01*
X36158Y303149D02*
Y302099D01*
Y302624D01*
X39306D01*
X38781Y303149D01*
X36158Y300525D02*
X36682D01*
Y300000D01*
X36158D01*
Y300525D01*
X38781Y297901D02*
X39306Y297376D01*
Y296327D01*
X38781Y295802D01*
X36682D01*
X36158Y296327D01*
Y297376D01*
X36682Y297901D01*
X38781D01*
X79628Y276624D02*
Y273475D01*
X78053D01*
X77529Y274000D01*
Y275050D01*
X78053Y275574D01*
X79628D01*
X78578D02*
X77529Y276624D01*
X76479Y274000D02*
X75954Y273475D01*
X74905D01*
X74380Y274000D01*
Y274525D01*
X74905Y275050D01*
X74380Y275574D01*
Y276099D01*
X74905Y276624D01*
X75954D01*
X76479Y276099D01*
Y275574D01*
X75954Y275050D01*
X76479Y274525D01*
Y274000D01*
X75954Y275050D02*
X74905D01*
X97122Y218650D02*
Y217601D01*
Y218125D01*
X93973D01*
Y218650D01*
Y217601D01*
X96597Y213927D02*
X97122Y214452D01*
Y215502D01*
X96597Y216026D01*
X94498D01*
X93973Y215502D01*
Y214452D01*
X94498Y213927D01*
X96597Y210779D02*
X97122Y211303D01*
Y212353D01*
X96597Y212878D01*
X96072D01*
X95547Y212353D01*
Y211303D01*
X95022Y210779D01*
X94498D01*
X93973Y211303D01*
Y212353D01*
X94498Y212878D01*
X93973Y209729D02*
X97122D01*
Y208155D01*
X96597Y207630D01*
X95547D01*
X95022Y208155D01*
Y209729D01*
X89241Y200181D02*
X89766Y199656D01*
X90816D01*
X91340Y200181D01*
Y202280D01*
X90816Y202805D01*
X89766D01*
X89241Y202280D01*
X86093Y199656D02*
X88192D01*
Y201231D01*
X87142Y200706D01*
X86617D01*
X86093Y201231D01*
Y202280D01*
X86617Y202805D01*
X87667D01*
X88192Y202280D01*
X93994Y187845D02*
Y190994D01*
X92420D01*
X91895Y190469D01*
Y188370D01*
X92420Y187845D01*
X93994D01*
X89271Y190994D02*
Y187845D01*
X90845Y189420D01*
X88746D01*
X100789Y304084D02*
Y300936D01*
X99215D01*
X98690Y301461D01*
Y302510D01*
X99215Y303035D01*
X100789D01*
X99740D02*
X98690Y304084D01*
X96066D02*
Y300936D01*
X97641Y302510D01*
X95542D01*
X100789Y308809D02*
Y305660D01*
X99215D01*
X98690Y306185D01*
Y307235D01*
X99215Y307759D01*
X100789D01*
X99740D02*
X98690Y308809D01*
X97641Y306185D02*
X97116Y305660D01*
X96066D01*
X95542Y306185D01*
Y306710D01*
X96066Y307235D01*
X96591D01*
X96066D01*
X95542Y307759D01*
Y308284D01*
X96066Y308809D01*
X97116D01*
X97641Y308284D01*
X104332Y298573D02*
Y295424D01*
X102758D01*
X102233Y295949D01*
Y296998D01*
X102758Y297523D01*
X104332D01*
X103283D02*
X102233Y298573D01*
X101184Y295424D02*
X99085D01*
Y295949D01*
X101184Y298048D01*
Y298573D01*
X104332Y292077D02*
Y288928D01*
X102758D01*
X102233Y289453D01*
Y290502D01*
X102758Y291027D01*
X104332D01*
X103283D02*
X102233Y292077D01*
X99085Y288928D02*
X100134Y289453D01*
X101184Y290502D01*
Y291552D01*
X100659Y292077D01*
X99610D01*
X99085Y291552D01*
Y291027D01*
X99610Y290502D01*
X101184D01*
X104332Y285581D02*
Y282432D01*
X102758D01*
X102233Y282957D01*
Y284006D01*
X102758Y284531D01*
X104332D01*
X103283D02*
X102233Y285581D01*
X99085Y282432D02*
X101184D01*
Y284006D01*
X100134Y283482D01*
X99610D01*
X99085Y284006D01*
Y285056D01*
X99610Y285581D01*
X100659D01*
X101184Y285056D01*
X80448Y287024D02*
X77300D01*
Y285450D01*
X77824Y284925D01*
X79923D01*
X80448Y285450D01*
Y287024D01*
X79923Y283875D02*
X80448Y283350D01*
Y282301D01*
X79923Y281776D01*
X79399D01*
X78874Y282301D01*
Y282826D01*
Y282301D01*
X78349Y281776D01*
X77824D01*
X77300Y282301D01*
Y283350D01*
X77824Y283875D01*
X73362Y287024D02*
X70213D01*
Y285450D01*
X70738Y284925D01*
X72837D01*
X73362Y285450D01*
Y287024D01*
X70213Y281776D02*
Y283875D01*
X72312Y281776D01*
X72837D01*
X73362Y282301D01*
Y283350D01*
X72837Y283875D01*
X66275Y286991D02*
X63126D01*
Y285417D01*
X63651Y284892D01*
X65750D01*
X66275Y285417D01*
Y286991D01*
X63126Y283843D02*
Y282793D01*
Y283318D01*
X66275D01*
X65750Y283843D01*
X58499Y230790D02*
X57975D01*
X56925Y229741D01*
X57975Y228691D01*
X58499D01*
X56925Y229741D02*
X55351D01*
Y227642D02*
Y226592D01*
Y227117D01*
X58499D01*
X57975Y227642D01*
X84877Y255830D02*
X82254D01*
X81729Y255305D01*
Y254256D01*
X82254Y253731D01*
X84877D01*
X81729Y252681D02*
Y251632D01*
Y252156D01*
X84877D01*
X84353Y252681D01*
X90947Y327313D02*
Y324164D01*
X89372D01*
X88848Y324689D01*
Y325739D01*
X89372Y326263D01*
X90947D01*
X89897D02*
X88848Y327313D01*
X85699D02*
X87798D01*
X85699Y325214D01*
Y324689D01*
X86224Y324164D01*
X87273D01*
X87798Y324689D01*
X56237Y329511D02*
X59385D01*
Y327937D01*
X58860Y327412D01*
X57811D01*
X57286Y327937D01*
Y329511D01*
Y328461D02*
X56237Y327412D01*
Y326362D02*
Y325313D01*
Y325837D01*
X59385D01*
X58860Y326362D01*
X102496Y348376D02*
Y349426D01*
Y348901D01*
X99872D01*
X99347Y349426D01*
Y349951D01*
X99872Y350476D01*
X99347Y347327D02*
Y346277D01*
Y346802D01*
X102496D01*
X101971Y347327D01*
X80710Y309991D02*
X79661D01*
X80185D01*
Y313140D01*
X80710D01*
X79661D01*
X75987Y310516D02*
X76512Y309991D01*
X77562D01*
X78086Y310516D01*
Y312615D01*
X77562Y313140D01*
X76512D01*
X75987Y312615D01*
X74938Y313140D02*
X73888D01*
X74413D01*
Y309991D01*
X74938Y310516D01*
X59222Y219217D02*
X59746Y218692D01*
X60796D01*
X61321Y219217D01*
Y221316D01*
X60796Y221840D01*
X59746D01*
X59222Y221316D01*
X58172D02*
X57647Y221840D01*
X56598D01*
X56073Y221316D01*
Y219217D01*
X56598Y218692D01*
X57647D01*
X58172Y219217D01*
Y219741D01*
X57647Y220266D01*
X56073D01*
X41833Y240732D02*
X42358Y241257D01*
Y242306D01*
X41833Y242831D01*
X39734D01*
X39209Y242306D01*
Y241257D01*
X39734Y240732D01*
X41833Y239682D02*
X42358Y239158D01*
Y238108D01*
X41833Y237583D01*
X41308D01*
X40783Y238108D01*
X40259Y237583D01*
X39734D01*
X39209Y238108D01*
Y239158D01*
X39734Y239682D01*
X40259D01*
X40783Y239158D01*
X41308Y239682D01*
X41833D01*
X40783Y239158D02*
Y238108D01*
X100396Y251106D02*
X100921Y251631D01*
Y252680D01*
X100396Y253205D01*
X98297D01*
X97772Y252680D01*
Y251631D01*
X98297Y251106D01*
X100921Y250056D02*
Y247957D01*
X100396D01*
X98297Y250056D01*
X97772D01*
X52561Y254256D02*
X53086Y254780D01*
Y255830D01*
X52561Y256354D01*
X50462D01*
X49937Y255830D01*
Y254780D01*
X50462Y254256D01*
X53086Y251107D02*
X52561Y252156D01*
X51512Y253206D01*
X50462D01*
X49937Y252681D01*
Y251632D01*
X50462Y251107D01*
X50987D01*
X51512Y251632D01*
Y253206D01*
X88848Y330791D02*
X89372Y330267D01*
X90422D01*
X90947Y330791D01*
Y332891D01*
X90422Y333415D01*
X89372D01*
X88848Y332891D01*
X86224Y333415D02*
Y330267D01*
X87798Y331841D01*
X85699D01*
X53546Y327838D02*
X54070Y328363D01*
Y329412D01*
X53546Y329937D01*
X51446D01*
X50922Y329412D01*
Y328363D01*
X51446Y327838D01*
X53546Y326789D02*
X54070Y326264D01*
Y325214D01*
X53546Y324690D01*
X53021D01*
X52496Y325214D01*
Y325739D01*
Y325214D01*
X51971Y324690D01*
X51446D01*
X50922Y325214D01*
Y326264D01*
X51446Y326789D01*
X52069Y295424D02*
X52594Y295948D01*
Y296998D01*
X52069Y297523D01*
X49970D01*
X49445Y296998D01*
Y295948D01*
X49970Y295424D01*
X49445Y294374D02*
Y293325D01*
Y293849D01*
X52594D01*
X52069Y294374D01*
X59648Y301362D02*
X60173Y301887D01*
Y302936D01*
X59648Y303461D01*
X57549D01*
X57024Y302936D01*
Y301887D01*
X57549Y301362D01*
X57024Y298213D02*
Y300312D01*
X59123Y298213D01*
X59648D01*
X60173Y298738D01*
Y299787D01*
X59648Y300312D01*
X149542Y349853D02*
X149018D01*
X147968Y348803D01*
X149018Y347754D01*
X149542D01*
X147968Y348803D02*
X146394D01*
X149018Y344605D02*
X149542Y345130D01*
Y346179D01*
X149018Y346704D01*
X146918D01*
X146394Y346179D01*
Y345130D01*
X146918Y344605D01*
X147968D01*
Y345655D01*
X146394Y343556D02*
X149542D01*
X146394Y341457D01*
X149542D01*
X147968Y337258D02*
Y335159D01*
X149018Y328862D02*
X149542Y329387D01*
Y330436D01*
X149018Y330961D01*
X148493D01*
X147968Y330436D01*
Y329387D01*
X147443Y328862D01*
X146918D01*
X146394Y329387D01*
Y330436D01*
X146918Y330961D01*
X145344Y327813D02*
X148493D01*
Y326238D01*
X147968Y325714D01*
X146918D01*
X146394Y326238D01*
Y327813D01*
Y324664D02*
Y323615D01*
Y324139D01*
X148493D01*
Y324664D01*
X146394Y322040D02*
X148493D01*
Y320466D01*
X147968Y319941D01*
X146394D01*
Y318892D02*
X148493D01*
X149542Y317842D01*
X148493Y316793D01*
X146394D01*
X147968D01*
Y318892D01*
X149018Y313644D02*
X149542Y314169D01*
Y315218D01*
X149018Y315743D01*
X148493D01*
X147968Y315218D01*
Y314169D01*
X147443Y313644D01*
X146918D01*
X146394Y314169D01*
Y315218D01*
X146918Y315743D01*
X146394Y312595D02*
X149542D01*
X148493Y311545D01*
X149542Y310495D01*
X146394D01*
X148493Y306297D02*
X146394Y305248D01*
X148493Y304198D01*
X146394Y303149D02*
Y302099D01*
Y302624D01*
X149542D01*
X149018Y303149D01*
X146394Y300525D02*
X146918D01*
Y300000D01*
X146394D01*
Y300525D01*
X149018Y297901D02*
X149542Y297376D01*
Y296327D01*
X149018Y295802D01*
X146918D01*
X146394Y296327D01*
Y297376D01*
X146918Y297901D01*
X149018D01*
X189864Y276624D02*
Y273475D01*
X188290D01*
X187765Y274000D01*
Y275050D01*
X188290Y275574D01*
X189864D01*
X188814D02*
X187765Y276624D01*
X186715Y274000D02*
X186191Y273475D01*
X185141D01*
X184616Y274000D01*
Y274525D01*
X185141Y275050D01*
X184616Y275574D01*
Y276099D01*
X185141Y276624D01*
X186191D01*
X186715Y276099D01*
Y275574D01*
X186191Y275050D01*
X186715Y274525D01*
Y274000D01*
X186191Y275050D02*
X185141D01*
X207358Y218650D02*
Y217601D01*
Y218125D01*
X204209D01*
Y218650D01*
Y217601D01*
X206833Y213927D02*
X207358Y214452D01*
Y215502D01*
X206833Y216026D01*
X204734D01*
X204209Y215502D01*
Y214452D01*
X204734Y213927D01*
X206833Y210779D02*
X207358Y211303D01*
Y212353D01*
X206833Y212878D01*
X206308D01*
X205784Y212353D01*
Y211303D01*
X205259Y210779D01*
X204734D01*
X204209Y211303D01*
Y212353D01*
X204734Y212878D01*
X204209Y209729D02*
X207358D01*
Y208155D01*
X206833Y207630D01*
X205784D01*
X205259Y208155D01*
Y209729D01*
X199478Y200181D02*
X200002Y199656D01*
X201052D01*
X201576Y200181D01*
Y202280D01*
X201052Y202805D01*
X200002D01*
X199478Y202280D01*
X196329Y199656D02*
X198428D01*
Y201231D01*
X197378Y200706D01*
X196854D01*
X196329Y201231D01*
Y202280D01*
X196854Y202805D01*
X197903D01*
X198428Y202280D01*
X204230Y187845D02*
Y190994D01*
X202656D01*
X202131Y190469D01*
Y188370D01*
X202656Y187845D01*
X204230D01*
X199507Y190994D02*
Y187845D01*
X201081Y189420D01*
X198982D01*
X211025Y304084D02*
Y300936D01*
X209451D01*
X208926Y301461D01*
Y302510D01*
X209451Y303035D01*
X211025D01*
X209976D02*
X208926Y304084D01*
X206302D02*
Y300936D01*
X207877Y302510D01*
X205778D01*
X211025Y308809D02*
Y305660D01*
X209451D01*
X208926Y306185D01*
Y307235D01*
X209451Y307759D01*
X211025D01*
X209976D02*
X208926Y308809D01*
X207877Y306185D02*
X207352Y305660D01*
X206302D01*
X205778Y306185D01*
Y306710D01*
X206302Y307235D01*
X206827D01*
X206302D01*
X205778Y307759D01*
Y308284D01*
X206302Y308809D01*
X207352D01*
X207877Y308284D01*
X214569Y298573D02*
Y295424D01*
X212994D01*
X212470Y295949D01*
Y296998D01*
X212994Y297523D01*
X214569D01*
X213519D02*
X212470Y298573D01*
X211420Y295424D02*
X209321D01*
Y295949D01*
X211420Y298048D01*
Y298573D01*
X214569Y292077D02*
Y288928D01*
X212994D01*
X212470Y289453D01*
Y290502D01*
X212994Y291027D01*
X214569D01*
X213519D02*
X212470Y292077D01*
X209321Y288928D02*
X210371Y289453D01*
X211420Y290502D01*
Y291552D01*
X210895Y292077D01*
X209846D01*
X209321Y291552D01*
Y291027D01*
X209846Y290502D01*
X211420D01*
X214569Y285581D02*
Y282432D01*
X212994D01*
X212470Y282957D01*
Y284006D01*
X212994Y284531D01*
X214569D01*
X213519D02*
X212470Y285581D01*
X209321Y282432D02*
X211420D01*
Y284006D01*
X210371Y283482D01*
X209846D01*
X209321Y284006D01*
Y285056D01*
X209846Y285581D01*
X210895D01*
X211420Y285056D01*
X190684Y287024D02*
X187536D01*
Y285450D01*
X188061Y284925D01*
X190160D01*
X190684Y285450D01*
Y287024D01*
X190160Y283875D02*
X190684Y283350D01*
Y282301D01*
X190160Y281776D01*
X189635D01*
X189110Y282301D01*
Y282826D01*
Y282301D01*
X188585Y281776D01*
X188061D01*
X187536Y282301D01*
Y283350D01*
X188061Y283875D01*
X183598Y287024D02*
X180449D01*
Y285450D01*
X180974Y284925D01*
X183073D01*
X183598Y285450D01*
Y287024D01*
X180449Y281776D02*
Y283875D01*
X182548Y281776D01*
X183073D01*
X183598Y282301D01*
Y283350D01*
X183073Y283875D01*
X176511Y286991D02*
X173363D01*
Y285417D01*
X173888Y284892D01*
X175987D01*
X176511Y285417D01*
Y286991D01*
X173363Y283843D02*
Y282793D01*
Y283318D01*
X176511D01*
X175987Y283843D01*
X168736Y230790D02*
X168211D01*
X167161Y229741D01*
X168211Y228691D01*
X168736D01*
X167161Y229741D02*
X165587D01*
Y227642D02*
Y226592D01*
Y227117D01*
X168736D01*
X168211Y227642D01*
X195114Y255830D02*
X192490D01*
X191965Y255305D01*
Y254256D01*
X192490Y253731D01*
X195114D01*
X191965Y252681D02*
Y251632D01*
Y252156D01*
X195114D01*
X194589Y252681D01*
X201183Y327313D02*
Y324164D01*
X199609D01*
X199084Y324689D01*
Y325739D01*
X199609Y326263D01*
X201183D01*
X200133D02*
X199084Y327313D01*
X195935D02*
X198034D01*
X195935Y325214D01*
Y324689D01*
X196460Y324164D01*
X197510D01*
X198034Y324689D01*
X166473Y329511D02*
X169622D01*
Y327937D01*
X169097Y327412D01*
X168047D01*
X167523Y327937D01*
Y329511D01*
Y328461D02*
X166473Y327412D01*
Y326362D02*
Y325313D01*
Y325837D01*
X169622D01*
X169097Y326362D01*
X212732Y348376D02*
Y349426D01*
Y348901D01*
X210108D01*
X209583Y349426D01*
Y349951D01*
X210108Y350476D01*
X209583Y347327D02*
Y346277D01*
Y346802D01*
X212732D01*
X212207Y347327D01*
X190946Y309991D02*
X189897D01*
X190422D01*
Y313140D01*
X190946D01*
X189897D01*
X186223Y310516D02*
X186748Y309991D01*
X187798D01*
X188323Y310516D01*
Y312615D01*
X187798Y313140D01*
X186748D01*
X186223Y312615D01*
X185174Y313140D02*
X184124D01*
X184649D01*
Y309991D01*
X185174Y310516D01*
X169458Y219217D02*
X169983Y218692D01*
X171032D01*
X171557Y219217D01*
Y221316D01*
X171032Y221840D01*
X169983D01*
X169458Y221316D01*
X168408D02*
X167884Y221840D01*
X166834D01*
X166309Y221316D01*
Y219217D01*
X166834Y218692D01*
X167884D01*
X168408Y219217D01*
Y219741D01*
X167884Y220266D01*
X166309D01*
X152069Y240732D02*
X152594Y241257D01*
Y242306D01*
X152069Y242831D01*
X149970D01*
X149445Y242306D01*
Y241257D01*
X149970Y240732D01*
X152069Y239682D02*
X152594Y239158D01*
Y238108D01*
X152069Y237583D01*
X151544D01*
X151020Y238108D01*
X150495Y237583D01*
X149970D01*
X149445Y238108D01*
Y239158D01*
X149970Y239682D01*
X150495D01*
X151020Y239158D01*
X151544Y239682D01*
X152069D01*
X151020Y239158D02*
Y238108D01*
X210632Y251106D02*
X211157Y251631D01*
Y252680D01*
X210632Y253205D01*
X208533D01*
X208008Y252680D01*
Y251631D01*
X208533Y251106D01*
X211157Y250056D02*
Y247957D01*
X210632D01*
X208533Y250056D01*
X208008D01*
X162798Y254256D02*
X163322Y254780D01*
Y255830D01*
X162798Y256354D01*
X160698D01*
X160174Y255830D01*
Y254780D01*
X160698Y254256D01*
X163322Y251107D02*
X162798Y252156D01*
X161748Y253206D01*
X160698D01*
X160174Y252681D01*
Y251632D01*
X160698Y251107D01*
X161223D01*
X161748Y251632D01*
Y253206D01*
X199084Y330791D02*
X199609Y330267D01*
X200658D01*
X201183Y330791D01*
Y332891D01*
X200658Y333415D01*
X199609D01*
X199084Y332891D01*
X196460Y333415D02*
Y330267D01*
X198034Y331841D01*
X195935D01*
X163782Y327838D02*
X164307Y328363D01*
Y329412D01*
X163782Y329937D01*
X161683D01*
X161158Y329412D01*
Y328363D01*
X161683Y327838D01*
X163782Y326789D02*
X164307Y326264D01*
Y325214D01*
X163782Y324690D01*
X163257D01*
X162732Y325214D01*
Y325739D01*
Y325214D01*
X162207Y324690D01*
X161683D01*
X161158Y325214D01*
Y326264D01*
X161683Y326789D01*
X162305Y295424D02*
X162830Y295948D01*
Y296998D01*
X162305Y297523D01*
X160206D01*
X159682Y296998D01*
Y295948D01*
X160206Y295424D01*
X159682Y294374D02*
Y293325D01*
Y293849D01*
X162830D01*
X162305Y294374D01*
X169884Y301362D02*
X170409Y301887D01*
Y302936D01*
X169884Y303461D01*
X167785D01*
X167260Y302936D01*
Y301887D01*
X167785Y301362D01*
X167260Y298213D02*
Y300312D01*
X169359Y298213D01*
X169884D01*
X170409Y298738D01*
Y299787D01*
X169884Y300312D01*
X259778Y349853D02*
X259254D01*
X258204Y348803D01*
X259254Y347754D01*
X259778D01*
X258204Y348803D02*
X256630D01*
X259254Y344605D02*
X259778Y345130D01*
Y346179D01*
X259254Y346704D01*
X257155D01*
X256630Y346179D01*
Y345130D01*
X257155Y344605D01*
X258204D01*
Y345655D01*
X256630Y343556D02*
X259778D01*
X256630Y341457D01*
X259778D01*
X258204Y337258D02*
Y335159D01*
X259254Y328862D02*
X259778Y329387D01*
Y330436D01*
X259254Y330961D01*
X258729D01*
X258204Y330436D01*
Y329387D01*
X257679Y328862D01*
X257155D01*
X256630Y329387D01*
Y330436D01*
X257155Y330961D01*
X255580Y327813D02*
X258729D01*
Y326238D01*
X258204Y325714D01*
X257155D01*
X256630Y326238D01*
Y327813D01*
Y324664D02*
Y323615D01*
Y324139D01*
X258729D01*
Y324664D01*
X256630Y322040D02*
X258729D01*
Y320466D01*
X258204Y319941D01*
X256630D01*
Y318892D02*
X258729D01*
X259778Y317842D01*
X258729Y316793D01*
X256630D01*
X258204D01*
Y318892D01*
X259254Y313644D02*
X259778Y314169D01*
Y315218D01*
X259254Y315743D01*
X258729D01*
X258204Y315218D01*
Y314169D01*
X257679Y313644D01*
X257155D01*
X256630Y314169D01*
Y315218D01*
X257155Y315743D01*
X256630Y312595D02*
X259778D01*
X258729Y311545D01*
X259778Y310495D01*
X256630D01*
X258729Y306297D02*
X256630Y305248D01*
X258729Y304198D01*
X256630Y303149D02*
Y302099D01*
Y302624D01*
X259778D01*
X259254Y303149D01*
X256630Y300525D02*
X257155D01*
Y300000D01*
X256630D01*
Y300525D01*
X259254Y297901D02*
X259778Y297376D01*
Y296327D01*
X259254Y295802D01*
X257155D01*
X256630Y296327D01*
Y297376D01*
X257155Y297901D01*
X259254D01*
X300100Y276624D02*
Y273475D01*
X298526D01*
X298001Y274000D01*
Y275050D01*
X298526Y275574D01*
X300100D01*
X299051D02*
X298001Y276624D01*
X296952Y274000D02*
X296427Y273475D01*
X295377D01*
X294852Y274000D01*
Y274525D01*
X295377Y275050D01*
X294852Y275574D01*
Y276099D01*
X295377Y276624D01*
X296427D01*
X296952Y276099D01*
Y275574D01*
X296427Y275050D01*
X296952Y274525D01*
Y274000D01*
X296427Y275050D02*
X295377D01*
X317594Y218650D02*
Y217601D01*
Y218125D01*
X314445D01*
Y218650D01*
Y217601D01*
X317069Y213927D02*
X317594Y214452D01*
Y215502D01*
X317069Y216026D01*
X314970D01*
X314445Y215502D01*
Y214452D01*
X314970Y213927D01*
X317069Y210779D02*
X317594Y211303D01*
Y212353D01*
X317069Y212878D01*
X316544D01*
X316020Y212353D01*
Y211303D01*
X315495Y210779D01*
X314970D01*
X314445Y211303D01*
Y212353D01*
X314970Y212878D01*
X314445Y209729D02*
X317594D01*
Y208155D01*
X317069Y207630D01*
X316020D01*
X315495Y208155D01*
Y209729D01*
X309714Y200181D02*
X310239Y199656D01*
X311288D01*
X311813Y200181D01*
Y202280D01*
X311288Y202805D01*
X310239D01*
X309714Y202280D01*
X306565Y199656D02*
X308664D01*
Y201231D01*
X307615Y200706D01*
X307090D01*
X306565Y201231D01*
Y202280D01*
X307090Y202805D01*
X308139D01*
X308664Y202280D01*
X314466Y187845D02*
Y190994D01*
X312892D01*
X312367Y190469D01*
Y188370D01*
X312892Y187845D01*
X314466D01*
X309743Y190994D02*
Y187845D01*
X311318Y189420D01*
X309219D01*
X321262Y304084D02*
Y300936D01*
X319687D01*
X319163Y301461D01*
Y302510D01*
X319687Y303035D01*
X321262D01*
X320212D02*
X319163Y304084D01*
X316539D02*
Y300936D01*
X318113Y302510D01*
X316014D01*
X321262Y308809D02*
Y305660D01*
X319687D01*
X319163Y306185D01*
Y307235D01*
X319687Y307759D01*
X321262D01*
X320212D02*
X319163Y308809D01*
X318113Y306185D02*
X317588Y305660D01*
X316539D01*
X316014Y306185D01*
Y306710D01*
X316539Y307235D01*
X317063D01*
X316539D01*
X316014Y307759D01*
Y308284D01*
X316539Y308809D01*
X317588D01*
X318113Y308284D01*
X324805Y298573D02*
Y295424D01*
X323231D01*
X322706Y295949D01*
Y296998D01*
X323231Y297523D01*
X324805D01*
X323755D02*
X322706Y298573D01*
X321656Y295424D02*
X319557D01*
Y295949D01*
X321656Y298048D01*
Y298573D01*
X324805Y292077D02*
Y288928D01*
X323231D01*
X322706Y289453D01*
Y290502D01*
X323231Y291027D01*
X324805D01*
X323755D02*
X322706Y292077D01*
X319557Y288928D02*
X320607Y289453D01*
X321656Y290502D01*
Y291552D01*
X321131Y292077D01*
X320082D01*
X319557Y291552D01*
Y291027D01*
X320082Y290502D01*
X321656D01*
X324805Y285581D02*
Y282432D01*
X323231D01*
X322706Y282957D01*
Y284006D01*
X323231Y284531D01*
X324805D01*
X323755D02*
X322706Y285581D01*
X319557Y282432D02*
X321656D01*
Y284006D01*
X320607Y283482D01*
X320082D01*
X319557Y284006D01*
Y285056D01*
X320082Y285581D01*
X321131D01*
X321656Y285056D01*
X300921Y287024D02*
X297772D01*
Y285450D01*
X298297Y284925D01*
X300396D01*
X300921Y285450D01*
Y287024D01*
X300396Y283875D02*
X300921Y283350D01*
Y282301D01*
X300396Y281776D01*
X299871D01*
X299346Y282301D01*
Y282826D01*
Y282301D01*
X298822Y281776D01*
X298297D01*
X297772Y282301D01*
Y283350D01*
X298297Y283875D01*
X293834Y287024D02*
X290686D01*
Y285450D01*
X291210Y284925D01*
X293309D01*
X293834Y285450D01*
Y287024D01*
X290686Y281776D02*
Y283875D01*
X292785Y281776D01*
X293309D01*
X293834Y282301D01*
Y283350D01*
X293309Y283875D01*
X286748Y286991D02*
X283599D01*
Y285417D01*
X284124Y284892D01*
X286223D01*
X286748Y285417D01*
Y286991D01*
X283599Y283843D02*
Y282793D01*
Y283318D01*
X286748D01*
X286223Y283843D01*
X278972Y230790D02*
X278447D01*
X277398Y229741D01*
X278447Y228691D01*
X278972D01*
X277398Y229741D02*
X275823D01*
Y227642D02*
Y226592D01*
Y227117D01*
X278972D01*
X278447Y227642D01*
X305350Y255830D02*
X302726D01*
X302201Y255305D01*
Y254256D01*
X302726Y253731D01*
X305350D01*
X302201Y252681D02*
Y251632D01*
Y252156D01*
X305350D01*
X304825Y252681D01*
X311419Y327313D02*
Y324164D01*
X309845D01*
X309320Y324689D01*
Y325739D01*
X309845Y326263D01*
X311419D01*
X310370D02*
X309320Y327313D01*
X306171D02*
X308271D01*
X306171Y325214D01*
Y324689D01*
X306696Y324164D01*
X307746D01*
X308271Y324689D01*
X276709Y329511D02*
X279858D01*
Y327937D01*
X279333Y327412D01*
X278283D01*
X277759Y327937D01*
Y329511D01*
Y328461D02*
X276709Y327412D01*
Y326362D02*
Y325313D01*
Y325837D01*
X279858D01*
X279333Y326362D01*
X322968Y348376D02*
Y349426D01*
Y348901D01*
X320344D01*
X319819Y349426D01*
Y349951D01*
X320344Y350476D01*
X319819Y347327D02*
Y346277D01*
Y346802D01*
X322968D01*
X322443Y347327D01*
X301183Y309991D02*
X300133D01*
X300658D01*
Y313140D01*
X301183D01*
X300133D01*
X296460Y310516D02*
X296985Y309991D01*
X298034D01*
X298559Y310516D01*
Y312615D01*
X298034Y313140D01*
X296985D01*
X296460Y312615D01*
X295410Y313140D02*
X294361D01*
X294885D01*
Y309991D01*
X295410Y310516D01*
X279694Y219217D02*
X280219Y218692D01*
X281268D01*
X281793Y219217D01*
Y221316D01*
X281268Y221840D01*
X280219D01*
X279694Y221316D01*
X278644D02*
X278120Y221840D01*
X277070D01*
X276545Y221316D01*
Y219217D01*
X277070Y218692D01*
X278120D01*
X278644Y219217D01*
Y219741D01*
X278120Y220266D01*
X276545D01*
X262305Y240732D02*
X262830Y241257D01*
Y242306D01*
X262305Y242831D01*
X260206D01*
X259682Y242306D01*
Y241257D01*
X260206Y240732D01*
X262305Y239682D02*
X262830Y239158D01*
Y238108D01*
X262305Y237583D01*
X261781D01*
X261256Y238108D01*
X260731Y237583D01*
X260206D01*
X259682Y238108D01*
Y239158D01*
X260206Y239682D01*
X260731D01*
X261256Y239158D01*
X261781Y239682D01*
X262305D01*
X261256Y239158D02*
Y238108D01*
X320868Y251106D02*
X321393Y251631D01*
Y252680D01*
X320868Y253205D01*
X318769D01*
X318245Y252680D01*
Y251631D01*
X318769Y251106D01*
X321393Y250056D02*
Y247957D01*
X320868D01*
X318769Y250056D01*
X318245D01*
X273034Y254256D02*
X273558Y254780D01*
Y255830D01*
X273034Y256354D01*
X270935D01*
X270410Y255830D01*
Y254780D01*
X270935Y254256D01*
X273558Y251107D02*
X273034Y252156D01*
X271984Y253206D01*
X270935D01*
X270410Y252681D01*
Y251632D01*
X270935Y251107D01*
X271460D01*
X271984Y251632D01*
Y253206D01*
X309320Y330791D02*
X309845Y330267D01*
X310894D01*
X311419Y330791D01*
Y332891D01*
X310894Y333415D01*
X309845D01*
X309320Y332891D01*
X306696Y333415D02*
Y330267D01*
X308271Y331841D01*
X306171D01*
X274018Y327838D02*
X274543Y328363D01*
Y329412D01*
X274018Y329937D01*
X271919D01*
X271394Y329412D01*
Y328363D01*
X271919Y327838D01*
X274018Y326789D02*
X274543Y326264D01*
Y325214D01*
X274018Y324690D01*
X273493D01*
X272969Y325214D01*
Y325739D01*
Y325214D01*
X272444Y324690D01*
X271919D01*
X271394Y325214D01*
Y326264D01*
X271919Y326789D01*
X272542Y295424D02*
X273066Y295948D01*
Y296998D01*
X272542Y297523D01*
X270443D01*
X269918Y296998D01*
Y295948D01*
X270443Y295424D01*
X269918Y294374D02*
Y293325D01*
Y293849D01*
X273066D01*
X272542Y294374D01*
X280120Y301362D02*
X280645Y301887D01*
Y302936D01*
X280120Y303461D01*
X278021D01*
X277497Y302936D01*
Y301887D01*
X278021Y301362D01*
X277497Y298213D02*
Y300312D01*
X279596Y298213D01*
X280120D01*
X280645Y298738D01*
Y299787D01*
X280120Y300312D01*
X370015Y349853D02*
X369490D01*
X368440Y348803D01*
X369490Y347754D01*
X370015D01*
X368440Y348803D02*
X366866D01*
X369490Y344605D02*
X370015Y345130D01*
Y346179D01*
X369490Y346704D01*
X367391D01*
X366866Y346179D01*
Y345130D01*
X367391Y344605D01*
X368440D01*
Y345655D01*
X366866Y343556D02*
X370015D01*
X366866Y341457D01*
X370015D01*
X368440Y337258D02*
Y335159D01*
X369490Y328862D02*
X370015Y329387D01*
Y330436D01*
X369490Y330961D01*
X368965D01*
X368440Y330436D01*
Y329387D01*
X367916Y328862D01*
X367391D01*
X366866Y329387D01*
Y330436D01*
X367391Y330961D01*
X365817Y327813D02*
X368965D01*
Y326238D01*
X368440Y325714D01*
X367391D01*
X366866Y326238D01*
Y327813D01*
Y324664D02*
Y323615D01*
Y324139D01*
X368965D01*
Y324664D01*
X366866Y322040D02*
X368965D01*
Y320466D01*
X368440Y319941D01*
X366866D01*
Y318892D02*
X368965D01*
X370015Y317842D01*
X368965Y316793D01*
X366866D01*
X368440D01*
Y318892D01*
X369490Y313644D02*
X370015Y314169D01*
Y315218D01*
X369490Y315743D01*
X368965D01*
X368440Y315218D01*
Y314169D01*
X367916Y313644D01*
X367391D01*
X366866Y314169D01*
Y315218D01*
X367391Y315743D01*
X366866Y312595D02*
X370015D01*
X368965Y311545D01*
X370015Y310495D01*
X366866D01*
X368965Y306297D02*
X366866Y305248D01*
X368965Y304198D01*
X366866Y303149D02*
Y302099D01*
Y302624D01*
X370015D01*
X369490Y303149D01*
X366866Y300525D02*
X367391D01*
Y300000D01*
X366866D01*
Y300525D01*
X369490Y297901D02*
X370015Y297376D01*
Y296327D01*
X369490Y295802D01*
X367391D01*
X366866Y296327D01*
Y297376D01*
X367391Y297901D01*
X369490D01*
X410336Y276624D02*
Y273475D01*
X408762D01*
X408237Y274000D01*
Y275050D01*
X408762Y275574D01*
X410336D01*
X409287D02*
X408237Y276624D01*
X407188Y274000D02*
X406663Y273475D01*
X405614D01*
X405089Y274000D01*
Y274525D01*
X405614Y275050D01*
X405089Y275574D01*
Y276099D01*
X405614Y276624D01*
X406663D01*
X407188Y276099D01*
Y275574D01*
X406663Y275050D01*
X407188Y274525D01*
Y274000D01*
X406663Y275050D02*
X405614D01*
X427830Y218650D02*
Y217601D01*
Y218125D01*
X424682D01*
Y218650D01*
Y217601D01*
X427305Y213927D02*
X427830Y214452D01*
Y215502D01*
X427305Y216026D01*
X425206D01*
X424682Y215502D01*
Y214452D01*
X425206Y213927D01*
X427305Y210779D02*
X427830Y211303D01*
Y212353D01*
X427305Y212878D01*
X426781D01*
X426256Y212353D01*
Y211303D01*
X425731Y210779D01*
X425206D01*
X424682Y211303D01*
Y212353D01*
X425206Y212878D01*
X424682Y209729D02*
X427830D01*
Y208155D01*
X427305Y207630D01*
X426256D01*
X425731Y208155D01*
Y209729D01*
X419950Y200181D02*
X420475Y199656D01*
X421524D01*
X422049Y200181D01*
Y202280D01*
X421524Y202805D01*
X420475D01*
X419950Y202280D01*
X416801Y199656D02*
X418900D01*
Y201231D01*
X417851Y200706D01*
X417326D01*
X416801Y201231D01*
Y202280D01*
X417326Y202805D01*
X418376D01*
X418900Y202280D01*
X424703Y187845D02*
Y190994D01*
X423128D01*
X422604Y190469D01*
Y188370D01*
X423128Y187845D01*
X424703D01*
X419980Y190994D02*
Y187845D01*
X421554Y189420D01*
X419455D01*
X431498Y304084D02*
Y300936D01*
X429923D01*
X429399Y301461D01*
Y302510D01*
X429923Y303035D01*
X431498D01*
X430448D02*
X429399Y304084D01*
X426775D02*
Y300936D01*
X428349Y302510D01*
X426250D01*
X431498Y308809D02*
Y305660D01*
X429923D01*
X429399Y306185D01*
Y307235D01*
X429923Y307759D01*
X431498D01*
X430448D02*
X429399Y308809D01*
X428349Y306185D02*
X427824Y305660D01*
X426775D01*
X426250Y306185D01*
Y306710D01*
X426775Y307235D01*
X427300D01*
X426775D01*
X426250Y307759D01*
Y308284D01*
X426775Y308809D01*
X427824D01*
X428349Y308284D01*
X435041Y298573D02*
Y295424D01*
X433467D01*
X432942Y295949D01*
Y296998D01*
X433467Y297523D01*
X435041D01*
X433992D02*
X432942Y298573D01*
X431892Y295424D02*
X429794D01*
Y295949D01*
X431892Y298048D01*
Y298573D01*
X435041Y292077D02*
Y288928D01*
X433467D01*
X432942Y289453D01*
Y290502D01*
X433467Y291027D01*
X435041D01*
X433992D02*
X432942Y292077D01*
X429794Y288928D02*
X430843Y289453D01*
X431892Y290502D01*
Y291552D01*
X431368Y292077D01*
X430318D01*
X429794Y291552D01*
Y291027D01*
X430318Y290502D01*
X431892D01*
X435041Y285581D02*
Y282432D01*
X433467D01*
X432942Y282957D01*
Y284006D01*
X433467Y284531D01*
X435041D01*
X433992D02*
X432942Y285581D01*
X429794Y282432D02*
X431892D01*
Y284006D01*
X430843Y283482D01*
X430318D01*
X429794Y284006D01*
Y285056D01*
X430318Y285581D01*
X431368D01*
X431892Y285056D01*
X411157Y287024D02*
X408008D01*
Y285450D01*
X408533Y284925D01*
X410632D01*
X411157Y285450D01*
Y287024D01*
X410632Y283875D02*
X411157Y283350D01*
Y282301D01*
X410632Y281776D01*
X410107D01*
X409583Y282301D01*
Y282826D01*
Y282301D01*
X409058Y281776D01*
X408533D01*
X408008Y282301D01*
Y283350D01*
X408533Y283875D01*
X404070Y287024D02*
X400922D01*
Y285450D01*
X401446Y284925D01*
X403546D01*
X404070Y285450D01*
Y287024D01*
X400922Y281776D02*
Y283875D01*
X403021Y281776D01*
X403546D01*
X404070Y282301D01*
Y283350D01*
X403546Y283875D01*
X396984Y286991D02*
X393835D01*
Y285417D01*
X394360Y284892D01*
X396459D01*
X396984Y285417D01*
Y286991D01*
X393835Y283843D02*
Y282793D01*
Y283318D01*
X396984D01*
X396459Y283843D01*
X389208Y230790D02*
X388683D01*
X387634Y229741D01*
X388683Y228691D01*
X389208D01*
X387634Y229741D02*
X386059D01*
Y227642D02*
Y226592D01*
Y227117D01*
X389208D01*
X388683Y227642D01*
X415586Y255830D02*
X412962D01*
X412437Y255305D01*
Y254256D01*
X412962Y253731D01*
X415586D01*
X412437Y252681D02*
Y251632D01*
Y252156D01*
X415586D01*
X415061Y252681D01*
X421655Y327313D02*
Y324164D01*
X420081D01*
X419556Y324689D01*
Y325739D01*
X420081Y326263D01*
X421655D01*
X420606D02*
X419556Y327313D01*
X416408D02*
X418507D01*
X416408Y325214D01*
Y324689D01*
X416932Y324164D01*
X417982D01*
X418507Y324689D01*
X386945Y329511D02*
X390094D01*
Y327937D01*
X389569Y327412D01*
X388520D01*
X387995Y327937D01*
Y329511D01*
Y328461D02*
X386945Y327412D01*
Y326362D02*
Y325313D01*
Y325837D01*
X390094D01*
X389569Y326362D01*
X433204Y348376D02*
Y349426D01*
Y348901D01*
X430580D01*
X430056Y349426D01*
Y349951D01*
X430580Y350476D01*
X430056Y347327D02*
Y346277D01*
Y346802D01*
X433204D01*
X432679Y347327D01*
X411419Y309991D02*
X410369D01*
X410894D01*
Y313140D01*
X411419D01*
X410369D01*
X406696Y310516D02*
X407221Y309991D01*
X408270D01*
X408795Y310516D01*
Y312615D01*
X408270Y313140D01*
X407221D01*
X406696Y312615D01*
X405646Y313140D02*
X404597D01*
X405122D01*
Y309991D01*
X405646Y310516D01*
X389930Y219217D02*
X390455Y218692D01*
X391505D01*
X392029Y219217D01*
Y221316D01*
X391505Y221840D01*
X390455D01*
X389930Y221316D01*
X388881D02*
X388356Y221840D01*
X387306D01*
X386782Y221316D01*
Y219217D01*
X387306Y218692D01*
X388356D01*
X388881Y219217D01*
Y219741D01*
X388356Y220266D01*
X386782D01*
X372542Y240732D02*
X373066Y241257D01*
Y242306D01*
X372542Y242831D01*
X370443D01*
X369918Y242306D01*
Y241257D01*
X370443Y240732D01*
X372542Y239682D02*
X373066Y239158D01*
Y238108D01*
X372542Y237583D01*
X372017D01*
X371492Y238108D01*
X370967Y237583D01*
X370443D01*
X369918Y238108D01*
Y239158D01*
X370443Y239682D01*
X370967D01*
X371492Y239158D01*
X372017Y239682D01*
X372542D01*
X371492Y239158D02*
Y238108D01*
X431105Y251106D02*
X431629Y251631D01*
Y252680D01*
X431105Y253205D01*
X429006D01*
X428481Y252680D01*
Y251631D01*
X429006Y251106D01*
X431629Y250056D02*
Y247957D01*
X431105D01*
X429006Y250056D01*
X428481D01*
X383270Y254256D02*
X383795Y254780D01*
Y255830D01*
X383270Y256354D01*
X381171D01*
X380646Y255830D01*
Y254780D01*
X381171Y254256D01*
X383795Y251107D02*
X383270Y252156D01*
X382221Y253206D01*
X381171D01*
X380646Y252681D01*
Y251632D01*
X381171Y251107D01*
X381696D01*
X382221Y251632D01*
Y253206D01*
X419556Y330791D02*
X420081Y330267D01*
X421131D01*
X421655Y330791D01*
Y332891D01*
X421131Y333415D01*
X420081D01*
X419556Y332891D01*
X416932Y333415D02*
Y330267D01*
X418507Y331841D01*
X416408D01*
X384254Y327838D02*
X384779Y328363D01*
Y329412D01*
X384254Y329937D01*
X382155D01*
X381630Y329412D01*
Y328363D01*
X382155Y327838D01*
X384254Y326789D02*
X384779Y326264D01*
Y325214D01*
X384254Y324690D01*
X383730D01*
X383205Y325214D01*
Y325739D01*
Y325214D01*
X382680Y324690D01*
X382155D01*
X381630Y325214D01*
Y326264D01*
X382155Y326789D01*
X382778Y295424D02*
X383303Y295948D01*
Y296998D01*
X382778Y297523D01*
X380679D01*
X380154Y296998D01*
Y295948D01*
X380679Y295424D01*
X380154Y294374D02*
Y293325D01*
Y293849D01*
X383303D01*
X382778Y294374D01*
X390357Y301362D02*
X390881Y301887D01*
Y302936D01*
X390357Y303461D01*
X388258D01*
X387733Y302936D01*
Y301887D01*
X388258Y301362D01*
X387733Y298213D02*
Y300312D01*
X389832Y298213D01*
X390357D01*
X390881Y298738D01*
Y299787D01*
X390357Y300312D01*
X480251Y349853D02*
X479726D01*
X478677Y348803D01*
X479726Y347754D01*
X480251D01*
X478677Y348803D02*
X477102D01*
X479726Y344605D02*
X480251Y345130D01*
Y346179D01*
X479726Y346704D01*
X477627D01*
X477102Y346179D01*
Y345130D01*
X477627Y344605D01*
X478677D01*
Y345655D01*
X477102Y343556D02*
X480251D01*
X477102Y341457D01*
X480251D01*
X478677Y337258D02*
Y335159D01*
X479726Y328862D02*
X480251Y329387D01*
Y330436D01*
X479726Y330961D01*
X479201D01*
X478677Y330436D01*
Y329387D01*
X478152Y328862D01*
X477627D01*
X477102Y329387D01*
Y330436D01*
X477627Y330961D01*
X476053Y327813D02*
X479201D01*
Y326238D01*
X478677Y325714D01*
X477627D01*
X477102Y326238D01*
Y327813D01*
Y324664D02*
Y323615D01*
Y324139D01*
X479201D01*
Y324664D01*
X477102Y322040D02*
X479201D01*
Y320466D01*
X478677Y319941D01*
X477102D01*
Y318892D02*
X479201D01*
X480251Y317842D01*
X479201Y316793D01*
X477102D01*
X478677D01*
Y318892D01*
X479726Y313644D02*
X480251Y314169D01*
Y315218D01*
X479726Y315743D01*
X479201D01*
X478677Y315218D01*
Y314169D01*
X478152Y313644D01*
X477627D01*
X477102Y314169D01*
Y315218D01*
X477627Y315743D01*
X477102Y312595D02*
X480251D01*
X479201Y311545D01*
X480251Y310495D01*
X477102D01*
X479201Y306297D02*
X477102Y305248D01*
X479201Y304198D01*
X477102Y303149D02*
Y302099D01*
Y302624D01*
X480251D01*
X479726Y303149D01*
X477102Y300525D02*
X477627D01*
Y300000D01*
X477102D01*
Y300525D01*
X479726Y297901D02*
X480251Y297376D01*
Y296327D01*
X479726Y295802D01*
X477627D01*
X477102Y296327D01*
Y297376D01*
X477627Y297901D01*
X479726D01*
X520573Y276624D02*
Y273475D01*
X518998D01*
X518473Y274000D01*
Y275050D01*
X518998Y275574D01*
X520573D01*
X519523D02*
X518473Y276624D01*
X517424Y274000D02*
X516899Y273475D01*
X515850D01*
X515325Y274000D01*
Y274525D01*
X515850Y275050D01*
X515325Y275574D01*
Y276099D01*
X515850Y276624D01*
X516899D01*
X517424Y276099D01*
Y275574D01*
X516899Y275050D01*
X517424Y274525D01*
Y274000D01*
X516899Y275050D02*
X515850D01*
X538066Y218650D02*
Y217601D01*
Y218125D01*
X534918D01*
Y218650D01*
Y217601D01*
X537542Y213927D02*
X538066Y214452D01*
Y215502D01*
X537542Y216026D01*
X535443D01*
X534918Y215502D01*
Y214452D01*
X535443Y213927D01*
X537542Y210779D02*
X538066Y211303D01*
Y212353D01*
X537542Y212878D01*
X537017D01*
X536492Y212353D01*
Y211303D01*
X535967Y210779D01*
X535443D01*
X534918Y211303D01*
Y212353D01*
X535443Y212878D01*
X534918Y209729D02*
X538066D01*
Y208155D01*
X537542Y207630D01*
X536492D01*
X535967Y208155D01*
Y209729D01*
X530186Y200181D02*
X530711Y199656D01*
X531760D01*
X532285Y200181D01*
Y202280D01*
X531760Y202805D01*
X530711D01*
X530186Y202280D01*
X527038Y199656D02*
X529137D01*
Y201231D01*
X528087Y200706D01*
X527562D01*
X527038Y201231D01*
Y202280D01*
X527562Y202805D01*
X528612D01*
X529137Y202280D01*
X534939Y187845D02*
Y190994D01*
X533364D01*
X532840Y190469D01*
Y188370D01*
X533364Y187845D01*
X534939D01*
X530216Y190994D02*
Y187845D01*
X531790Y189420D01*
X529691D01*
X541734Y304084D02*
Y300936D01*
X540160D01*
X539635Y301461D01*
Y302510D01*
X540160Y303035D01*
X541734D01*
X540685D02*
X539635Y304084D01*
X537011D02*
Y300936D01*
X538585Y302510D01*
X536486D01*
X541734Y308809D02*
Y305660D01*
X540160D01*
X539635Y306185D01*
Y307235D01*
X540160Y307759D01*
X541734D01*
X540685D02*
X539635Y308809D01*
X538585Y306185D02*
X538061Y305660D01*
X537011D01*
X536486Y306185D01*
Y306710D01*
X537011Y307235D01*
X537536D01*
X537011D01*
X536486Y307759D01*
Y308284D01*
X537011Y308809D01*
X538061D01*
X538585Y308284D01*
X545277Y298573D02*
Y295424D01*
X543703D01*
X543178Y295949D01*
Y296998D01*
X543703Y297523D01*
X545277D01*
X544228D02*
X543178Y298573D01*
X542129Y295424D02*
X540030D01*
Y295949D01*
X542129Y298048D01*
Y298573D01*
X545277Y292077D02*
Y288928D01*
X543703D01*
X543178Y289453D01*
Y290502D01*
X543703Y291027D01*
X545277D01*
X544228D02*
X543178Y292077D01*
X540030Y288928D02*
X541079Y289453D01*
X542129Y290502D01*
Y291552D01*
X541604Y292077D01*
X540554D01*
X540030Y291552D01*
Y291027D01*
X540554Y290502D01*
X542129D01*
X545277Y285581D02*
Y282432D01*
X543703D01*
X543178Y282957D01*
Y284006D01*
X543703Y284531D01*
X545277D01*
X544228D02*
X543178Y285581D01*
X540030Y282432D02*
X542129D01*
Y284006D01*
X541079Y283482D01*
X540554D01*
X540030Y284006D01*
Y285056D01*
X540554Y285581D01*
X541604D01*
X542129Y285056D01*
X521393Y287024D02*
X518245D01*
Y285450D01*
X518769Y284925D01*
X520868D01*
X521393Y285450D01*
Y287024D01*
X520868Y283875D02*
X521393Y283350D01*
Y282301D01*
X520868Y281776D01*
X520344D01*
X519819Y282301D01*
Y282826D01*
Y282301D01*
X519294Y281776D01*
X518769D01*
X518245Y282301D01*
Y283350D01*
X518769Y283875D01*
X514307Y287024D02*
X511158D01*
Y285450D01*
X511683Y284925D01*
X513782D01*
X514307Y285450D01*
Y287024D01*
X511158Y281776D02*
Y283875D01*
X513257Y281776D01*
X513782D01*
X514307Y282301D01*
Y283350D01*
X513782Y283875D01*
X507220Y286991D02*
X504071D01*
Y285417D01*
X504596Y284892D01*
X506695D01*
X507220Y285417D01*
Y286991D01*
X504071Y283843D02*
Y282793D01*
Y283318D01*
X507220D01*
X506695Y283843D01*
X499444Y230790D02*
X498920D01*
X497870Y229741D01*
X498920Y228691D01*
X499444D01*
X497870Y229741D02*
X496296D01*
Y227642D02*
Y226592D01*
Y227117D01*
X499444D01*
X498920Y227642D01*
X525822Y255830D02*
X523199D01*
X522674Y255305D01*
Y254256D01*
X523199Y253731D01*
X525822D01*
X522674Y252681D02*
Y251632D01*
Y252156D01*
X525822D01*
X525297Y252681D01*
X531891Y327313D02*
Y324164D01*
X530317D01*
X529792Y324689D01*
Y325739D01*
X530317Y326263D01*
X531891D01*
X530842D02*
X529792Y327313D01*
X526644D02*
X528743D01*
X526644Y325214D01*
Y324689D01*
X527169Y324164D01*
X528218D01*
X528743Y324689D01*
X497182Y329511D02*
X500330D01*
Y327937D01*
X499805Y327412D01*
X498756D01*
X498231Y327937D01*
Y329511D01*
Y328461D02*
X497182Y327412D01*
Y326362D02*
Y325313D01*
Y325837D01*
X500330D01*
X499805Y326362D01*
X543440Y348376D02*
Y349426D01*
Y348901D01*
X540817D01*
X540292Y349426D01*
Y349951D01*
X540817Y350476D01*
X540292Y347327D02*
Y346277D01*
Y346802D01*
X543440D01*
X542916Y347327D01*
X521655Y309991D02*
X520606D01*
X521130D01*
Y313140D01*
X521655D01*
X520606D01*
X516932Y310516D02*
X517457Y309991D01*
X518506D01*
X519031Y310516D01*
Y312615D01*
X518506Y313140D01*
X517457D01*
X516932Y312615D01*
X515883Y313140D02*
X514833D01*
X515358D01*
Y309991D01*
X515883Y310516D01*
X500167Y219217D02*
X500691Y218692D01*
X501741D01*
X502266Y219217D01*
Y221316D01*
X501741Y221840D01*
X500691D01*
X500167Y221316D01*
X499117D02*
X498592Y221840D01*
X497543D01*
X497018Y221316D01*
Y219217D01*
X497543Y218692D01*
X498592D01*
X499117Y219217D01*
Y219741D01*
X498592Y220266D01*
X497018D01*
X482778Y240732D02*
X483303Y241257D01*
Y242306D01*
X482778Y242831D01*
X480679D01*
X480154Y242306D01*
Y241257D01*
X480679Y240732D01*
X482778Y239682D02*
X483303Y239158D01*
Y238108D01*
X482778Y237583D01*
X482253D01*
X481728Y238108D01*
X481204Y237583D01*
X480679D01*
X480154Y238108D01*
Y239158D01*
X480679Y239682D01*
X481204D01*
X481728Y239158D01*
X482253Y239682D01*
X482778D01*
X481728Y239158D02*
Y238108D01*
X541341Y251106D02*
X541866Y251631D01*
Y252680D01*
X541341Y253205D01*
X539242D01*
X538717Y252680D01*
Y251631D01*
X539242Y251106D01*
X541866Y250056D02*
Y247957D01*
X541341D01*
X539242Y250056D01*
X538717D01*
X493506Y254256D02*
X494031Y254780D01*
Y255830D01*
X493506Y256354D01*
X491407D01*
X490882Y255830D01*
Y254780D01*
X491407Y254256D01*
X494031Y251107D02*
X493506Y252156D01*
X492457Y253206D01*
X491407D01*
X490882Y252681D01*
Y251632D01*
X491407Y251107D01*
X491932D01*
X492457Y251632D01*
Y253206D01*
X529792Y330791D02*
X530317Y330267D01*
X531367D01*
X531891Y330791D01*
Y332891D01*
X531367Y333415D01*
X530317D01*
X529792Y332891D01*
X527169Y333415D02*
Y330267D01*
X528743Y331841D01*
X526644D01*
X494490Y327838D02*
X495015Y328363D01*
Y329412D01*
X494490Y329937D01*
X492391D01*
X491867Y329412D01*
Y328363D01*
X492391Y327838D01*
X494490Y326789D02*
X495015Y326264D01*
Y325214D01*
X494490Y324690D01*
X493966D01*
X493441Y325214D01*
Y325739D01*
Y325214D01*
X492916Y324690D01*
X492391D01*
X491867Y325214D01*
Y326264D01*
X492391Y326789D01*
X493014Y295424D02*
X493539Y295948D01*
Y296998D01*
X493014Y297523D01*
X490915D01*
X490390Y296998D01*
Y295948D01*
X490915Y295424D01*
X490390Y294374D02*
Y293325D01*
Y293849D01*
X493539D01*
X493014Y294374D01*
X500593Y301362D02*
X501118Y301887D01*
Y302936D01*
X500593Y303461D01*
X498494D01*
X497969Y302936D01*
Y301887D01*
X498494Y301362D01*
X497969Y298213D02*
Y300312D01*
X500068Y298213D01*
X500593D01*
X501118Y298738D01*
Y299787D01*
X500593Y300312D01*
D53*
X531095Y89088D02*
D03*
X238118Y89088D02*
D03*
D54*
X81299Y189420D02*
D03*
X191535D02*
D03*
X301772D02*
D03*
X412008D02*
D03*
X522244D02*
D03*
M02*
