G04*
G04 #@! TF.GenerationSoftware,Altium Limited,Altium Designer,21.0.8 (223)*
G04*
G04 Layer_Color=8421504*
%FSLAX25Y25*%
%MOIN*%
G70*
G04*
G04 #@! TF.SameCoordinates,FF83F617-0E9F-4FC0-9F70-085B7F74A640*
G04*
G04*
G04 #@! TF.FilePolarity,Positive*
G04*
G01*
G75*
%ADD10C,0.11811*%
%ADD38R,0.04921X0.01181*%
%ADD39R,0.03150X0.02559*%
%ADD40R,0.01772X0.05315*%
%ADD41R,0.05315X0.01772*%
%ADD42R,0.02953X0.03150*%
%ADD43R,0.09252X0.05906*%
%ADD44R,0.03347X0.03937*%
%ADD45R,0.03150X0.02953*%
%ADD46R,0.03740X0.06299*%
%ADD47R,0.06299X0.03740*%
D10*
X11811Y11811D02*
D03*
X578740Y11811D02*
D03*
Y381890D02*
D03*
X11811Y381890D02*
D03*
D38*
X91276Y234597D02*
D03*
Y237156D02*
D03*
Y239715D02*
D03*
Y242274D02*
D03*
Y244833D02*
D03*
Y247392D02*
D03*
Y249951D02*
D03*
Y252510D02*
D03*
X68441Y234597D02*
D03*
Y237156D02*
D03*
Y239715D02*
D03*
Y242274D02*
D03*
Y244833D02*
D03*
Y247392D02*
D03*
Y249951D02*
D03*
Y252510D02*
D03*
X201512Y234597D02*
D03*
Y237156D02*
D03*
Y239715D02*
D03*
Y242274D02*
D03*
Y244833D02*
D03*
Y247392D02*
D03*
Y249951D02*
D03*
Y252510D02*
D03*
X178677Y234597D02*
D03*
Y237156D02*
D03*
Y239715D02*
D03*
Y242274D02*
D03*
Y244833D02*
D03*
Y247392D02*
D03*
Y249951D02*
D03*
Y252510D02*
D03*
X311748Y234597D02*
D03*
Y237156D02*
D03*
Y239715D02*
D03*
Y242274D02*
D03*
Y244833D02*
D03*
Y247392D02*
D03*
Y249951D02*
D03*
Y252510D02*
D03*
X288913Y234597D02*
D03*
Y237156D02*
D03*
Y239715D02*
D03*
Y242274D02*
D03*
Y244833D02*
D03*
Y247392D02*
D03*
Y249951D02*
D03*
Y252510D02*
D03*
X421984Y234597D02*
D03*
Y237156D02*
D03*
Y239715D02*
D03*
Y242274D02*
D03*
Y244833D02*
D03*
Y247392D02*
D03*
Y249951D02*
D03*
Y252510D02*
D03*
X399150Y234597D02*
D03*
Y237156D02*
D03*
Y239715D02*
D03*
Y242274D02*
D03*
Y244833D02*
D03*
Y247392D02*
D03*
Y249951D02*
D03*
Y252510D02*
D03*
X532221Y234597D02*
D03*
Y237156D02*
D03*
Y239715D02*
D03*
Y242274D02*
D03*
Y244833D02*
D03*
Y247392D02*
D03*
Y249951D02*
D03*
Y252510D02*
D03*
X509386Y234597D02*
D03*
Y237156D02*
D03*
Y239715D02*
D03*
Y242274D02*
D03*
Y244833D02*
D03*
Y247392D02*
D03*
Y249951D02*
D03*
Y252510D02*
D03*
D39*
X81827Y229085D02*
D03*
Y222786D02*
D03*
X74740Y229085D02*
D03*
Y222786D02*
D03*
X67654Y229085D02*
D03*
Y222786D02*
D03*
X192063Y229085D02*
D03*
Y222786D02*
D03*
X184976Y229085D02*
D03*
Y222786D02*
D03*
X177890Y229085D02*
D03*
Y222786D02*
D03*
X302299Y229085D02*
D03*
Y222786D02*
D03*
X295213Y229085D02*
D03*
Y222786D02*
D03*
X288126Y229085D02*
D03*
Y222786D02*
D03*
X412535Y229085D02*
D03*
Y222786D02*
D03*
X405449Y229085D02*
D03*
Y222786D02*
D03*
X398362Y229085D02*
D03*
Y222786D02*
D03*
X522772Y229085D02*
D03*
Y222786D02*
D03*
X515685Y229085D02*
D03*
Y222786D02*
D03*
X508598Y229085D02*
D03*
Y222786D02*
D03*
D40*
X86256Y161211D02*
D03*
X83106D02*
D03*
X89406D02*
D03*
X76807D02*
D03*
X73657D02*
D03*
X79957D02*
D03*
X70508D02*
D03*
X67358D02*
D03*
X89406Y194676D02*
D03*
X83106D02*
D03*
X79957D02*
D03*
X86256D02*
D03*
X73657D02*
D03*
X70508D02*
D03*
X76807D02*
D03*
X67358D02*
D03*
X196492Y161211D02*
D03*
X193342D02*
D03*
X199642D02*
D03*
X187043D02*
D03*
X183894D02*
D03*
X190193D02*
D03*
X180744D02*
D03*
X177594D02*
D03*
X199642Y194676D02*
D03*
X193342D02*
D03*
X190193D02*
D03*
X196492D02*
D03*
X183894D02*
D03*
X180744D02*
D03*
X187043D02*
D03*
X177594D02*
D03*
X306728Y161211D02*
D03*
X303579D02*
D03*
X309878D02*
D03*
X297280D02*
D03*
X294130D02*
D03*
X300429D02*
D03*
X290980D02*
D03*
X287831D02*
D03*
X309878Y194676D02*
D03*
X303579D02*
D03*
X300429D02*
D03*
X306728D02*
D03*
X294130D02*
D03*
X290980D02*
D03*
X297280D02*
D03*
X287831D02*
D03*
X416964Y161211D02*
D03*
X413815D02*
D03*
X420114D02*
D03*
X407516D02*
D03*
X404366D02*
D03*
X410665D02*
D03*
X401217D02*
D03*
X398067D02*
D03*
X420114Y194676D02*
D03*
X413815D02*
D03*
X410665D02*
D03*
X416964D02*
D03*
X404366D02*
D03*
X401217D02*
D03*
X407516D02*
D03*
X398067D02*
D03*
X527201Y161211D02*
D03*
X524051D02*
D03*
X530350D02*
D03*
X517752D02*
D03*
X514602D02*
D03*
X520901D02*
D03*
X511453D02*
D03*
X508303D02*
D03*
X530350Y194676D02*
D03*
X524051D02*
D03*
X520901D02*
D03*
X527201D02*
D03*
X514602D02*
D03*
X511453D02*
D03*
X517752D02*
D03*
X508303D02*
D03*
D41*
X95114Y179518D02*
D03*
Y176368D02*
D03*
Y182668D02*
D03*
Y170069D02*
D03*
Y166920D02*
D03*
Y173219D02*
D03*
X61650Y166920D02*
D03*
Y179518D02*
D03*
Y176368D02*
D03*
Y182668D02*
D03*
Y170069D02*
D03*
Y173219D02*
D03*
X95114Y188967D02*
D03*
Y185817D02*
D03*
X61650D02*
D03*
Y188967D02*
D03*
X205350Y179518D02*
D03*
Y176368D02*
D03*
Y182668D02*
D03*
Y170069D02*
D03*
Y166920D02*
D03*
Y173219D02*
D03*
X171886Y166920D02*
D03*
Y179518D02*
D03*
Y176368D02*
D03*
Y182668D02*
D03*
Y170069D02*
D03*
Y173219D02*
D03*
X205350Y188967D02*
D03*
Y185817D02*
D03*
X171886D02*
D03*
Y188967D02*
D03*
X315587Y179518D02*
D03*
Y176368D02*
D03*
Y182668D02*
D03*
Y170069D02*
D03*
Y166920D02*
D03*
Y173219D02*
D03*
X282122Y166920D02*
D03*
Y179518D02*
D03*
Y176368D02*
D03*
Y182668D02*
D03*
Y170069D02*
D03*
Y173219D02*
D03*
X315587Y188967D02*
D03*
Y185817D02*
D03*
X282122D02*
D03*
Y188967D02*
D03*
X425823Y179518D02*
D03*
Y176368D02*
D03*
Y182668D02*
D03*
Y170069D02*
D03*
Y166920D02*
D03*
Y173219D02*
D03*
X392358Y166920D02*
D03*
Y179518D02*
D03*
Y176368D02*
D03*
Y182668D02*
D03*
Y170069D02*
D03*
Y173219D02*
D03*
X425823Y188967D02*
D03*
Y185817D02*
D03*
X392358D02*
D03*
Y188967D02*
D03*
X536059Y179518D02*
D03*
Y176368D02*
D03*
Y182668D02*
D03*
Y170069D02*
D03*
Y166920D02*
D03*
Y173219D02*
D03*
X502595Y166920D02*
D03*
Y179518D02*
D03*
Y176368D02*
D03*
Y182668D02*
D03*
Y170069D02*
D03*
Y173219D02*
D03*
X536059Y188967D02*
D03*
Y185817D02*
D03*
X502595D02*
D03*
Y188967D02*
D03*
D42*
X82909Y201821D02*
D03*
X76807D02*
D03*
X54957Y152353D02*
D03*
X48854D02*
D03*
X104169Y244932D02*
D03*
X98067D02*
D03*
Y251132D02*
D03*
X104169D02*
D03*
X98362Y229085D02*
D03*
X92260D02*
D03*
X98362Y222589D02*
D03*
X92260D02*
D03*
X84780Y257825D02*
D03*
X78677D02*
D03*
Y263928D02*
D03*
X84780D02*
D03*
X98362Y216093D02*
D03*
X92260D02*
D03*
X193146Y201821D02*
D03*
X187043D02*
D03*
X165193Y152353D02*
D03*
X159090D02*
D03*
X214405Y244932D02*
D03*
X208303D02*
D03*
Y251132D02*
D03*
X214405D02*
D03*
X208598Y229085D02*
D03*
X202496D02*
D03*
X208598Y222589D02*
D03*
X202496D02*
D03*
X195016Y257825D02*
D03*
X188913D02*
D03*
Y263928D02*
D03*
X195016D02*
D03*
X208598Y216093D02*
D03*
X202496D02*
D03*
X303382Y201821D02*
D03*
X297280D02*
D03*
X275429Y152353D02*
D03*
X269327D02*
D03*
X324642Y244932D02*
D03*
X318539D02*
D03*
Y251132D02*
D03*
X324642D02*
D03*
X318835Y229085D02*
D03*
X312732D02*
D03*
X318835Y222589D02*
D03*
X312732D02*
D03*
X305252Y257825D02*
D03*
X299150D02*
D03*
Y263928D02*
D03*
X305252D02*
D03*
X318835Y216093D02*
D03*
X312732D02*
D03*
X413618Y201821D02*
D03*
X407516D02*
D03*
X385665Y152353D02*
D03*
X379563D02*
D03*
X434878Y244932D02*
D03*
X428776D02*
D03*
Y251132D02*
D03*
X434878D02*
D03*
X429071Y229085D02*
D03*
X422968D02*
D03*
X429071Y222589D02*
D03*
X422968D02*
D03*
X415488Y257825D02*
D03*
X409386D02*
D03*
Y263928D02*
D03*
X415488D02*
D03*
X429071Y216093D02*
D03*
X422968D02*
D03*
X523854Y201821D02*
D03*
X517752D02*
D03*
X495902Y152353D02*
D03*
X489799D02*
D03*
X545114Y244932D02*
D03*
X539012D02*
D03*
Y251132D02*
D03*
X545114D02*
D03*
X539307Y229085D02*
D03*
X533205D02*
D03*
X539307Y222589D02*
D03*
X533205D02*
D03*
X525724Y257825D02*
D03*
X519622D02*
D03*
Y263928D02*
D03*
X525724D02*
D03*
X539307Y216093D02*
D03*
X533205D02*
D03*
D43*
X84819Y121506D02*
D03*
X70055D02*
D03*
X195055D02*
D03*
X180291D02*
D03*
X305291D02*
D03*
X290528D02*
D03*
X415527D02*
D03*
X400764D02*
D03*
X525764D02*
D03*
X511000D02*
D03*
D44*
X54957Y158750D02*
D03*
X49839D02*
D03*
X54957Y165640D02*
D03*
X49839D02*
D03*
X165193Y158750D02*
D03*
X160075D02*
D03*
X165193Y165640D02*
D03*
X160075D02*
D03*
X275429Y158750D02*
D03*
X270311D02*
D03*
X275429Y165640D02*
D03*
X270311D02*
D03*
X385665Y158750D02*
D03*
X380547D02*
D03*
X385665Y165640D02*
D03*
X380547D02*
D03*
X495902Y158750D02*
D03*
X490783D02*
D03*
X495902Y165640D02*
D03*
X490783D02*
D03*
D45*
X54465Y173416D02*
D03*
Y179518D02*
D03*
X43736Y159538D02*
D03*
Y165640D02*
D03*
X102299Y170069D02*
D03*
Y176172D02*
D03*
X66571Y257825D02*
D03*
Y263928D02*
D03*
X72673Y257825D02*
D03*
Y263928D02*
D03*
X61551Y244833D02*
D03*
Y238731D02*
D03*
X164701Y173416D02*
D03*
Y179518D02*
D03*
X153972Y159538D02*
D03*
Y165640D02*
D03*
X212535Y170069D02*
D03*
Y176172D02*
D03*
X176807Y257825D02*
D03*
Y263928D02*
D03*
X182909Y257825D02*
D03*
Y263928D02*
D03*
X171787Y244833D02*
D03*
Y238731D02*
D03*
X274937Y173416D02*
D03*
Y179518D02*
D03*
X264209Y159538D02*
D03*
Y165640D02*
D03*
X322772Y170069D02*
D03*
Y176172D02*
D03*
X287043Y257825D02*
D03*
Y263928D02*
D03*
X293146Y257825D02*
D03*
Y263928D02*
D03*
X282024Y244833D02*
D03*
Y238731D02*
D03*
X385173Y173416D02*
D03*
Y179518D02*
D03*
X374445Y159538D02*
D03*
Y165640D02*
D03*
X433008Y170069D02*
D03*
Y176172D02*
D03*
X397280Y257825D02*
D03*
Y263928D02*
D03*
X403382Y257825D02*
D03*
Y263928D02*
D03*
X392260Y244833D02*
D03*
Y238731D02*
D03*
X495409Y173416D02*
D03*
Y179518D02*
D03*
X484681Y159538D02*
D03*
Y165640D02*
D03*
X543244Y170069D02*
D03*
Y176172D02*
D03*
X507516Y257825D02*
D03*
Y263928D02*
D03*
X513618Y257825D02*
D03*
Y263928D02*
D03*
X502496Y244833D02*
D03*
Y238731D02*
D03*
D46*
X73205Y133317D02*
D03*
X84819D02*
D03*
X183441D02*
D03*
X195055D02*
D03*
X293677D02*
D03*
X305291D02*
D03*
X403913D02*
D03*
X415527D02*
D03*
X514150D02*
D03*
X525764D02*
D03*
D47*
X53874Y244833D02*
D03*
Y233219D02*
D03*
X164110Y244833D02*
D03*
Y233219D02*
D03*
X274346Y244833D02*
D03*
Y233219D02*
D03*
X384583Y244833D02*
D03*
Y233219D02*
D03*
X494819Y244833D02*
D03*
Y233219D02*
D03*
M02*
