G04*
G04 #@! TF.GenerationSoftware,Altium Limited,Altium Designer,20.2.6 (244)*
G04*
G04 Layer_Color=32896*
%FSLAX25Y25*%
%MOIN*%
G70*
G04*
G04 #@! TF.SameCoordinates,1A3BA952-A66C-493A-B53E-150E5816C36F*
G04*
G04*
G04 #@! TF.FilePolarity,Positive*
G04*
G01*
G75*
%ADD53C,0.00787*%
D53*
X176694Y59596D02*
X177481Y60383D01*
X179055D01*
X179842Y59596D01*
Y56448D01*
X179055Y55660D01*
X177481D01*
X176694Y56448D01*
Y58022D01*
X178268D01*
X175120Y55660D02*
Y60383D01*
X171971Y55660D01*
Y60383D01*
X170397D02*
Y55660D01*
X168035D01*
X167248Y56448D01*
Y59596D01*
X168035Y60383D01*
X170397D01*
X179823Y50196D02*
X179036Y50983D01*
X177461D01*
X176674Y50196D01*
Y49408D01*
X177461Y48621D01*
X178249D01*
X177461D01*
X176674Y47834D01*
Y47047D01*
X177461Y46260D01*
X179036D01*
X179823Y47047D01*
X175100Y46260D02*
Y47047D01*
X174313D01*
Y46260D01*
X175100D01*
X171164Y50196D02*
X170377Y50983D01*
X168803D01*
X168016Y50196D01*
Y49408D01*
X168803Y48621D01*
X169590D01*
X168803D01*
X168016Y47834D01*
Y47047D01*
X168803Y46260D01*
X170377D01*
X171164Y47047D01*
X176280Y40747D02*
X179429D01*
Y38385D01*
X177855D01*
X179429D01*
Y36024D01*
X174706Y40747D02*
Y37598D01*
X173132Y36024D01*
X171558Y37598D01*
Y40747D01*
X169983Y36024D02*
X168409D01*
X169196D01*
Y40747D01*
X169983Y39959D01*
X176280Y30117D02*
X177068Y30904D01*
X178642D01*
X179429Y30117D01*
Y29330D01*
X178642Y28543D01*
X177068D01*
X176280Y27755D01*
Y26968D01*
X177068Y26181D01*
X178642D01*
X179429Y26968D01*
X174706Y30904D02*
Y26181D01*
X172345D01*
X171558Y26968D01*
Y30117D01*
X172345Y30904D01*
X174706D01*
X169983Y26181D02*
Y29330D01*
X168409Y30904D01*
X166835Y29330D01*
Y26181D01*
Y28543D01*
X169983D01*
X176280Y20274D02*
X177068Y21061D01*
X178642D01*
X179429Y20274D01*
Y19487D01*
X178642Y18700D01*
X177068D01*
X176280Y17913D01*
Y17126D01*
X177068Y16339D01*
X178642D01*
X179429Y17126D01*
X171558Y20274D02*
X172345Y21061D01*
X173919D01*
X174706Y20274D01*
Y17126D01*
X173919Y16339D01*
X172345D01*
X171558Y17126D01*
X169983Y21061D02*
Y16339D01*
X166835D01*
M02*
