G04*
G04 #@! TF.GenerationSoftware,Altium Limited,Altium Designer,20.2.6 (244)*
G04*
G04 Layer_Color=8421504*
%FSLAX25Y25*%
%MOIN*%
G70*
G04*
G04 #@! TF.SameCoordinates,1A3BA952-A66C-493A-B53E-150E5816C36F*
G04*
G04*
G04 #@! TF.FilePolarity,Positive*
G04*
G01*
G75*
%ADD15R,0.01772X0.05512*%
%ADD16R,0.03150X0.03740*%
%ADD17R,0.05906X0.02362*%
%ADD18R,0.02362X0.05906*%
%ADD19R,0.03740X0.03543*%
%ADD20R,0.06496X0.09843*%
%ADD21R,0.04528X0.03937*%
%ADD22R,0.03543X0.03740*%
%ADD23R,0.06890X0.04331*%
%ADD24R,0.04331X0.06890*%
D15*
X58563Y54921D02*
D03*
X56004D02*
D03*
X53445D02*
D03*
X50886D02*
D03*
X48327D02*
D03*
X45768D02*
D03*
X43209D02*
D03*
X40650D02*
D03*
X58563Y32087D02*
D03*
X56004D02*
D03*
X53445D02*
D03*
X50886D02*
D03*
X48327D02*
D03*
X45768D02*
D03*
X43209D02*
D03*
X40650D02*
D03*
D16*
X64075Y45472D02*
D03*
X70374D02*
D03*
X64075Y38386D02*
D03*
X70374D02*
D03*
X64075Y31299D02*
D03*
X70374D02*
D03*
D17*
X131949Y49902D02*
D03*
Y46752D02*
D03*
Y53051D02*
D03*
Y40453D02*
D03*
Y37303D02*
D03*
Y43602D02*
D03*
Y34154D02*
D03*
Y31004D02*
D03*
X98484Y53051D02*
D03*
Y46752D02*
D03*
Y43602D02*
D03*
Y49902D02*
D03*
Y37303D02*
D03*
Y34154D02*
D03*
Y40453D02*
D03*
Y31004D02*
D03*
D18*
X113642Y58760D02*
D03*
X116791D02*
D03*
X110492D02*
D03*
X123091D02*
D03*
X126240D02*
D03*
X119941D02*
D03*
X126240Y25295D02*
D03*
X113642D02*
D03*
X116791D02*
D03*
X110492D02*
D03*
X123091D02*
D03*
X119941D02*
D03*
X104193Y58760D02*
D03*
X107343D02*
D03*
Y25295D02*
D03*
X104193D02*
D03*
D19*
X91339Y46555D02*
D03*
Y40453D02*
D03*
X140807Y18602D02*
D03*
Y12500D02*
D03*
X48228Y67815D02*
D03*
Y61713D02*
D03*
X42028D02*
D03*
Y67815D02*
D03*
X64075Y62008D02*
D03*
Y55905D02*
D03*
X70571Y62008D02*
D03*
Y55905D02*
D03*
X35335Y48425D02*
D03*
Y42323D02*
D03*
X29232D02*
D03*
Y48425D02*
D03*
X77067Y62008D02*
D03*
Y55905D02*
D03*
D20*
X171653Y48465D02*
D03*
Y33701D02*
D03*
D21*
X134409Y18602D02*
D03*
Y13484D02*
D03*
X127520Y18602D02*
D03*
Y13484D02*
D03*
D22*
X119744Y18110D02*
D03*
X113642D02*
D03*
X133622Y7382D02*
D03*
X127520D02*
D03*
X123091Y65945D02*
D03*
X116988D02*
D03*
X35335Y30217D02*
D03*
X29232D02*
D03*
X35335Y36319D02*
D03*
X29232D02*
D03*
X48327Y25197D02*
D03*
X54429D02*
D03*
D23*
X159843Y36850D02*
D03*
Y48465D02*
D03*
D24*
X48327Y17520D02*
D03*
X59941D02*
D03*
M02*
