G04*
G04 #@! TF.GenerationSoftware,Altium Limited,Altium Designer,20.2.6 (244)*
G04*
G04 Layer_Physical_Order=2*
G04 Layer_Color=16711680*
%FSLAX25Y25*%
%MOIN*%
G70*
G04*
G04 #@! TF.SameCoordinates,E77E425F-5BF8-4267-B911-1ADF0C2AC1BB*
G04*
G04*
G04 #@! TF.FilePolarity,Positive*
G04*
G01*
G75*
%ADD10C,0.11811*%
G04:AMPARAMS|DCode=14|XSize=31.5mil|YSize=59.06mil|CornerRadius=15.75mil|HoleSize=0mil|Usage=FLASHONLY|Rotation=360.000|XOffset=0mil|YOffset=0mil|HoleType=Round|Shape=RoundedRectangle|*
%AMROUNDEDRECTD14*
21,1,0.03150,0.02756,0,0,360.0*
21,1,0.00000,0.05906,0,0,360.0*
1,1,0.03150,0.00000,-0.01378*
1,1,0.03150,0.00000,-0.01378*
1,1,0.03150,0.00000,0.01378*
1,1,0.03150,0.00000,0.01378*
%
%ADD14ROUNDEDRECTD14*%
%ADD24C,0.00598*%
%ADD25C,0.02000*%
G04:AMPARAMS|DCode=36|XSize=31.5mil|YSize=59.06mil|CornerRadius=15.75mil|HoleSize=0mil|Usage=FLASHONLY|Rotation=270.000|XOffset=0mil|YOffset=0mil|HoleType=Round|Shape=RoundedRectangle|*
%AMROUNDEDRECTD36*
21,1,0.03150,0.02756,0,0,270.0*
21,1,0.00000,0.05906,0,0,270.0*
1,1,0.03150,-0.01378,0.00000*
1,1,0.03150,-0.01378,0.00000*
1,1,0.03150,0.01378,0.00000*
1,1,0.03150,0.01378,0.00000*
%
%ADD36ROUNDEDRECTD36*%
%ADD39C,0.01968*%
%ADD40C,0.02362*%
%ADD41O,0.12598X0.05118*%
%ADD42R,0.06791X0.06791*%
%ADD43C,0.06791*%
%ADD44C,0.03543*%
%ADD45O,0.05118X0.12598*%
%ADD46R,0.06791X0.06791*%
G36*
X543426Y354085D02*
X543487Y353778D01*
X543661Y353517D01*
X543921Y353343D01*
X544228Y353282D01*
X550315D01*
X550315Y272211D01*
X545213Y272211D01*
X544905Y272150D01*
X544645Y271975D01*
X544471Y271715D01*
X544410Y271408D01*
Y257628D01*
X544471Y257321D01*
X544645Y257061D01*
X544905Y256887D01*
X545213Y256826D01*
X550315D01*
Y200360D01*
X536354D01*
X536047Y200299D01*
X535787Y200125D01*
X535613Y199865D01*
X535552Y199557D01*
Y193652D01*
X535613Y193345D01*
X535787Y193084D01*
X536047Y192910D01*
X536354Y192849D01*
X550315D01*
Y176738D01*
X543244D01*
X542937Y176677D01*
X542676Y176503D01*
X542502Y176243D01*
X542441Y175935D01*
Y168864D01*
X483023D01*
Y175935D01*
X482962Y176243D01*
X482788Y176503D01*
X482528Y176677D01*
X482220Y176738D01*
X475149D01*
Y192849D01*
X489110D01*
X489417Y192910D01*
X489678Y193084D01*
X489852Y193345D01*
X489913Y193652D01*
Y199557D01*
X489852Y199865D01*
X489678Y200125D01*
X489417Y200299D01*
X489110Y200360D01*
X475149Y200360D01*
X475149Y256826D01*
X480252Y256826D01*
X480559Y256887D01*
X480820Y257061D01*
X480994Y257321D01*
X481055Y257628D01*
X481055Y271408D01*
X480994Y271715D01*
X480820Y271976D01*
X480559Y272150D01*
X480252Y272211D01*
X475149Y272211D01*
X475149Y353282D01*
X481236D01*
X481543Y353343D01*
X481804Y353517D01*
X481978Y353778D01*
X482039Y354085D01*
Y360271D01*
X543426D01*
Y354085D01*
D02*
G37*
G36*
X433189D02*
X433250Y353778D01*
X433424Y353517D01*
X433685Y353343D01*
X433992Y353282D01*
X440079D01*
X440079Y272211D01*
X434976Y272211D01*
X434669Y272150D01*
X434409Y271975D01*
X434235Y271715D01*
X434174Y271408D01*
Y257628D01*
X434235Y257321D01*
X434409Y257061D01*
X434669Y256887D01*
X434976Y256826D01*
X440079D01*
Y200360D01*
X426118D01*
X425811Y200299D01*
X425551Y200125D01*
X425376Y199865D01*
X425315Y199557D01*
Y193652D01*
X425376Y193345D01*
X425551Y193084D01*
X425811Y192910D01*
X426118Y192849D01*
X440079D01*
Y176738D01*
X433008D01*
X432701Y176677D01*
X432440Y176503D01*
X432266Y176243D01*
X432205Y175935D01*
Y168864D01*
X372787D01*
Y175935D01*
X372726Y176243D01*
X372552Y176503D01*
X372291Y176677D01*
X371984Y176738D01*
X364913D01*
Y192849D01*
X378874D01*
X379181Y192910D01*
X379442Y193084D01*
X379616Y193345D01*
X379677Y193652D01*
Y199557D01*
X379616Y199865D01*
X379442Y200125D01*
X379181Y200299D01*
X378874Y200360D01*
X364913Y200360D01*
X364913Y256826D01*
X370016Y256826D01*
X370323Y256887D01*
X370583Y257061D01*
X370757Y257321D01*
X370818Y257628D01*
X370818Y271408D01*
X370757Y271715D01*
X370583Y271976D01*
X370323Y272150D01*
X370016Y272211D01*
X364913Y272211D01*
X364913Y353282D01*
X371000D01*
X371307Y353343D01*
X371568Y353517D01*
X371742Y353778D01*
X371803Y354085D01*
Y360271D01*
X433189D01*
Y354085D01*
D02*
G37*
G36*
X322953D02*
X323014Y353778D01*
X323188Y353517D01*
X323449Y353343D01*
X323756Y353282D01*
X329843D01*
X329843Y272211D01*
X324740Y272211D01*
X324433Y272150D01*
X324172Y271975D01*
X323998Y271715D01*
X323937Y271408D01*
Y257628D01*
X323998Y257321D01*
X324172Y257061D01*
X324433Y256887D01*
X324740Y256826D01*
X329843D01*
Y200360D01*
X315882D01*
X315575Y200299D01*
X315314Y200125D01*
X315140Y199865D01*
X315079Y199557D01*
Y193652D01*
X315140Y193345D01*
X315314Y193084D01*
X315575Y192910D01*
X315882Y192849D01*
X329843D01*
Y176738D01*
X322772D01*
X322464Y176677D01*
X322204Y176503D01*
X322030Y176243D01*
X321969Y175935D01*
Y168864D01*
X262551D01*
Y175935D01*
X262490Y176243D01*
X262316Y176503D01*
X262055Y176677D01*
X261748Y176738D01*
X254677D01*
Y192849D01*
X268638D01*
X268945Y192910D01*
X269205Y193084D01*
X269379Y193345D01*
X269441Y193652D01*
Y199557D01*
X269379Y199865D01*
X269205Y200125D01*
X268945Y200299D01*
X268638Y200360D01*
X254677Y200360D01*
X254677Y256826D01*
X259779Y256826D01*
X260087Y256887D01*
X260347Y257061D01*
X260521Y257321D01*
X260582Y257628D01*
X260582Y271408D01*
X260521Y271715D01*
X260347Y271976D01*
X260087Y272150D01*
X259779Y272211D01*
X254677Y272211D01*
X254677Y353282D01*
X260764D01*
X261071Y353343D01*
X261331Y353517D01*
X261505Y353778D01*
X261566Y354085D01*
Y360271D01*
X322953D01*
Y354085D01*
D02*
G37*
G36*
X212717D02*
X212778Y353778D01*
X212952Y353517D01*
X213212Y353343D01*
X213520Y353282D01*
X219607D01*
X219607Y272211D01*
X214504Y272211D01*
X214197Y272150D01*
X213936Y271975D01*
X213762Y271715D01*
X213701Y271408D01*
Y257628D01*
X213762Y257321D01*
X213936Y257061D01*
X214197Y256887D01*
X214504Y256826D01*
X219607D01*
Y200360D01*
X205646D01*
X205339Y200299D01*
X205078Y200125D01*
X204904Y199865D01*
X204843Y199557D01*
Y193652D01*
X204904Y193345D01*
X205078Y193084D01*
X205339Y192910D01*
X205646Y192849D01*
X219607D01*
Y176738D01*
X212536D01*
X212228Y176677D01*
X211968Y176503D01*
X211794Y176243D01*
X211733Y175935D01*
Y168864D01*
X152315D01*
Y175935D01*
X152253Y176243D01*
X152079Y176503D01*
X151819Y176677D01*
X151512Y176738D01*
X144441D01*
Y192849D01*
X158402D01*
X158709Y192910D01*
X158969Y193084D01*
X159143Y193345D01*
X159204Y193652D01*
Y199557D01*
X159143Y199865D01*
X158969Y200125D01*
X158709Y200299D01*
X158402Y200360D01*
X144440Y200360D01*
X144440Y256826D01*
X149543Y256826D01*
X149850Y256887D01*
X150111Y257061D01*
X150285Y257321D01*
X150346Y257628D01*
X150346Y271408D01*
X150285Y271715D01*
X150111Y271976D01*
X149850Y272150D01*
X149543Y272211D01*
X144440Y272211D01*
X144441Y353282D01*
X150528D01*
X150835Y353343D01*
X151095Y353517D01*
X151269Y353778D01*
X151330Y354085D01*
Y360271D01*
X212717D01*
Y354085D01*
D02*
G37*
G36*
X102481D02*
X102542Y353778D01*
X102716Y353517D01*
X102976Y353343D01*
X103284Y353282D01*
X109370D01*
X109370Y272211D01*
X104268Y272211D01*
X103961Y272150D01*
X103700Y271975D01*
X103526Y271715D01*
X103465Y271408D01*
Y257628D01*
X103526Y257321D01*
X103700Y257061D01*
X103961Y256887D01*
X104268Y256826D01*
X109370D01*
Y200360D01*
X95410D01*
X95102Y200299D01*
X94842Y200125D01*
X94668Y199865D01*
X94607Y199557D01*
Y193652D01*
X94668Y193345D01*
X94842Y193084D01*
X95102Y192910D01*
X95410Y192849D01*
X109370D01*
Y176738D01*
X102299D01*
X101992Y176677D01*
X101732Y176503D01*
X101558Y176243D01*
X101496Y175935D01*
Y168864D01*
X42078D01*
Y175935D01*
X42017Y176243D01*
X41843Y176503D01*
X41583Y176677D01*
X41276Y176738D01*
X34204D01*
Y192849D01*
X48165D01*
X48472Y192910D01*
X48733Y193084D01*
X48907Y193345D01*
X48968Y193652D01*
Y199557D01*
X48907Y199865D01*
X48733Y200125D01*
X48472Y200299D01*
X48165Y200360D01*
X34204Y200360D01*
X34204Y256826D01*
X39307Y256826D01*
X39614Y256887D01*
X39875Y257061D01*
X40049Y257321D01*
X40110Y257628D01*
X40110Y271408D01*
X40049Y271715D01*
X39875Y271976D01*
X39614Y272150D01*
X39307Y272211D01*
X34204Y272211D01*
X34204Y353282D01*
X40291D01*
X40598Y353343D01*
X40859Y353517D01*
X41033Y353778D01*
X41094Y354085D01*
Y360271D01*
X102481D01*
Y354085D01*
D02*
G37*
G36*
X543776Y110088D02*
X543837Y109781D01*
X544011Y109521D01*
X544272Y109346D01*
X544579Y109285D01*
X551650D01*
Y49867D01*
X544579D01*
X544272Y49806D01*
X544011Y49632D01*
X543837Y49372D01*
X543776Y49064D01*
Y41993D01*
X527665D01*
Y55954D01*
X527604Y56261D01*
X527430Y56522D01*
X527170Y56696D01*
X526863Y56757D01*
X520957D01*
X520650Y56696D01*
X520390Y56522D01*
X520215Y56261D01*
X520154Y55954D01*
X520154Y41993D01*
X463689Y41993D01*
X463689Y47096D01*
X463628Y47403D01*
X463454Y47664D01*
X463193Y47838D01*
X462886Y47899D01*
X449107Y47899D01*
X448800Y47838D01*
X448539Y47664D01*
X448365Y47403D01*
X448304Y47096D01*
X448304Y41993D01*
X367232Y41993D01*
Y48080D01*
X367171Y48388D01*
X366997Y48648D01*
X366737Y48822D01*
X366429Y48883D01*
X360244D01*
Y110270D01*
X366430D01*
X366737Y110331D01*
X366997Y110505D01*
X367171Y110765D01*
X367232Y111073D01*
Y117159D01*
X448304Y117159D01*
X448304Y112057D01*
X448365Y111749D01*
X448539Y111489D01*
X448800Y111315D01*
X449107Y111254D01*
X462886D01*
X463193Y111315D01*
X463454Y111489D01*
X463628Y111749D01*
X463689Y112057D01*
Y117159D01*
X520154D01*
Y103199D01*
X520215Y102891D01*
X520390Y102631D01*
X520650Y102457D01*
X520957Y102396D01*
X526863D01*
X527170Y102457D01*
X527430Y102631D01*
X527604Y102891D01*
X527665Y103199D01*
Y117159D01*
X543776D01*
Y110088D01*
D02*
G37*
G36*
X250799Y110088D02*
X250861Y109781D01*
X251035Y109521D01*
X251295Y109346D01*
X251602Y109285D01*
X258674D01*
Y49867D01*
X251602D01*
X251295Y49806D01*
X251035Y49632D01*
X250861Y49372D01*
X250799Y49064D01*
Y41993D01*
X234688D01*
Y55954D01*
X234627Y56261D01*
X234453Y56522D01*
X234193Y56696D01*
X233886Y56757D01*
X227980D01*
X227673Y56696D01*
X227413Y56522D01*
X227239Y56261D01*
X227177Y55954D01*
X227177Y41993D01*
X170712Y41993D01*
X170712Y47096D01*
X170651Y47403D01*
X170477Y47664D01*
X170217Y47838D01*
X169909Y47899D01*
X156130Y47899D01*
X155823Y47838D01*
X155562Y47664D01*
X155388Y47403D01*
X155327Y47096D01*
X155327Y41993D01*
X74255Y41993D01*
Y48080D01*
X74194Y48388D01*
X74020Y48648D01*
X73760Y48822D01*
X73453Y48883D01*
X67267D01*
Y110270D01*
X73453D01*
X73760Y110331D01*
X74020Y110505D01*
X74194Y110765D01*
X74256Y111073D01*
Y117159D01*
X155327Y117159D01*
X155327Y112057D01*
X155388Y111749D01*
X155562Y111489D01*
X155823Y111315D01*
X156130Y111254D01*
X169909D01*
X170217Y111315D01*
X170477Y111489D01*
X170651Y111749D01*
X170712Y112057D01*
Y117159D01*
X227177D01*
Y103199D01*
X227239Y102891D01*
X227413Y102631D01*
X227673Y102457D01*
X227980Y102396D01*
X233886D01*
X234193Y102457D01*
X234453Y102631D01*
X234627Y102891D01*
X234688Y103199D01*
Y117159D01*
X250799D01*
Y110088D01*
D02*
G37*
%LPC*%
G36*
X521591Y354217D02*
X520563Y354082D01*
X519605Y353685D01*
X518783Y353054D01*
X518152Y352232D01*
X517755Y351274D01*
X517620Y350247D01*
X517755Y349219D01*
X518152Y348261D01*
X518783Y347439D01*
X519605Y346808D01*
X520563Y346411D01*
X521591Y346275D01*
X522618Y346411D01*
X523576Y346808D01*
X524398Y347439D01*
X525030Y348261D01*
X525426Y349219D01*
X525562Y350247D01*
X525426Y351274D01*
X525030Y352232D01*
X524398Y353054D01*
X523576Y353685D01*
X522618Y354082D01*
X521591Y354217D01*
D02*
G37*
G36*
X503874D02*
X502846Y354082D01*
X501889Y353685D01*
X501066Y353054D01*
X500435Y352232D01*
X500038Y351274D01*
X499903Y350247D01*
X500038Y349219D01*
X500435Y348261D01*
X501066Y347439D01*
X501889Y346808D01*
X502846Y346411D01*
X503874Y346275D01*
X504902Y346411D01*
X505860Y346808D01*
X506682Y347439D01*
X507313Y348261D01*
X507710Y349219D01*
X507845Y350247D01*
X507710Y351274D01*
X507313Y352232D01*
X506682Y353054D01*
X505860Y353685D01*
X504902Y354082D01*
X503874Y354217D01*
D02*
G37*
G36*
X535567Y357171D02*
X534743Y357063D01*
X533975Y356745D01*
X533315Y356239D01*
X532809Y355579D01*
X532491Y354811D01*
X532382Y353987D01*
Y346506D01*
X532491Y345682D01*
X532809Y344914D01*
X533315Y344254D01*
X533975Y343748D01*
X534743Y343430D01*
X535567Y343322D01*
X536391Y343430D01*
X537159Y343748D01*
X537819Y344254D01*
X538325Y344914D01*
X538643Y345682D01*
X538752Y346506D01*
Y353987D01*
X538643Y354811D01*
X538325Y355579D01*
X537819Y356239D01*
X537159Y356745D01*
X536391Y357063D01*
X535567Y357171D01*
D02*
G37*
G36*
X489898D02*
X489073Y357063D01*
X488305Y356745D01*
X487646Y356239D01*
X487140Y355579D01*
X486821Y354811D01*
X486713Y353987D01*
Y346506D01*
X486821Y345682D01*
X487140Y344914D01*
X487646Y344254D01*
X488305Y343748D01*
X489073Y343430D01*
X489898Y343322D01*
X490722Y343430D01*
X491490Y343748D01*
X492150Y344254D01*
X492656Y344914D01*
X492974Y345682D01*
X493082Y346506D01*
Y353987D01*
X492974Y354811D01*
X492656Y355579D01*
X492150Y356239D01*
X491490Y356745D01*
X490722Y357063D01*
X489898Y357171D01*
D02*
G37*
G36*
X498559Y334553D02*
X497634Y334369D01*
X496850Y333845D01*
X496326Y333061D01*
X496142Y332136D01*
X496326Y331211D01*
X496850Y330428D01*
X497634Y329904D01*
X498559Y329720D01*
X498771Y329762D01*
X500922Y327610D01*
X501419Y327278D01*
X502004Y327162D01*
X502493D01*
X502988Y327063D01*
X537788D01*
X539787Y325064D01*
X539745Y324853D01*
X539929Y323928D01*
X540453Y323144D01*
X541237Y322620D01*
X542161Y322436D01*
X543086Y322620D01*
X543870Y323144D01*
X544394Y323928D01*
X544578Y324853D01*
X544394Y325778D01*
X543870Y326561D01*
X543086Y327085D01*
X542161Y327269D01*
X541950Y327227D01*
X539503Y329674D01*
X539007Y330006D01*
X538421Y330122D01*
X503483D01*
X502988Y330221D01*
X502637D01*
X500934Y331925D01*
X500976Y332136D01*
X500792Y333061D01*
X500268Y333845D01*
X499484Y334369D01*
X498559Y334553D01*
D02*
G37*
G36*
X521394Y312002D02*
X520699Y311864D01*
X520111Y311470D01*
X519717Y310882D01*
X519579Y310187D01*
X519689Y309635D01*
X506054Y296000D01*
X505877Y295736D01*
X505815Y295424D01*
Y272425D01*
X505347Y272112D01*
X504954Y271523D01*
X504815Y270829D01*
X504954Y270134D01*
X505347Y269546D01*
X505935Y269152D01*
X506630Y269014D01*
X507324Y269152D01*
X507913Y269546D01*
X508306Y270134D01*
X508444Y270829D01*
X508306Y271523D01*
X507913Y272112D01*
X507445Y272425D01*
Y295086D01*
X520842Y308483D01*
X521394Y308373D01*
X522088Y308511D01*
X522677Y308904D01*
X523070Y309493D01*
X523208Y310187D01*
X523070Y310882D01*
X522677Y311470D01*
X522088Y311864D01*
X521394Y312002D01*
D02*
G37*
G36*
X522968Y303931D02*
X522274Y303793D01*
X521686Y303399D01*
X521292Y302811D01*
X521154Y302117D01*
X521264Y301564D01*
X510384Y290685D01*
X510208Y290421D01*
X510146Y290109D01*
Y275673D01*
X509678Y275360D01*
X509284Y274771D01*
X509146Y274077D01*
X509284Y273382D01*
X509678Y272794D01*
X510266Y272401D01*
X510961Y272263D01*
X511655Y272401D01*
X512244Y272794D01*
X512637Y273382D01*
X512775Y274077D01*
X512637Y274771D01*
X512244Y275360D01*
X511775Y275673D01*
Y289771D01*
X522416Y300412D01*
X522968Y300302D01*
X523663Y300440D01*
X524252Y300834D01*
X524645Y301422D01*
X524783Y302117D01*
X524645Y302811D01*
X524252Y303399D01*
X523663Y303793D01*
X522968Y303931D01*
D02*
G37*
G36*
X514799Y258695D02*
X514105Y258557D01*
X513516Y258163D01*
X513123Y257575D01*
X512985Y256880D01*
X513123Y256186D01*
X513516Y255597D01*
X513984Y255285D01*
Y249663D01*
X514046Y249351D01*
X514223Y249086D01*
X532983Y230326D01*
X532873Y229774D01*
X533012Y229080D01*
X533405Y228491D01*
X533994Y228098D01*
X534688Y227960D01*
X535382Y228098D01*
X535971Y228491D01*
X536364Y229080D01*
X536502Y229774D01*
X536364Y230468D01*
X535971Y231057D01*
X535382Y231450D01*
X534688Y231588D01*
X534136Y231479D01*
X515614Y250000D01*
Y255285D01*
X516082Y255597D01*
X516475Y256186D01*
X516614Y256880D01*
X516475Y257575D01*
X516082Y258163D01*
X515493Y258557D01*
X514799Y258695D01*
D02*
G37*
G36*
X525724Y272151D02*
X524800Y271967D01*
X524016Y271443D01*
X523492Y270659D01*
X523308Y269735D01*
X523492Y268810D01*
X524016Y268026D01*
X524800Y267502D01*
X525724Y267318D01*
X525936Y267360D01*
X538762Y254534D01*
Y231012D01*
X538583Y230892D01*
X538059Y230108D01*
X537875Y229184D01*
X537917Y228972D01*
X523023Y214078D01*
X522811Y214120D01*
X521886Y213936D01*
X521102Y213412D01*
X520578Y212628D01*
X520395Y211703D01*
X520578Y210778D01*
X521102Y209995D01*
X521886Y209471D01*
X522811Y209287D01*
X523736Y209471D01*
X524520Y209995D01*
X525044Y210778D01*
X525227Y211703D01*
X525185Y211915D01*
X540080Y226809D01*
X540291Y226767D01*
X541216Y226951D01*
X542000Y227475D01*
X542527Y227442D01*
X544963Y225007D01*
Y222856D01*
X544819D01*
X544290Y222751D01*
X543857Y223140D01*
X543689Y223985D01*
X543211Y224701D01*
X542494Y225180D01*
X541650Y225348D01*
X540805Y225180D01*
X540089Y224701D01*
X539610Y223985D01*
X539442Y223140D01*
X539610Y222295D01*
X540089Y221579D01*
X540805Y221100D01*
X541650Y220932D01*
X541733Y220949D01*
X542109Y220640D01*
X541733Y220331D01*
X541650Y220348D01*
X540805Y220180D01*
X540089Y219701D01*
X539610Y218985D01*
X539442Y218140D01*
X539610Y217295D01*
X540089Y216579D01*
X540805Y216101D01*
X541650Y215932D01*
X541733Y215949D01*
X542109Y215640D01*
X541733Y215331D01*
X541650Y215348D01*
X540805Y215180D01*
X540089Y214701D01*
X539610Y213985D01*
X539442Y213140D01*
X539610Y212295D01*
X540089Y211579D01*
X540805Y211101D01*
X541650Y210932D01*
X541733Y210949D01*
X542109Y210640D01*
X541733Y210331D01*
X541650Y210348D01*
X540805Y210180D01*
X540089Y209701D01*
X539610Y208985D01*
X539442Y208140D01*
X539610Y207295D01*
X540089Y206579D01*
X540805Y206101D01*
X541650Y205932D01*
X541733Y205949D01*
X542109Y205640D01*
X541733Y205331D01*
X541650Y205348D01*
X540805Y205180D01*
X540089Y204701D01*
X539610Y203985D01*
X539442Y203140D01*
X539610Y202295D01*
X540089Y201579D01*
X540805Y201100D01*
X541650Y200932D01*
X542494Y201100D01*
X543211Y201579D01*
X543689Y202295D01*
X543857Y203140D01*
X544290Y203529D01*
X544819Y203424D01*
X545897D01*
Y205640D01*
Y207856D01*
X544819D01*
X544603Y207813D01*
X544211Y208140D01*
X544603Y208467D01*
X544819Y208424D01*
X547575D01*
X548423Y208593D01*
X549142Y209073D01*
X549622Y209792D01*
X549791Y210640D01*
X549622Y211488D01*
X549142Y212207D01*
X548423Y212687D01*
X547575Y212856D01*
X544819D01*
X544603Y212813D01*
X544211Y213140D01*
X544603Y213467D01*
X544819Y213424D01*
X547575D01*
X548423Y213593D01*
X549142Y214073D01*
X549622Y214792D01*
X549791Y215640D01*
X549622Y216488D01*
X549142Y217207D01*
X548423Y217688D01*
X547575Y217856D01*
X544819D01*
X544603Y217813D01*
X544211Y218140D01*
X544603Y218467D01*
X544819Y218424D01*
X547575D01*
X548423Y218593D01*
X549142Y219073D01*
X549622Y219792D01*
X549791Y220640D01*
X549622Y221488D01*
X549142Y222207D01*
X548423Y222688D01*
X548021Y222767D01*
Y225640D01*
X547905Y226225D01*
X547573Y226722D01*
X544075Y230220D01*
X543579Y230551D01*
X542994Y230667D01*
X542150D01*
X542000Y230892D01*
X541821Y231012D01*
Y255168D01*
X541704Y255753D01*
X541373Y256249D01*
X528099Y269523D01*
X528141Y269735D01*
X527957Y270659D01*
X527433Y271443D01*
X526649Y271967D01*
X525724Y272151D01*
D02*
G37*
G36*
X484681Y249848D02*
X483756Y249664D01*
X482972Y249140D01*
X482448Y248356D01*
X482265Y247431D01*
X482448Y246507D01*
X482972Y245723D01*
X483152Y245603D01*
Y221674D01*
X483268Y221089D01*
X483600Y220592D01*
X492277Y211915D01*
X492235Y211703D01*
X492419Y210778D01*
X492943Y209995D01*
X493727Y209471D01*
X494652Y209287D01*
X495577Y209471D01*
X496360Y209995D01*
X496884Y210778D01*
X497068Y211703D01*
X496884Y212628D01*
X496360Y213412D01*
X495577Y213936D01*
X494652Y214120D01*
X494440Y214078D01*
X486210Y222307D01*
Y245603D01*
X486390Y245723D01*
X486914Y246507D01*
X487098Y247431D01*
X486914Y248356D01*
X486390Y249140D01*
X485606Y249664D01*
X484681Y249848D01*
D02*
G37*
G36*
X547575Y207856D02*
X546496D01*
Y205939D01*
X549731D01*
X549622Y206488D01*
X549142Y207207D01*
X548423Y207687D01*
X547575Y207856D01*
D02*
G37*
G36*
X549731Y205341D02*
X546496D01*
Y203424D01*
X547575D01*
X548423Y203593D01*
X549142Y204073D01*
X549622Y204792D01*
X549731Y205341D01*
D02*
G37*
G36*
X536805Y179929D02*
X533110D01*
Y176235D01*
X536805D01*
Y179929D01*
D02*
G37*
G36*
X532512D02*
X528817D01*
Y176235D01*
X532512D01*
Y179929D01*
D02*
G37*
G36*
X536805Y175636D02*
X533110D01*
Y171941D01*
X536805D01*
Y175636D01*
D02*
G37*
G36*
X532512D02*
X528817D01*
Y171941D01*
X532512D01*
Y175636D01*
D02*
G37*
G36*
X522811Y179964D02*
X521768Y179827D01*
X520797Y179424D01*
X519962Y178784D01*
X519322Y177950D01*
X518920Y176978D01*
X518782Y175935D01*
X518920Y174893D01*
X519322Y173921D01*
X519962Y173087D01*
X520797Y172447D01*
X521768Y172044D01*
X522811Y171907D01*
X523854Y172044D01*
X524825Y172447D01*
X525660Y173087D01*
X526300Y173921D01*
X526702Y174893D01*
X526840Y175935D01*
X526702Y176978D01*
X526300Y177950D01*
X525660Y178784D01*
X524825Y179424D01*
X523854Y179827D01*
X522811Y179964D01*
D02*
G37*
G36*
X517949Y225191D02*
X517254Y225053D01*
X516666Y224659D01*
X516272Y224071D01*
X516134Y223376D01*
X516272Y222682D01*
X516666Y222093D01*
X517134Y221781D01*
Y214364D01*
X512235Y209464D01*
X512058Y209200D01*
X511996Y208888D01*
Y179857D01*
X511768Y179827D01*
X510797Y179424D01*
X509962Y178784D01*
X509322Y177950D01*
X508920Y176978D01*
X508782Y175935D01*
X508920Y174893D01*
X509322Y173921D01*
X509962Y173087D01*
X510797Y172447D01*
X511768Y172044D01*
X512811Y171907D01*
X513854Y172044D01*
X514825Y172447D01*
X515660Y173087D01*
X516300Y173921D01*
X516702Y174893D01*
X516840Y175935D01*
X516702Y176978D01*
X516300Y177950D01*
X515660Y178784D01*
X514825Y179424D01*
X513854Y179827D01*
X513626Y179857D01*
Y208551D01*
X518525Y213450D01*
X518702Y213714D01*
X518764Y214026D01*
Y221781D01*
X519232Y222093D01*
X519625Y222682D01*
X519763Y223376D01*
X519625Y224071D01*
X519232Y224659D01*
X518643Y225053D01*
X517949Y225191D01*
D02*
G37*
G36*
X513826Y242466D02*
X513132Y242328D01*
X512543Y241935D01*
X512150Y241346D01*
X512012Y240652D01*
X512150Y239957D01*
X512543Y239369D01*
X513012Y239056D01*
Y217780D01*
X502235Y207004D01*
X502058Y206739D01*
X501996Y206428D01*
Y179857D01*
X501768Y179827D01*
X500797Y179424D01*
X499962Y178784D01*
X499322Y177950D01*
X498920Y176978D01*
X498782Y175935D01*
X498920Y174893D01*
X499322Y173921D01*
X499962Y173087D01*
X500797Y172447D01*
X501768Y172044D01*
X502811Y171907D01*
X503854Y172044D01*
X504825Y172447D01*
X505660Y173087D01*
X506300Y173921D01*
X506702Y174893D01*
X506840Y175935D01*
X506702Y176978D01*
X506300Y177950D01*
X505660Y178784D01*
X504825Y179424D01*
X503854Y179827D01*
X503626Y179857D01*
Y206090D01*
X514403Y216867D01*
X514579Y217131D01*
X514641Y217443D01*
Y239056D01*
X515109Y239369D01*
X515503Y239957D01*
X515641Y240652D01*
X515503Y241346D01*
X515109Y241935D01*
X514521Y242328D01*
X513826Y242466D01*
D02*
G37*
G36*
X508520Y243931D02*
X507825Y243793D01*
X507237Y243400D01*
X506843Y242811D01*
X506705Y242116D01*
X506843Y241422D01*
X507237Y240834D01*
X507705Y240521D01*
Y218517D01*
X492235Y203047D01*
X492058Y202783D01*
X491996Y202471D01*
Y179857D01*
X491768Y179827D01*
X490797Y179424D01*
X489962Y178784D01*
X489322Y177950D01*
X488920Y176978D01*
X488782Y175935D01*
X488920Y174893D01*
X489322Y173921D01*
X489962Y173087D01*
X490797Y172447D01*
X491768Y172044D01*
X492811Y171907D01*
X493854Y172044D01*
X494825Y172447D01*
X495660Y173087D01*
X496300Y173921D01*
X496702Y174893D01*
X496840Y175935D01*
X496702Y176978D01*
X496300Y177950D01*
X495660Y178784D01*
X494825Y179424D01*
X493854Y179827D01*
X493626Y179857D01*
Y202133D01*
X509096Y217603D01*
X509272Y217868D01*
X509335Y218179D01*
Y240521D01*
X509803Y240834D01*
X510196Y241422D01*
X510334Y242116D01*
X510196Y242811D01*
X509803Y243400D01*
X509214Y243793D01*
X508520Y243931D01*
D02*
G37*
G36*
X411354Y354217D02*
X410327Y354082D01*
X409369Y353685D01*
X408546Y353054D01*
X407915Y352232D01*
X407519Y351274D01*
X407383Y350247D01*
X407519Y349219D01*
X407915Y348261D01*
X408546Y347439D01*
X409369Y346808D01*
X410327Y346411D01*
X411354Y346275D01*
X412382Y346411D01*
X413340Y346808D01*
X414162Y347439D01*
X414793Y348261D01*
X415190Y349219D01*
X415325Y350247D01*
X415190Y351274D01*
X414793Y352232D01*
X414162Y353054D01*
X413340Y353685D01*
X412382Y354082D01*
X411354Y354217D01*
D02*
G37*
G36*
X393638D02*
X392610Y354082D01*
X391652Y353685D01*
X390830Y353054D01*
X390199Y352232D01*
X389802Y351274D01*
X389667Y350247D01*
X389802Y349219D01*
X390199Y348261D01*
X390830Y347439D01*
X391652Y346808D01*
X392610Y346411D01*
X393638Y346275D01*
X394666Y346411D01*
X395623Y346808D01*
X396446Y347439D01*
X397077Y348261D01*
X397473Y349219D01*
X397609Y350247D01*
X397473Y351274D01*
X397077Y352232D01*
X396446Y353054D01*
X395623Y353685D01*
X394666Y354082D01*
X393638Y354217D01*
D02*
G37*
G36*
X425331Y357171D02*
X424506Y357063D01*
X423738Y356745D01*
X423079Y356239D01*
X422573Y355579D01*
X422255Y354811D01*
X422146Y353987D01*
Y346506D01*
X422255Y345682D01*
X422573Y344914D01*
X423079Y344254D01*
X423738Y343748D01*
X424506Y343430D01*
X425331Y343322D01*
X426155Y343430D01*
X426923Y343748D01*
X427583Y344254D01*
X428089Y344914D01*
X428407Y345682D01*
X428515Y346506D01*
Y353987D01*
X428407Y354811D01*
X428089Y355579D01*
X427583Y356239D01*
X426923Y356745D01*
X426155Y357063D01*
X425331Y357171D01*
D02*
G37*
G36*
X379661D02*
X378837Y357063D01*
X378069Y356745D01*
X377410Y356239D01*
X376903Y355579D01*
X376585Y354811D01*
X376477Y353987D01*
Y346506D01*
X376585Y345682D01*
X376903Y344914D01*
X377410Y344254D01*
X378069Y343748D01*
X378837Y343430D01*
X379661Y343322D01*
X380486Y343430D01*
X381254Y343748D01*
X381913Y344254D01*
X382419Y344914D01*
X382738Y345682D01*
X382846Y346506D01*
Y353987D01*
X382738Y354811D01*
X382419Y355579D01*
X381913Y356239D01*
X381254Y356745D01*
X380486Y357063D01*
X379661Y357171D01*
D02*
G37*
G36*
X388323Y334553D02*
X387398Y334369D01*
X386614Y333845D01*
X386090Y333061D01*
X385906Y332136D01*
X386090Y331211D01*
X386614Y330428D01*
X387398Y329904D01*
X388323Y329720D01*
X388534Y329762D01*
X390686Y327610D01*
X391182Y327278D01*
X391768Y327162D01*
X392257D01*
X392752Y327063D01*
X427552D01*
X429551Y325064D01*
X429509Y324853D01*
X429693Y323928D01*
X430216Y323144D01*
X431000Y322620D01*
X431925Y322436D01*
X432850Y322620D01*
X433634Y323144D01*
X434158Y323928D01*
X434342Y324853D01*
X434158Y325778D01*
X433634Y326561D01*
X432850Y327085D01*
X431925Y327269D01*
X431714Y327227D01*
X429266Y329674D01*
X428770Y330006D01*
X428185Y330122D01*
X393247D01*
X392752Y330221D01*
X392401D01*
X390697Y331925D01*
X390739Y332136D01*
X390555Y333061D01*
X390032Y333845D01*
X389248Y334369D01*
X388323Y334553D01*
D02*
G37*
G36*
X411158Y312002D02*
X410463Y311864D01*
X409874Y311470D01*
X409481Y310882D01*
X409343Y310187D01*
X409453Y309635D01*
X395817Y296000D01*
X395641Y295736D01*
X395579Y295424D01*
Y272425D01*
X395111Y272112D01*
X394717Y271523D01*
X394579Y270829D01*
X394717Y270134D01*
X395111Y269546D01*
X395699Y269152D01*
X396394Y269014D01*
X397088Y269152D01*
X397677Y269546D01*
X398070Y270134D01*
X398208Y270829D01*
X398070Y271523D01*
X397677Y272112D01*
X397208Y272425D01*
Y295086D01*
X410605Y308483D01*
X411158Y308373D01*
X411852Y308511D01*
X412440Y308904D01*
X412834Y309493D01*
X412972Y310187D01*
X412834Y310882D01*
X412440Y311470D01*
X411852Y311864D01*
X411158Y312002D01*
D02*
G37*
G36*
X412732Y303931D02*
X412038Y303793D01*
X411449Y303399D01*
X411056Y302811D01*
X410918Y302117D01*
X411028Y301564D01*
X400148Y290685D01*
X399972Y290421D01*
X399909Y290109D01*
Y275673D01*
X399441Y275360D01*
X399048Y274771D01*
X398910Y274077D01*
X399048Y273382D01*
X399441Y272794D01*
X400030Y272401D01*
X400724Y272263D01*
X401419Y272401D01*
X402007Y272794D01*
X402401Y273382D01*
X402539Y274077D01*
X402401Y274771D01*
X402007Y275360D01*
X401539Y275673D01*
Y289771D01*
X412180Y300412D01*
X412732Y300302D01*
X413427Y300440D01*
X414015Y300834D01*
X414408Y301422D01*
X414547Y302117D01*
X414408Y302811D01*
X414015Y303399D01*
X413427Y303793D01*
X412732Y303931D01*
D02*
G37*
G36*
X404563Y258695D02*
X403869Y258557D01*
X403280Y258163D01*
X402887Y257575D01*
X402749Y256880D01*
X402887Y256186D01*
X403280Y255597D01*
X403748Y255285D01*
Y249663D01*
X403810Y249351D01*
X403987Y249086D01*
X422747Y230326D01*
X422637Y229774D01*
X422775Y229080D01*
X423169Y228491D01*
X423757Y228098D01*
X424452Y227960D01*
X425146Y228098D01*
X425735Y228491D01*
X426128Y229080D01*
X426266Y229774D01*
X426128Y230468D01*
X425735Y231057D01*
X425146Y231450D01*
X424452Y231588D01*
X423900Y231479D01*
X405378Y250000D01*
Y255285D01*
X405846Y255597D01*
X406239Y256186D01*
X406377Y256880D01*
X406239Y257575D01*
X405846Y258163D01*
X405257Y258557D01*
X404563Y258695D01*
D02*
G37*
G36*
X415488Y272151D02*
X414563Y271967D01*
X413779Y271443D01*
X413256Y270659D01*
X413072Y269735D01*
X413256Y268810D01*
X413779Y268026D01*
X414563Y267502D01*
X415488Y267318D01*
X415700Y267360D01*
X428526Y254534D01*
Y231012D01*
X428346Y230892D01*
X427822Y230108D01*
X427639Y229184D01*
X427681Y228972D01*
X412786Y214078D01*
X412575Y214120D01*
X411650Y213936D01*
X410866Y213412D01*
X410342Y212628D01*
X410158Y211703D01*
X410342Y210778D01*
X410866Y209995D01*
X411650Y209471D01*
X412575Y209287D01*
X413499Y209471D01*
X414284Y209995D01*
X414807Y210778D01*
X414991Y211703D01*
X414949Y211915D01*
X429844Y226809D01*
X430055Y226767D01*
X430980Y226951D01*
X431764Y227475D01*
X432291Y227442D01*
X434726Y225007D01*
Y222856D01*
X434582D01*
X434054Y222751D01*
X433621Y223140D01*
X433453Y223985D01*
X432974Y224701D01*
X432258Y225180D01*
X431413Y225348D01*
X430569Y225180D01*
X429852Y224701D01*
X429374Y223985D01*
X429206Y223140D01*
X429374Y222295D01*
X429852Y221579D01*
X430569Y221100D01*
X431413Y220932D01*
X431497Y220949D01*
X431873Y220640D01*
X431497Y220331D01*
X431413Y220348D01*
X430569Y220180D01*
X429852Y219701D01*
X429374Y218985D01*
X429206Y218140D01*
X429374Y217295D01*
X429852Y216579D01*
X430569Y216101D01*
X431413Y215932D01*
X431497Y215949D01*
X431873Y215640D01*
X431497Y215331D01*
X431413Y215348D01*
X430569Y215180D01*
X429852Y214701D01*
X429374Y213985D01*
X429206Y213140D01*
X429374Y212295D01*
X429852Y211579D01*
X430569Y211101D01*
X431413Y210932D01*
X431497Y210949D01*
X431873Y210640D01*
X431497Y210331D01*
X431413Y210348D01*
X430569Y210180D01*
X429852Y209701D01*
X429374Y208985D01*
X429206Y208140D01*
X429374Y207295D01*
X429852Y206579D01*
X430569Y206101D01*
X431413Y205932D01*
X431497Y205949D01*
X431873Y205640D01*
X431497Y205331D01*
X431413Y205348D01*
X430569Y205180D01*
X429852Y204701D01*
X429374Y203985D01*
X429206Y203140D01*
X429374Y202295D01*
X429852Y201579D01*
X430569Y201100D01*
X431413Y200932D01*
X432258Y201100D01*
X432974Y201579D01*
X433453Y202295D01*
X433621Y203140D01*
X434054Y203529D01*
X434582Y203424D01*
X435661D01*
Y205640D01*
Y207856D01*
X434582D01*
X434367Y207813D01*
X433975Y208140D01*
X434367Y208467D01*
X434582Y208424D01*
X437338D01*
X438186Y208593D01*
X438905Y209073D01*
X439386Y209792D01*
X439554Y210640D01*
X439386Y211488D01*
X438905Y212207D01*
X438186Y212687D01*
X437338Y212856D01*
X434582D01*
X434367Y212813D01*
X433975Y213140D01*
X434367Y213467D01*
X434582Y213424D01*
X437338D01*
X438186Y213593D01*
X438905Y214073D01*
X439386Y214792D01*
X439554Y215640D01*
X439386Y216488D01*
X438905Y217207D01*
X438186Y217688D01*
X437338Y217856D01*
X434582D01*
X434367Y217813D01*
X433975Y218140D01*
X434367Y218467D01*
X434582Y218424D01*
X437338D01*
X438186Y218593D01*
X438905Y219073D01*
X439386Y219792D01*
X439554Y220640D01*
X439386Y221488D01*
X438905Y222207D01*
X438186Y222688D01*
X437785Y222767D01*
Y225640D01*
X437669Y226225D01*
X437337Y226722D01*
X433839Y230220D01*
X433343Y230551D01*
X432758Y230667D01*
X431914D01*
X431764Y230892D01*
X431585Y231012D01*
Y255168D01*
X431468Y255753D01*
X431137Y256249D01*
X417863Y269523D01*
X417905Y269735D01*
X417721Y270659D01*
X417197Y271443D01*
X416413Y271967D01*
X415488Y272151D01*
D02*
G37*
G36*
X374445Y249848D02*
X373520Y249664D01*
X372736Y249140D01*
X372212Y248356D01*
X372028Y247431D01*
X372212Y246507D01*
X372736Y245723D01*
X372916Y245603D01*
Y221674D01*
X373032Y221089D01*
X373363Y220592D01*
X382041Y211915D01*
X381999Y211703D01*
X382183Y210778D01*
X382707Y209995D01*
X383491Y209471D01*
X384416Y209287D01*
X385340Y209471D01*
X386124Y209995D01*
X386648Y210778D01*
X386832Y211703D01*
X386648Y212628D01*
X386124Y213412D01*
X385340Y213936D01*
X384416Y214120D01*
X384204Y214078D01*
X375974Y222307D01*
Y245603D01*
X376154Y245723D01*
X376677Y246507D01*
X376861Y247431D01*
X376677Y248356D01*
X376154Y249140D01*
X375370Y249664D01*
X374445Y249848D01*
D02*
G37*
G36*
X437338Y207856D02*
X436260D01*
Y205939D01*
X439495D01*
X439386Y206488D01*
X438905Y207207D01*
X438186Y207687D01*
X437338Y207856D01*
D02*
G37*
G36*
X439495Y205341D02*
X436260D01*
Y203424D01*
X437338D01*
X438186Y203593D01*
X438905Y204073D01*
X439386Y204792D01*
X439495Y205341D01*
D02*
G37*
G36*
X426569Y179929D02*
X422874D01*
Y176235D01*
X426569D01*
Y179929D01*
D02*
G37*
G36*
X422276D02*
X418581D01*
Y176235D01*
X422276D01*
Y179929D01*
D02*
G37*
G36*
X426569Y175636D02*
X422874D01*
Y171941D01*
X426569D01*
Y175636D01*
D02*
G37*
G36*
X422276D02*
X418581D01*
Y171941D01*
X422276D01*
Y175636D01*
D02*
G37*
G36*
X412575Y179964D02*
X411532Y179827D01*
X410561Y179424D01*
X409726Y178784D01*
X409086Y177950D01*
X408683Y176978D01*
X408546Y175935D01*
X408683Y174893D01*
X409086Y173921D01*
X409726Y173087D01*
X410561Y172447D01*
X411532Y172044D01*
X412575Y171907D01*
X413618Y172044D01*
X414589Y172447D01*
X415423Y173087D01*
X416064Y173921D01*
X416466Y174893D01*
X416603Y175935D01*
X416466Y176978D01*
X416064Y177950D01*
X415423Y178784D01*
X414589Y179424D01*
X413618Y179827D01*
X412575Y179964D01*
D02*
G37*
G36*
X407713Y225191D02*
X407018Y225053D01*
X406430Y224659D01*
X406036Y224071D01*
X405898Y223376D01*
X406036Y222682D01*
X406430Y222093D01*
X406898Y221781D01*
Y214364D01*
X401999Y209464D01*
X401822Y209200D01*
X401760Y208888D01*
Y179857D01*
X401532Y179827D01*
X400561Y179424D01*
X399726Y178784D01*
X399086Y177950D01*
X398684Y176978D01*
X398546Y175935D01*
X398684Y174893D01*
X399086Y173921D01*
X399726Y173087D01*
X400561Y172447D01*
X401532Y172044D01*
X402575Y171907D01*
X403617Y172044D01*
X404589Y172447D01*
X405423Y173087D01*
X406064Y173921D01*
X406466Y174893D01*
X406603Y175935D01*
X406466Y176978D01*
X406064Y177950D01*
X405423Y178784D01*
X404589Y179424D01*
X403617Y179827D01*
X403390Y179857D01*
Y208551D01*
X408289Y213450D01*
X408465Y213714D01*
X408527Y214026D01*
Y221781D01*
X408995Y222093D01*
X409389Y222682D01*
X409527Y223376D01*
X409389Y224071D01*
X408995Y224659D01*
X408407Y225053D01*
X407713Y225191D01*
D02*
G37*
G36*
X403590Y242466D02*
X402896Y242328D01*
X402307Y241935D01*
X401914Y241346D01*
X401776Y240652D01*
X401914Y239957D01*
X402307Y239369D01*
X402775Y239056D01*
Y217780D01*
X391999Y207004D01*
X391822Y206739D01*
X391760Y206428D01*
Y179857D01*
X391532Y179827D01*
X390561Y179424D01*
X389726Y178784D01*
X389086Y177950D01*
X388684Y176978D01*
X388546Y175935D01*
X388684Y174893D01*
X389086Y173921D01*
X389726Y173087D01*
X390561Y172447D01*
X391532Y172044D01*
X392575Y171907D01*
X393618Y172044D01*
X394589Y172447D01*
X395423Y173087D01*
X396064Y173921D01*
X396466Y174893D01*
X396603Y175935D01*
X396466Y176978D01*
X396064Y177950D01*
X395423Y178784D01*
X394589Y179424D01*
X393618Y179827D01*
X393390Y179857D01*
Y206090D01*
X404166Y216867D01*
X404343Y217131D01*
X404405Y217443D01*
Y239056D01*
X404873Y239369D01*
X405266Y239957D01*
X405405Y240652D01*
X405266Y241346D01*
X404873Y241935D01*
X404284Y242328D01*
X403590Y242466D01*
D02*
G37*
G36*
X398283Y243931D02*
X397589Y243793D01*
X397001Y243400D01*
X396607Y242811D01*
X396469Y242116D01*
X396607Y241422D01*
X397001Y240834D01*
X397469Y240521D01*
Y218517D01*
X381999Y203047D01*
X381822Y202783D01*
X381760Y202471D01*
Y179857D01*
X381532Y179827D01*
X380560Y179424D01*
X379726Y178784D01*
X379086Y177950D01*
X378683Y176978D01*
X378546Y175935D01*
X378683Y174893D01*
X379086Y173921D01*
X379726Y173087D01*
X380560Y172447D01*
X381532Y172044D01*
X382575Y171907D01*
X383617Y172044D01*
X384589Y172447D01*
X385423Y173087D01*
X386064Y173921D01*
X386466Y174893D01*
X386603Y175935D01*
X386466Y176978D01*
X386064Y177950D01*
X385423Y178784D01*
X384589Y179424D01*
X383617Y179827D01*
X383390Y179857D01*
Y202133D01*
X398860Y217603D01*
X399036Y217868D01*
X399098Y218179D01*
Y240521D01*
X399566Y240834D01*
X399960Y241422D01*
X400098Y242116D01*
X399960Y242811D01*
X399566Y243400D01*
X398978Y243793D01*
X398283Y243931D01*
D02*
G37*
G36*
X301118Y354217D02*
X300090Y354082D01*
X299133Y353685D01*
X298310Y353054D01*
X297679Y352232D01*
X297282Y351274D01*
X297147Y350247D01*
X297282Y349219D01*
X297679Y348261D01*
X298310Y347439D01*
X299133Y346808D01*
X300090Y346411D01*
X301118Y346275D01*
X302146Y346411D01*
X303104Y346808D01*
X303926Y347439D01*
X304557Y348261D01*
X304954Y349219D01*
X305089Y350247D01*
X304954Y351274D01*
X304557Y352232D01*
X303926Y353054D01*
X303104Y353685D01*
X302146Y354082D01*
X301118Y354217D01*
D02*
G37*
G36*
X283401D02*
X282374Y354082D01*
X281416Y353685D01*
X280594Y353054D01*
X279963Y352232D01*
X279566Y351274D01*
X279431Y350247D01*
X279566Y349219D01*
X279963Y348261D01*
X280594Y347439D01*
X281416Y346808D01*
X282374Y346411D01*
X283401Y346275D01*
X284429Y346411D01*
X285387Y346808D01*
X286210Y347439D01*
X286841Y348261D01*
X287237Y349219D01*
X287372Y350247D01*
X287237Y351274D01*
X286841Y352232D01*
X286210Y353054D01*
X285387Y353685D01*
X284429Y354082D01*
X283401Y354217D01*
D02*
G37*
G36*
X315094Y357171D02*
X314270Y357063D01*
X313502Y356745D01*
X312842Y356239D01*
X312336Y355579D01*
X312018Y354811D01*
X311910Y353987D01*
Y346506D01*
X312018Y345682D01*
X312336Y344914D01*
X312842Y344254D01*
X313502Y343748D01*
X314270Y343430D01*
X315094Y343322D01*
X315919Y343430D01*
X316687Y343748D01*
X317346Y344254D01*
X317852Y344914D01*
X318171Y345682D01*
X318279Y346506D01*
Y353987D01*
X318171Y354811D01*
X317852Y355579D01*
X317346Y356239D01*
X316687Y356745D01*
X315919Y357063D01*
X315094Y357171D01*
D02*
G37*
G36*
X269425D02*
X268601Y357063D01*
X267833Y356745D01*
X267173Y356239D01*
X266667Y355579D01*
X266349Y354811D01*
X266241Y353987D01*
Y346506D01*
X266349Y345682D01*
X266667Y344914D01*
X267173Y344254D01*
X267833Y343748D01*
X268601Y343430D01*
X269425Y343322D01*
X270249Y343430D01*
X271018Y343748D01*
X271677Y344254D01*
X272183Y344914D01*
X272501Y345682D01*
X272610Y346506D01*
Y353987D01*
X272501Y354811D01*
X272183Y355579D01*
X271677Y356239D01*
X271018Y356745D01*
X270249Y357063D01*
X269425Y357171D01*
D02*
G37*
G36*
X278087Y334553D02*
X277162Y334369D01*
X276378Y333845D01*
X275854Y333061D01*
X275670Y332136D01*
X275854Y331211D01*
X276378Y330428D01*
X277162Y329904D01*
X278087Y329720D01*
X278298Y329762D01*
X280450Y327610D01*
X280946Y327278D01*
X281532Y327162D01*
X282021D01*
X282516Y327063D01*
X317315D01*
X319315Y325064D01*
X319272Y324853D01*
X319456Y323928D01*
X319980Y323144D01*
X320764Y322620D01*
X321689Y322436D01*
X322614Y322620D01*
X323398Y323144D01*
X323921Y323928D01*
X324106Y324853D01*
X323921Y325778D01*
X323398Y326561D01*
X322614Y327085D01*
X321689Y327269D01*
X321477Y327227D01*
X319030Y329674D01*
X318534Y330006D01*
X317949Y330122D01*
X283011D01*
X282516Y330221D01*
X282165D01*
X280461Y331925D01*
X280503Y332136D01*
X280319Y333061D01*
X279795Y333845D01*
X279011Y334369D01*
X278087Y334553D01*
D02*
G37*
G36*
X300921Y312002D02*
X300227Y311864D01*
X299638Y311470D01*
X299245Y310882D01*
X299107Y310187D01*
X299217Y309635D01*
X285581Y296000D01*
X285405Y295736D01*
X285343Y295424D01*
Y272425D01*
X284875Y272112D01*
X284481Y271523D01*
X284343Y270829D01*
X284481Y270134D01*
X284875Y269546D01*
X285463Y269152D01*
X286157Y269014D01*
X286852Y269152D01*
X287440Y269546D01*
X287834Y270134D01*
X287972Y270829D01*
X287834Y271523D01*
X287440Y272112D01*
X286972Y272425D01*
Y295086D01*
X300369Y308483D01*
X300921Y308373D01*
X301616Y308511D01*
X302204Y308904D01*
X302597Y309493D01*
X302736Y310187D01*
X302597Y310882D01*
X302204Y311470D01*
X301616Y311864D01*
X300921Y312002D01*
D02*
G37*
G36*
X302496Y303931D02*
X301802Y303793D01*
X301213Y303399D01*
X300820Y302811D01*
X300682Y302117D01*
X300792Y301564D01*
X289912Y290685D01*
X289735Y290421D01*
X289673Y290109D01*
Y275673D01*
X289205Y275360D01*
X288812Y274771D01*
X288674Y274077D01*
X288812Y273382D01*
X289205Y272794D01*
X289794Y272401D01*
X290488Y272263D01*
X291182Y272401D01*
X291771Y272794D01*
X292164Y273382D01*
X292303Y274077D01*
X292164Y274771D01*
X291771Y275360D01*
X291303Y275673D01*
Y289771D01*
X301944Y300412D01*
X302496Y300302D01*
X303190Y300440D01*
X303779Y300834D01*
X304172Y301422D01*
X304310Y302117D01*
X304172Y302811D01*
X303779Y303399D01*
X303190Y303793D01*
X302496Y303931D01*
D02*
G37*
G36*
X294327Y258695D02*
X293632Y258557D01*
X293044Y258163D01*
X292651Y257575D01*
X292512Y256880D01*
X292651Y256186D01*
X293044Y255597D01*
X293512Y255285D01*
Y249663D01*
X293574Y249351D01*
X293751Y249086D01*
X312511Y230326D01*
X312401Y229774D01*
X312539Y229080D01*
X312932Y228491D01*
X313521Y228098D01*
X314215Y227960D01*
X314910Y228098D01*
X315498Y228491D01*
X315892Y229080D01*
X316030Y229774D01*
X315892Y230468D01*
X315498Y231057D01*
X314910Y231450D01*
X314215Y231588D01*
X313663Y231479D01*
X295142Y250000D01*
Y255285D01*
X295610Y255597D01*
X296003Y256186D01*
X296141Y256880D01*
X296003Y257575D01*
X295610Y258163D01*
X295021Y258557D01*
X294327Y258695D01*
D02*
G37*
G36*
X305252Y272151D02*
X304327Y271967D01*
X303543Y271443D01*
X303019Y270659D01*
X302835Y269735D01*
X303019Y268810D01*
X303543Y268026D01*
X304327Y267502D01*
X305252Y267318D01*
X305464Y267360D01*
X318289Y254534D01*
Y231012D01*
X318110Y230892D01*
X317586Y230108D01*
X317402Y229184D01*
X317444Y228972D01*
X302550Y214078D01*
X302339Y214120D01*
X301414Y213936D01*
X300630Y213412D01*
X300106Y212628D01*
X299922Y211703D01*
X300106Y210778D01*
X300630Y209995D01*
X301414Y209471D01*
X302339Y209287D01*
X303263Y209471D01*
X304047Y209995D01*
X304571Y210778D01*
X304755Y211703D01*
X304713Y211915D01*
X319607Y226809D01*
X319819Y226767D01*
X320744Y226951D01*
X321528Y227475D01*
X322055Y227442D01*
X324490Y225007D01*
Y222856D01*
X324346D01*
X323817Y222751D01*
X323385Y223140D01*
X323217Y223985D01*
X322738Y224701D01*
X322022Y225180D01*
X321177Y225348D01*
X320332Y225180D01*
X319616Y224701D01*
X319137Y223985D01*
X318969Y223140D01*
X319137Y222295D01*
X319616Y221579D01*
X320332Y221100D01*
X321177Y220932D01*
X321261Y220949D01*
X321637Y220640D01*
X321261Y220331D01*
X321177Y220348D01*
X320332Y220180D01*
X319616Y219701D01*
X319137Y218985D01*
X318969Y218140D01*
X319137Y217295D01*
X319616Y216579D01*
X320332Y216101D01*
X321177Y215932D01*
X321261Y215949D01*
X321637Y215640D01*
X321261Y215331D01*
X321177Y215348D01*
X320332Y215180D01*
X319616Y214701D01*
X319137Y213985D01*
X318969Y213140D01*
X319137Y212295D01*
X319616Y211579D01*
X320332Y211101D01*
X321177Y210932D01*
X321261Y210949D01*
X321637Y210640D01*
X321261Y210331D01*
X321177Y210348D01*
X320332Y210180D01*
X319616Y209701D01*
X319137Y208985D01*
X318969Y208140D01*
X319137Y207295D01*
X319616Y206579D01*
X320332Y206101D01*
X321177Y205932D01*
X321261Y205949D01*
X321637Y205640D01*
X321261Y205331D01*
X321177Y205348D01*
X320332Y205180D01*
X319616Y204701D01*
X319137Y203985D01*
X318969Y203140D01*
X319137Y202295D01*
X319616Y201579D01*
X320332Y201100D01*
X321177Y200932D01*
X322022Y201100D01*
X322738Y201579D01*
X323217Y202295D01*
X323385Y203140D01*
X323817Y203529D01*
X324346Y203424D01*
X325425D01*
Y205640D01*
Y207856D01*
X324346D01*
X324131Y207813D01*
X323738Y208140D01*
X324131Y208467D01*
X324346Y208424D01*
X327102D01*
X327950Y208593D01*
X328669Y209073D01*
X329150Y209792D01*
X329318Y210640D01*
X329150Y211488D01*
X328669Y212207D01*
X327950Y212687D01*
X327102Y212856D01*
X324346D01*
X324131Y212813D01*
X323738Y213140D01*
X324131Y213467D01*
X324346Y213424D01*
X327102D01*
X327950Y213593D01*
X328669Y214073D01*
X329150Y214792D01*
X329318Y215640D01*
X329150Y216488D01*
X328669Y217207D01*
X327950Y217688D01*
X327102Y217856D01*
X324346D01*
X324131Y217813D01*
X323738Y218140D01*
X324131Y218467D01*
X324346Y218424D01*
X327102D01*
X327950Y218593D01*
X328669Y219073D01*
X329150Y219792D01*
X329318Y220640D01*
X329150Y221488D01*
X328669Y222207D01*
X327950Y222688D01*
X327549Y222767D01*
Y225640D01*
X327432Y226225D01*
X327101Y226722D01*
X323603Y230220D01*
X323107Y230551D01*
X322521Y230667D01*
X321678D01*
X321528Y230892D01*
X321348Y231012D01*
Y255168D01*
X321232Y255753D01*
X320900Y256249D01*
X307626Y269523D01*
X307668Y269735D01*
X307485Y270659D01*
X306961Y271443D01*
X306177Y271967D01*
X305252Y272151D01*
D02*
G37*
G36*
X264209Y249848D02*
X263284Y249664D01*
X262500Y249140D01*
X261976Y248356D01*
X261792Y247431D01*
X261976Y246507D01*
X262500Y245723D01*
X262679Y245603D01*
Y221674D01*
X262796Y221089D01*
X263127Y220592D01*
X271805Y211915D01*
X271763Y211703D01*
X271947Y210778D01*
X272471Y209995D01*
X273255Y209471D01*
X274179Y209287D01*
X275104Y209471D01*
X275888Y209995D01*
X276412Y210778D01*
X276596Y211703D01*
X276412Y212628D01*
X275888Y213412D01*
X275104Y213936D01*
X274179Y214120D01*
X273968Y214078D01*
X265738Y222307D01*
Y245603D01*
X265917Y245723D01*
X266441Y246507D01*
X266625Y247431D01*
X266441Y248356D01*
X265917Y249140D01*
X265133Y249664D01*
X264209Y249848D01*
D02*
G37*
G36*
X327102Y207856D02*
X326023D01*
Y205939D01*
X329259D01*
X329150Y206488D01*
X328669Y207207D01*
X327950Y207687D01*
X327102Y207856D01*
D02*
G37*
G36*
X329259Y205341D02*
X326023D01*
Y203424D01*
X327102D01*
X327950Y203593D01*
X328669Y204073D01*
X329150Y204792D01*
X329259Y205341D01*
D02*
G37*
G36*
X316333Y179929D02*
X312638D01*
Y176235D01*
X316333D01*
Y179929D01*
D02*
G37*
G36*
X312039D02*
X308345D01*
Y176235D01*
X312039D01*
Y179929D01*
D02*
G37*
G36*
X316333Y175636D02*
X312638D01*
Y171941D01*
X316333D01*
Y175636D01*
D02*
G37*
G36*
X312039D02*
X308345D01*
Y171941D01*
X312039D01*
Y175636D01*
D02*
G37*
G36*
X302339Y179964D02*
X301296Y179827D01*
X300324Y179424D01*
X299490Y178784D01*
X298850Y177950D01*
X298447Y176978D01*
X298310Y175935D01*
X298447Y174893D01*
X298850Y173921D01*
X299490Y173087D01*
X300324Y172447D01*
X301296Y172044D01*
X302339Y171907D01*
X303381Y172044D01*
X304353Y172447D01*
X305187Y173087D01*
X305827Y173921D01*
X306230Y174893D01*
X306367Y175935D01*
X306230Y176978D01*
X305827Y177950D01*
X305187Y178784D01*
X304353Y179424D01*
X303381Y179827D01*
X302339Y179964D01*
D02*
G37*
G36*
X297476Y225191D02*
X296782Y225053D01*
X296193Y224659D01*
X295800Y224071D01*
X295662Y223376D01*
X295800Y222682D01*
X296193Y222093D01*
X296661Y221781D01*
Y214364D01*
X291762Y209464D01*
X291586Y209200D01*
X291524Y208888D01*
Y179857D01*
X291296Y179827D01*
X290324Y179424D01*
X289490Y178784D01*
X288850Y177950D01*
X288447Y176978D01*
X288310Y175935D01*
X288447Y174893D01*
X288850Y173921D01*
X289490Y173087D01*
X290324Y172447D01*
X291296Y172044D01*
X292339Y171907D01*
X293381Y172044D01*
X294353Y172447D01*
X295187Y173087D01*
X295827Y173921D01*
X296230Y174893D01*
X296367Y175935D01*
X296230Y176978D01*
X295827Y177950D01*
X295187Y178784D01*
X294353Y179424D01*
X293381Y179827D01*
X293153Y179857D01*
Y208551D01*
X298053Y213450D01*
X298229Y213714D01*
X298291Y214026D01*
Y221781D01*
X298759Y222093D01*
X299153Y222682D01*
X299291Y223376D01*
X299153Y224071D01*
X298759Y224659D01*
X298171Y225053D01*
X297476Y225191D01*
D02*
G37*
G36*
X293354Y242466D02*
X292660Y242328D01*
X292071Y241935D01*
X291678Y241346D01*
X291540Y240652D01*
X291678Y239957D01*
X292071Y239369D01*
X292539Y239056D01*
Y217780D01*
X281762Y207004D01*
X281586Y206739D01*
X281524Y206428D01*
Y179857D01*
X281296Y179827D01*
X280324Y179424D01*
X279490Y178784D01*
X278850Y177950D01*
X278447Y176978D01*
X278310Y175935D01*
X278447Y174893D01*
X278850Y173921D01*
X279490Y173087D01*
X280324Y172447D01*
X281296Y172044D01*
X282339Y171907D01*
X283381Y172044D01*
X284353Y172447D01*
X285187Y173087D01*
X285827Y173921D01*
X286230Y174893D01*
X286367Y175935D01*
X286230Y176978D01*
X285827Y177950D01*
X285187Y178784D01*
X284353Y179424D01*
X283381Y179827D01*
X283153Y179857D01*
Y206090D01*
X293930Y216867D01*
X294107Y217131D01*
X294169Y217443D01*
Y239056D01*
X294637Y239369D01*
X295030Y239957D01*
X295168Y240652D01*
X295030Y241346D01*
X294637Y241935D01*
X294048Y242328D01*
X293354Y242466D01*
D02*
G37*
G36*
X288047Y243931D02*
X287353Y243793D01*
X286764Y243400D01*
X286371Y242811D01*
X286233Y242116D01*
X286371Y241422D01*
X286764Y240834D01*
X287232Y240521D01*
Y218517D01*
X271762Y203047D01*
X271586Y202783D01*
X271524Y202471D01*
Y179857D01*
X271296Y179827D01*
X270324Y179424D01*
X269490Y178784D01*
X268850Y177950D01*
X268447Y176978D01*
X268310Y175935D01*
X268447Y174893D01*
X268850Y173921D01*
X269490Y173087D01*
X270324Y172447D01*
X271296Y172044D01*
X272339Y171907D01*
X273381Y172044D01*
X274353Y172447D01*
X275187Y173087D01*
X275827Y173921D01*
X276230Y174893D01*
X276367Y175935D01*
X276230Y176978D01*
X275827Y177950D01*
X275187Y178784D01*
X274353Y179424D01*
X273381Y179827D01*
X273153Y179857D01*
Y202133D01*
X288623Y217603D01*
X288800Y217868D01*
X288862Y218179D01*
Y240521D01*
X289330Y240834D01*
X289723Y241422D01*
X289862Y242116D01*
X289723Y242811D01*
X289330Y243400D01*
X288742Y243793D01*
X288047Y243931D01*
D02*
G37*
G36*
X190882Y354217D02*
X189854Y354082D01*
X188896Y353685D01*
X188074Y353054D01*
X187443Y352232D01*
X187046Y351274D01*
X186911Y350247D01*
X187046Y349219D01*
X187443Y348261D01*
X188074Y347439D01*
X188896Y346808D01*
X189854Y346411D01*
X190882Y346275D01*
X191910Y346411D01*
X192867Y346808D01*
X193690Y347439D01*
X194321Y348261D01*
X194718Y349219D01*
X194853Y350247D01*
X194718Y351274D01*
X194321Y352232D01*
X193690Y353054D01*
X192867Y353685D01*
X191910Y354082D01*
X190882Y354217D01*
D02*
G37*
G36*
X173165D02*
X172138Y354082D01*
X171180Y353685D01*
X170357Y353054D01*
X169726Y352232D01*
X169330Y351274D01*
X169194Y350247D01*
X169330Y349219D01*
X169726Y348261D01*
X170357Y347439D01*
X171180Y346808D01*
X172138Y346411D01*
X173165Y346275D01*
X174193Y346411D01*
X175151Y346808D01*
X175973Y347439D01*
X176604Y348261D01*
X177001Y349219D01*
X177136Y350247D01*
X177001Y351274D01*
X176604Y352232D01*
X175973Y353054D01*
X175151Y353685D01*
X174193Y354082D01*
X173165Y354217D01*
D02*
G37*
G36*
X204858Y357171D02*
X204034Y357063D01*
X203266Y356745D01*
X202606Y356239D01*
X202100Y355579D01*
X201782Y354811D01*
X201674Y353987D01*
Y346506D01*
X201782Y345682D01*
X202100Y344914D01*
X202606Y344254D01*
X203266Y343748D01*
X204034Y343430D01*
X204858Y343322D01*
X205682Y343430D01*
X206451Y343748D01*
X207110Y344254D01*
X207616Y344914D01*
X207934Y345682D01*
X208043Y346506D01*
Y353987D01*
X207934Y354811D01*
X207616Y355579D01*
X207110Y356239D01*
X206451Y356745D01*
X205682Y357063D01*
X204858Y357171D01*
D02*
G37*
G36*
X159189D02*
X158365Y357063D01*
X157597Y356745D01*
X156937Y356239D01*
X156431Y355579D01*
X156113Y354811D01*
X156004Y353987D01*
Y346506D01*
X156113Y345682D01*
X156431Y344914D01*
X156937Y344254D01*
X157597Y343748D01*
X158365Y343430D01*
X159189Y343322D01*
X160013Y343430D01*
X160781Y343748D01*
X161441Y344254D01*
X161947Y344914D01*
X162265Y345682D01*
X162374Y346506D01*
Y353987D01*
X162265Y354811D01*
X161947Y355579D01*
X161441Y356239D01*
X160781Y356745D01*
X160013Y357063D01*
X159189Y357171D01*
D02*
G37*
G36*
X167850Y334553D02*
X166926Y334369D01*
X166142Y333845D01*
X165618Y333061D01*
X165434Y332136D01*
X165618Y331211D01*
X166142Y330428D01*
X166926Y329904D01*
X167850Y329720D01*
X168062Y329762D01*
X170214Y327610D01*
X170710Y327278D01*
X171295Y327162D01*
X171785D01*
X172280Y327063D01*
X207079D01*
X209078Y325064D01*
X209036Y324853D01*
X209220Y323928D01*
X209744Y323144D01*
X210528Y322620D01*
X211453Y322436D01*
X212378Y322620D01*
X213161Y323144D01*
X213685Y323928D01*
X213869Y324853D01*
X213685Y325778D01*
X213161Y326561D01*
X212378Y327085D01*
X211453Y327269D01*
X211241Y327227D01*
X208794Y329674D01*
X208298Y330006D01*
X207713Y330122D01*
X172774D01*
X172280Y330221D01*
X171929D01*
X170225Y331925D01*
X170267Y332136D01*
X170083Y333061D01*
X169559Y333845D01*
X168775Y334369D01*
X167850Y334553D01*
D02*
G37*
G36*
X190685Y312002D02*
X189991Y311864D01*
X189402Y311470D01*
X189009Y310882D01*
X188871Y310187D01*
X188980Y309635D01*
X175345Y296000D01*
X175168Y295736D01*
X175106Y295424D01*
Y272425D01*
X174638Y272112D01*
X174245Y271523D01*
X174107Y270829D01*
X174245Y270134D01*
X174638Y269546D01*
X175227Y269152D01*
X175921Y269014D01*
X176616Y269152D01*
X177204Y269546D01*
X177597Y270134D01*
X177736Y270829D01*
X177597Y271523D01*
X177204Y272112D01*
X176736Y272425D01*
Y295086D01*
X190133Y308483D01*
X190685Y308373D01*
X191379Y308511D01*
X191968Y308904D01*
X192361Y309493D01*
X192499Y310187D01*
X192361Y310882D01*
X191968Y311470D01*
X191379Y311864D01*
X190685Y312002D01*
D02*
G37*
G36*
X192260Y303931D02*
X191566Y303793D01*
X190977Y303399D01*
X190584Y302811D01*
X190445Y302117D01*
X190555Y301564D01*
X179676Y290685D01*
X179499Y290421D01*
X179437Y290109D01*
Y275673D01*
X178969Y275360D01*
X178576Y274771D01*
X178438Y274077D01*
X178576Y273382D01*
X178969Y272794D01*
X179558Y272401D01*
X180252Y272263D01*
X180946Y272401D01*
X181535Y272794D01*
X181928Y273382D01*
X182066Y274077D01*
X181928Y274771D01*
X181535Y275360D01*
X181067Y275673D01*
Y289771D01*
X191708Y300412D01*
X192260Y300302D01*
X192954Y300440D01*
X193543Y300834D01*
X193936Y301422D01*
X194074Y302117D01*
X193936Y302811D01*
X193543Y303399D01*
X192954Y303793D01*
X192260Y303931D01*
D02*
G37*
G36*
X184090Y258695D02*
X183396Y258557D01*
X182808Y258163D01*
X182414Y257575D01*
X182276Y256880D01*
X182414Y256186D01*
X182808Y255597D01*
X183276Y255285D01*
Y249663D01*
X183338Y249351D01*
X183514Y249086D01*
X202275Y230326D01*
X202165Y229774D01*
X202303Y229080D01*
X202696Y228491D01*
X203285Y228098D01*
X203979Y227960D01*
X204674Y228098D01*
X205262Y228491D01*
X205656Y229080D01*
X205794Y229774D01*
X205656Y230468D01*
X205262Y231057D01*
X204674Y231450D01*
X203979Y231588D01*
X203427Y231479D01*
X184905Y250000D01*
Y255285D01*
X185373Y255597D01*
X185767Y256186D01*
X185905Y256880D01*
X185767Y257575D01*
X185373Y258163D01*
X184785Y258557D01*
X184090Y258695D01*
D02*
G37*
G36*
X195016Y272151D02*
X194091Y271967D01*
X193307Y271443D01*
X192783Y270659D01*
X192599Y269735D01*
X192783Y268810D01*
X193307Y268026D01*
X194091Y267502D01*
X195016Y267318D01*
X195227Y267360D01*
X208053Y254534D01*
Y231012D01*
X207874Y230892D01*
X207350Y230108D01*
X207166Y229184D01*
X207208Y228972D01*
X192314Y214078D01*
X192102Y214120D01*
X191178Y213936D01*
X190394Y213412D01*
X189870Y212628D01*
X189686Y211703D01*
X189870Y210778D01*
X190394Y209995D01*
X191178Y209471D01*
X192102Y209287D01*
X193027Y209471D01*
X193811Y209995D01*
X194335Y210778D01*
X194519Y211703D01*
X194477Y211915D01*
X209371Y226809D01*
X209583Y226767D01*
X210507Y226951D01*
X211291Y227475D01*
X211819Y227442D01*
X214254Y225007D01*
Y222856D01*
X214110D01*
X213581Y222751D01*
X213149Y223140D01*
X212981Y223985D01*
X212502Y224701D01*
X211786Y225180D01*
X210941Y225348D01*
X210096Y225180D01*
X209380Y224701D01*
X208901Y223985D01*
X208733Y223140D01*
X208901Y222295D01*
X209380Y221579D01*
X210096Y221100D01*
X210941Y220932D01*
X211024Y220949D01*
X211401Y220640D01*
X211024Y220331D01*
X210941Y220348D01*
X210096Y220180D01*
X209380Y219701D01*
X208901Y218985D01*
X208733Y218140D01*
X208901Y217295D01*
X209380Y216579D01*
X210096Y216101D01*
X210941Y215932D01*
X211024Y215949D01*
X211401Y215640D01*
X211024Y215331D01*
X210941Y215348D01*
X210096Y215180D01*
X209380Y214701D01*
X208901Y213985D01*
X208733Y213140D01*
X208901Y212295D01*
X209380Y211579D01*
X210096Y211101D01*
X210941Y210932D01*
X211024Y210949D01*
X211401Y210640D01*
X211024Y210331D01*
X210941Y210348D01*
X210096Y210180D01*
X209380Y209701D01*
X208901Y208985D01*
X208733Y208140D01*
X208901Y207295D01*
X209380Y206579D01*
X210096Y206101D01*
X210941Y205932D01*
X211024Y205949D01*
X211401Y205640D01*
X211024Y205331D01*
X210941Y205348D01*
X210096Y205180D01*
X209380Y204701D01*
X208901Y203985D01*
X208733Y203140D01*
X208901Y202295D01*
X209380Y201579D01*
X210096Y201100D01*
X210941Y200932D01*
X211786Y201100D01*
X212502Y201579D01*
X212981Y202295D01*
X213149Y203140D01*
X213581Y203529D01*
X214110Y203424D01*
X215189D01*
Y205640D01*
Y207856D01*
X214110D01*
X213895Y207813D01*
X213502Y208140D01*
X213895Y208467D01*
X214110Y208424D01*
X216866D01*
X217714Y208593D01*
X218433Y209073D01*
X218913Y209792D01*
X219082Y210640D01*
X218913Y211488D01*
X218433Y212207D01*
X217714Y212687D01*
X216866Y212856D01*
X214110D01*
X213895Y212813D01*
X213502Y213140D01*
X213895Y213467D01*
X214110Y213424D01*
X216866D01*
X217714Y213593D01*
X218433Y214073D01*
X218913Y214792D01*
X219082Y215640D01*
X218913Y216488D01*
X218433Y217207D01*
X217714Y217688D01*
X216866Y217856D01*
X214110D01*
X213895Y217813D01*
X213502Y218140D01*
X213895Y218467D01*
X214110Y218424D01*
X216866D01*
X217714Y218593D01*
X218433Y219073D01*
X218913Y219792D01*
X219082Y220640D01*
X218913Y221488D01*
X218433Y222207D01*
X217714Y222688D01*
X217313Y222767D01*
Y225640D01*
X217196Y226225D01*
X216865Y226722D01*
X213367Y230220D01*
X212871Y230551D01*
X212285Y230667D01*
X211442D01*
X211291Y230892D01*
X211112Y231012D01*
Y255168D01*
X210996Y255753D01*
X210664Y256249D01*
X197390Y269523D01*
X197432Y269735D01*
X197248Y270659D01*
X196724Y271443D01*
X195940Y271967D01*
X195016Y272151D01*
D02*
G37*
G36*
X153972Y249848D02*
X153048Y249664D01*
X152264Y249140D01*
X151740Y248356D01*
X151556Y247431D01*
X151740Y246507D01*
X152264Y245723D01*
X152443Y245603D01*
Y221674D01*
X152559Y221089D01*
X152891Y220592D01*
X161569Y211915D01*
X161527Y211703D01*
X161711Y210778D01*
X162234Y209995D01*
X163018Y209471D01*
X163943Y209287D01*
X164868Y209471D01*
X165652Y209995D01*
X166176Y210778D01*
X166360Y211703D01*
X166176Y212628D01*
X165652Y213412D01*
X164868Y213936D01*
X163943Y214120D01*
X163732Y214078D01*
X155502Y222307D01*
Y245603D01*
X155681Y245723D01*
X156205Y246507D01*
X156389Y247431D01*
X156205Y248356D01*
X155681Y249140D01*
X154897Y249664D01*
X153972Y249848D01*
D02*
G37*
G36*
X216866Y207856D02*
X215787D01*
Y205939D01*
X219022D01*
X218913Y206488D01*
X218433Y207207D01*
X217714Y207687D01*
X216866Y207856D01*
D02*
G37*
G36*
X219022Y205341D02*
X215787D01*
Y203424D01*
X216866D01*
X217714Y203593D01*
X218433Y204073D01*
X218913Y204792D01*
X219022Y205341D01*
D02*
G37*
G36*
X206096Y179929D02*
X202401D01*
Y176235D01*
X206096D01*
Y179929D01*
D02*
G37*
G36*
X201803D02*
X198108D01*
Y176235D01*
X201803D01*
Y179929D01*
D02*
G37*
G36*
X206096Y175636D02*
X202401D01*
Y171941D01*
X206096D01*
Y175636D01*
D02*
G37*
G36*
X201803D02*
X198108D01*
Y171941D01*
X201803D01*
Y175636D01*
D02*
G37*
G36*
X192102Y179964D02*
X191060Y179827D01*
X190088Y179424D01*
X189254Y178784D01*
X188613Y177950D01*
X188211Y176978D01*
X188074Y175935D01*
X188211Y174893D01*
X188613Y173921D01*
X189254Y173087D01*
X190088Y172447D01*
X191060Y172044D01*
X192102Y171907D01*
X193145Y172044D01*
X194117Y172447D01*
X194951Y173087D01*
X195591Y173921D01*
X195994Y174893D01*
X196131Y175935D01*
X195994Y176978D01*
X195591Y177950D01*
X194951Y178784D01*
X194117Y179424D01*
X193145Y179827D01*
X192102Y179964D01*
D02*
G37*
G36*
X187240Y225191D02*
X186546Y225053D01*
X185957Y224659D01*
X185564Y224071D01*
X185426Y223376D01*
X185564Y222682D01*
X185957Y222093D01*
X186425Y221781D01*
Y214364D01*
X181526Y209464D01*
X181350Y209200D01*
X181288Y208888D01*
Y179857D01*
X181060Y179827D01*
X180088Y179424D01*
X179254Y178784D01*
X178613Y177950D01*
X178211Y176978D01*
X178074Y175935D01*
X178211Y174893D01*
X178613Y173921D01*
X179254Y173087D01*
X180088Y172447D01*
X181060Y172044D01*
X182102Y171907D01*
X183145Y172044D01*
X184117Y172447D01*
X184951Y173087D01*
X185591Y173921D01*
X185994Y174893D01*
X186131Y175935D01*
X185994Y176978D01*
X185591Y177950D01*
X184951Y178784D01*
X184117Y179424D01*
X183145Y179827D01*
X182917Y179857D01*
Y208551D01*
X187816Y213450D01*
X187993Y213714D01*
X188055Y214026D01*
Y221781D01*
X188523Y222093D01*
X188916Y222682D01*
X189055Y223376D01*
X188916Y224071D01*
X188523Y224659D01*
X187935Y225053D01*
X187240Y225191D01*
D02*
G37*
G36*
X183118Y242466D02*
X182423Y242328D01*
X181835Y241935D01*
X181441Y241346D01*
X181303Y240652D01*
X181441Y239957D01*
X181835Y239369D01*
X182303Y239056D01*
Y217780D01*
X171526Y207004D01*
X171350Y206739D01*
X171288Y206428D01*
Y179857D01*
X171060Y179827D01*
X170088Y179424D01*
X169254Y178784D01*
X168614Y177950D01*
X168211Y176978D01*
X168074Y175935D01*
X168211Y174893D01*
X168614Y173921D01*
X169254Y173087D01*
X170088Y172447D01*
X171060Y172044D01*
X172102Y171907D01*
X173145Y172044D01*
X174117Y172447D01*
X174951Y173087D01*
X175591Y173921D01*
X175994Y174893D01*
X176131Y175935D01*
X175994Y176978D01*
X175591Y177950D01*
X174951Y178784D01*
X174117Y179424D01*
X173145Y179827D01*
X172917Y179857D01*
Y206090D01*
X183694Y216867D01*
X183871Y217131D01*
X183933Y217443D01*
Y239056D01*
X184401Y239369D01*
X184794Y239957D01*
X184932Y240652D01*
X184794Y241346D01*
X184401Y241935D01*
X183812Y242328D01*
X183118Y242466D01*
D02*
G37*
G36*
X177811Y243931D02*
X177117Y243793D01*
X176528Y243400D01*
X176135Y242811D01*
X175997Y242116D01*
X176135Y241422D01*
X176528Y240834D01*
X176996Y240521D01*
Y218517D01*
X161526Y203047D01*
X161349Y202783D01*
X161287Y202471D01*
Y179857D01*
X161060Y179827D01*
X160088Y179424D01*
X159254Y178784D01*
X158614Y177950D01*
X158211Y176978D01*
X158074Y175935D01*
X158211Y174893D01*
X158614Y173921D01*
X159254Y173087D01*
X160088Y172447D01*
X161060Y172044D01*
X162102Y171907D01*
X163145Y172044D01*
X164117Y172447D01*
X164951Y173087D01*
X165591Y173921D01*
X165994Y174893D01*
X166131Y175935D01*
X165994Y176978D01*
X165591Y177950D01*
X164951Y178784D01*
X164117Y179424D01*
X163145Y179827D01*
X162917Y179857D01*
Y202133D01*
X178387Y217603D01*
X178564Y217868D01*
X178626Y218179D01*
Y240521D01*
X179094Y240834D01*
X179487Y241422D01*
X179625Y242116D01*
X179487Y242811D01*
X179094Y243400D01*
X178505Y243793D01*
X177811Y243931D01*
D02*
G37*
G36*
X80646Y354217D02*
X79618Y354082D01*
X78660Y353685D01*
X77838Y353054D01*
X77207Y352232D01*
X76810Y351274D01*
X76675Y350247D01*
X76810Y349219D01*
X77207Y348261D01*
X77838Y347439D01*
X78660Y346808D01*
X79618Y346411D01*
X80646Y346275D01*
X81673Y346411D01*
X82631Y346808D01*
X83454Y347439D01*
X84085Y348261D01*
X84481Y349219D01*
X84617Y350247D01*
X84481Y351274D01*
X84085Y352232D01*
X83454Y353054D01*
X82631Y353685D01*
X81673Y354082D01*
X80646Y354217D01*
D02*
G37*
G36*
X62929D02*
X61901Y354082D01*
X60944Y353685D01*
X60121Y353054D01*
X59490Y352232D01*
X59093Y351274D01*
X58958Y350247D01*
X59093Y349219D01*
X59490Y348261D01*
X60121Y347439D01*
X60944Y346808D01*
X61901Y346411D01*
X62929Y346275D01*
X63957Y346411D01*
X64915Y346808D01*
X65737Y347439D01*
X66368Y348261D01*
X66765Y349219D01*
X66900Y350247D01*
X66765Y351274D01*
X66368Y352232D01*
X65737Y353054D01*
X64915Y353685D01*
X63957Y354082D01*
X62929Y354217D01*
D02*
G37*
G36*
X94622Y357171D02*
X93798Y357063D01*
X93030Y356745D01*
X92370Y356239D01*
X91864Y355579D01*
X91546Y354811D01*
X91437Y353987D01*
Y346506D01*
X91546Y345682D01*
X91864Y344914D01*
X92370Y344254D01*
X93030Y343748D01*
X93798Y343430D01*
X94622Y343322D01*
X95446Y343430D01*
X96214Y343748D01*
X96874Y344254D01*
X97380Y344914D01*
X97698Y345682D01*
X97807Y346506D01*
Y353987D01*
X97698Y354811D01*
X97380Y355579D01*
X96874Y356239D01*
X96214Y356745D01*
X95446Y357063D01*
X94622Y357171D01*
D02*
G37*
G36*
X48953D02*
X48129Y357063D01*
X47360Y356745D01*
X46701Y356239D01*
X46195Y355579D01*
X45877Y354811D01*
X45768Y353987D01*
Y346506D01*
X45877Y345682D01*
X46195Y344914D01*
X46701Y344254D01*
X47360Y343748D01*
X48129Y343430D01*
X48953Y343322D01*
X49777Y343430D01*
X50545Y343748D01*
X51205Y344254D01*
X51711Y344914D01*
X52029Y345682D01*
X52138Y346506D01*
Y353987D01*
X52029Y354811D01*
X51711Y355579D01*
X51205Y356239D01*
X50545Y356745D01*
X49777Y357063D01*
X48953Y357171D01*
D02*
G37*
G36*
X57614Y334553D02*
X56689Y334369D01*
X55905Y333845D01*
X55382Y333061D01*
X55198Y332136D01*
X55382Y331211D01*
X55905Y330428D01*
X56689Y329904D01*
X57614Y329720D01*
X57826Y329762D01*
X59978Y327610D01*
X60474Y327278D01*
X61059Y327162D01*
X61548D01*
X62043Y327063D01*
X96843D01*
X98842Y325064D01*
X98800Y324853D01*
X98984Y323928D01*
X99508Y323144D01*
X100292Y322620D01*
X101216Y322436D01*
X102141Y322620D01*
X102925Y323144D01*
X103449Y323928D01*
X103633Y324853D01*
X103449Y325778D01*
X102925Y326561D01*
X102141Y327085D01*
X101216Y327269D01*
X101005Y327227D01*
X98558Y329674D01*
X98062Y330006D01*
X97476Y330122D01*
X62538D01*
X62043Y330221D01*
X61693D01*
X59989Y331925D01*
X60031Y332136D01*
X59847Y333061D01*
X59323Y333845D01*
X58539Y334369D01*
X57614Y334553D01*
D02*
G37*
G36*
X80449Y312002D02*
X79755Y311864D01*
X79166Y311470D01*
X78772Y310882D01*
X78634Y310187D01*
X78744Y309635D01*
X65109Y296000D01*
X64932Y295736D01*
X64870Y295424D01*
Y272425D01*
X64402Y272112D01*
X64009Y271523D01*
X63871Y270829D01*
X64009Y270134D01*
X64402Y269546D01*
X64991Y269152D01*
X65685Y269014D01*
X66379Y269152D01*
X66968Y269546D01*
X67361Y270134D01*
X67499Y270829D01*
X67361Y271523D01*
X66968Y272112D01*
X66500Y272425D01*
Y295086D01*
X79897Y308483D01*
X80449Y308373D01*
X81143Y308511D01*
X81732Y308904D01*
X82125Y309493D01*
X82263Y310187D01*
X82125Y310882D01*
X81732Y311470D01*
X81143Y311864D01*
X80449Y312002D01*
D02*
G37*
G36*
X82024Y303931D02*
X81329Y303793D01*
X80741Y303399D01*
X80347Y302811D01*
X80209Y302117D01*
X80319Y301564D01*
X69440Y290685D01*
X69263Y290421D01*
X69201Y290109D01*
Y275673D01*
X68733Y275360D01*
X68339Y274771D01*
X68201Y274077D01*
X68339Y273382D01*
X68733Y272794D01*
X69321Y272401D01*
X70016Y272263D01*
X70710Y272401D01*
X71299Y272794D01*
X71692Y273382D01*
X71830Y274077D01*
X71692Y274771D01*
X71299Y275360D01*
X70831Y275673D01*
Y289771D01*
X81471Y300412D01*
X82024Y300302D01*
X82718Y300440D01*
X83307Y300834D01*
X83700Y301422D01*
X83838Y302117D01*
X83700Y302811D01*
X83307Y303399D01*
X82718Y303793D01*
X82024Y303931D01*
D02*
G37*
G36*
X73854Y258695D02*
X73160Y258557D01*
X72571Y258163D01*
X72178Y257575D01*
X72040Y256880D01*
X72178Y256186D01*
X72571Y255597D01*
X73039Y255285D01*
Y249663D01*
X73102Y249351D01*
X73278Y249086D01*
X92039Y230326D01*
X91929Y229774D01*
X92067Y229080D01*
X92460Y228491D01*
X93049Y228098D01*
X93743Y227960D01*
X94437Y228098D01*
X95026Y228491D01*
X95419Y229080D01*
X95557Y229774D01*
X95419Y230468D01*
X95026Y231057D01*
X94437Y231450D01*
X93743Y231588D01*
X93191Y231479D01*
X74669Y250000D01*
Y255285D01*
X75137Y255597D01*
X75531Y256186D01*
X75669Y256880D01*
X75531Y257575D01*
X75137Y258163D01*
X74549Y258557D01*
X73854Y258695D01*
D02*
G37*
G36*
X84780Y272151D02*
X83855Y271967D01*
X83071Y271443D01*
X82547Y270659D01*
X82363Y269735D01*
X82547Y268810D01*
X83071Y268026D01*
X83855Y267502D01*
X84780Y267318D01*
X84991Y267360D01*
X97817Y254534D01*
Y231012D01*
X97638Y230892D01*
X97114Y230108D01*
X96930Y229184D01*
X96972Y228972D01*
X82078Y214078D01*
X81866Y214120D01*
X80941Y213936D01*
X80157Y213412D01*
X79634Y212628D01*
X79450Y211703D01*
X79634Y210778D01*
X80157Y209995D01*
X80941Y209471D01*
X81866Y209287D01*
X82791Y209471D01*
X83575Y209995D01*
X84099Y210778D01*
X84283Y211703D01*
X84241Y211915D01*
X99135Y226809D01*
X99346Y226767D01*
X100271Y226951D01*
X101055Y227475D01*
X101582Y227442D01*
X104018Y225007D01*
Y222856D01*
X103874D01*
X103345Y222751D01*
X102912Y223140D01*
X102744Y223985D01*
X102266Y224701D01*
X101550Y225180D01*
X100705Y225348D01*
X99860Y225180D01*
X99144Y224701D01*
X98665Y223985D01*
X98497Y223140D01*
X98665Y222295D01*
X99144Y221579D01*
X99860Y221100D01*
X100705Y220932D01*
X100788Y220949D01*
X101164Y220640D01*
X100788Y220331D01*
X100705Y220348D01*
X99860Y220180D01*
X99144Y219701D01*
X98665Y218985D01*
X98497Y218140D01*
X98665Y217295D01*
X99144Y216579D01*
X99860Y216101D01*
X100705Y215932D01*
X100788Y215949D01*
X101164Y215640D01*
X100788Y215331D01*
X100705Y215348D01*
X99860Y215180D01*
X99144Y214701D01*
X98665Y213985D01*
X98497Y213140D01*
X98665Y212295D01*
X99144Y211579D01*
X99860Y211101D01*
X100705Y210932D01*
X100788Y210949D01*
X101164Y210640D01*
X100788Y210331D01*
X100705Y210348D01*
X99860Y210180D01*
X99144Y209701D01*
X98665Y208985D01*
X98497Y208140D01*
X98665Y207295D01*
X99144Y206579D01*
X99860Y206101D01*
X100705Y205932D01*
X100788Y205949D01*
X101164Y205640D01*
X100788Y205331D01*
X100705Y205348D01*
X99860Y205180D01*
X99144Y204701D01*
X98665Y203985D01*
X98497Y203140D01*
X98665Y202295D01*
X99144Y201579D01*
X99860Y201100D01*
X100705Y200932D01*
X101550Y201100D01*
X102266Y201579D01*
X102744Y202295D01*
X102912Y203140D01*
X103345Y203529D01*
X103874Y203424D01*
X104953D01*
Y205640D01*
Y207856D01*
X103874D01*
X103658Y207813D01*
X103266Y208140D01*
X103658Y208467D01*
X103874Y208424D01*
X106630D01*
X107478Y208593D01*
X108197Y209073D01*
X108677Y209792D01*
X108846Y210640D01*
X108677Y211488D01*
X108197Y212207D01*
X107478Y212687D01*
X106630Y212856D01*
X103874D01*
X103658Y212813D01*
X103266Y213140D01*
X103658Y213467D01*
X103874Y213424D01*
X106630D01*
X107478Y213593D01*
X108197Y214073D01*
X108677Y214792D01*
X108846Y215640D01*
X108677Y216488D01*
X108197Y217207D01*
X107478Y217688D01*
X106630Y217856D01*
X103874D01*
X103658Y217813D01*
X103266Y218140D01*
X103658Y218467D01*
X103874Y218424D01*
X106630D01*
X107478Y218593D01*
X108197Y219073D01*
X108677Y219792D01*
X108846Y220640D01*
X108677Y221488D01*
X108197Y222207D01*
X107478Y222688D01*
X107076Y222767D01*
Y225640D01*
X106960Y226225D01*
X106628Y226722D01*
X103130Y230220D01*
X102634Y230551D01*
X102049Y230667D01*
X101205D01*
X101055Y230892D01*
X100876Y231012D01*
Y255168D01*
X100759Y255753D01*
X100428Y256249D01*
X87154Y269523D01*
X87196Y269735D01*
X87012Y270659D01*
X86488Y271443D01*
X85704Y271967D01*
X84780Y272151D01*
D02*
G37*
G36*
X43736Y249848D02*
X42811Y249664D01*
X42028Y249140D01*
X41504Y248356D01*
X41320Y247431D01*
X41504Y246507D01*
X42028Y245723D01*
X42207Y245603D01*
Y221674D01*
X42323Y221089D01*
X42655Y220592D01*
X51332Y211915D01*
X51290Y211703D01*
X51474Y210778D01*
X51998Y209995D01*
X52782Y209471D01*
X53707Y209287D01*
X54632Y209471D01*
X55416Y209995D01*
X55940Y210778D01*
X56124Y211703D01*
X55940Y212628D01*
X55416Y213412D01*
X54632Y213936D01*
X53707Y214120D01*
X53495Y214078D01*
X45266Y222307D01*
Y245603D01*
X45445Y245723D01*
X45969Y246507D01*
X46153Y247431D01*
X45969Y248356D01*
X45445Y249140D01*
X44661Y249664D01*
X43736Y249848D01*
D02*
G37*
G36*
X106630Y207856D02*
X105551D01*
Y205939D01*
X108786D01*
X108677Y206488D01*
X108197Y207207D01*
X107478Y207687D01*
X106630Y207856D01*
D02*
G37*
G36*
X108786Y205341D02*
X105551D01*
Y203424D01*
X106630D01*
X107478Y203593D01*
X108197Y204073D01*
X108677Y204792D01*
X108786Y205341D01*
D02*
G37*
G36*
X95860Y179929D02*
X92165D01*
Y176235D01*
X95860D01*
Y179929D01*
D02*
G37*
G36*
X91567D02*
X87872D01*
Y176235D01*
X91567D01*
Y179929D01*
D02*
G37*
G36*
X95860Y175636D02*
X92165D01*
Y171941D01*
X95860D01*
Y175636D01*
D02*
G37*
G36*
X91567D02*
X87872D01*
Y171941D01*
X91567D01*
Y175636D01*
D02*
G37*
G36*
X81866Y179964D02*
X80823Y179827D01*
X79852Y179424D01*
X79018Y178784D01*
X78377Y177950D01*
X77975Y176978D01*
X77838Y175935D01*
X77975Y174893D01*
X78377Y173921D01*
X79018Y173087D01*
X79852Y172447D01*
X80823Y172044D01*
X81866Y171907D01*
X82909Y172044D01*
X83880Y172447D01*
X84715Y173087D01*
X85355Y173921D01*
X85757Y174893D01*
X85895Y175935D01*
X85757Y176978D01*
X85355Y177950D01*
X84715Y178784D01*
X83880Y179424D01*
X82909Y179827D01*
X81866Y179964D01*
D02*
G37*
G36*
X77004Y225191D02*
X76310Y225053D01*
X75721Y224659D01*
X75328Y224071D01*
X75190Y223376D01*
X75328Y222682D01*
X75721Y222093D01*
X76189Y221781D01*
Y214364D01*
X71290Y209464D01*
X71113Y209200D01*
X71051Y208888D01*
Y179857D01*
X70824Y179827D01*
X69852Y179424D01*
X69017Y178784D01*
X68377Y177950D01*
X67975Y176978D01*
X67838Y175935D01*
X67975Y174893D01*
X68377Y173921D01*
X69017Y173087D01*
X69852Y172447D01*
X70824Y172044D01*
X71866Y171907D01*
X72909Y172044D01*
X73880Y172447D01*
X74715Y173087D01*
X75355Y173921D01*
X75757Y174893D01*
X75895Y175935D01*
X75757Y176978D01*
X75355Y177950D01*
X74715Y178784D01*
X73880Y179424D01*
X72909Y179827D01*
X72681Y179857D01*
Y208551D01*
X77580Y213450D01*
X77757Y213714D01*
X77819Y214026D01*
Y221781D01*
X78287Y222093D01*
X78680Y222682D01*
X78818Y223376D01*
X78680Y224071D01*
X78287Y224659D01*
X77698Y225053D01*
X77004Y225191D01*
D02*
G37*
G36*
X72882Y242466D02*
X72187Y242328D01*
X71599Y241935D01*
X71205Y241346D01*
X71067Y240652D01*
X71205Y239957D01*
X71599Y239369D01*
X72067Y239056D01*
Y217780D01*
X61290Y207004D01*
X61113Y206739D01*
X61051Y206428D01*
Y179857D01*
X60824Y179827D01*
X59852Y179424D01*
X59017Y178784D01*
X58377Y177950D01*
X57975Y176978D01*
X57838Y175935D01*
X57975Y174893D01*
X58377Y173921D01*
X59017Y173087D01*
X59852Y172447D01*
X60824Y172044D01*
X61866Y171907D01*
X62909Y172044D01*
X63880Y172447D01*
X64715Y173087D01*
X65355Y173921D01*
X65757Y174893D01*
X65895Y175935D01*
X65757Y176978D01*
X65355Y177950D01*
X64715Y178784D01*
X63880Y179424D01*
X62909Y179827D01*
X62681Y179857D01*
Y206090D01*
X73458Y216867D01*
X73634Y217131D01*
X73696Y217443D01*
Y239056D01*
X74164Y239369D01*
X74558Y239957D01*
X74696Y240652D01*
X74558Y241346D01*
X74164Y241935D01*
X73576Y242328D01*
X72882Y242466D01*
D02*
G37*
G36*
X67575Y243931D02*
X66880Y243793D01*
X66292Y243400D01*
X65899Y242811D01*
X65760Y242116D01*
X65899Y241422D01*
X66292Y240834D01*
X66760Y240521D01*
Y218517D01*
X51290Y203047D01*
X51113Y202783D01*
X51051Y202471D01*
Y179857D01*
X50823Y179827D01*
X49852Y179424D01*
X49018Y178784D01*
X48377Y177950D01*
X47975Y176978D01*
X47838Y175935D01*
X47975Y174893D01*
X48377Y173921D01*
X49018Y173087D01*
X49852Y172447D01*
X50823Y172044D01*
X51866Y171907D01*
X52909Y172044D01*
X53880Y172447D01*
X54715Y173087D01*
X55355Y173921D01*
X55757Y174893D01*
X55895Y175935D01*
X55757Y176978D01*
X55355Y177950D01*
X54715Y178784D01*
X53880Y179424D01*
X52909Y179827D01*
X52681Y179857D01*
Y202133D01*
X68151Y217603D01*
X68328Y217868D01*
X68390Y218179D01*
Y240521D01*
X68858Y240834D01*
X69251Y241422D01*
X69389Y242116D01*
X69251Y242811D01*
X68858Y243400D01*
X68269Y243793D01*
X67575Y243931D01*
D02*
G37*
G36*
X515174Y116575D02*
Y113340D01*
X517090D01*
Y114419D01*
X516922Y115267D01*
X516441Y115986D01*
X515723Y116466D01*
X515174Y116575D01*
D02*
G37*
G36*
X514575D02*
X514026Y116466D01*
X513308Y115986D01*
X512827Y115267D01*
X512658Y114419D01*
Y113340D01*
X514575D01*
Y116575D01*
D02*
G37*
G36*
X509874Y116635D02*
X509026Y116466D01*
X508308Y115986D01*
X507827Y115267D01*
X507658Y114419D01*
Y111663D01*
X507701Y111448D01*
X507374Y111055D01*
X507048Y111448D01*
X507090Y111663D01*
Y114419D01*
X506922Y115267D01*
X506441Y115986D01*
X505723Y116466D01*
X504874Y116635D01*
X504026Y116466D01*
X503307Y115986D01*
X502827Y115267D01*
X502658Y114419D01*
Y111663D01*
X502701Y111448D01*
X502374Y111055D01*
X502048Y111448D01*
X502090Y111663D01*
Y114419D01*
X501922Y115267D01*
X501441Y115986D01*
X500723Y116466D01*
X499874Y116635D01*
X499026Y116466D01*
X498308Y115986D01*
X497827Y115267D01*
X497747Y114865D01*
X494874D01*
X494289Y114749D01*
X493793Y114418D01*
X490295Y110920D01*
X489964Y110423D01*
X489847Y109838D01*
Y108994D01*
X489622Y108844D01*
X489502Y108665D01*
X465347D01*
X464762Y108548D01*
X464265Y108217D01*
X450991Y94943D01*
X450780Y94985D01*
X449855Y94801D01*
X449071Y94277D01*
X448547Y93493D01*
X448363Y92568D01*
X448547Y91644D01*
X449071Y90860D01*
X449855Y90336D01*
X450780Y90152D01*
X451705Y90336D01*
X452489Y90860D01*
X453013Y91644D01*
X453196Y92568D01*
X453154Y92780D01*
X465980Y105606D01*
X489502D01*
X489622Y105427D01*
X490406Y104903D01*
X491331Y104719D01*
X491543Y104761D01*
X506437Y89867D01*
X506395Y89655D01*
X506579Y88730D01*
X507103Y87946D01*
X507887Y87423D01*
X508811Y87239D01*
X509736Y87423D01*
X510520Y87946D01*
X511044Y88730D01*
X511228Y89655D01*
X511044Y90580D01*
X510520Y91364D01*
X509736Y91888D01*
X508811Y92072D01*
X508600Y92030D01*
X493706Y106924D01*
X493748Y107135D01*
X493564Y108060D01*
X493040Y108844D01*
X493073Y109371D01*
X495508Y111807D01*
X497658D01*
Y111663D01*
X497764Y111134D01*
X497374Y110702D01*
X496529Y110533D01*
X495813Y110055D01*
X495335Y109339D01*
X495167Y108494D01*
X495335Y107649D01*
X495813Y106933D01*
X496529Y106454D01*
X497374Y106286D01*
X498219Y106454D01*
X498936Y106933D01*
X499414Y107649D01*
X499582Y108494D01*
X499566Y108577D01*
X499874Y108953D01*
X500183Y108577D01*
X500167Y108494D01*
X500335Y107649D01*
X500813Y106933D01*
X501530Y106454D01*
X502374Y106286D01*
X503219Y106454D01*
X503935Y106933D01*
X504414Y107649D01*
X504582Y108494D01*
X504566Y108577D01*
X504874Y108953D01*
X505183Y108577D01*
X505167Y108494D01*
X505335Y107649D01*
X505813Y106933D01*
X506530Y106454D01*
X507374Y106286D01*
X508219Y106454D01*
X508935Y106933D01*
X509414Y107649D01*
X509582Y108494D01*
X509566Y108577D01*
X509874Y108953D01*
X510183Y108577D01*
X510167Y108494D01*
X510335Y107649D01*
X510813Y106933D01*
X511529Y106454D01*
X512374Y106286D01*
X513219Y106454D01*
X513936Y106933D01*
X514414Y107649D01*
X514582Y108494D01*
X514566Y108577D01*
X514874Y108953D01*
X515183Y108577D01*
X515167Y108494D01*
X515335Y107649D01*
X515813Y106933D01*
X516530Y106454D01*
X517374Y106286D01*
X518219Y106454D01*
X518935Y106933D01*
X519414Y107649D01*
X519582Y108494D01*
X519414Y109339D01*
X518935Y110055D01*
X518219Y110533D01*
X517374Y110702D01*
X516985Y111134D01*
X517090Y111663D01*
Y112741D01*
X512658D01*
Y111663D01*
X512701Y111448D01*
X512374Y111055D01*
X512048Y111448D01*
X512090Y111663D01*
Y114419D01*
X511922Y115267D01*
X511441Y115986D01*
X510722Y116466D01*
X509874Y116635D01*
D02*
G37*
G36*
X395662Y111422D02*
X394737Y111238D01*
X393953Y110714D01*
X393429Y109930D01*
X393245Y109005D01*
X393287Y108794D01*
X390840Y106347D01*
X390509Y105851D01*
X390392Y105265D01*
Y70327D01*
X390294Y69832D01*
Y69481D01*
X388590Y67778D01*
X388378Y67820D01*
X387454Y67636D01*
X386670Y67112D01*
X386146Y66328D01*
X385962Y65403D01*
X386146Y64478D01*
X386670Y63694D01*
X387454Y63171D01*
X388378Y62987D01*
X389303Y63171D01*
X390087Y63694D01*
X390611Y64478D01*
X390795Y65403D01*
X390753Y65615D01*
X392905Y67767D01*
X393236Y68263D01*
X393353Y68848D01*
Y69337D01*
X393451Y69832D01*
Y104632D01*
X395450Y106631D01*
X395662Y106589D01*
X396587Y106773D01*
X397371Y107297D01*
X397894Y108081D01*
X398078Y109005D01*
X397894Y109930D01*
X397371Y110714D01*
X396587Y111238D01*
X395662Y111422D01*
D02*
G37*
G36*
X548573Y103649D02*
X544878D01*
Y99954D01*
X548573D01*
Y103649D01*
D02*
G37*
G36*
X544280D02*
X540585D01*
Y99954D01*
X544280D01*
Y103649D01*
D02*
G37*
G36*
X490740Y103346D02*
X490046Y103208D01*
X489458Y102815D01*
X489064Y102226D01*
X488926Y101532D01*
X489036Y100980D01*
X470514Y82458D01*
X465230D01*
X464917Y82926D01*
X464329Y83320D01*
X463634Y83458D01*
X462940Y83320D01*
X462351Y82926D01*
X461958Y82338D01*
X461820Y81643D01*
X461958Y80949D01*
X462351Y80360D01*
X462940Y79967D01*
X463634Y79829D01*
X464329Y79967D01*
X464917Y80360D01*
X465230Y80828D01*
X470852D01*
X471164Y80891D01*
X471428Y81067D01*
X490188Y99827D01*
X490740Y99718D01*
X491435Y99856D01*
X492024Y100249D01*
X492417Y100838D01*
X492555Y101532D01*
X492417Y102226D01*
X492024Y102815D01*
X491435Y103208D01*
X490740Y103346D01*
D02*
G37*
G36*
X374008Y105596D02*
X366528D01*
X365704Y105487D01*
X364936Y105169D01*
X364276Y104663D01*
X363770Y104003D01*
X363452Y103235D01*
X363343Y102411D01*
X363452Y101587D01*
X363770Y100819D01*
X364276Y100159D01*
X364936Y99653D01*
X365704Y99335D01*
X366528Y99226D01*
X374008D01*
X374833Y99335D01*
X375601Y99653D01*
X376260Y100159D01*
X376766Y100819D01*
X377084Y101587D01*
X377193Y102411D01*
X377084Y103235D01*
X376766Y104003D01*
X376260Y104663D01*
X375601Y105169D01*
X374833Y105487D01*
X374008Y105596D01*
D02*
G37*
G36*
X548573Y99356D02*
X544878D01*
Y95661D01*
X548573D01*
Y99356D01*
D02*
G37*
G36*
X544280D02*
X540585D01*
Y95661D01*
X544280D01*
Y99356D01*
D02*
G37*
G36*
X544579Y93684D02*
X543537Y93546D01*
X542565Y93144D01*
X541730Y92504D01*
X541090Y91669D01*
X540688Y90698D01*
X540551Y89655D01*
X540688Y88613D01*
X541090Y87641D01*
X541730Y86806D01*
X542565Y86166D01*
X543537Y85764D01*
X544579Y85627D01*
X545622Y85764D01*
X546593Y86166D01*
X547428Y86806D01*
X548068Y87641D01*
X548470Y88613D01*
X548608Y89655D01*
X548470Y90698D01*
X548068Y91669D01*
X547428Y92504D01*
X546593Y93144D01*
X545622Y93546D01*
X544579Y93684D01*
D02*
G37*
G36*
X370268Y92406D02*
X369240Y92270D01*
X368283Y91874D01*
X367460Y91243D01*
X366829Y90420D01*
X366432Y89462D01*
X366297Y88435D01*
X366432Y87407D01*
X366829Y86449D01*
X367460Y85627D01*
X368283Y84996D01*
X369240Y84599D01*
X370268Y84464D01*
X371296Y84599D01*
X372254Y84996D01*
X373076Y85627D01*
X373707Y86449D01*
X374104Y87407D01*
X374239Y88435D01*
X374104Y89462D01*
X373707Y90420D01*
X373076Y91243D01*
X372254Y91874D01*
X371296Y92270D01*
X370268Y92406D01*
D02*
G37*
G36*
X418398Y91627D02*
X417704Y91489D01*
X417115Y91096D01*
X416722Y90507D01*
X416584Y89813D01*
X416722Y89118D01*
X417115Y88530D01*
X417704Y88136D01*
X418398Y87998D01*
X418950Y88108D01*
X429830Y77228D01*
X430094Y77052D01*
X430406Y76990D01*
X444842D01*
X445155Y76522D01*
X445743Y76129D01*
X446438Y75990D01*
X447132Y76129D01*
X447721Y76522D01*
X448114Y77110D01*
X448252Y77805D01*
X448114Y78499D01*
X447721Y79088D01*
X447132Y79481D01*
X446438Y79619D01*
X445743Y79481D01*
X445155Y79088D01*
X444842Y78620D01*
X430744D01*
X420103Y89261D01*
X420212Y89813D01*
X420074Y90507D01*
X419681Y91096D01*
X419092Y91489D01*
X418398Y91627D01*
D02*
G37*
G36*
X497138Y86607D02*
X496444Y86469D01*
X495855Y86076D01*
X495462Y85487D01*
X495324Y84793D01*
X495462Y84099D01*
X495855Y83510D01*
X496444Y83117D01*
X497138Y82978D01*
X497832Y83117D01*
X498421Y83510D01*
X498734Y83978D01*
X506151D01*
X511050Y79079D01*
X511315Y78902D01*
X511626Y78840D01*
X540658D01*
X540688Y78613D01*
X541090Y77641D01*
X541730Y76806D01*
X542565Y76166D01*
X543537Y75764D01*
X544579Y75627D01*
X545622Y75764D01*
X546593Y76166D01*
X547428Y76806D01*
X548068Y77641D01*
X548470Y78613D01*
X548608Y79655D01*
X548470Y80698D01*
X548068Y81669D01*
X547428Y82504D01*
X546593Y83144D01*
X545622Y83546D01*
X544579Y83684D01*
X543537Y83546D01*
X542565Y83144D01*
X541730Y82504D01*
X541090Y81669D01*
X540688Y80698D01*
X540658Y80470D01*
X511964D01*
X507065Y85369D01*
X506801Y85546D01*
X506489Y85608D01*
X498734D01*
X498421Y86076D01*
X497832Y86469D01*
X497138Y86607D01*
D02*
G37*
G36*
X410327Y90052D02*
X409633Y89914D01*
X409044Y89521D01*
X408651Y88932D01*
X408513Y88238D01*
X408651Y87543D01*
X409044Y86955D01*
X409633Y86562D01*
X410327Y86423D01*
X410879Y86533D01*
X424515Y72898D01*
X424779Y72721D01*
X425091Y72659D01*
X448090D01*
X448403Y72191D01*
X448991Y71798D01*
X449686Y71660D01*
X450380Y71798D01*
X450969Y72191D01*
X451362Y72780D01*
X451500Y73474D01*
X451362Y74168D01*
X450969Y74757D01*
X450380Y75150D01*
X449686Y75288D01*
X448991Y75150D01*
X448403Y74757D01*
X448090Y74289D01*
X425428D01*
X412032Y87686D01*
X412142Y88238D01*
X412003Y88932D01*
X411610Y89521D01*
X411022Y89914D01*
X410327Y90052D01*
D02*
G37*
G36*
X370268Y74689D02*
X369240Y74554D01*
X368283Y74157D01*
X367460Y73526D01*
X366829Y72704D01*
X366432Y71746D01*
X366297Y70718D01*
X366432Y69690D01*
X366829Y68733D01*
X367460Y67910D01*
X368283Y67279D01*
X369240Y66882D01*
X370268Y66747D01*
X371296Y66882D01*
X372254Y67279D01*
X373076Y67910D01*
X373707Y68733D01*
X374104Y69690D01*
X374239Y70718D01*
X374104Y71746D01*
X373707Y72704D01*
X373076Y73526D01*
X372254Y74157D01*
X371296Y74554D01*
X370268Y74689D01*
D02*
G37*
G36*
X479863Y82485D02*
X479169Y82347D01*
X478580Y81954D01*
X478187Y81365D01*
X478049Y80670D01*
X478187Y79976D01*
X478580Y79387D01*
X479169Y78994D01*
X479863Y78856D01*
X480557Y78994D01*
X481146Y79387D01*
X481459Y79856D01*
X502734D01*
X513511Y69079D01*
X513775Y68902D01*
X514087Y68840D01*
X540658D01*
X540688Y68612D01*
X541090Y67641D01*
X541730Y66807D01*
X542565Y66166D01*
X543537Y65764D01*
X544579Y65627D01*
X545622Y65764D01*
X546593Y66166D01*
X547428Y66807D01*
X548068Y67641D01*
X548470Y68612D01*
X548608Y69655D01*
X548470Y70698D01*
X548068Y71669D01*
X547428Y72504D01*
X546593Y73144D01*
X545622Y73546D01*
X544579Y73684D01*
X543537Y73546D01*
X542565Y73144D01*
X541730Y72504D01*
X541090Y71669D01*
X540688Y70698D01*
X540658Y70470D01*
X514425D01*
X503648Y81247D01*
X503383Y81423D01*
X503072Y81485D01*
X481459D01*
X481146Y81954D01*
X480557Y82347D01*
X479863Y82485D01*
D02*
G37*
G36*
X508811Y63912D02*
X507887Y63728D01*
X507103Y63205D01*
X506579Y62421D01*
X506395Y61496D01*
X506437Y61284D01*
X498207Y53055D01*
X474912D01*
X474792Y53234D01*
X474008Y53758D01*
X473083Y53942D01*
X472158Y53758D01*
X471374Y53234D01*
X470851Y52450D01*
X470667Y51525D01*
X470851Y50600D01*
X471374Y49817D01*
X472158Y49293D01*
X473083Y49109D01*
X474008Y49293D01*
X474792Y49817D01*
X474912Y49996D01*
X498841D01*
X499426Y50112D01*
X499922Y50444D01*
X508600Y59122D01*
X508811Y59079D01*
X509736Y59263D01*
X510520Y59787D01*
X511044Y60571D01*
X511228Y61496D01*
X511044Y62421D01*
X510520Y63205D01*
X509736Y63728D01*
X508811Y63912D01*
D02*
G37*
G36*
X478398Y77178D02*
X477704Y77040D01*
X477115Y76647D01*
X476722Y76058D01*
X476584Y75364D01*
X476722Y74669D01*
X477115Y74081D01*
X477704Y73687D01*
X478398Y73549D01*
X479092Y73687D01*
X479681Y74081D01*
X479994Y74549D01*
X501998D01*
X517467Y59079D01*
X517732Y58902D01*
X518044Y58840D01*
X540658D01*
X540688Y58613D01*
X541090Y57641D01*
X541730Y56806D01*
X542565Y56166D01*
X543537Y55764D01*
X544579Y55627D01*
X545622Y55764D01*
X546593Y56166D01*
X547428Y56806D01*
X548068Y57641D01*
X548470Y58613D01*
X548608Y59655D01*
X548470Y60698D01*
X548068Y61669D01*
X547428Y62504D01*
X546593Y63144D01*
X545622Y63546D01*
X544579Y63684D01*
X543537Y63546D01*
X542565Y63144D01*
X541730Y62504D01*
X541090Y61669D01*
X540688Y60698D01*
X540658Y60470D01*
X518381D01*
X502911Y75940D01*
X502647Y76117D01*
X502335Y76179D01*
X479994D01*
X479681Y76647D01*
X479092Y77040D01*
X478398Y77178D01*
D02*
G37*
G36*
X374008Y59926D02*
X366528D01*
X365704Y59818D01*
X364936Y59500D01*
X364276Y58994D01*
X363770Y58334D01*
X363452Y57566D01*
X363343Y56742D01*
X363452Y55918D01*
X363770Y55149D01*
X364276Y54490D01*
X364936Y53984D01*
X365704Y53666D01*
X366528Y53557D01*
X374008D01*
X374833Y53666D01*
X375601Y53984D01*
X376260Y54490D01*
X376766Y55149D01*
X377084Y55918D01*
X377193Y56742D01*
X377084Y57566D01*
X376766Y58334D01*
X376260Y58994D01*
X375601Y59500D01*
X374833Y59818D01*
X374008Y59926D01*
D02*
G37*
G36*
X222197Y116575D02*
Y113340D01*
X224114D01*
Y114419D01*
X223945Y115267D01*
X223464Y115986D01*
X222746Y116466D01*
X222197Y116575D01*
D02*
G37*
G36*
X221598D02*
X221049Y116466D01*
X220331Y115986D01*
X219850Y115267D01*
X219682Y114419D01*
Y113340D01*
X221598D01*
Y116575D01*
D02*
G37*
G36*
X216898Y116635D02*
X216050Y116466D01*
X215331Y115986D01*
X214850Y115267D01*
X214682Y114419D01*
Y111663D01*
X214724Y111447D01*
X214398Y111055D01*
X214071Y111447D01*
X214114Y111663D01*
Y114419D01*
X213945Y115267D01*
X213464Y115986D01*
X212746Y116466D01*
X211898Y116635D01*
X211050Y116466D01*
X210331Y115986D01*
X209850Y115267D01*
X209682Y114419D01*
Y111663D01*
X209724Y111447D01*
X209398Y111055D01*
X209071Y111447D01*
X209114Y111663D01*
Y114419D01*
X208945Y115267D01*
X208465Y115986D01*
X207746Y116466D01*
X206898Y116635D01*
X206049Y116466D01*
X205331Y115986D01*
X204850Y115267D01*
X204770Y114865D01*
X201898D01*
X201312Y114749D01*
X200816Y114417D01*
X197318Y110920D01*
X196987Y110423D01*
X196870Y109838D01*
Y108994D01*
X196645Y108844D01*
X196526Y108665D01*
X172370D01*
X171785Y108548D01*
X171289Y108217D01*
X158015Y94943D01*
X157803Y94985D01*
X156878Y94801D01*
X156094Y94277D01*
X155570Y93493D01*
X155387Y92568D01*
X155570Y91644D01*
X156094Y90860D01*
X156878Y90336D01*
X157803Y90152D01*
X158728Y90336D01*
X159512Y90860D01*
X160036Y91644D01*
X160220Y92568D01*
X160178Y92780D01*
X173003Y105606D01*
X196526D01*
X196645Y105427D01*
X197430Y104903D01*
X198354Y104719D01*
X198566Y104761D01*
X213460Y89867D01*
X213418Y89655D01*
X213602Y88730D01*
X214126Y87946D01*
X214910Y87423D01*
X215834Y87239D01*
X216759Y87423D01*
X217543Y87946D01*
X218067Y88730D01*
X218251Y89655D01*
X218067Y90580D01*
X217543Y91364D01*
X216759Y91888D01*
X215834Y92072D01*
X215623Y92030D01*
X200729Y106924D01*
X200771Y107135D01*
X200587Y108060D01*
X200063Y108844D01*
X200096Y109371D01*
X202531Y111807D01*
X204681D01*
Y111663D01*
X204787Y111134D01*
X204398Y110702D01*
X203553Y110533D01*
X202836Y110055D01*
X202358Y109339D01*
X202190Y108494D01*
X202358Y107649D01*
X202836Y106933D01*
X203553Y106454D01*
X204398Y106286D01*
X205242Y106454D01*
X205959Y106933D01*
X206437Y107649D01*
X206605Y108494D01*
X206589Y108577D01*
X206898Y108953D01*
X207206Y108577D01*
X207190Y108494D01*
X207358Y107649D01*
X207836Y106933D01*
X208553Y106454D01*
X209398Y106286D01*
X210242Y106454D01*
X210959Y106933D01*
X211437Y107649D01*
X211605Y108494D01*
X211589Y108577D01*
X211898Y108953D01*
X212206Y108577D01*
X212190Y108494D01*
X212358Y107649D01*
X212836Y106933D01*
X213553Y106454D01*
X214398Y106286D01*
X215242Y106454D01*
X215959Y106933D01*
X216437Y107649D01*
X216605Y108494D01*
X216589Y108577D01*
X216898Y108953D01*
X217206Y108577D01*
X217190Y108494D01*
X217358Y107649D01*
X217836Y106933D01*
X218553Y106454D01*
X219398Y106286D01*
X220242Y106454D01*
X220959Y106933D01*
X221437Y107649D01*
X221605Y108494D01*
X221589Y108577D01*
X221898Y108953D01*
X222206Y108577D01*
X222190Y108494D01*
X222358Y107649D01*
X222836Y106933D01*
X223553Y106454D01*
X224398Y106286D01*
X225242Y106454D01*
X225959Y106933D01*
X226437Y107649D01*
X226605Y108494D01*
X226437Y109339D01*
X225959Y110055D01*
X225242Y110533D01*
X224398Y110702D01*
X224008Y111134D01*
X224114Y111663D01*
Y112741D01*
X221898D01*
X219682D01*
Y111663D01*
X219724Y111447D01*
X219398Y111055D01*
X219071Y111447D01*
X219114Y111663D01*
Y114419D01*
X218945Y115267D01*
X218464Y115986D01*
X217746Y116466D01*
X216898Y116635D01*
D02*
G37*
G36*
X102685Y111422D02*
X101760Y111238D01*
X100976Y110714D01*
X100452Y109930D01*
X100268Y109005D01*
X100311Y108794D01*
X97863Y106347D01*
X97532Y105851D01*
X97415Y105265D01*
Y70327D01*
X97317Y69832D01*
Y69481D01*
X95613Y67778D01*
X95402Y67820D01*
X94477Y67636D01*
X93693Y67112D01*
X93169Y66328D01*
X92985Y65403D01*
X93169Y64478D01*
X93693Y63694D01*
X94477Y63171D01*
X95402Y62987D01*
X96326Y63171D01*
X97110Y63694D01*
X97634Y64478D01*
X97818Y65403D01*
X97776Y65615D01*
X99928Y67767D01*
X100259Y68263D01*
X100376Y68848D01*
Y69337D01*
X100474Y69832D01*
Y104632D01*
X102473Y106631D01*
X102685Y106589D01*
X103610Y106773D01*
X104394Y107297D01*
X104918Y108081D01*
X105102Y109005D01*
X104918Y109930D01*
X104394Y110714D01*
X103610Y111238D01*
X102685Y111422D01*
D02*
G37*
G36*
X255596Y103649D02*
X251902D01*
Y99954D01*
X255596D01*
Y103649D01*
D02*
G37*
G36*
X251303D02*
X247608D01*
Y99954D01*
X251303D01*
Y103649D01*
D02*
G37*
G36*
X197764Y103346D02*
X197069Y103208D01*
X196481Y102815D01*
X196087Y102226D01*
X195949Y101532D01*
X196059Y100980D01*
X177537Y82458D01*
X172253D01*
X171940Y82926D01*
X171352Y83320D01*
X170657Y83458D01*
X169963Y83320D01*
X169374Y82926D01*
X168981Y82338D01*
X168843Y81643D01*
X168981Y80949D01*
X169374Y80360D01*
X169963Y79967D01*
X170657Y79829D01*
X171352Y79967D01*
X171940Y80360D01*
X172253Y80828D01*
X177875D01*
X178187Y80891D01*
X178451Y81067D01*
X197212Y99827D01*
X197764Y99718D01*
X198458Y99856D01*
X199047Y100249D01*
X199440Y100838D01*
X199578Y101532D01*
X199440Y102226D01*
X199047Y102815D01*
X198458Y103208D01*
X197764Y103346D01*
D02*
G37*
G36*
X81031Y105596D02*
X73551D01*
X72727Y105487D01*
X71959Y105169D01*
X71299Y104663D01*
X70793Y104003D01*
X70475Y103235D01*
X70366Y102411D01*
X70475Y101587D01*
X70793Y100819D01*
X71299Y100159D01*
X71959Y99653D01*
X72727Y99335D01*
X73551Y99226D01*
X81031D01*
X81856Y99335D01*
X82624Y99653D01*
X83283Y100159D01*
X83789Y100819D01*
X84108Y101587D01*
X84216Y102411D01*
X84108Y103235D01*
X83789Y104003D01*
X83283Y104663D01*
X82624Y105169D01*
X81856Y105487D01*
X81031Y105596D01*
D02*
G37*
G36*
X255596Y99356D02*
X251902D01*
Y95661D01*
X255596D01*
Y99356D01*
D02*
G37*
G36*
X251303D02*
X247608D01*
Y95661D01*
X251303D01*
Y99356D01*
D02*
G37*
G36*
X251602Y93684D02*
X250560Y93546D01*
X249588Y93144D01*
X248754Y92504D01*
X248113Y91669D01*
X247711Y90698D01*
X247574Y89655D01*
X247711Y88613D01*
X248113Y87641D01*
X248754Y86806D01*
X249588Y86166D01*
X250560Y85764D01*
X251602Y85627D01*
X252645Y85764D01*
X253617Y86166D01*
X254451Y86806D01*
X255091Y87641D01*
X255494Y88613D01*
X255631Y89655D01*
X255494Y90698D01*
X255091Y91669D01*
X254451Y92504D01*
X253617Y93144D01*
X252645Y93546D01*
X251602Y93684D01*
D02*
G37*
G36*
X77291Y92406D02*
X76263Y92270D01*
X75306Y91874D01*
X74483Y91243D01*
X73852Y90420D01*
X73456Y89462D01*
X73320Y88435D01*
X73456Y87407D01*
X73852Y86449D01*
X74483Y85627D01*
X75306Y84996D01*
X76263Y84599D01*
X77291Y84464D01*
X78319Y84599D01*
X79277Y84996D01*
X80099Y85627D01*
X80730Y86449D01*
X81127Y87407D01*
X81262Y88435D01*
X81127Y89462D01*
X80730Y90420D01*
X80099Y91243D01*
X79277Y91874D01*
X78319Y92270D01*
X77291Y92406D01*
D02*
G37*
G36*
X125421Y91627D02*
X124727Y91489D01*
X124138Y91096D01*
X123745Y90507D01*
X123607Y89813D01*
X123745Y89118D01*
X124138Y88530D01*
X124727Y88136D01*
X125421Y87998D01*
X125973Y88108D01*
X136853Y77228D01*
X137117Y77052D01*
X137429Y76990D01*
X151865D01*
X152178Y76522D01*
X152767Y76128D01*
X153461Y75990D01*
X154155Y76128D01*
X154744Y76522D01*
X155137Y77110D01*
X155275Y77805D01*
X155137Y78499D01*
X154744Y79088D01*
X154155Y79481D01*
X153461Y79619D01*
X152767Y79481D01*
X152178Y79088D01*
X151865Y78620D01*
X137767D01*
X127126Y89260D01*
X127236Y89813D01*
X127097Y90507D01*
X126704Y91096D01*
X126116Y91489D01*
X125421Y91627D01*
D02*
G37*
G36*
X204161Y86607D02*
X203467Y86469D01*
X202878Y86076D01*
X202485Y85487D01*
X202347Y84793D01*
X202485Y84099D01*
X202878Y83510D01*
X203467Y83117D01*
X204161Y82978D01*
X204856Y83117D01*
X205444Y83510D01*
X205757Y83978D01*
X213174D01*
X218073Y79079D01*
X218338Y78902D01*
X218650Y78840D01*
X247681D01*
X247711Y78613D01*
X248113Y77641D01*
X248754Y76806D01*
X249588Y76166D01*
X250560Y75764D01*
X251602Y75627D01*
X252645Y75764D01*
X253617Y76166D01*
X254451Y76806D01*
X255091Y77641D01*
X255494Y78613D01*
X255631Y79655D01*
X255494Y80698D01*
X255091Y81669D01*
X254451Y82504D01*
X253617Y83144D01*
X252645Y83546D01*
X251602Y83684D01*
X250560Y83546D01*
X249588Y83144D01*
X248754Y82504D01*
X248113Y81669D01*
X247711Y80698D01*
X247681Y80470D01*
X218987D01*
X214088Y85369D01*
X213824Y85546D01*
X213512Y85608D01*
X205757D01*
X205444Y86076D01*
X204856Y86469D01*
X204161Y86607D01*
D02*
G37*
G36*
X117350Y90052D02*
X116656Y89914D01*
X116067Y89521D01*
X115674Y88932D01*
X115536Y88238D01*
X115674Y87543D01*
X116067Y86955D01*
X116656Y86562D01*
X117350Y86423D01*
X117903Y86533D01*
X131538Y72898D01*
X131802Y72721D01*
X132114Y72659D01*
X155113D01*
X155426Y72191D01*
X156015Y71798D01*
X156709Y71660D01*
X157403Y71798D01*
X157992Y72191D01*
X158385Y72780D01*
X158523Y73474D01*
X158385Y74168D01*
X157992Y74757D01*
X157403Y75150D01*
X156709Y75288D01*
X156015Y75150D01*
X155426Y74757D01*
X155113Y74289D01*
X132452D01*
X119055Y87686D01*
X119165Y88238D01*
X119027Y88932D01*
X118633Y89521D01*
X118045Y89914D01*
X117350Y90052D01*
D02*
G37*
G36*
X77291Y74689D02*
X76263Y74554D01*
X75306Y74157D01*
X74483Y73526D01*
X73852Y72704D01*
X73456Y71746D01*
X73320Y70718D01*
X73456Y69690D01*
X73852Y68733D01*
X74483Y67910D01*
X75306Y67279D01*
X76263Y66882D01*
X77291Y66747D01*
X78319Y66882D01*
X79277Y67279D01*
X80099Y67910D01*
X80730Y68733D01*
X81127Y69690D01*
X81262Y70718D01*
X81127Y71746D01*
X80730Y72704D01*
X80099Y73526D01*
X79277Y74157D01*
X78319Y74554D01*
X77291Y74689D01*
D02*
G37*
G36*
X186886Y82485D02*
X186192Y82347D01*
X185603Y81954D01*
X185210Y81365D01*
X185072Y80670D01*
X185210Y79976D01*
X185603Y79387D01*
X186192Y78994D01*
X186886Y78856D01*
X187581Y78994D01*
X188169Y79387D01*
X188482Y79856D01*
X209757D01*
X220534Y69079D01*
X220798Y68902D01*
X221110Y68840D01*
X247681D01*
X247711Y68612D01*
X248113Y67641D01*
X248754Y66807D01*
X249588Y66166D01*
X250560Y65764D01*
X251602Y65627D01*
X252645Y65764D01*
X253617Y66166D01*
X254451Y66807D01*
X255091Y67641D01*
X255494Y68612D01*
X255631Y69655D01*
X255494Y70698D01*
X255091Y71669D01*
X254451Y72504D01*
X253617Y73144D01*
X252645Y73546D01*
X251602Y73684D01*
X250560Y73546D01*
X249588Y73144D01*
X248754Y72504D01*
X248113Y71669D01*
X247711Y70698D01*
X247681Y70470D01*
X221448D01*
X210671Y81247D01*
X210407Y81423D01*
X210095Y81485D01*
X188482D01*
X188169Y81954D01*
X187581Y82347D01*
X186886Y82485D01*
D02*
G37*
G36*
X215834Y63912D02*
X214910Y63728D01*
X214126Y63205D01*
X213602Y62421D01*
X213418Y61496D01*
X213460Y61284D01*
X205230Y53055D01*
X181935D01*
X181815Y53234D01*
X181031Y53758D01*
X180106Y53942D01*
X179182Y53758D01*
X178398Y53234D01*
X177874Y52450D01*
X177690Y51525D01*
X177874Y50600D01*
X178398Y49817D01*
X179182Y49293D01*
X180106Y49109D01*
X181031Y49293D01*
X181815Y49817D01*
X181935Y49996D01*
X205864D01*
X206449Y50112D01*
X206945Y50444D01*
X215623Y59122D01*
X215834Y59079D01*
X216759Y59263D01*
X217543Y59787D01*
X218067Y60571D01*
X218251Y61496D01*
X218067Y62421D01*
X217543Y63205D01*
X216759Y63728D01*
X215834Y63912D01*
D02*
G37*
G36*
X185421Y77178D02*
X184727Y77040D01*
X184138Y76647D01*
X183745Y76058D01*
X183607Y75364D01*
X183745Y74669D01*
X184138Y74081D01*
X184727Y73687D01*
X185421Y73549D01*
X186116Y73687D01*
X186704Y74081D01*
X187017Y74549D01*
X209021D01*
X224491Y59079D01*
X224755Y58902D01*
X225067Y58840D01*
X247681D01*
X247711Y58613D01*
X248113Y57641D01*
X248754Y56806D01*
X249588Y56166D01*
X250560Y55764D01*
X251602Y55627D01*
X252645Y55764D01*
X253617Y56166D01*
X254451Y56806D01*
X255091Y57641D01*
X255494Y58613D01*
X255631Y59655D01*
X255494Y60698D01*
X255091Y61669D01*
X254451Y62504D01*
X253617Y63144D01*
X252645Y63546D01*
X251602Y63684D01*
X250560Y63546D01*
X249588Y63144D01*
X248754Y62504D01*
X248113Y61669D01*
X247711Y60698D01*
X247681Y60470D01*
X225404D01*
X209934Y75940D01*
X209670Y76117D01*
X209358Y76179D01*
X187017D01*
X186704Y76647D01*
X186116Y77040D01*
X185421Y77178D01*
D02*
G37*
G36*
X81031Y59926D02*
X73551D01*
X72727Y59818D01*
X71959Y59500D01*
X71299Y58994D01*
X70793Y58334D01*
X70475Y57566D01*
X70366Y56742D01*
X70475Y55918D01*
X70793Y55149D01*
X71299Y54490D01*
X71959Y53984D01*
X72727Y53666D01*
X73551Y53557D01*
X81031D01*
X81856Y53666D01*
X82624Y53984D01*
X83283Y54490D01*
X83789Y55149D01*
X84108Y55918D01*
X84216Y56742D01*
X84108Y57566D01*
X83789Y58334D01*
X83283Y58994D01*
X82624Y59500D01*
X81856Y59818D01*
X81031Y59926D01*
D02*
G37*
%LPD*%
D10*
X11811Y11811D02*
D03*
X578740D02*
D03*
Y381890D02*
D03*
X11811Y381890D02*
D03*
D14*
X499874Y113041D02*
D03*
X504874D02*
D03*
X509874D02*
D03*
X514874D02*
D03*
X206898Y113041D02*
D03*
X211898D02*
D03*
X216898D02*
D03*
X221898D02*
D03*
D24*
X478398Y75364D02*
X502335D01*
X518044Y59655D02*
X544579D01*
X502335Y75364D02*
X518044Y59655D01*
X479863Y80670D02*
X503072D01*
X514087Y69655D02*
X544579D01*
X503072Y80670D02*
X514087Y69655D01*
X511626Y79655D02*
X544579D01*
X497138Y84793D02*
X506489D01*
X511626Y79655D01*
X446438Y77805D02*
X446635D01*
X430406D02*
X446438D01*
X410327Y88238D02*
X425091Y73474D01*
X449686D01*
X418398Y89813D02*
X430406Y77805D01*
X463634Y81643D02*
X470852D01*
X490740Y101532D02*
Y101532D01*
X470852Y81643D02*
X490740Y101532D01*
X185421Y75364D02*
X209358D01*
X225067Y59655D02*
X251602D01*
X209358Y75364D02*
X225067Y59655D01*
X186886Y80670D02*
X210095D01*
X221110Y69655D02*
X251602D01*
X210095Y80670D02*
X221110Y69655D01*
X218650Y79655D02*
X251602D01*
X204161Y84793D02*
X213512D01*
X218650Y79655D01*
X153461Y77805D02*
X153658D01*
X137429D02*
X153461D01*
X117350Y88238D02*
X132114Y73474D01*
X156709D01*
X125421Y89813D02*
X137429Y77805D01*
X170657Y81643D02*
X177875D01*
X197764Y101532D02*
Y101532D01*
X177875Y81643D02*
X197764Y101532D01*
X67575Y242116D02*
Y218179D01*
X51866Y202471D02*
Y175935D01*
X67575Y218179D02*
X51866Y202471D01*
X72882Y240652D02*
Y217443D01*
X61866Y206428D02*
Y175935D01*
X72882Y217443D02*
X61866Y206428D01*
X71866Y208888D02*
Y175935D01*
X77004Y223376D02*
Y214026D01*
X71866Y208888D01*
X70016Y274077D02*
Y273880D01*
Y290109D02*
Y274077D01*
X80449Y310187D02*
X65685Y295424D01*
Y270829D01*
X82024Y302117D02*
X70016Y290109D01*
X73854Y256880D02*
Y249663D01*
X93743Y229774D02*
X93743D01*
X73854Y249663D02*
X93743Y229774D01*
X177811Y242116D02*
Y218179D01*
X162102Y202471D02*
Y175935D01*
X177811Y218179D02*
X162102Y202471D01*
X183118Y240652D02*
Y217443D01*
X172102Y206428D02*
Y175935D01*
X183118Y217443D02*
X172102Y206428D01*
X182102Y208888D02*
Y175935D01*
X187240Y223376D02*
Y214026D01*
X182102Y208888D01*
X180252Y274077D02*
Y273880D01*
Y290109D02*
Y274077D01*
X190685Y310187D02*
X175921Y295424D01*
Y270829D01*
X192260Y302117D02*
X180252Y290109D01*
X184090Y256880D02*
Y249663D01*
X203979Y229774D02*
X203979D01*
X184090Y249663D02*
X203979Y229774D01*
X288047Y242116D02*
Y218179D01*
X272339Y202471D02*
Y175935D01*
X288047Y218179D02*
X272339Y202471D01*
X293354Y240652D02*
Y217443D01*
X282339Y206428D02*
Y175935D01*
X293354Y217443D02*
X282339Y206428D01*
X292339Y208888D02*
Y175935D01*
X297476Y223376D02*
Y214026D01*
X292339Y208888D01*
X290488Y274077D02*
Y273880D01*
Y290109D02*
Y274077D01*
X300921Y310187D02*
X286157Y295424D01*
Y270829D01*
X302496Y302117D02*
X290488Y290109D01*
X294327Y256880D02*
Y249663D01*
X314215Y229774D02*
X314215D01*
X294327Y249663D02*
X314215Y229774D01*
X398283Y242116D02*
Y218179D01*
X382575Y202471D02*
Y175935D01*
X398283Y218179D02*
X382575Y202471D01*
X403590Y240652D02*
Y217443D01*
X392575Y206428D02*
Y175935D01*
X403590Y217443D02*
X392575Y206428D01*
X402575Y208888D02*
Y175935D01*
X407713Y223376D02*
Y214026D01*
X402575Y208888D01*
X400724Y274077D02*
Y273880D01*
Y290109D02*
Y274077D01*
X411158Y310187D02*
X396394Y295424D01*
Y270829D01*
X412732Y302117D02*
X400724Y290109D01*
X404563Y256880D02*
Y249663D01*
X424452Y229774D02*
X424452D01*
X404563Y249663D02*
X424452Y229774D01*
X508520Y242116D02*
Y218179D01*
X492811Y202471D02*
Y175935D01*
X508520Y218179D02*
X492811Y202471D01*
X513826Y240652D02*
Y217443D01*
X502811Y206428D02*
Y175935D01*
X513826Y217443D02*
X502811Y206428D01*
X512811Y208888D02*
Y175935D01*
X517949Y223376D02*
Y214026D01*
X512811Y208888D01*
X510961Y274077D02*
Y273880D01*
Y290109D02*
Y274077D01*
X521394Y310187D02*
X506630Y295424D01*
Y270829D01*
X522968Y302117D02*
X510961Y290109D01*
X514799Y256880D02*
Y249663D01*
X534688Y229774D02*
X534688D01*
X514799Y249663D02*
X534688Y229774D01*
D25*
X494874Y113336D02*
X499874D01*
X498841Y51525D02*
X508811Y61496D01*
X473083Y51525D02*
X498841D01*
X450780Y92568D02*
Y92568D01*
X465347Y107135D02*
X491331D01*
X450780Y92568D02*
X465347Y107135D01*
X491377Y109838D02*
X494874Y113336D01*
X491331Y107135D02*
X491377Y107181D01*
Y109838D01*
X491331Y107135D02*
X508811Y89655D01*
X391922Y69832D02*
Y105265D01*
X388378Y65403D02*
X391823Y68848D01*
Y69832D01*
X391922D01*
X395662Y109005D02*
X395662D01*
X391922Y105265D02*
X395662Y109005D01*
X201898Y113336D02*
X206898D01*
X205864Y51525D02*
X215834Y61496D01*
X180106Y51525D02*
X205864D01*
X157803Y92568D02*
Y92568D01*
X172370Y107135D02*
X198354D01*
X157803Y92568D02*
X172370Y107135D01*
X198400Y109838D02*
X201898Y113336D01*
X198354Y107135D02*
X198400Y107181D01*
Y109838D01*
X198354Y107135D02*
X215834Y89655D01*
X98945Y69832D02*
Y105265D01*
X95402Y65403D02*
X98846Y68848D01*
Y69832D01*
X98945D01*
X102685Y109005D02*
X102685D01*
X98945Y105265D02*
X102685Y109005D01*
X105547Y225640D02*
Y220640D01*
X43736Y221674D02*
X53707Y211703D01*
X43736Y247431D02*
Y221674D01*
X84780Y269735D02*
X84780D01*
X99346Y255168D02*
Y229184D01*
X84780Y269735D02*
X99346Y255168D01*
X102049Y229138D02*
X105547Y225640D01*
X99346Y229184D02*
X99392Y229138D01*
X102049D01*
X99346Y229184D02*
X81866Y211703D01*
X62043Y328593D02*
X97476D01*
X57614Y332136D02*
X61059Y328691D01*
X62043D01*
Y328593D01*
X101216Y324853D02*
Y324853D01*
X97476Y328593D02*
X101216Y324853D01*
X215783Y225640D02*
Y220640D01*
X153972Y221674D02*
X163943Y211703D01*
X153972Y247431D02*
Y221674D01*
X195016Y269735D02*
X195016D01*
X209583Y255168D02*
Y229184D01*
X195016Y269735D02*
X209583Y255168D01*
X212285Y229138D02*
X215783Y225640D01*
X209583Y229184D02*
X209628Y229138D01*
X212285D01*
X209583Y229184D02*
X192102Y211703D01*
X172280Y328593D02*
X207713D01*
X167850Y332136D02*
X171295Y328691D01*
X172280D01*
Y328593D01*
X211453Y324853D02*
Y324853D01*
X207713Y328593D02*
X211453Y324853D01*
X326019Y225640D02*
Y220640D01*
X264209Y221674D02*
X274179Y211703D01*
X264209Y247431D02*
Y221674D01*
X305252Y269735D02*
X305252D01*
X319819Y255168D02*
Y229184D01*
X305252Y269735D02*
X319819Y255168D01*
X322521Y229138D02*
X326019Y225640D01*
X319819Y229184D02*
X319864Y229138D01*
X322521D01*
X319819Y229184D02*
X302339Y211703D01*
X282516Y328593D02*
X317949D01*
X278087Y332136D02*
X281532Y328691D01*
X282516D01*
Y328593D01*
X321689Y324853D02*
Y324853D01*
X317949Y328593D02*
X321689Y324853D01*
X436256Y225640D02*
Y220640D01*
X374445Y221674D02*
X384416Y211703D01*
X374445Y247431D02*
Y221674D01*
X415488Y269735D02*
X415488D01*
X430055Y255168D02*
Y229184D01*
X415488Y269735D02*
X430055Y255168D01*
X432758Y229138D02*
X436256Y225640D01*
X430055Y229184D02*
X430101Y229138D01*
X432758D01*
X430055Y229184D02*
X412575Y211703D01*
X392752Y328593D02*
X428185D01*
X388323Y332136D02*
X391768Y328691D01*
X392752D01*
Y328593D01*
X431925Y324853D02*
Y324853D01*
X428185Y328593D02*
X431925Y324853D01*
X546492Y225640D02*
Y220640D01*
X484681Y221674D02*
X494652Y211703D01*
X484681Y247431D02*
Y221674D01*
X525724Y269735D02*
X525724D01*
X540291Y255168D02*
Y229184D01*
X525724Y269735D02*
X540291Y255168D01*
X542994Y229138D02*
X546492Y225640D01*
X540291Y229184D02*
X540337Y229138D01*
X542994D01*
X540291Y229184D02*
X522811Y211703D01*
X502988Y328593D02*
X538421D01*
X498559Y332136D02*
X502004Y328691D01*
X502988D01*
Y328593D01*
X542161Y324853D02*
Y324853D01*
X538421Y328593D02*
X542161Y324853D01*
D36*
X105252Y220640D02*
D03*
Y215640D02*
D03*
Y210640D02*
D03*
Y205640D02*
D03*
X215488Y220640D02*
D03*
Y215640D02*
D03*
Y210640D02*
D03*
Y205640D02*
D03*
X325724Y220640D02*
D03*
Y215640D02*
D03*
Y210640D02*
D03*
Y205640D02*
D03*
X435960Y220640D02*
D03*
Y215640D02*
D03*
Y210640D02*
D03*
Y205640D02*
D03*
X546197Y220640D02*
D03*
Y215640D02*
D03*
Y210640D02*
D03*
Y205640D02*
D03*
D39*
X483464Y39961D02*
D03*
Y119193D02*
D03*
X491338Y39961D02*
D03*
Y119193D02*
D03*
X495276Y39961D02*
D03*
X487401D02*
D03*
X479527D02*
D03*
X495276Y119193D02*
D03*
X487401D02*
D03*
X479527D02*
D03*
X190453Y39961D02*
D03*
X186515D02*
D03*
X190453Y119193D02*
D03*
X186515D02*
D03*
X198327Y39961D02*
D03*
X194390D02*
D03*
X198327Y119193D02*
D03*
X194390D02*
D03*
X202264Y39961D02*
D03*
Y119193D02*
D03*
X504823Y362303D02*
D03*
X512697D02*
D03*
X520571D02*
D03*
X516634D02*
D03*
X508760D02*
D03*
X508760Y166929D02*
D03*
X516634D02*
D03*
X520571D02*
D03*
X512697D02*
D03*
X504823D02*
D03*
X473130Y317618D02*
D03*
Y325492D02*
D03*
Y329429D02*
D03*
Y321555D02*
D03*
Y313681D02*
D03*
X552264Y313681D02*
D03*
Y321555D02*
D03*
Y329429D02*
D03*
Y325492D02*
D03*
Y317618D02*
D03*
X473130Y225000D02*
D03*
Y232874D02*
D03*
Y240748D02*
D03*
Y236811D02*
D03*
Y228937D02*
D03*
X552362Y225000D02*
D03*
Y232874D02*
D03*
Y240748D02*
D03*
Y236811D02*
D03*
Y228937D02*
D03*
X394587Y362303D02*
D03*
X402461D02*
D03*
X410335D02*
D03*
X406398D02*
D03*
X398524D02*
D03*
X398524Y166929D02*
D03*
X406398D02*
D03*
X410335D02*
D03*
X402461D02*
D03*
X394587D02*
D03*
X362894Y317618D02*
D03*
Y325492D02*
D03*
Y329429D02*
D03*
Y321555D02*
D03*
Y313681D02*
D03*
X442028Y313681D02*
D03*
Y321555D02*
D03*
Y329429D02*
D03*
Y325492D02*
D03*
Y317618D02*
D03*
X362894Y225000D02*
D03*
Y232874D02*
D03*
Y240748D02*
D03*
Y236811D02*
D03*
Y228937D02*
D03*
X442126Y225000D02*
D03*
Y232874D02*
D03*
Y240748D02*
D03*
Y236811D02*
D03*
Y228937D02*
D03*
X284350Y362303D02*
D03*
X292225D02*
D03*
X300099D02*
D03*
X296162D02*
D03*
X288287D02*
D03*
X288287Y166929D02*
D03*
X296162D02*
D03*
X300099D02*
D03*
X292225D02*
D03*
X284350D02*
D03*
X252658Y317618D02*
D03*
Y325492D02*
D03*
Y329429D02*
D03*
Y321555D02*
D03*
Y313681D02*
D03*
X331791Y313681D02*
D03*
Y321555D02*
D03*
Y329429D02*
D03*
Y325492D02*
D03*
Y317618D02*
D03*
X252658Y225000D02*
D03*
Y232874D02*
D03*
Y240748D02*
D03*
Y236811D02*
D03*
Y228937D02*
D03*
X331890Y225000D02*
D03*
Y232874D02*
D03*
Y240748D02*
D03*
Y236811D02*
D03*
Y228937D02*
D03*
X174114Y362303D02*
D03*
X181988D02*
D03*
X189863D02*
D03*
X185925D02*
D03*
X178051D02*
D03*
X178051Y166929D02*
D03*
X185925D02*
D03*
X189863D02*
D03*
X181988D02*
D03*
X174114D02*
D03*
X142421Y317618D02*
D03*
Y325492D02*
D03*
Y329429D02*
D03*
Y321555D02*
D03*
Y313681D02*
D03*
X221555Y313681D02*
D03*
Y321555D02*
D03*
Y329429D02*
D03*
Y325492D02*
D03*
Y317618D02*
D03*
X142421Y225000D02*
D03*
Y232874D02*
D03*
Y240748D02*
D03*
Y236811D02*
D03*
Y228937D02*
D03*
X221654Y225000D02*
D03*
Y232874D02*
D03*
Y240748D02*
D03*
Y236811D02*
D03*
Y228937D02*
D03*
X63878Y362303D02*
D03*
X71752D02*
D03*
X79626D02*
D03*
X75689D02*
D03*
X67815D02*
D03*
X67815Y166929D02*
D03*
X75689D02*
D03*
X79626D02*
D03*
X71752D02*
D03*
X63878D02*
D03*
X32185Y317618D02*
D03*
Y325492D02*
D03*
Y329429D02*
D03*
Y321555D02*
D03*
Y313681D02*
D03*
X111319Y313681D02*
D03*
Y321555D02*
D03*
Y329429D02*
D03*
Y325492D02*
D03*
Y317618D02*
D03*
X32185Y225000D02*
D03*
Y232874D02*
D03*
Y240748D02*
D03*
Y236811D02*
D03*
Y228937D02*
D03*
X111417Y225000D02*
D03*
Y232874D02*
D03*
Y240748D02*
D03*
Y236811D02*
D03*
Y228937D02*
D03*
X358268Y71653D02*
D03*
Y79528D02*
D03*
Y87402D02*
D03*
Y83465D02*
D03*
Y75591D02*
D03*
X553642Y75591D02*
D03*
Y83465D02*
D03*
Y87402D02*
D03*
Y79528D02*
D03*
Y71653D02*
D03*
X402953Y39961D02*
D03*
X395079D02*
D03*
X391142D02*
D03*
X399016D02*
D03*
X406890D02*
D03*
X406890Y119095D02*
D03*
X399016D02*
D03*
X391142D02*
D03*
X395079D02*
D03*
X402953D02*
D03*
X109941Y119095D02*
D03*
X102067D02*
D03*
X98130D02*
D03*
X106004D02*
D03*
X113878D02*
D03*
X113878Y39961D02*
D03*
X106004D02*
D03*
X98130D02*
D03*
X102067D02*
D03*
X109941D02*
D03*
X260630Y71653D02*
D03*
Y79528D02*
D03*
Y87402D02*
D03*
Y83465D02*
D03*
Y75591D02*
D03*
X65256Y75591D02*
D03*
Y83465D02*
D03*
Y87402D02*
D03*
Y79528D02*
D03*
Y71653D02*
D03*
D40*
X370268Y70718D02*
D03*
Y88435D02*
D03*
X497374Y108494D02*
D03*
X502374D02*
D03*
X507374D02*
D03*
X512374D02*
D03*
X517374D02*
D03*
X498841Y78100D02*
D03*
X504245Y61496D02*
D03*
X519284Y64813D02*
D03*
X449686Y73474D02*
D03*
X497138Y84793D02*
D03*
X463634Y81643D02*
D03*
X479863Y80670D02*
D03*
X446438Y77805D02*
D03*
X478398Y75364D02*
D03*
X550290Y57916D02*
D03*
Y82720D02*
D03*
Y107524D02*
D03*
X433851Y75628D02*
D03*
X443201D02*
D03*
X470852Y79084D02*
D03*
X479863Y85679D02*
D03*
X471252D02*
D03*
X443201Y67962D02*
D03*
X445207Y92765D02*
D03*
X518417Y104655D02*
D03*
X523713Y100836D02*
D03*
X494087Y66781D02*
D03*
X500248Y48966D02*
D03*
X488969Y64025D02*
D03*
X488772Y104084D02*
D03*
X505504Y82135D02*
D03*
X502748Y88533D02*
D03*
X467119Y57923D02*
D03*
X506193Y96505D02*
D03*
X502748Y100049D02*
D03*
X499402Y103533D02*
D03*
X484107Y78041D02*
D03*
X475189Y82037D02*
D03*
X463181Y71801D02*
D03*
X486213D02*
D03*
Y93553D02*
D03*
X463181Y94734D02*
D03*
X476430Y111269D02*
D03*
X473083Y94734D02*
D03*
X479185Y55068D02*
D03*
X476233Y71801D02*
D03*
X490740Y101532D02*
D03*
X455898Y109399D02*
D03*
X518614Y115600D02*
D03*
X531095Y82234D02*
D03*
X491331Y115600D02*
D03*
X539563Y115600D02*
D03*
X516727Y43750D02*
D03*
X519284Y82720D02*
D03*
X443105Y57923D02*
D03*
X433556Y86368D02*
D03*
X467119Y115600D02*
D03*
X455898Y49754D02*
D03*
X519284Y73474D02*
D03*
X536804Y74950D02*
D03*
X491923Y43750D02*
D03*
X436508Y92765D02*
D03*
X531095Y66781D02*
D03*
X443105Y115600D02*
D03*
X467119Y43750D02*
D03*
X414658Y58710D02*
D03*
X395957Y102903D02*
D03*
X393497Y54773D02*
D03*
X400091Y83513D02*
D03*
X416725Y86663D02*
D03*
X419874Y82234D02*
D03*
X421941Y91781D02*
D03*
X418398Y89813D02*
D03*
X410327Y88238D02*
D03*
X423516Y67864D02*
D03*
X380504Y70718D02*
D03*
X417807Y100836D02*
D03*
X428733Y92962D02*
D03*
X407768Y90797D02*
D03*
X407670Y113435D02*
D03*
X374107Y93356D02*
D03*
X380504Y88435D02*
D03*
Y98474D02*
D03*
X388674Y93946D02*
D03*
X394776Y66978D02*
D03*
X424205Y58710D02*
D03*
X419382Y52805D02*
D03*
X418103Y66387D02*
D03*
X410327Y78592D02*
D03*
X539563Y43750D02*
D03*
X443105D02*
D03*
X418301D02*
D03*
X393497D02*
D03*
X368693D02*
D03*
X361804Y54773D02*
D03*
Y79577D02*
D03*
Y104381D02*
D03*
X418301Y115600D02*
D03*
X393497D02*
D03*
X368693D02*
D03*
X77291Y70718D02*
D03*
Y88435D02*
D03*
X204398Y108494D02*
D03*
X209398D02*
D03*
X214398D02*
D03*
X219398D02*
D03*
X224398D02*
D03*
X205864Y78100D02*
D03*
X211268Y61496D02*
D03*
X226307Y64813D02*
D03*
X156709Y73474D02*
D03*
X204161Y84793D02*
D03*
X170657Y81643D02*
D03*
X186886Y80670D02*
D03*
X153461Y77805D02*
D03*
X185421Y75364D02*
D03*
X257313Y57916D02*
D03*
Y82720D02*
D03*
Y107524D02*
D03*
X140874Y75627D02*
D03*
X150224D02*
D03*
X177875Y79084D02*
D03*
X186886Y85679D02*
D03*
X178276D02*
D03*
X150224Y67962D02*
D03*
X152230Y92765D02*
D03*
X225440Y104655D02*
D03*
X230736Y100836D02*
D03*
X201110Y66781D02*
D03*
X207272Y48966D02*
D03*
X195992Y64025D02*
D03*
X195795Y104084D02*
D03*
X212527Y82135D02*
D03*
X209772Y88533D02*
D03*
X174142Y57923D02*
D03*
X213216Y96505D02*
D03*
X209772Y100049D02*
D03*
X206425Y103533D02*
D03*
X191130Y78041D02*
D03*
X182212Y82037D02*
D03*
X170205Y71801D02*
D03*
X193236D02*
D03*
Y93553D02*
D03*
X170205Y94734D02*
D03*
X183453Y111269D02*
D03*
X180106Y94734D02*
D03*
X186209Y55068D02*
D03*
X183256Y71801D02*
D03*
X197764Y101532D02*
D03*
X162921Y109399D02*
D03*
X225637Y115600D02*
D03*
X238118Y82234D02*
D03*
X198354Y115600D02*
D03*
X246586Y115600D02*
D03*
X223750Y43750D02*
D03*
X226307Y82720D02*
D03*
X150128Y57923D02*
D03*
X140579Y86368D02*
D03*
X174142Y115600D02*
D03*
X162921Y49753D02*
D03*
X226307Y73474D02*
D03*
X243827Y74950D02*
D03*
X198946Y43750D02*
D03*
X143531Y92765D02*
D03*
X238118Y66781D02*
D03*
X150128Y115600D02*
D03*
X174142Y43750D02*
D03*
X121681Y58710D02*
D03*
X102980Y102903D02*
D03*
X100520Y54773D02*
D03*
X107114Y83513D02*
D03*
X123748Y86663D02*
D03*
X126898Y82234D02*
D03*
X128964Y91781D02*
D03*
X125421Y89813D02*
D03*
X117350Y88238D02*
D03*
X130539Y67864D02*
D03*
X87528Y70718D02*
D03*
X124831Y100836D02*
D03*
X135756Y92962D02*
D03*
X114791Y90797D02*
D03*
X114693Y113435D02*
D03*
X81130Y93356D02*
D03*
X87528Y88435D02*
D03*
Y98474D02*
D03*
X95697Y93946D02*
D03*
X101799Y66978D02*
D03*
X131228Y58710D02*
D03*
X126405Y52805D02*
D03*
X125126Y66387D02*
D03*
X117350Y78592D02*
D03*
X246586Y43750D02*
D03*
X150128D02*
D03*
X125324D02*
D03*
X100520D02*
D03*
X75717D02*
D03*
X68827Y54773D02*
D03*
Y79577D02*
D03*
Y104381D02*
D03*
X125324Y115600D02*
D03*
X100520D02*
D03*
X75717D02*
D03*
X62929Y350247D02*
D03*
X80646D02*
D03*
X100705Y223140D02*
D03*
Y218140D02*
D03*
Y213140D02*
D03*
Y208140D02*
D03*
Y203140D02*
D03*
X70311Y221674D02*
D03*
X53707Y216270D02*
D03*
X57024Y201231D02*
D03*
X65685Y270829D02*
D03*
X77004Y223376D02*
D03*
X73854Y256880D02*
D03*
X72882Y240652D02*
D03*
X70016Y274077D02*
D03*
X67575Y242116D02*
D03*
X50127Y170224D02*
D03*
X74931D02*
D03*
X99735D02*
D03*
X67839Y286664D02*
D03*
Y277313D02*
D03*
X71295Y249663D02*
D03*
X77890Y240652D02*
D03*
Y249262D02*
D03*
X60173Y277313D02*
D03*
X84976Y275307D02*
D03*
X96866Y202098D02*
D03*
X93047Y196802D02*
D03*
X58992Y226428D02*
D03*
X41177Y220266D02*
D03*
X56236Y231546D02*
D03*
X96295Y231743D02*
D03*
X74346Y215010D02*
D03*
X80744Y217766D02*
D03*
X50134Y253395D02*
D03*
X88717Y214321D02*
D03*
X92260Y217766D02*
D03*
X95744Y221113D02*
D03*
X70252Y236408D02*
D03*
X74248Y245325D02*
D03*
X64012Y257333D02*
D03*
Y234302D02*
D03*
X85764D02*
D03*
X86945Y257333D02*
D03*
X103480Y244085D02*
D03*
X86945Y247431D02*
D03*
X47280Y241329D02*
D03*
X64012Y244282D02*
D03*
X93743Y229774D02*
D03*
X101610Y264617D02*
D03*
X107811Y201901D02*
D03*
X74445Y189420D02*
D03*
X107811Y229184D02*
D03*
X107811Y180952D02*
D03*
X35961Y203787D02*
D03*
X74931Y201231D02*
D03*
X50134Y277410D02*
D03*
X78579Y286959D02*
D03*
X107811Y253395D02*
D03*
X41965Y264617D02*
D03*
X65685Y201231D02*
D03*
X67161Y183711D02*
D03*
X35961Y228591D02*
D03*
X84976Y284006D02*
D03*
X58992Y189420D02*
D03*
X107811Y277410D02*
D03*
X35961Y253395D02*
D03*
X50921Y305857D02*
D03*
X95114Y324557D02*
D03*
X46984Y327017D02*
D03*
X75724Y320424D02*
D03*
X78874Y303790D02*
D03*
X74445Y300640D02*
D03*
X83992Y298573D02*
D03*
X82024Y302117D02*
D03*
X80449Y310187D02*
D03*
X60075Y296998D02*
D03*
X62929Y340010D02*
D03*
X93047Y302707D02*
D03*
X85173Y291782D02*
D03*
X83008Y312747D02*
D03*
X105646Y312845D02*
D03*
X85567Y346408D02*
D03*
X80646Y340010D02*
D03*
X90685D02*
D03*
X86157Y331841D02*
D03*
X59189Y325739D02*
D03*
X50921Y296309D02*
D03*
X45016Y301132D02*
D03*
X58598Y302412D02*
D03*
X70803Y310187D02*
D03*
X35961Y180952D02*
D03*
Y277410D02*
D03*
Y302214D02*
D03*
Y327017D02*
D03*
Y351821D02*
D03*
X46984Y358711D02*
D03*
X71788D02*
D03*
X96592D02*
D03*
X107811Y302214D02*
D03*
Y327017D02*
D03*
Y351821D02*
D03*
X173165Y350247D02*
D03*
X190882D02*
D03*
X210941Y223140D02*
D03*
Y218140D02*
D03*
Y213140D02*
D03*
Y208140D02*
D03*
Y203140D02*
D03*
X180547Y221674D02*
D03*
X163943Y216270D02*
D03*
X167260Y201231D02*
D03*
X175921Y270829D02*
D03*
X187240Y223376D02*
D03*
X184090Y256880D02*
D03*
X183118Y240652D02*
D03*
X180252Y274077D02*
D03*
X177811Y242116D02*
D03*
X160364Y170224D02*
D03*
X185168D02*
D03*
X209971D02*
D03*
X178075Y286664D02*
D03*
Y277313D02*
D03*
X181532Y249663D02*
D03*
X188126Y240652D02*
D03*
Y249262D02*
D03*
X170409Y277313D02*
D03*
X195213Y275307D02*
D03*
X207102Y202098D02*
D03*
X203283Y196802D02*
D03*
X169228Y226428D02*
D03*
X151413Y220266D02*
D03*
X166472Y231546D02*
D03*
X206532Y231743D02*
D03*
X184583Y215010D02*
D03*
X190980Y217766D02*
D03*
X160370Y253395D02*
D03*
X198953Y214321D02*
D03*
X202496Y217766D02*
D03*
X205980Y221113D02*
D03*
X180488Y236408D02*
D03*
X184484Y245325D02*
D03*
X174248Y257333D02*
D03*
Y234302D02*
D03*
X196000D02*
D03*
X197181Y257333D02*
D03*
X213717Y244085D02*
D03*
X197181Y247431D02*
D03*
X157516Y241329D02*
D03*
X174248Y244282D02*
D03*
X203979Y229774D02*
D03*
X211846Y264617D02*
D03*
X218047Y201901D02*
D03*
X184681Y189420D02*
D03*
X218047Y229184D02*
D03*
X218047Y180952D02*
D03*
X146197Y203787D02*
D03*
X185168Y201231D02*
D03*
X160370Y277410D02*
D03*
X188815Y286959D02*
D03*
X218047Y253395D02*
D03*
X152201Y264617D02*
D03*
X175921Y201231D02*
D03*
X177398Y183711D02*
D03*
X146197Y228591D02*
D03*
X195213Y284006D02*
D03*
X169228Y189420D02*
D03*
X218047Y277410D02*
D03*
X146197Y253395D02*
D03*
X161158Y305857D02*
D03*
X205350Y324557D02*
D03*
X157220Y327017D02*
D03*
X185961Y320424D02*
D03*
X189110Y303790D02*
D03*
X184681Y300640D02*
D03*
X194228Y298573D02*
D03*
X192260Y302117D02*
D03*
X190685Y310187D02*
D03*
X170311Y296998D02*
D03*
X173165Y340010D02*
D03*
X203283Y302707D02*
D03*
X195409Y291782D02*
D03*
X193244Y312747D02*
D03*
X215882Y312845D02*
D03*
X195803Y346408D02*
D03*
X190882Y340010D02*
D03*
X200921D02*
D03*
X196394Y331841D02*
D03*
X169425Y325739D02*
D03*
X161158Y296309D02*
D03*
X155252Y301132D02*
D03*
X168835Y302412D02*
D03*
X181039Y310187D02*
D03*
X146197Y180952D02*
D03*
Y277410D02*
D03*
Y302214D02*
D03*
Y327017D02*
D03*
Y351821D02*
D03*
X157220Y358711D02*
D03*
X182024D02*
D03*
X206828D02*
D03*
X218047Y302214D02*
D03*
Y327017D02*
D03*
Y351821D02*
D03*
X283401Y350247D02*
D03*
X301118D02*
D03*
X321177Y223140D02*
D03*
Y218140D02*
D03*
Y213140D02*
D03*
Y208140D02*
D03*
Y203140D02*
D03*
X290783Y221674D02*
D03*
X274179Y216270D02*
D03*
X277496Y201231D02*
D03*
X286157Y270829D02*
D03*
X297476Y223376D02*
D03*
X294327Y256880D02*
D03*
X293354Y240652D02*
D03*
X290488Y274077D02*
D03*
X288047Y242116D02*
D03*
X270600Y170224D02*
D03*
X295404D02*
D03*
X320208D02*
D03*
X288311Y286664D02*
D03*
Y277313D02*
D03*
X291768Y249663D02*
D03*
X298362Y240652D02*
D03*
Y249262D02*
D03*
X280646Y277313D02*
D03*
X305449Y275307D02*
D03*
X317339Y202098D02*
D03*
X313520Y196802D02*
D03*
X279465Y226428D02*
D03*
X261650Y220266D02*
D03*
X276709Y231546D02*
D03*
X316768Y231743D02*
D03*
X294819Y215010D02*
D03*
X301217Y217766D02*
D03*
X270606Y253395D02*
D03*
X309189Y214321D02*
D03*
X312732Y217766D02*
D03*
X316216Y221113D02*
D03*
X290724Y236408D02*
D03*
X294720Y245325D02*
D03*
X284484Y257333D02*
D03*
Y234302D02*
D03*
X306236D02*
D03*
X307417Y257333D02*
D03*
X323953Y244085D02*
D03*
X307417Y247431D02*
D03*
X267752Y241329D02*
D03*
X284484Y244282D02*
D03*
X314215Y229774D02*
D03*
X322083Y264617D02*
D03*
X328284Y201901D02*
D03*
X294917Y189420D02*
D03*
X328283Y229184D02*
D03*
X328283Y180952D02*
D03*
X256433Y203787D02*
D03*
X295404Y201231D02*
D03*
X270606Y277410D02*
D03*
X299051Y286959D02*
D03*
X328283Y253395D02*
D03*
X262437Y264617D02*
D03*
X286157Y201231D02*
D03*
X287634Y183711D02*
D03*
X256433Y228591D02*
D03*
X305449Y284006D02*
D03*
X279465Y189420D02*
D03*
X328283Y277410D02*
D03*
X256433Y253395D02*
D03*
X271394Y305857D02*
D03*
X315587Y324557D02*
D03*
X267457Y327017D02*
D03*
X296197Y320424D02*
D03*
X299346Y303790D02*
D03*
X294917Y300640D02*
D03*
X304465Y298573D02*
D03*
X302496Y302117D02*
D03*
X300921Y310187D02*
D03*
X280547Y296998D02*
D03*
X283401Y340010D02*
D03*
X313520Y302707D02*
D03*
X305646Y291782D02*
D03*
X303480Y312747D02*
D03*
X326118Y312845D02*
D03*
X306039Y346408D02*
D03*
X301118Y340010D02*
D03*
X311157D02*
D03*
X306630Y331841D02*
D03*
X279661Y325739D02*
D03*
X271394Y296309D02*
D03*
X265488Y301132D02*
D03*
X279071Y302412D02*
D03*
X291276Y310187D02*
D03*
X256433Y180952D02*
D03*
Y277410D02*
D03*
Y302214D02*
D03*
Y327017D02*
D03*
Y351821D02*
D03*
X267457Y358711D02*
D03*
X292260D02*
D03*
X317064D02*
D03*
X328283Y302214D02*
D03*
Y327017D02*
D03*
Y351821D02*
D03*
X393638Y350247D02*
D03*
X411354D02*
D03*
X431413Y223140D02*
D03*
Y218140D02*
D03*
Y213140D02*
D03*
Y208140D02*
D03*
Y203140D02*
D03*
X401020Y221674D02*
D03*
X384416Y216270D02*
D03*
X387732Y201231D02*
D03*
X396394Y270829D02*
D03*
X407713Y223376D02*
D03*
X404563Y256880D02*
D03*
X403590Y240652D02*
D03*
X400724Y274077D02*
D03*
X398283Y242116D02*
D03*
X380836Y170224D02*
D03*
X405640D02*
D03*
X430444D02*
D03*
X398547Y286664D02*
D03*
Y277313D02*
D03*
X402004Y249663D02*
D03*
X408598Y240652D02*
D03*
Y249262D02*
D03*
X390882Y277313D02*
D03*
X415685Y275307D02*
D03*
X427575Y202098D02*
D03*
X423756Y196802D02*
D03*
X389701Y226428D02*
D03*
X371886Y220266D02*
D03*
X386945Y231546D02*
D03*
X427004Y231743D02*
D03*
X405055Y215010D02*
D03*
X411453Y217766D02*
D03*
X380842Y253395D02*
D03*
X419425Y214321D02*
D03*
X422968Y217766D02*
D03*
X426453Y221113D02*
D03*
X400961Y236408D02*
D03*
X404957Y245325D02*
D03*
X394720Y257333D02*
D03*
Y234302D02*
D03*
X416472D02*
D03*
X417654Y257333D02*
D03*
X434189Y244085D02*
D03*
X417654Y247431D02*
D03*
X377988Y241329D02*
D03*
X394720Y244282D02*
D03*
X424452Y229774D02*
D03*
X432319Y264617D02*
D03*
X438520Y201901D02*
D03*
X405154Y189420D02*
D03*
X438520Y229184D02*
D03*
X438520Y180952D02*
D03*
X366669Y203787D02*
D03*
X405640Y201231D02*
D03*
X380842Y277410D02*
D03*
X409287Y286959D02*
D03*
X438520Y253395D02*
D03*
X372673Y264617D02*
D03*
X396394Y201231D02*
D03*
X397870Y183711D02*
D03*
X366669Y228591D02*
D03*
X415685Y284006D02*
D03*
X389701Y189420D02*
D03*
X438520Y277410D02*
D03*
X366669Y253395D02*
D03*
X381630Y305857D02*
D03*
X425823Y324557D02*
D03*
X377693Y327017D02*
D03*
X406433Y320424D02*
D03*
X409583Y303790D02*
D03*
X405154Y300640D02*
D03*
X414701Y298573D02*
D03*
X412732Y302117D02*
D03*
X411158Y310187D02*
D03*
X390783Y296998D02*
D03*
X393638Y340010D02*
D03*
X423756Y302707D02*
D03*
X415882Y291782D02*
D03*
X413717Y312747D02*
D03*
X436354Y312845D02*
D03*
X416276Y346408D02*
D03*
X411354Y340010D02*
D03*
X421394D02*
D03*
X416866Y331841D02*
D03*
X389898Y325739D02*
D03*
X381630Y296309D02*
D03*
X375724Y301132D02*
D03*
X389307Y302412D02*
D03*
X401512Y310187D02*
D03*
X366669Y180952D02*
D03*
Y277410D02*
D03*
Y302214D02*
D03*
Y327017D02*
D03*
Y351821D02*
D03*
X377693Y358711D02*
D03*
X402497D02*
D03*
X427301D02*
D03*
X438520Y302214D02*
D03*
Y327017D02*
D03*
Y351821D02*
D03*
X503874Y350247D02*
D03*
X521591D02*
D03*
X541650Y223140D02*
D03*
Y218140D02*
D03*
Y213140D02*
D03*
Y208140D02*
D03*
Y203140D02*
D03*
X511256Y221674D02*
D03*
X494652Y216270D02*
D03*
X497968Y201231D02*
D03*
X506630Y270829D02*
D03*
X517949Y223376D02*
D03*
X514799Y256880D02*
D03*
X513826Y240652D02*
D03*
X510961Y274077D02*
D03*
X508520Y242116D02*
D03*
X491072Y170224D02*
D03*
X515876D02*
D03*
X540680D02*
D03*
X508783Y286664D02*
D03*
Y277313D02*
D03*
X512240Y249663D02*
D03*
X518835Y240652D02*
D03*
Y249262D02*
D03*
X501118Y277313D02*
D03*
X525921Y275307D02*
D03*
X537811Y202098D02*
D03*
X533992Y196802D02*
D03*
X499937Y226428D02*
D03*
X482122Y220266D02*
D03*
X497181Y231546D02*
D03*
X537240Y231743D02*
D03*
X515291Y215010D02*
D03*
X521689Y217766D02*
D03*
X491079Y253395D02*
D03*
X529661Y214321D02*
D03*
X533205Y217766D02*
D03*
X536689Y221113D02*
D03*
X511197Y236408D02*
D03*
X515193Y245325D02*
D03*
X504957Y257333D02*
D03*
Y234302D02*
D03*
X526709D02*
D03*
X527890Y257333D02*
D03*
X544425Y244085D02*
D03*
X527890Y247431D02*
D03*
X488224Y241329D02*
D03*
X504957Y244282D02*
D03*
X534688Y229774D02*
D03*
X542555Y264617D02*
D03*
X548756Y201901D02*
D03*
X515390Y189420D02*
D03*
X548756Y229184D02*
D03*
X548756Y180952D02*
D03*
X476905Y203787D02*
D03*
X515876Y201231D02*
D03*
X491079Y277410D02*
D03*
X519524Y286959D02*
D03*
X548756Y253395D02*
D03*
X482909Y264617D02*
D03*
X506630Y201231D02*
D03*
X508106Y183711D02*
D03*
X476905Y228591D02*
D03*
X525921Y284006D02*
D03*
X499937Y189420D02*
D03*
X548756Y277410D02*
D03*
X476905Y253395D02*
D03*
X491866Y305857D02*
D03*
X536059Y324557D02*
D03*
X487929Y327017D02*
D03*
X516669Y320424D02*
D03*
X519819Y303790D02*
D03*
X515390Y300640D02*
D03*
X524937Y298573D02*
D03*
X522968Y302117D02*
D03*
X521394Y310187D02*
D03*
X501020Y296998D02*
D03*
X503874Y340010D02*
D03*
X533992Y302707D02*
D03*
X526118Y291782D02*
D03*
X523953Y312747D02*
D03*
X546591Y312845D02*
D03*
X526512Y346408D02*
D03*
X521591Y340010D02*
D03*
X531630D02*
D03*
X527102Y331841D02*
D03*
X500134Y325739D02*
D03*
X491866Y296309D02*
D03*
X485961Y301132D02*
D03*
X499543Y302412D02*
D03*
X511748Y310187D02*
D03*
X476905Y180952D02*
D03*
Y277410D02*
D03*
Y302214D02*
D03*
Y327017D02*
D03*
Y351821D02*
D03*
X487929Y358711D02*
D03*
X512733D02*
D03*
X537537D02*
D03*
X548756Y302214D02*
D03*
Y327017D02*
D03*
Y351821D02*
D03*
D41*
X370268Y56742D02*
D03*
Y102411D02*
D03*
X77291Y56742D02*
D03*
Y102411D02*
D03*
D42*
X544579Y99655D02*
D03*
X251602Y99655D02*
D03*
D43*
X544579Y89655D02*
D03*
Y79655D02*
D03*
Y69655D02*
D03*
Y59655D02*
D03*
X251602Y89655D02*
D03*
Y79655D02*
D03*
Y69655D02*
D03*
Y59655D02*
D03*
X81866Y175935D02*
D03*
X71866D02*
D03*
X61866D02*
D03*
X51866D02*
D03*
X192102D02*
D03*
X182102D02*
D03*
X172102D02*
D03*
X162102D02*
D03*
X302339D02*
D03*
X292339D02*
D03*
X282339D02*
D03*
X272339D02*
D03*
X412575D02*
D03*
X402575D02*
D03*
X392575D02*
D03*
X382575D02*
D03*
X522811D02*
D03*
X512811D02*
D03*
X502811D02*
D03*
X492811D02*
D03*
D44*
X508811Y61496D02*
D03*
X473083Y51525D02*
D03*
X508811Y89655D02*
D03*
X491331Y107135D02*
D03*
X450780Y92568D02*
D03*
X395662Y109005D02*
D03*
X388378Y65403D02*
D03*
X215834Y61496D02*
D03*
X180106Y51525D02*
D03*
X215834Y89655D02*
D03*
X198354Y107135D02*
D03*
X157803Y92568D02*
D03*
X102685Y109005D02*
D03*
X95402Y65403D02*
D03*
X53707Y211703D02*
D03*
X43736Y247431D02*
D03*
X81866Y211703D02*
D03*
X99346Y229184D02*
D03*
X84780Y269735D02*
D03*
X101216Y324853D02*
D03*
X57614Y332136D02*
D03*
X163943Y211703D02*
D03*
X153972Y247431D02*
D03*
X192102Y211703D02*
D03*
X209583Y229184D02*
D03*
X195016Y269735D02*
D03*
X211453Y324853D02*
D03*
X167850Y332136D02*
D03*
X274179Y211703D02*
D03*
X264209Y247431D02*
D03*
X302339Y211703D02*
D03*
X319819Y229184D02*
D03*
X305252Y269735D02*
D03*
X321689Y324853D02*
D03*
X278087Y332136D02*
D03*
X384416Y211703D02*
D03*
X374445Y247431D02*
D03*
X412575Y211703D02*
D03*
X430055Y229184D02*
D03*
X415488Y269735D02*
D03*
X431925Y324853D02*
D03*
X388323Y332136D02*
D03*
X494652Y211703D02*
D03*
X484681Y247431D02*
D03*
X522811Y211703D02*
D03*
X540291Y229184D02*
D03*
X525724Y269735D02*
D03*
X542161Y324853D02*
D03*
X498559Y332136D02*
D03*
D45*
X48953Y350247D02*
D03*
X94622D02*
D03*
X159189D02*
D03*
X204858D02*
D03*
X269425D02*
D03*
X315094D02*
D03*
X379661D02*
D03*
X425331D02*
D03*
X489898D02*
D03*
X535567D02*
D03*
D46*
X91866Y175935D02*
D03*
X202102D02*
D03*
X312339D02*
D03*
X422575D02*
D03*
X532811D02*
D03*
M02*
