M48
;Layer_Color=9474304
;FILE_FORMAT=2:5
INCH,TZ
;TYPE=PLATED
T1F00S00C0.01181
T2F00S00C0.01968
T4F00S00C0.04331
;TYPE=NON_PLATED
T5F00S00C0.01968
T6F00S00C0.02362
T7F00S00C0.05906
T8F00S00C0.11811
%
T01
X75717Y43750
X68827Y54773
Y79577
Y104381
X75717Y115600
X100520
X102980Y102903
X95697Y93946
X87528Y98474
Y88435
X81130Y93356
X87528Y70718
X101799Y66978
X100520Y54773
Y43750
X125324
X126405Y52805
X121681Y58710
X131228
X130539Y67864
X125126Y66387
X126898Y82234
X123748Y86663
X125421Y89813
X128964Y91781
X135756Y92962
X143531Y92765
X152230
X153461Y77805
X150224Y75627
Y67962
X150128Y57923
Y43750
X140874Y75627
X140579Y86368
X117350Y88238
X114791Y90797
X117350Y78592
X107114Y83513
X124831Y100836
X125324Y115600
X114693Y113435
X150128Y115600
X162921Y109399
X174142Y115600
X183453Y111269
X198354Y115600
X195795Y104084
X197764Y101532
X206425Y103533
X209772Y100049
X213216Y96505
X209772Y88533
X212527Y82135
X205864Y78100
X204161Y84793
X186886Y85679
Y80670
X182212Y82037
X177875Y79084
X178276Y85679
X180106Y94734
X170205
X170657Y81643
X170205Y71801
X183256
X185421Y75364
X191130Y78041
X193236Y71801
X195992Y64025
X201110Y66781
X211268Y61496
X207272Y48966
X198946Y43750
X186209Y55068
X174142Y57923
Y43750
X162921Y49753
X156709Y73474
X193236Y93553
X225440Y104655
X230736Y100836
X225637Y115600
X246586Y115600
X257313Y107524
Y82720
X238118Y82234
X226307Y82720
Y73474
Y64813
X238118Y66781
X243827Y74950
X257313Y57916
X246586Y43750
X223750
X368693Y43750
X361804Y54773
Y79577
Y104381
X368693Y115600
X393497
X395957Y102903
X388674Y93946
X380504Y98474
Y88435
X374107Y93356
X380504Y70718
X394776Y66978
X393497Y54773
Y43750
X418301
X419382Y52805
X414658Y58710
X424205
X423516Y67864
X418103Y66387
X419874Y82234
X416725Y86663
X418398Y89813
X421941Y91781
X428733Y92962
X436508Y92765
X445207
X446438Y77805
X443201Y75628
Y67962
X443105Y57923
Y43750
X455898Y49754
X467119Y43750
Y57923
X463181Y71801
X463634Y81643
X463181Y94734
X455898Y109399
X467119Y115600
X443105
X418301
X407670Y113435
X417807Y100836
X407768Y90797
X410327Y88238
Y78592
X400091Y83513
X433556Y86368
X433851Y75628
X449686Y73474
X470852Y79084
X471252Y85679
X475189Y82037
X479863Y80670
Y85679
X478398Y75364
X476233Y71801
X486213
X484107Y78041
X498841Y78100
X497138Y84793
X502748Y88533
X505504Y82135
X519284Y82720
Y73474
Y64813
X531095Y66781
X536804Y74950
X531095Y82234
X550290Y82720
Y57916
X539563Y43750
X516727
X500248Y48966
X491923Y43750
X488969Y64025
X494087Y66781
X504245Y61496
X479185Y55068
X486213Y93553
X490740Y101532
X488772Y104084
X499402Y103533
X502748Y100049
X506193Y96505
X518417Y104655
X523713Y100836
X518614Y115600
X539563Y115600
X550290Y107524
X491331Y115600
X476430Y111269
X473083Y94734
X476905Y180952
Y203787
X482122Y220266
X476905Y228591
X497181Y231546
X499937Y226428
X504957Y234302
X511197Y236408
X513826Y240652
X518835
X515193Y245325
X512240Y249663
X518835Y249262
X527890Y247431
Y257333
X514799Y256880
X504957Y257333
Y244282
X508520Y242116
X488224Y241329
X491079Y253395
X476905
X482909Y264617
X476905Y277410
X491079
X501118Y277313
X508783
X510961Y274077
X506630Y270829
X508783Y286664
X519524Y286959
X525921Y284006
X526118Y291782
X524937Y298573
X522968Y302117
X519819Y303790
X515390Y300640
X511748Y310187
X521394
X533992Y302707
X548756Y302214
Y277410
X542555Y264617
X548756Y253395
X544425Y244085
X548756Y229184
X537240Y231743
X534688Y229774
X536689Y221113
X533205Y217766
X529661Y214321
X521689Y217766
X515291Y215010
X511256Y221674
X517949Y223376
X526709Y234302
X525921Y275307
X501020Y296998
X499543Y302412
X491866Y305857
Y296309
X485961Y301132
X476905Y302214
X494652Y216270
X497968Y201231
X506630
X515876
X515390Y189420
X508106Y183711
X499937Y189420
X491072Y170224
X515876
X540680
X548756Y180952
X548756Y201901
X537811Y202098
X533992Y196802
X438520Y201901
X427575Y202098
X423756Y196802
X422968Y217766
X426453Y221113
X424452Y229774
X427004Y231743
X416472Y234302
X408598Y240652
X403590
X404957Y245325
X402004Y249663
X408598Y249262
X417654Y247431
Y257333
X404563Y256880
X394720Y257333
Y244282
X398283Y242116
X400961Y236408
X394720Y234302
X386945Y231546
X389701Y226428
X384416Y216270
X371886Y220266
X366669Y228591
X377988Y241329
X380842Y253395
X366669
X372673Y264617
X366669Y277410
X380842
X390882Y277313
X398547
X400724Y274077
X396394Y270829
X398547Y286664
X409287Y286959
X415685Y284006
X415882Y291782
X414701Y298573
X412732Y302117
X409583Y303790
X405154Y300640
X401512Y310187
X411158
X423756Y302707
X438520Y302214
Y277410
X432319Y264617
X438520Y253395
X434189Y244085
X438520Y229184
X419425Y214321
X411453Y217766
X405055Y215010
X401020Y221674
X407713Y223376
X405640Y201231
X396394
X387732
X389701Y189420
X397870Y183711
X405154Y189420
X405640Y170224
X380836
X366669Y180952
Y203787
X328284Y201901
X317339Y202098
X313520Y196802
X312732Y217766
X316216Y221113
X314215Y229774
X316768Y231743
X328283Y229184
X323953Y244085
X328283Y253395
X322083Y264617
X328283Y277410
Y302214
X313520Y302707
X366669Y302214
X375724Y301132
X381630Y305857
Y296309
X390783Y296998
X389307Y302412
X415685Y275307
X438520Y180952
X430444Y170224
X320208
X328283Y180952
X294917Y189420
X295404Y201231
X286157
X277496
X279465Y189420
X287634Y183711
X295404Y170224
X270600
X256433Y180952
Y203787
X261650Y220266
X256433Y228591
X276709Y231546
X279465Y226428
X284484Y234302
X290724Y236408
X293354Y240652
X298362
X294720Y245325
X291768Y249663
X298362Y249262
X307417Y247431
Y257333
X294327Y256880
X284484Y257333
Y244282
X288047Y242116
X267752Y241329
X270606Y253395
X256433
X262437Y264617
X256433Y277410
X270606
X280646Y277313
X288311
X290488Y274077
X286157Y270829
X288311Y286664
X299051Y286959
X305449Y284006
X305646Y291782
X304465Y298573
X302496Y302117
X299346Y303790
X294917Y300640
X291276Y310187
X300921
X279071Y302412
X280547Y296998
X271394Y296309
Y305857
X265488Y301132
X256433Y302214
X218047
X203283Y302707
X192260Y302117
X189110Y303790
X184681Y300640
X194228Y298573
X195409Y291782
X195213Y284006
Y275307
X180252Y274077
X178075Y277313
X170409
X160370Y277410
X161158Y296309
Y305857
X168835Y302412
X170311Y296998
X178075Y286664
X188815Y286959
X190685Y310187
X181039
X175921Y270829
X174248Y257333
X184090Y256880
X181532Y249663
X188126Y249262
X184484Y245325
X183118Y240652
X188126
X177811Y242116
X174248Y244282
Y234302
X180488Y236408
X180547Y221674
X187240Y223376
X190980Y217766
X184583Y215010
X185168Y201231
X175921
X167260
X169228Y189420
X177398Y183711
X184681Y189420
X185168Y170224
X160364
X209971
X218047Y180952
X218047Y201901
X207102Y202098
X203283Y196802
X202496Y217766
X205980Y221113
X203979Y229774
X206532Y231743
X196000Y234302
X197181Y247431
Y257333
X211846Y264617
X218047Y253395
X213717Y244085
X218047Y229184
X198953Y214321
X163943Y216270
X169228Y226428
X166472Y231546
X157516Y241329
X160370Y253395
X218047Y277410
X305449Y275307
X306236Y234302
X297476Y223376
X290783Y221674
X294819Y215010
X301217Y217766
X309189Y214321
X274179Y216270
X151413Y220266
X146197Y228591
Y203787
Y180952
X107811
X99735Y170224
X74931
X74445Y189420
X74931Y201231
X65685
X57024
X58992Y189420
X67161Y183711
X50127Y170224
X35961Y180952
Y203787
X41177Y220266
X35961Y228591
X56236Y231546
X58992Y226428
X64012Y234302
X70252Y236408
X72882Y240652
X77890
X74248Y245325
X71295Y249663
X77890Y249262
X86945Y247431
Y257333
X73854Y256880
X64012Y257333
Y244282
X67575Y242116
X47280Y241329
X50134Y253395
X35961
X41965Y264617
X35961Y277410
X50134
X60173Y277313
X67839
X70016Y274077
X65685Y270829
X67839Y286664
X78579Y286959
X84976Y284006
X85173Y291782
X83992Y298573
X82024Y302117
X78874Y303790
X74445Y300640
X70803Y310187
X80449
X93047Y302707
X107811Y302214
Y277410
X101610Y264617
X107811Y253395
X103480Y244085
X107811Y229184
X96295Y231743
X93743Y229774
X95744Y221113
X92260Y217766
X88717Y214321
X80744Y217766
X74346Y215010
X70311Y221674
X77004Y223376
X85764Y234302
X84976Y275307
X60075Y296998
X58598Y302412
X50921Y305857
Y296309
X45016Y301132
X35961Y302214
X53707Y216270
X96866Y202098
X93047Y196802
X107811Y201901
X146197Y253395
X152201Y264617
X146197Y277410
Y302214
X155252Y301132
X146197Y327017
Y351821
X107811
X96592Y358711
X85567Y346408
X80646Y340010
X90685
X86157Y331841
X95114Y324557
X107811Y327017
X105646Y312845
X83008Y312747
X75724Y320424
X59189Y325739
X46984Y327017
X35961
Y351821
X46984Y358711
X71788
X62929Y340010
X157220Y327017
X169425Y325739
X173165Y340010
X190882
X200921
X195803Y346408
X196394Y331841
X205350Y324557
X218047Y327017
X215882Y312845
X193244Y312747
X185961Y320424
X182024Y358711
X157220
X206828
X218047Y351821
X256433
X267457Y358711
X292260
X306039Y346408
X301118Y340010
X311157
X306630Y331841
X296197Y320424
X303480Y312747
X279661Y325739
X267457Y327017
X256433
X283401Y340010
X315587Y324557
X328283Y327017
X326118Y312845
X328283Y351821
X317064Y358711
X366669Y351821
X377693Y358711
X402497
X427301
X438520Y351821
Y327017
X425823Y324557
X416866Y331841
X421394Y340010
X411354
X416276Y346408
X393638Y340010
X389898Y325739
X377693Y327017
X366669
X406433Y320424
X413717Y312747
X436354Y312845
X476905Y327017
X487929
X500134Y325739
X503874Y340010
X521591
X531630
X526512Y346408
X527102Y331841
X536059Y324557
X548756Y327017
X546591Y312845
X523953Y312747
X516669Y320424
X512733Y358711
X487929
X476905Y351821
X537537Y358711
X548756Y351821
T02
X95402Y65403
X102685Y109005
X157803Y92568
X198354Y107135
X215834Y89655
Y61496
X180106Y51525
X388378Y65403
X395662Y109005
X450780Y92568
X491331Y107135
X508811Y89655
Y61496
X473083Y51525
X494652Y211703
X522811
X540291Y229184
X525724Y269735
X484681Y247431
X430055Y229184
X412575Y211703
X384416
X374445Y247431
X415488Y269735
X319819Y229184
X302339Y211703
X274179
X264209Y247431
X305252Y269735
X195016
X209583Y229184
X192102Y211703
X163943
X153972Y247431
X99346Y229184
X81866Y211703
X53707
X43736Y247431
X84780Y269735
X101216Y324853
X57614Y332136
X167850
X211453Y324853
X278087Y332136
X321689Y324853
X388323Y332136
X431925Y324853
X498559Y332136
X542161Y324853
T04
X251602Y59655
Y69655
Y79655
Y89655
Y99655
X544579Y99655
Y89655
Y79655
Y69655
Y59655
X532811Y175935
X522811
X512811
X502811
X492811
X422575
X412575
X402575
X392575
X382575
X312339
X302339
X292339
X282339
X272339
X202102
X192102
X182102
X172102
X162102
X91866
X81866
X71866
X61866
X51866
T05
X65256Y71653
Y75591
Y79528
Y83465
Y87402
X98130Y119095
X102067
X106004
X109941
X113878
X113878Y39961
X109941
X106004
X102067
X98130
X186515Y39961
X190453
X194390
X198327
X202264
Y119193
X198327
X194390
X190453
X186515
X260630Y87402
Y83465
Y79528
Y75591
Y71653
X358268
Y75591
Y79528
Y83465
Y87402
X391142Y119095
X395079
X399016
X402953
X406890
X406890Y39961
X402953
X399016
X395079
X391142
X479527Y39961
X483464
X487401
X491338
X495276
Y119193
X491338
X487401
X483464
X479527
X553642Y87402
Y83465
Y79528
Y75591
Y71653
X520571Y166929
X516634
X512697
X508760
X504823
X473130Y225000
Y228937
Y232874
Y236811
Y240748
X552362
Y236811
Y232874
Y228937
Y225000
X442126
Y228937
Y232874
Y236811
Y240748
X362894
Y236811
Y232874
Y228937
Y225000
X331890
Y228937
Y232874
Y236811
Y240748
X394587Y166929
X398524
X402461
X406398
X410335
X300099
X296162
X292225
X288287
X284350
X252658Y225000
Y228937
Y232874
Y236811
Y240748
X221654
Y236811
Y232874
Y228937
Y225000
X189863Y166929
X185925
X181988
X178051
X174114
X142421Y225000
Y228937
Y232874
Y236811
Y240748
X111417
Y236811
Y232874
Y228937
Y225000
X32185
Y228937
Y232874
Y236811
Y240748
X63878Y166929
X67815
X71752
X75689
X79626
X111319Y313681
Y317618
Y321555
Y325492
Y329429
X142421Y329429
Y325492
Y321555
Y317618
Y313681
X32185
Y317618
Y321555
Y325492
Y329429
X63878Y362303
X67815
X71752
X75689
X79626
X174114
X178051
X181988
X185925
X189863
X221555Y329429
Y325492
Y321555
Y317618
Y313681
X252658Y313681
Y317618
Y321555
Y325492
Y329429
X284350Y362303
X288287
X292225
X296162
X300099
X331791Y329429
Y325492
Y321555
Y317618
Y313681
X362894Y313681
Y317618
Y321555
Y325492
Y329429
X394587Y362303
X398524
X402461
X406398
X410335
X442028Y329429
Y325492
Y321555
Y317618
Y313681
X473130Y313681
Y317618
Y321555
Y325492
Y329429
X504823Y362303
X508760
X512697
X516634
X520571
X552264Y329429
Y325492
Y321555
Y317618
Y313681
T06
X204398Y108494
X209398
X214398
X219398
X224398
X497374Y108494
X502374
X507374
X512374
X517374
X541650Y203140
Y208140
Y213140
Y218140
Y223140
X431413
Y218140
Y213140
Y208140
Y203140
X321177
Y208140
Y213140
Y218140
Y223140
X210941
Y218140
Y213140
Y208140
Y203140
X100705
Y208140
Y213140
Y218140
Y223140
T07
X77291Y70718
Y88435
X370268Y88435
Y70718
X80646Y350247
X62929
X173165
X190882
X283401
X301118
X393638
X411354
X503874
X521591
T08
X11811Y11811
X578740
X11811Y381890
X578740Y381890
M30
