G04*
G04 #@! TF.GenerationSoftware,Altium Limited,Altium Designer,20.2.6 (244)*
G04*
G04 Layer_Color=16711935*
%FSLAX25Y25*%
%MOIN*%
G70*
G04*
G04 #@! TF.SameCoordinates,1A3BA952-A66C-493A-B53E-150E5816C36F*
G04*
G04*
G04 #@! TF.FilePolarity,Negative*
G04*
G01*
G75*
G04:AMPARAMS|DCode=28|XSize=37.41mil|YSize=64.97mil|CornerRadius=18.7mil|HoleSize=0mil|Usage=FLASHONLY|Rotation=0.000|XOffset=0mil|YOffset=0mil|HoleType=Round|Shape=RoundedRectangle|*
%AMROUNDEDRECTD28*
21,1,0.03741,0.02756,0,0,0.0*
21,1,0.00000,0.06497,0,0,0.0*
1,1,0.03741,0.00000,-0.01378*
1,1,0.03741,0.00000,-0.01378*
1,1,0.03741,0.00000,0.01378*
1,1,0.03741,0.00000,0.01378*
%
%ADD28ROUNDEDRECTD28*%
%ADD37C,0.02953*%
%ADD38O,0.13189X0.05709*%
%ADD39R,0.07382X0.07382*%
%ADD40C,0.07382*%
%ADD41C,0.04134*%
D28*
X140433Y71850D02*
D03*
X145433D02*
D03*
X150433D02*
D03*
X155433D02*
D03*
D37*
X10827Y29528D02*
D03*
Y47244D02*
D03*
X137933Y67303D02*
D03*
X142933D02*
D03*
X147933D02*
D03*
X152933D02*
D03*
X157933D02*
D03*
X90244Y32283D02*
D03*
X137697Y43602D02*
D03*
X104193Y40453D02*
D03*
X120422Y39480D02*
D03*
X86996Y36614D02*
D03*
X118957Y34173D02*
D03*
X131299Y60342D02*
D03*
X58957Y48622D02*
D03*
X50886Y47047D02*
D03*
D38*
X10827Y15551D02*
D03*
Y61221D02*
D03*
D39*
X185138Y58465D02*
D03*
D40*
Y48465D02*
D03*
Y38465D02*
D03*
Y28465D02*
D03*
Y18465D02*
D03*
D41*
X149370Y20305D02*
D03*
X113642Y10335D02*
D03*
X149370Y48465D02*
D03*
X131890Y65945D02*
D03*
X91339Y51378D02*
D03*
X36220Y67815D02*
D03*
X28937Y24213D02*
D03*
M02*
