G04*
G04 #@! TF.GenerationSoftware,Altium Limited,Altium Designer,20.2.6 (244)*
G04*
G04 Layer_Physical_Order=2*
G04 Layer_Color=16711680*
%FSLAX25Y25*%
%MOIN*%
G70*
G04*
G04 #@! TF.SameCoordinates,1A3BA952-A66C-493A-B53E-150E5816C36F*
G04*
G04*
G04 #@! TF.FilePolarity,Positive*
G04*
G01*
G75*
G04:AMPARAMS|DCode=43|XSize=31.5mil|YSize=59.06mil|CornerRadius=15.75mil|HoleSize=0mil|Usage=FLASHONLY|Rotation=0.000|XOffset=0mil|YOffset=0mil|HoleType=Round|Shape=RoundedRectangle|*
%AMROUNDEDRECTD43*
21,1,0.03150,0.02756,0,0,0.0*
21,1,0.00000,0.05906,0,0,0.0*
1,1,0.03150,0.00000,-0.01378*
1,1,0.03150,0.00000,-0.01378*
1,1,0.03150,0.00000,0.01378*
1,1,0.03150,0.00000,0.01378*
%
%ADD43ROUNDEDRECTD43*%
%ADD45C,0.00598*%
%ADD46C,0.02000*%
%ADD48C,0.02362*%
%ADD49O,0.12598X0.05118*%
%ADD50R,0.06791X0.06791*%
%ADD51C,0.06791*%
%ADD52C,0.03543*%
G36*
X184335Y68898D02*
X184396Y68590D01*
X184570Y68330D01*
X184831Y68156D01*
X185138Y68095D01*
X192209D01*
Y8677D01*
X185138D01*
X184831Y8616D01*
X184570Y8442D01*
X184396Y8181D01*
X184335Y7874D01*
Y803D01*
X168224D01*
Y14764D01*
X168163Y15071D01*
X167989Y15331D01*
X167728Y15505D01*
X167421Y15567D01*
X161516D01*
X161209Y15505D01*
X160948Y15331D01*
X160774Y15071D01*
X160713Y14764D01*
X160713Y803D01*
X104248Y803D01*
X104248Y5905D01*
X104186Y6213D01*
X104013Y6473D01*
X103752Y6647D01*
X103445Y6708D01*
X89665Y6708D01*
X89358Y6647D01*
X89098Y6473D01*
X88924Y6213D01*
X88863Y5906D01*
X88863Y803D01*
X7791Y803D01*
Y6890D01*
X7730Y7197D01*
X7556Y7457D01*
X7295Y7631D01*
X6988Y7693D01*
X803D01*
Y69079D01*
X6988D01*
X7295Y69140D01*
X7556Y69314D01*
X7730Y69575D01*
X7791Y69882D01*
Y75969D01*
X88863Y75969D01*
X88863Y70866D01*
X88924Y70559D01*
X89098Y70298D01*
X89358Y70125D01*
X89665Y70063D01*
X103445D01*
X103752Y70125D01*
X104013Y70298D01*
X104186Y70559D01*
X104248Y70866D01*
Y75969D01*
X160713D01*
Y62008D01*
X160774Y61701D01*
X160948Y61440D01*
X161209Y61266D01*
X161516Y61205D01*
X167421D01*
X167728Y61266D01*
X167989Y61440D01*
X168163Y61701D01*
X168224Y62008D01*
Y75969D01*
X184335D01*
Y68898D01*
D02*
G37*
%LPC*%
G36*
X155732Y75385D02*
Y72149D01*
X157649D01*
Y73228D01*
X157480Y74076D01*
X157000Y74795D01*
X156281Y75275D01*
X155732Y75385D01*
D02*
G37*
G36*
X155134D02*
X154585Y75275D01*
X153866Y74795D01*
X153386Y74076D01*
X153217Y73228D01*
Y72149D01*
X155134D01*
Y75385D01*
D02*
G37*
G36*
X150433Y75444D02*
X149585Y75275D01*
X148866Y74795D01*
X148386Y74076D01*
X148217Y73228D01*
Y70472D01*
X148260Y70257D01*
X147933Y69864D01*
X147606Y70257D01*
X147649Y70472D01*
Y73228D01*
X147480Y74076D01*
X147000Y74795D01*
X146281Y75275D01*
X145433Y75444D01*
X144585Y75275D01*
X143866Y74795D01*
X143386Y74076D01*
X143217Y73228D01*
Y70472D01*
X143260Y70257D01*
X142933Y69864D01*
X142606Y70257D01*
X142649Y70472D01*
Y73228D01*
X142480Y74076D01*
X142000Y74795D01*
X141281Y75275D01*
X140433Y75444D01*
X139585Y75275D01*
X138866Y74795D01*
X138386Y74076D01*
X138306Y73675D01*
X135433D01*
X134848Y73558D01*
X134352Y73227D01*
X130854Y69729D01*
X130522Y69233D01*
X130406Y68648D01*
Y67804D01*
X130181Y67654D01*
X130061Y67474D01*
X105905D01*
X105320Y67358D01*
X104824Y67026D01*
X91550Y53752D01*
X91339Y53794D01*
X90414Y53610D01*
X89630Y53087D01*
X89106Y52303D01*
X88922Y51378D01*
X89106Y50453D01*
X89630Y49669D01*
X90414Y49145D01*
X91339Y48961D01*
X92263Y49145D01*
X93047Y49669D01*
X93571Y50453D01*
X93755Y51378D01*
X93713Y51590D01*
X106539Y64416D01*
X130061D01*
X130181Y64236D01*
X130965Y63712D01*
X131890Y63528D01*
X132101Y63570D01*
X146996Y48676D01*
X146953Y48465D01*
X147137Y47540D01*
X147661Y46756D01*
X148445Y46232D01*
X149370Y46048D01*
X150295Y46232D01*
X151079Y46756D01*
X151603Y47540D01*
X151787Y48465D01*
X151603Y49389D01*
X151079Y50173D01*
X150295Y50697D01*
X149370Y50881D01*
X149159Y50839D01*
X134264Y65733D01*
X134306Y65945D01*
X134122Y66870D01*
X133598Y67654D01*
X133631Y68181D01*
X136067Y70616D01*
X138217D01*
Y70472D01*
X138322Y69943D01*
X137933Y69511D01*
X137088Y69343D01*
X136372Y68864D01*
X135893Y68148D01*
X135725Y67303D01*
X135893Y66458D01*
X136372Y65742D01*
X137088Y65263D01*
X137933Y65095D01*
X138778Y65263D01*
X139494Y65742D01*
X139973Y66458D01*
X140141Y67303D01*
X140124Y67387D01*
X140433Y67763D01*
X140742Y67387D01*
X140725Y67303D01*
X140893Y66458D01*
X141372Y65742D01*
X142088Y65263D01*
X142933Y65095D01*
X143778Y65263D01*
X144494Y65742D01*
X144973Y66458D01*
X145141Y67303D01*
X145124Y67387D01*
X145433Y67763D01*
X145742Y67387D01*
X145725Y67303D01*
X145893Y66458D01*
X146372Y65742D01*
X147088Y65263D01*
X147933Y65095D01*
X148778Y65263D01*
X149494Y65742D01*
X149973Y66458D01*
X150141Y67303D01*
X150124Y67387D01*
X150433Y67763D01*
X150742Y67387D01*
X150725Y67303D01*
X150893Y66458D01*
X151372Y65742D01*
X152088Y65263D01*
X152933Y65095D01*
X153778Y65263D01*
X154494Y65742D01*
X154973Y66458D01*
X155141Y67303D01*
X155124Y67387D01*
X155433Y67763D01*
X155742Y67387D01*
X155725Y67303D01*
X155893Y66458D01*
X156372Y65742D01*
X157088Y65263D01*
X157933Y65095D01*
X158778Y65263D01*
X159494Y65742D01*
X159973Y66458D01*
X160141Y67303D01*
X159973Y68148D01*
X159494Y68864D01*
X158778Y69343D01*
X157933Y69511D01*
X157544Y69943D01*
X157649Y70472D01*
Y71551D01*
X155433D01*
X153217D01*
Y70472D01*
X153260Y70257D01*
X152933Y69864D01*
X152606Y70257D01*
X152649Y70472D01*
Y73228D01*
X152480Y74076D01*
X152000Y74795D01*
X151281Y75275D01*
X150433Y75444D01*
D02*
G37*
G36*
X36220Y70231D02*
X35296Y70047D01*
X34512Y69524D01*
X33988Y68740D01*
X33804Y67815D01*
X33846Y67603D01*
X31399Y65156D01*
X31067Y64660D01*
X30951Y64075D01*
Y29137D01*
X30852Y28642D01*
Y28291D01*
X29149Y26587D01*
X28937Y26629D01*
X28012Y26445D01*
X27228Y25921D01*
X26704Y25137D01*
X26520Y24213D01*
X26704Y23288D01*
X27228Y22504D01*
X28012Y21980D01*
X28937Y21796D01*
X29862Y21980D01*
X30646Y22504D01*
X31170Y23288D01*
X31354Y24213D01*
X31311Y24424D01*
X33463Y26576D01*
X33795Y27072D01*
X33911Y27657D01*
Y28147D01*
X34010Y28642D01*
Y63441D01*
X36009Y65440D01*
X36220Y65398D01*
X37145Y65582D01*
X37929Y66106D01*
X38453Y66890D01*
X38637Y67815D01*
X38453Y68740D01*
X37929Y69524D01*
X37145Y70047D01*
X36220Y70231D01*
D02*
G37*
G36*
X189132Y62459D02*
X185437D01*
Y58764D01*
X189132D01*
Y62459D01*
D02*
G37*
G36*
X184839D02*
X181144D01*
Y58764D01*
X184839D01*
Y62459D01*
D02*
G37*
G36*
X131299Y62156D02*
X130605Y62018D01*
X130016Y61624D01*
X129623Y61036D01*
X129485Y60342D01*
X129595Y59789D01*
X111073Y41268D01*
X105789D01*
X105476Y41736D01*
X104887Y42129D01*
X104193Y42267D01*
X103499Y42129D01*
X102910Y41736D01*
X102517Y41147D01*
X102378Y40453D01*
X102517Y39758D01*
X102910Y39170D01*
X103499Y38776D01*
X104193Y38638D01*
X104887Y38776D01*
X105476Y39170D01*
X105789Y39638D01*
X111410D01*
X111722Y39700D01*
X111987Y39877D01*
X130747Y58637D01*
X131299Y58527D01*
X131993Y58665D01*
X132582Y59058D01*
X132975Y59647D01*
X133114Y60342D01*
X132975Y61036D01*
X132582Y61624D01*
X131993Y62018D01*
X131299Y62156D01*
D02*
G37*
G36*
X14567Y64405D02*
X7087D01*
X6262Y64297D01*
X5494Y63978D01*
X4835Y63472D01*
X4329Y62813D01*
X4010Y62045D01*
X3902Y61221D01*
X4010Y60396D01*
X4329Y59628D01*
X4835Y58969D01*
X5494Y58462D01*
X6262Y58144D01*
X7087Y58036D01*
X14567D01*
X15391Y58144D01*
X16159Y58462D01*
X16819Y58969D01*
X17325Y59628D01*
X17643Y60396D01*
X17752Y61221D01*
X17643Y62045D01*
X17325Y62813D01*
X16819Y63472D01*
X16159Y63978D01*
X15391Y64297D01*
X14567Y64405D01*
D02*
G37*
G36*
X189132Y58165D02*
X185437D01*
Y54470D01*
X189132D01*
Y58165D01*
D02*
G37*
G36*
X184839D02*
X181144D01*
Y54470D01*
X184839D01*
Y58165D01*
D02*
G37*
G36*
X185138Y52493D02*
X184095Y52356D01*
X183124Y51953D01*
X182289Y51313D01*
X181649Y50479D01*
X181246Y49507D01*
X181109Y48465D01*
X181246Y47422D01*
X181649Y46450D01*
X182289Y45616D01*
X183124Y44976D01*
X184095Y44573D01*
X185138Y44436D01*
X186180Y44573D01*
X187152Y44976D01*
X187986Y45616D01*
X188627Y46450D01*
X189029Y47422D01*
X189166Y48465D01*
X189029Y49507D01*
X188627Y50479D01*
X187986Y51313D01*
X187152Y51953D01*
X186180Y52356D01*
X185138Y52493D01*
D02*
G37*
G36*
X10827Y51215D02*
X9799Y51080D01*
X8841Y50683D01*
X8019Y50052D01*
X7388Y49230D01*
X6991Y48272D01*
X6856Y47244D01*
X6991Y46216D01*
X7388Y45259D01*
X8019Y44436D01*
X8841Y43805D01*
X9799Y43408D01*
X10827Y43273D01*
X11855Y43408D01*
X12812Y43805D01*
X13635Y44436D01*
X14266Y45259D01*
X14662Y46216D01*
X14798Y47244D01*
X14662Y48272D01*
X14266Y49230D01*
X13635Y50052D01*
X12812Y50683D01*
X11855Y51080D01*
X10827Y51215D01*
D02*
G37*
G36*
X58957Y50436D02*
X58262Y50298D01*
X57674Y49905D01*
X57280Y49316D01*
X57142Y48622D01*
X57280Y47928D01*
X57674Y47339D01*
X58262Y46946D01*
X58957Y46808D01*
X59509Y46918D01*
X70388Y36038D01*
X70653Y35861D01*
X70965Y35799D01*
X85401D01*
X85713Y35331D01*
X86302Y34938D01*
X86996Y34800D01*
X87691Y34938D01*
X88279Y35331D01*
X88673Y35920D01*
X88811Y36614D01*
X88673Y37308D01*
X88279Y37897D01*
X87691Y38290D01*
X86996Y38429D01*
X86302Y38290D01*
X85713Y37897D01*
X85401Y37429D01*
X71302D01*
X60661Y48070D01*
X60771Y48622D01*
X60633Y49316D01*
X60240Y49905D01*
X59651Y50298D01*
X58957Y50436D01*
D02*
G37*
G36*
X137697Y45417D02*
X137003Y45279D01*
X136414Y44885D01*
X136021Y44297D01*
X135882Y43602D01*
X136021Y42908D01*
X136414Y42319D01*
X137003Y41926D01*
X137697Y41788D01*
X138391Y41926D01*
X138980Y42319D01*
X139293Y42788D01*
X146710D01*
X151609Y37888D01*
X151873Y37712D01*
X152185Y37650D01*
X181217D01*
X181246Y37422D01*
X181649Y36450D01*
X182289Y35616D01*
X183124Y34976D01*
X184095Y34573D01*
X185138Y34436D01*
X186180Y34573D01*
X187152Y34976D01*
X187986Y35616D01*
X188627Y36450D01*
X189029Y37422D01*
X189166Y38465D01*
X189029Y39507D01*
X188627Y40479D01*
X187986Y41313D01*
X187152Y41953D01*
X186180Y42356D01*
X185138Y42493D01*
X184095Y42356D01*
X183124Y41953D01*
X182289Y41313D01*
X181649Y40479D01*
X181246Y39507D01*
X181217Y39279D01*
X152523D01*
X147624Y44179D01*
X147359Y44355D01*
X147047Y44417D01*
X139293D01*
X138980Y44885D01*
X138391Y45279D01*
X137697Y45417D01*
D02*
G37*
G36*
X50886Y48862D02*
X50191Y48724D01*
X49603Y48330D01*
X49209Y47742D01*
X49071Y47047D01*
X49209Y46353D01*
X49603Y45764D01*
X50191Y45371D01*
X50886Y45233D01*
X51438Y45343D01*
X65073Y31707D01*
X65338Y31531D01*
X65650Y31469D01*
X88649D01*
X88961Y31001D01*
X89550Y30607D01*
X90244Y30469D01*
X90939Y30607D01*
X91527Y31001D01*
X91921Y31589D01*
X92059Y32283D01*
X91921Y32978D01*
X91527Y33566D01*
X90939Y33960D01*
X90244Y34098D01*
X89550Y33960D01*
X88961Y33566D01*
X88649Y33098D01*
X65987D01*
X52590Y46495D01*
X52700Y47047D01*
X52562Y47742D01*
X52169Y48330D01*
X51580Y48724D01*
X50886Y48862D01*
D02*
G37*
G36*
X10827Y33498D02*
X9799Y33363D01*
X8841Y32967D01*
X8019Y32335D01*
X7388Y31513D01*
X6991Y30555D01*
X6856Y29528D01*
X6991Y28500D01*
X7388Y27542D01*
X8019Y26720D01*
X8841Y26089D01*
X9799Y25692D01*
X10827Y25557D01*
X11855Y25692D01*
X12812Y26089D01*
X13635Y26720D01*
X14266Y27542D01*
X14662Y28500D01*
X14798Y29528D01*
X14662Y30555D01*
X14266Y31513D01*
X13635Y32335D01*
X12812Y32967D01*
X11855Y33363D01*
X10827Y33498D01*
D02*
G37*
G36*
X120422Y41294D02*
X119727Y41156D01*
X119139Y40763D01*
X118745Y40174D01*
X118607Y39480D01*
X118745Y38786D01*
X119139Y38197D01*
X119727Y37804D01*
X120422Y37666D01*
X121116Y37804D01*
X121705Y38197D01*
X122017Y38665D01*
X143293D01*
X154069Y27888D01*
X154334Y27712D01*
X154646Y27650D01*
X181217D01*
X181246Y27422D01*
X181649Y26450D01*
X182289Y25616D01*
X183124Y24976D01*
X184095Y24573D01*
X185138Y24436D01*
X186180Y24573D01*
X187152Y24976D01*
X187986Y25616D01*
X188627Y26450D01*
X189029Y27422D01*
X189166Y28465D01*
X189029Y29507D01*
X188627Y30479D01*
X187986Y31313D01*
X187152Y31953D01*
X186180Y32356D01*
X185138Y32493D01*
X184095Y32356D01*
X183124Y31953D01*
X182289Y31313D01*
X181649Y30479D01*
X181246Y29507D01*
X181217Y29279D01*
X154983D01*
X144207Y40056D01*
X143942Y40233D01*
X143630Y40295D01*
X122017D01*
X121705Y40763D01*
X121116Y41156D01*
X120422Y41294D01*
D02*
G37*
G36*
X149370Y22722D02*
X148445Y22538D01*
X147661Y22014D01*
X147137Y21230D01*
X146953Y20305D01*
X146996Y20094D01*
X138766Y11864D01*
X115470D01*
X115350Y12043D01*
X114567Y12567D01*
X113642Y12751D01*
X112717Y12567D01*
X111933Y12043D01*
X111409Y11259D01*
X111225Y10335D01*
X111409Y9410D01*
X111933Y8626D01*
X112717Y8102D01*
X113642Y7918D01*
X114567Y8102D01*
X115350Y8626D01*
X115470Y8805D01*
X139399D01*
X139985Y8922D01*
X140481Y9253D01*
X149159Y17931D01*
X149370Y17889D01*
X150295Y18073D01*
X151079Y18597D01*
X151603Y19381D01*
X151787Y20305D01*
X151603Y21230D01*
X151079Y22014D01*
X150295Y22538D01*
X149370Y22722D01*
D02*
G37*
G36*
X118957Y35988D02*
X118262Y35849D01*
X117674Y35456D01*
X117280Y34868D01*
X117142Y34173D01*
X117280Y33479D01*
X117674Y32890D01*
X118262Y32497D01*
X118957Y32359D01*
X119651Y32497D01*
X120240Y32890D01*
X120552Y33358D01*
X142556D01*
X158026Y17888D01*
X158291Y17712D01*
X158602Y17650D01*
X181217D01*
X181246Y17422D01*
X181649Y16450D01*
X182289Y15616D01*
X183124Y14976D01*
X184095Y14573D01*
X185138Y14436D01*
X186180Y14573D01*
X187152Y14976D01*
X187986Y15616D01*
X188627Y16450D01*
X189029Y17422D01*
X189166Y18465D01*
X189029Y19507D01*
X188627Y20479D01*
X187986Y21313D01*
X187152Y21953D01*
X186180Y22356D01*
X185138Y22493D01*
X184095Y22356D01*
X183124Y21953D01*
X182289Y21313D01*
X181649Y20479D01*
X181246Y19507D01*
X181217Y19279D01*
X158940D01*
X143470Y34749D01*
X143205Y34926D01*
X142894Y34988D01*
X120552D01*
X120240Y35456D01*
X119651Y35849D01*
X118957Y35988D01*
D02*
G37*
G36*
X14567Y18736D02*
X7087D01*
X6262Y18627D01*
X5494Y18309D01*
X4835Y17803D01*
X4329Y17143D01*
X4010Y16375D01*
X3902Y15551D01*
X4010Y14727D01*
X4329Y13959D01*
X4835Y13299D01*
X5494Y12793D01*
X6262Y12475D01*
X7087Y12366D01*
X14567D01*
X15391Y12475D01*
X16159Y12793D01*
X16819Y13299D01*
X17325Y13959D01*
X17643Y14727D01*
X17752Y15551D01*
X17643Y16375D01*
X17325Y17143D01*
X16819Y17803D01*
X16159Y18309D01*
X15391Y18627D01*
X14567Y18736D01*
D02*
G37*
%LPD*%
D43*
X140433Y71850D02*
D03*
X145433D02*
D03*
X150433D02*
D03*
X155433D02*
D03*
D45*
X118957Y34173D02*
X142894D01*
X158602Y18465D02*
X185138D01*
X142894Y34173D02*
X158602Y18465D01*
X120422Y39480D02*
X143630D01*
X154646Y28465D02*
X185138D01*
X143630Y39480D02*
X154646Y28465D01*
X152185Y38465D02*
X185138D01*
X137697Y43602D02*
X147047D01*
X152185Y38465D01*
X86996Y36614D02*
X87193D01*
X70965D02*
X86996D01*
X50886Y47047D02*
X65650Y32283D01*
X90244D01*
X58957Y48622D02*
X70965Y36614D01*
X104193Y40453D02*
X111410D01*
X131299Y60342D02*
Y60342D01*
X111410Y40453D02*
X131299Y60342D01*
D46*
X135433Y72145D02*
X140433D01*
X139399Y10335D02*
X149370Y20305D01*
X113642Y10335D02*
X139399D01*
X91339Y51378D02*
Y51378D01*
X105905Y65945D02*
X131890D01*
X91339Y51378D02*
X105905Y65945D01*
X131935Y68648D02*
X135433Y72145D01*
X131890Y65945D02*
X131935Y65990D01*
Y68648D01*
X131890Y65945D02*
X149370Y48465D01*
X32480Y28642D02*
Y64075D01*
X28937Y24213D02*
X32382Y27657D01*
Y28642D01*
X32480D01*
X36220Y67815D02*
X36220D01*
X32480Y64075D02*
X36220Y67815D01*
D48*
X10827Y29528D02*
D03*
Y47244D02*
D03*
X137933Y67303D02*
D03*
X142933D02*
D03*
X147933D02*
D03*
X152933D02*
D03*
X157933D02*
D03*
X139399Y36909D02*
D03*
X144803Y20305D02*
D03*
X159843Y23622D02*
D03*
X90244Y32283D02*
D03*
X137697Y43602D02*
D03*
X104193Y40453D02*
D03*
X120422Y39480D02*
D03*
X86996Y36614D02*
D03*
X118957Y34173D02*
D03*
X190849Y16726D02*
D03*
Y41530D02*
D03*
Y66334D02*
D03*
X74410Y34437D02*
D03*
X83760D02*
D03*
X111410Y37894D02*
D03*
X120422Y44488D02*
D03*
X111811D02*
D03*
X83760Y26772D02*
D03*
X85766Y51575D02*
D03*
X158976Y63465D02*
D03*
X164272Y59646D02*
D03*
X134646Y25591D02*
D03*
X140807Y7776D02*
D03*
X129528Y22835D02*
D03*
X129331Y62894D02*
D03*
X146063Y40945D02*
D03*
X143307Y47343D02*
D03*
X107678Y16732D02*
D03*
X146752Y55315D02*
D03*
X143307Y58858D02*
D03*
X139961Y62343D02*
D03*
X124665Y36850D02*
D03*
X115748Y40846D02*
D03*
X103740Y30610D02*
D03*
X126772D02*
D03*
Y52362D02*
D03*
X103740Y53543D02*
D03*
X116988Y70079D02*
D03*
X113642Y53543D02*
D03*
X119744Y13878D02*
D03*
X116791Y30610D02*
D03*
X131299Y60342D02*
D03*
X96457Y68209D02*
D03*
X159172Y74410D02*
D03*
X171653Y41043D02*
D03*
X131890Y74410D02*
D03*
X180121Y74409D02*
D03*
X157286Y2559D02*
D03*
X159843Y41530D02*
D03*
X83664Y16732D02*
D03*
X74114Y45177D02*
D03*
X107678Y74409D02*
D03*
X96457Y8563D02*
D03*
X159843Y32283D02*
D03*
X177362Y33760D02*
D03*
X132482Y2559D02*
D03*
X77067Y51575D02*
D03*
X171653Y25591D02*
D03*
X83664Y74409D02*
D03*
X107678Y2559D02*
D03*
X55216Y17520D02*
D03*
X36516Y61713D02*
D03*
X34056Y13583D02*
D03*
X40650Y42323D02*
D03*
X57284Y45472D02*
D03*
X60433Y41043D02*
D03*
X62500Y50591D02*
D03*
X58957Y48622D02*
D03*
X50886Y47047D02*
D03*
X64075Y26673D02*
D03*
X21063Y29528D02*
D03*
X58366Y59646D02*
D03*
X69291Y51772D02*
D03*
X48327Y49606D02*
D03*
X48228Y72244D02*
D03*
X14665Y52165D02*
D03*
X21063Y47244D02*
D03*
Y57284D02*
D03*
X29232Y52756D02*
D03*
X35335Y25787D02*
D03*
X64764Y17520D02*
D03*
X59941Y11614D02*
D03*
X58661Y25197D02*
D03*
X50886Y37402D02*
D03*
X180121Y2559D02*
D03*
X83664D02*
D03*
X58860D02*
D03*
X34056D02*
D03*
X9252D02*
D03*
X2362Y13582D02*
D03*
Y38386D02*
D03*
Y63190D02*
D03*
X58860Y74409D02*
D03*
X34056D02*
D03*
X9252D02*
D03*
D49*
X10827Y15551D02*
D03*
Y61221D02*
D03*
D50*
X185138Y58465D02*
D03*
D51*
Y48465D02*
D03*
Y38465D02*
D03*
Y28465D02*
D03*
Y18465D02*
D03*
D52*
X149370Y20305D02*
D03*
X113642Y10335D02*
D03*
X149370Y48465D02*
D03*
X131890Y65945D02*
D03*
X91339Y51378D02*
D03*
X36220Y67815D02*
D03*
X28937Y24213D02*
D03*
M02*
