G04*
G04 #@! TF.GenerationSoftware,Altium Limited,Altium Designer,20.2.6 (244)*
G04*
G04 Layer_Physical_Order=1*
G04 Layer_Color=255*
%FSLAX25Y25*%
%MOIN*%
G70*
G04*
G04 #@! TF.SameCoordinates,1A3BA952-A66C-493A-B53E-150E5816C36F*
G04*
G04*
G04 #@! TF.FilePolarity,Positive*
G04*
G01*
G75*
%ADD15R,0.01772X0.05512*%
%ADD16R,0.03150X0.03740*%
%ADD17R,0.05906X0.02362*%
%ADD18R,0.02362X0.05906*%
%ADD19R,0.03740X0.03543*%
%ADD20R,0.06496X0.09843*%
%ADD21R,0.04528X0.03937*%
%ADD22R,0.03543X0.03740*%
%ADD23R,0.06890X0.04331*%
%ADD24R,0.04331X0.06890*%
%ADD42R,0.07874X0.04724*%
G04:AMPARAMS|DCode=43|XSize=31.5mil|YSize=59.06mil|CornerRadius=15.75mil|HoleSize=0mil|Usage=FLASHONLY|Rotation=0.000|XOffset=0mil|YOffset=0mil|HoleType=Round|Shape=RoundedRectangle|*
%AMROUNDEDRECTD43*
21,1,0.03150,0.02756,0,0,0.0*
21,1,0.00000,0.05906,0,0,0.0*
1,1,0.03150,0.00000,-0.01378*
1,1,0.03150,0.00000,-0.01378*
1,1,0.03150,0.00000,0.01378*
1,1,0.03150,0.00000,0.01378*
%
%ADD43ROUNDEDRECTD43*%
%ADD44C,0.01000*%
%ADD45C,0.00598*%
%ADD46C,0.02000*%
%ADD47C,0.01500*%
%ADD48C,0.02362*%
%ADD49O,0.12598X0.05118*%
%ADD50R,0.06791X0.06791*%
%ADD51C,0.06791*%
%ADD52C,0.03543*%
G36*
X184335Y68898D02*
X184396Y68590D01*
X184570Y68330D01*
X184831Y68156D01*
X185138Y68095D01*
X192209D01*
Y8677D01*
X185138D01*
X184831Y8616D01*
X184570Y8442D01*
X184396Y8181D01*
X184335Y7874D01*
Y803D01*
X168224D01*
Y14764D01*
X168163Y15071D01*
X167989Y15331D01*
X167728Y15505D01*
X167421Y15567D01*
X161516D01*
X161209Y15505D01*
X160948Y15331D01*
X160774Y15071D01*
X160713Y14764D01*
X160713Y803D01*
X104248Y803D01*
X104248Y5905D01*
X104186Y6213D01*
X104013Y6473D01*
X103752Y6647D01*
X103445Y6708D01*
X89665Y6708D01*
X89358Y6647D01*
X89098Y6473D01*
X88924Y6213D01*
X88863Y5906D01*
X88863Y803D01*
X7791Y803D01*
Y6890D01*
X7730Y7197D01*
X7556Y7457D01*
X7295Y7631D01*
X6988Y7693D01*
X803D01*
Y69079D01*
X6988D01*
X7295Y69140D01*
X7556Y69314D01*
X7730Y69575D01*
X7791Y69882D01*
Y75969D01*
X88863Y75969D01*
X88863Y70866D01*
X88924Y70559D01*
X89098Y70298D01*
X89358Y70125D01*
X89665Y70063D01*
X103445D01*
X103752Y70125D01*
X104013Y70298D01*
X104186Y70559D01*
X104248Y70866D01*
Y75969D01*
X160713D01*
Y62008D01*
X160774Y61701D01*
X160948Y61440D01*
X161209Y61266D01*
X161516Y61205D01*
X167421D01*
X167728Y61266D01*
X167989Y61440D01*
X168163Y61701D01*
X168224Y62008D01*
Y75969D01*
X184335D01*
Y68898D01*
D02*
G37*
%LPC*%
G36*
X155433Y75444D02*
X154585Y75275D01*
X153866Y74795D01*
X153386Y74076D01*
X153217Y73228D01*
Y70472D01*
X153260Y70257D01*
X152933Y69864D01*
X152606Y70257D01*
X152649Y70472D01*
Y73228D01*
X152480Y74076D01*
X152000Y74795D01*
X151281Y75275D01*
X150433Y75444D01*
X149585Y75275D01*
X148866Y74795D01*
X148386Y74076D01*
X148217Y73228D01*
Y70472D01*
X148260Y70257D01*
X147933Y69864D01*
X147606Y70257D01*
X147649Y70472D01*
Y73228D01*
X147480Y74076D01*
X147000Y74795D01*
X146281Y75275D01*
X145433Y75444D01*
X144585Y75275D01*
X143866Y74795D01*
X143386Y74076D01*
X143217Y73228D01*
Y70472D01*
X143260Y70257D01*
X142933Y69864D01*
X142606Y70257D01*
X142649Y70472D01*
Y73228D01*
X142480Y74076D01*
X142000Y74795D01*
X141281Y75275D01*
X140433Y75444D01*
X139585Y75275D01*
X138866Y74795D01*
X138386Y74076D01*
X138217Y73228D01*
Y70472D01*
X138322Y69943D01*
X137933Y69511D01*
X137088Y69343D01*
X136372Y68864D01*
X135893Y68148D01*
X135725Y67303D01*
X135893Y66458D01*
X136372Y65742D01*
X137088Y65263D01*
X137611Y65159D01*
X137776Y64617D01*
X134111Y60953D01*
X132992D01*
X132975Y61036D01*
X132582Y61624D01*
X131993Y62018D01*
X131299Y62156D01*
X130605Y62018D01*
X130016Y61624D01*
X129623Y61036D01*
X129485Y60342D01*
X129623Y59647D01*
X130016Y59058D01*
X130605Y58665D01*
X131299Y58527D01*
X131993Y58665D01*
X132582Y59058D01*
X132759Y59323D01*
X134449D01*
X134761Y59385D01*
X135025Y59562D01*
X140945Y65481D01*
X141345Y65726D01*
X141596Y65592D01*
X142088Y65263D01*
X142933Y65095D01*
X143778Y65263D01*
X144118Y65491D01*
X144531Y65270D01*
X144576Y64763D01*
X137714Y57902D01*
X128020D01*
Y62311D01*
X124620D01*
Y63476D01*
X125461D01*
Y64416D01*
X130061D01*
X130181Y64236D01*
X130965Y63712D01*
X131890Y63528D01*
X132815Y63712D01*
X133598Y64236D01*
X134122Y65020D01*
X134306Y65945D01*
X134122Y66870D01*
X133598Y67654D01*
X132815Y68177D01*
X131890Y68361D01*
X130965Y68177D01*
X130181Y67654D01*
X130061Y67474D01*
X125461D01*
Y68413D01*
X120721D01*
Y63476D01*
X121561D01*
Y62311D01*
X113941D01*
Y58760D01*
Y55209D01*
X128020D01*
Y56272D01*
X138051D01*
X138363Y56334D01*
X138627Y56510D01*
X146009Y63892D01*
X146186Y64157D01*
X146248Y64468D01*
Y65223D01*
X146748Y65491D01*
X147088Y65263D01*
X147933Y65095D01*
X148778Y65263D01*
X149118Y65491D01*
X149618Y65223D01*
Y62779D01*
X140706Y53866D01*
X135500D01*
Y54831D01*
X128398D01*
Y51272D01*
Y48122D01*
Y44972D01*
Y41823D01*
Y38673D01*
Y35524D01*
Y32374D01*
Y29224D01*
X135500D01*
Y32374D01*
Y35524D01*
Y38673D01*
Y42788D01*
X136101D01*
X136414Y42319D01*
X137003Y41926D01*
X137697Y41788D01*
X138391Y41926D01*
X138980Y42319D01*
X139373Y42908D01*
X139511Y43602D01*
X139373Y44297D01*
X138980Y44885D01*
X138391Y45279D01*
X137697Y45417D01*
X137003Y45279D01*
X136414Y44885D01*
X136101Y44417D01*
X135500D01*
Y49087D01*
X144803D01*
X145115Y49149D01*
X145379Y49325D01*
X156009Y59955D01*
X156186Y60220D01*
X156248Y60532D01*
Y65223D01*
X156748Y65491D01*
X157088Y65263D01*
X157933Y65095D01*
X158778Y65263D01*
X159494Y65742D01*
X159973Y66458D01*
X160141Y67303D01*
X159973Y68148D01*
X159494Y68864D01*
X158778Y69343D01*
X157933Y69511D01*
X157544Y69943D01*
X157649Y70472D01*
Y73228D01*
X157480Y74076D01*
X157000Y74795D01*
X156281Y75275D01*
X155433Y75444D01*
D02*
G37*
G36*
X50697Y70185D02*
X48528D01*
Y68114D01*
X50697D01*
Y70185D01*
D02*
G37*
G36*
X47929D02*
X45760D01*
Y68114D01*
X47929D01*
Y70185D01*
D02*
G37*
G36*
X119358Y68413D02*
X117287D01*
Y66244D01*
X119358D01*
Y68413D01*
D02*
G37*
G36*
X116689D02*
X114618D01*
Y66244D01*
X116689D01*
Y68413D01*
D02*
G37*
G36*
X50697Y67516D02*
X48528D01*
Y65445D01*
X50697D01*
Y67516D01*
D02*
G37*
G36*
X47929D02*
X45760D01*
Y65445D01*
X47929D01*
Y67516D01*
D02*
G37*
G36*
X36220Y70231D02*
X35296Y70047D01*
X34512Y69524D01*
X33988Y68740D01*
X33804Y67815D01*
X33988Y66890D01*
X34512Y66106D01*
X35296Y65582D01*
X36220Y65398D01*
X37145Y65582D01*
X37929Y66106D01*
X38049Y66286D01*
X39559D01*
Y65445D01*
X44496D01*
Y70185D01*
X39559D01*
Y69344D01*
X38049D01*
X37929Y69524D01*
X37145Y70047D01*
X36220Y70231D01*
D02*
G37*
G36*
X119358Y65646D02*
X117287D01*
Y63476D01*
X119358D01*
Y65646D01*
D02*
G37*
G36*
X116689D02*
X114618D01*
Y63476D01*
X116689D01*
Y65646D01*
D02*
G37*
G36*
X79535Y64378D02*
X74598D01*
Y63028D01*
X73039D01*
Y64378D01*
X68102D01*
Y63028D01*
X66543D01*
Y64378D01*
X61606D01*
Y63028D01*
X56595D01*
X56204Y62950D01*
X55874Y62729D01*
X52724Y59579D01*
X52503Y59249D01*
X52425Y58858D01*
Y58276D01*
X48626D01*
Y54921D01*
Y51567D01*
X50071D01*
Y48643D01*
X49603Y48330D01*
X49209Y47742D01*
X49071Y47047D01*
X49209Y46353D01*
X49603Y45764D01*
X50191Y45371D01*
X50886Y45233D01*
X51580Y45371D01*
X52169Y45764D01*
X52562Y46353D01*
X52700Y47047D01*
X52562Y47742D01*
X52169Y48330D01*
X51701Y48643D01*
Y51567D01*
X52425D01*
Y51378D01*
X52503Y50988D01*
X52724Y50657D01*
X53705Y49676D01*
Y45993D01*
X47606Y39894D01*
X47385Y39563D01*
X47307Y39173D01*
Y35441D01*
X41105D01*
X39706Y36840D01*
X39442Y37017D01*
X39130Y37079D01*
X37705D01*
Y38787D01*
X32965D01*
Y33850D01*
X37705D01*
Y35449D01*
X38792D01*
X39165Y35076D01*
Y28732D01*
X47052D01*
Y27665D01*
X45957D01*
Y22728D01*
X46797D01*
Y21563D01*
X45563D01*
Y13476D01*
X48928D01*
X55218Y7186D01*
X55714Y6855D01*
X56299Y6738D01*
X68996D01*
X69581Y6855D01*
X70078Y7186D01*
X74354Y11463D01*
X102221D01*
X104430Y9253D01*
X104927Y8922D01*
X105512Y8805D01*
X111813D01*
X111933Y8626D01*
X112717Y8102D01*
X113642Y7918D01*
X114567Y8102D01*
X115350Y8626D01*
X115874Y9410D01*
X116058Y10335D01*
X115874Y11259D01*
X115350Y12043D01*
X115171Y12163D01*
Y15642D01*
X116012D01*
Y20579D01*
X115171D01*
Y21744D01*
X116492D01*
Y25295D01*
Y28846D01*
X102413D01*
Y21744D01*
X112112D01*
Y20579D01*
X111272D01*
Y15642D01*
X112112D01*
Y12163D01*
X111933Y12043D01*
X111813Y11864D01*
X106145D01*
X103936Y14074D01*
X103440Y14405D01*
X102854Y14522D01*
X73721D01*
X73135Y14405D01*
X72639Y14074D01*
X68363Y9797D01*
X56933D01*
X51091Y15639D01*
Y21563D01*
X49856D01*
Y22728D01*
X50697D01*
Y27665D01*
X49601D01*
Y28732D01*
X50587D01*
Y32087D01*
Y35441D01*
X49346D01*
Y38751D01*
X55445Y44850D01*
X55666Y45181D01*
X55744Y45571D01*
Y50098D01*
X55666Y50489D01*
X55445Y50819D01*
X55160Y51105D01*
X55351Y51567D01*
X58142D01*
Y50218D01*
X57674Y49905D01*
X57280Y49316D01*
X57142Y48622D01*
X57280Y47928D01*
X57674Y47339D01*
X58262Y46946D01*
X58957Y46808D01*
X59651Y46946D01*
X60240Y47339D01*
X60633Y47928D01*
X60771Y48622D01*
X60633Y49316D01*
X60240Y49905D01*
X59772Y50218D01*
Y51567D01*
X60047D01*
Y58276D01*
X55011D01*
X54804Y58776D01*
X57017Y60988D01*
X61606D01*
Y59638D01*
X66543D01*
Y60988D01*
X68102D01*
Y59638D01*
X73039D01*
Y60988D01*
X74598D01*
Y59638D01*
X79535D01*
Y64378D01*
D02*
G37*
G36*
X50697Y64083D02*
X45760D01*
Y62732D01*
X44496D01*
Y64083D01*
X39559D01*
Y59342D01*
X42189D01*
Y58276D01*
X39165D01*
Y51735D01*
X38102Y50672D01*
X37803Y50795D01*
Y50795D01*
X32866D01*
Y46055D01*
X37803D01*
Y48068D01*
X41226Y51491D01*
X41277Y51567D01*
X48028D01*
Y54921D01*
Y58276D01*
X44228D01*
Y59342D01*
X44496D01*
Y60693D01*
X45760D01*
Y59342D01*
X50697D01*
Y64083D01*
D02*
G37*
G36*
X189132Y62459D02*
X185437D01*
Y58764D01*
X189132D01*
Y62459D01*
D02*
G37*
G36*
X184839D02*
X181144D01*
Y58764D01*
X184839D01*
Y62459D01*
D02*
G37*
G36*
X14567Y64405D02*
X7087D01*
X6262Y64297D01*
X5494Y63978D01*
X4835Y63472D01*
X4329Y62813D01*
X4010Y62045D01*
X3902Y61221D01*
X4010Y60396D01*
X4329Y59628D01*
X4835Y58969D01*
X5494Y58462D01*
X6262Y58144D01*
X7087Y58036D01*
X14567D01*
X15391Y58144D01*
X16159Y58462D01*
X16819Y58969D01*
X17325Y59628D01*
X17643Y60396D01*
X17752Y61221D01*
X17643Y62045D01*
X17325Y62813D01*
X16819Y63472D01*
X16159Y63978D01*
X15391Y64297D01*
X14567Y64405D01*
D02*
G37*
G36*
X113342Y62311D02*
X102413D01*
Y55209D01*
X113342D01*
Y58760D01*
Y62311D01*
D02*
G37*
G36*
X189132Y58165D02*
X185437D01*
Y54470D01*
X189132D01*
Y58165D01*
D02*
G37*
G36*
X184839D02*
X181144D01*
Y54470D01*
X184839D01*
Y58165D01*
D02*
G37*
G36*
X25598Y55126D02*
X21362D01*
Y52465D01*
X25598D01*
Y55126D01*
D02*
G37*
G36*
X20764D02*
X16527D01*
Y52465D01*
X20764D01*
Y55126D01*
D02*
G37*
G36*
X175500Y53984D02*
X167807D01*
Y49994D01*
X163886D01*
Y51228D01*
X155799D01*
Y49994D01*
X151199D01*
X151079Y50173D01*
X150295Y50697D01*
X149370Y50881D01*
X148445Y50697D01*
X147661Y50173D01*
X147137Y49389D01*
X146953Y48465D01*
X147137Y47540D01*
X147661Y46756D01*
X147841Y46636D01*
Y22134D01*
X147661Y22014D01*
X147137Y21230D01*
X146953Y20305D01*
X147137Y19381D01*
X147661Y18597D01*
X148445Y18073D01*
X149370Y17889D01*
X150295Y18073D01*
X151079Y18597D01*
X151603Y19381D01*
X151787Y20305D01*
X151603Y21230D01*
X151079Y22014D01*
X150899Y22134D01*
Y46636D01*
X151079Y46756D01*
X151199Y46935D01*
X155799D01*
Y45701D01*
X163886D01*
Y46935D01*
X167807D01*
Y42945D01*
X175500D01*
Y46935D01*
X181448D01*
X181649Y46450D01*
X182289Y45616D01*
X183124Y44976D01*
X184095Y44573D01*
X185138Y44436D01*
X186180Y44573D01*
X187152Y44976D01*
X187986Y45616D01*
X188627Y46450D01*
X189029Y47422D01*
X189166Y48465D01*
X189029Y49507D01*
X188627Y50479D01*
X187986Y51313D01*
X187152Y51953D01*
X186180Y52356D01*
X185138Y52493D01*
X184095Y52356D01*
X183124Y51953D01*
X182289Y51313D01*
X181649Y50479D01*
X181448Y49994D01*
X175500D01*
Y53984D01*
D02*
G37*
G36*
X25598Y51866D02*
X21362D01*
Y49205D01*
X25598D01*
Y51866D01*
D02*
G37*
G36*
X20764D02*
X16527D01*
Y49205D01*
X20764D01*
Y51866D01*
D02*
G37*
G36*
X31701Y50795D02*
X29531D01*
Y48724D01*
X31701D01*
Y50795D01*
D02*
G37*
G36*
X28933D02*
X26764D01*
Y48724D01*
X28933D01*
Y50795D01*
D02*
G37*
G36*
X31701Y48126D02*
X29531D01*
Y46055D01*
X31701D01*
Y48126D01*
D02*
G37*
G36*
X28933D02*
X26764D01*
Y46055D01*
X28933D01*
Y48126D01*
D02*
G37*
G36*
X91339Y53794D02*
X90414Y53610D01*
X89630Y53087D01*
X89106Y52303D01*
X88922Y51378D01*
X89106Y50453D01*
X89630Y49669D01*
X89809Y49549D01*
Y48925D01*
X88870D01*
Y44185D01*
X93807D01*
Y48925D01*
X92868D01*
Y49549D01*
X93047Y49669D01*
X93571Y50453D01*
X93755Y51378D01*
X93571Y52303D01*
X93047Y53087D01*
X92263Y53610D01*
X91339Y53794D01*
D02*
G37*
G36*
X10827Y51215D02*
X9799Y51080D01*
X8841Y50683D01*
X8019Y50052D01*
X7388Y49230D01*
X6991Y48272D01*
X6856Y47244D01*
X6991Y46216D01*
X7388Y45259D01*
X8019Y44436D01*
X8841Y43805D01*
X9799Y43408D01*
X10827Y43273D01*
X11855Y43408D01*
X12812Y43805D01*
X13635Y44436D01*
X14266Y45259D01*
X14662Y46216D01*
X14798Y47244D01*
X14662Y48272D01*
X14266Y49230D01*
X13635Y50052D01*
X12812Y50683D01*
X11855Y51080D01*
X10827Y51215D01*
D02*
G37*
G36*
X66543Y58276D02*
X61606D01*
Y53535D01*
X64335D01*
Y51968D01*
X64412Y51578D01*
X64633Y51248D01*
X68201Y47680D01*
Y43004D01*
X72547D01*
Y47941D01*
X70349D01*
Y47994D01*
X70271Y48384D01*
X70050Y48715D01*
X66374Y52391D01*
Y53535D01*
X66543D01*
Y58276D01*
D02*
G37*
G36*
X66248Y47941D02*
X61902D01*
Y46492D01*
X60925D01*
X60535Y46414D01*
X60204Y46193D01*
X55283Y41272D01*
X55062Y40941D01*
X54984Y40551D01*
Y35441D01*
X51185D01*
Y32087D01*
Y28732D01*
X60047D01*
Y35279D01*
X61440Y36671D01*
X61902Y36480D01*
Y35917D01*
X66248D01*
Y40854D01*
X61902D01*
Y39279D01*
X61586D01*
X61196Y39201D01*
X60865Y38980D01*
X57842Y35957D01*
X57621Y35626D01*
X57584Y35441D01*
X57024D01*
Y40129D01*
X61348Y44453D01*
X61902D01*
Y43004D01*
X66248D01*
Y47941D01*
D02*
G37*
G36*
X25598Y45283D02*
X16527D01*
Y39362D01*
X25598D01*
Y41508D01*
X26764D01*
Y39953D01*
X31701D01*
Y41508D01*
X32866D01*
Y39953D01*
X37803D01*
Y44693D01*
X32866D01*
Y43138D01*
X31701D01*
Y44693D01*
X26764D01*
Y43138D01*
X25598D01*
Y45283D01*
D02*
G37*
G36*
X102035Y54831D02*
X94933D01*
Y51272D01*
Y48122D01*
Y44972D01*
Y41268D01*
X93807D01*
Y42823D01*
X88870D01*
Y38083D01*
X93807D01*
Y39638D01*
X94933D01*
Y37429D01*
X88592D01*
X88279Y37897D01*
X87691Y38290D01*
X86996Y38429D01*
X86302Y38290D01*
X85713Y37897D01*
X85320Y37308D01*
X85182Y36614D01*
X85320Y35920D01*
X85713Y35331D01*
X86302Y34938D01*
X86996Y34800D01*
X87691Y34938D01*
X88279Y35331D01*
X88592Y35799D01*
X94933D01*
Y34968D01*
X92115D01*
X91803Y34906D01*
X91538Y34730D01*
X90797Y33988D01*
X90244Y34098D01*
X89550Y33960D01*
X88961Y33566D01*
X88568Y32978D01*
X88430Y32283D01*
X88568Y31589D01*
X88961Y31001D01*
X89550Y30607D01*
X90244Y30469D01*
X90939Y30607D01*
X91527Y31001D01*
X91921Y31589D01*
X92059Y32283D01*
X91949Y32836D01*
X92452Y33339D01*
X94933D01*
Y29224D01*
X102035D01*
Y32374D01*
Y35524D01*
Y39638D01*
X102597D01*
X102910Y39170D01*
X103499Y38776D01*
X104193Y38638D01*
X104887Y38776D01*
X105476Y39170D01*
X105869Y39758D01*
X106007Y40453D01*
X105869Y41147D01*
X105476Y41736D01*
X104887Y42129D01*
X104193Y42267D01*
X103499Y42129D01*
X102910Y41736D01*
X102597Y41268D01*
X102035D01*
Y42788D01*
X109210D01*
X117255Y34742D01*
X117142Y34173D01*
X117280Y33479D01*
X117674Y32890D01*
X118262Y32497D01*
X118957Y32359D01*
X119651Y32497D01*
X120240Y32890D01*
X120633Y33479D01*
X120771Y34173D01*
X120633Y34868D01*
X120240Y35456D01*
X119651Y35849D01*
X118957Y35988D01*
X118421Y35881D01*
X110123Y44179D01*
X109859Y44355D01*
X109547Y44417D01*
X102035D01*
Y45937D01*
X112812D01*
X118717Y40032D01*
X118607Y39480D01*
X118745Y38786D01*
X119139Y38197D01*
X119727Y37804D01*
X120422Y37666D01*
X121116Y37804D01*
X121705Y38197D01*
X122098Y38786D01*
X122236Y39480D01*
X122098Y40174D01*
X121705Y40763D01*
X121116Y41156D01*
X120422Y41294D01*
X119869Y41184D01*
X113726Y47328D01*
X113461Y47505D01*
X113150Y47567D01*
X102035D01*
Y51272D01*
Y54831D01*
D02*
G37*
G36*
X163886Y39614D02*
X160142D01*
Y37150D01*
X163886D01*
Y39614D01*
D02*
G37*
G36*
X159543D02*
X155799D01*
Y37150D01*
X159543D01*
Y39614D01*
D02*
G37*
G36*
X31602Y38787D02*
X26862D01*
Y37134D01*
X25598D01*
Y37409D01*
X16527D01*
Y31488D01*
X25598D01*
Y35504D01*
X26862D01*
Y33850D01*
X28417D01*
Y32685D01*
X26862D01*
Y27748D01*
X31602D01*
Y32685D01*
X30047D01*
Y33850D01*
X31602D01*
Y38787D01*
D02*
G37*
G36*
X73039Y58276D02*
X68102D01*
Y53535D01*
X70831D01*
Y52559D01*
X70908Y52169D01*
X71129Y51838D01*
X75654Y47314D01*
Y43729D01*
X72974Y41049D01*
X72547Y40854D01*
Y40854D01*
X72547Y40854D01*
X68201D01*
Y35917D01*
X72547D01*
Y38460D01*
X72846D01*
X73236Y38538D01*
X73567Y38759D01*
X77394Y42586D01*
X77615Y42917D01*
X77693Y43307D01*
Y47736D01*
X77615Y48126D01*
X77394Y48457D01*
X72870Y52981D01*
Y53535D01*
X73039D01*
Y58276D01*
D02*
G37*
G36*
X185138Y42493D02*
X184095Y42356D01*
X183124Y41953D01*
X182289Y41313D01*
X181649Y40479D01*
X181246Y39507D01*
X181109Y38465D01*
X181246Y37422D01*
X181649Y36450D01*
X182289Y35616D01*
X183124Y34976D01*
X184095Y34573D01*
X185138Y34436D01*
X186180Y34573D01*
X187152Y34976D01*
X187986Y35616D01*
X188627Y36450D01*
X189029Y37422D01*
X189166Y38465D01*
X189029Y39507D01*
X188627Y40479D01*
X187986Y41313D01*
X187152Y41953D01*
X186180Y42356D01*
X185138Y42493D01*
D02*
G37*
G36*
X163886Y36551D02*
X160142D01*
Y34087D01*
X163886D01*
Y36551D01*
D02*
G37*
G36*
X159543D02*
X155799D01*
Y34087D01*
X159543D01*
Y36551D01*
D02*
G37*
G36*
X175500Y39220D02*
X171953D01*
Y34000D01*
X175500D01*
Y39220D01*
D02*
G37*
G36*
X171354D02*
X167807D01*
Y34000D01*
X171354D01*
Y39220D01*
D02*
G37*
G36*
X79535Y58276D02*
X74598D01*
Y53535D01*
X78093D01*
X79984Y51645D01*
Y37233D01*
X75070Y32319D01*
X72547D01*
Y33768D01*
X68201D01*
Y28831D01*
X72547D01*
Y30280D01*
X75492D01*
X75882Y30357D01*
X76213Y30578D01*
X81725Y36090D01*
X81946Y36421D01*
X82024Y36811D01*
Y52067D01*
X81946Y52457D01*
X81725Y52788D01*
X79535Y54977D01*
Y58276D01*
D02*
G37*
G36*
X66248Y33768D02*
X64374D01*
Y31598D01*
X66248D01*
Y33768D01*
D02*
G37*
G36*
X63776D02*
X61902D01*
Y31598D01*
X63776D01*
Y33768D01*
D02*
G37*
G36*
X37705Y32685D02*
X35634D01*
Y30516D01*
X37705D01*
Y32685D01*
D02*
G37*
G36*
X35035D02*
X32965D01*
Y30516D01*
X35035D01*
Y32685D01*
D02*
G37*
G36*
X66248Y31000D02*
X64374D01*
Y28831D01*
X66248D01*
Y31000D01*
D02*
G37*
G36*
X63776D02*
X61902D01*
Y28831D01*
X63776D01*
Y31000D01*
D02*
G37*
G36*
X175500Y33402D02*
X171953D01*
Y28181D01*
X175500D01*
Y33402D01*
D02*
G37*
G36*
X171354D02*
X167807D01*
Y28181D01*
X171354D01*
Y33402D01*
D02*
G37*
G36*
X37705Y29917D02*
X35634D01*
Y27748D01*
X37705D01*
Y29917D01*
D02*
G37*
G36*
X35035D02*
X32965D01*
Y27748D01*
X35035D01*
Y29917D01*
D02*
G37*
G36*
X10827Y33498D02*
X9799Y33363D01*
X8841Y32967D01*
X8019Y32335D01*
X7388Y31513D01*
X6991Y30555D01*
X6856Y29528D01*
X6991Y28500D01*
X7388Y27542D01*
X8019Y26720D01*
X8841Y26089D01*
X9799Y25692D01*
X10827Y25557D01*
X11855Y25692D01*
X12812Y26089D01*
X13635Y26720D01*
X14266Y27542D01*
X14662Y28500D01*
X14798Y29528D01*
X14662Y30555D01*
X14266Y31513D01*
X13635Y32335D01*
X12812Y32967D01*
X11855Y33363D01*
X10827Y33498D01*
D02*
G37*
G36*
X56799Y27665D02*
X54728D01*
Y25496D01*
X56799D01*
Y27665D01*
D02*
G37*
G36*
X54130D02*
X52059D01*
Y25496D01*
X54130D01*
Y27665D01*
D02*
G37*
G36*
X185138Y32493D02*
X184095Y32356D01*
X183124Y31953D01*
X182289Y31313D01*
X181649Y30479D01*
X181246Y29507D01*
X181109Y28465D01*
X181246Y27422D01*
X181649Y26450D01*
X182289Y25616D01*
X183124Y24976D01*
X184095Y24573D01*
X185138Y24436D01*
X186180Y24573D01*
X187152Y24976D01*
X187986Y25616D01*
X188627Y26450D01*
X189029Y27422D01*
X189166Y28465D01*
X189029Y29507D01*
X188627Y30479D01*
X187986Y31313D01*
X187152Y31953D01*
X186180Y32356D01*
X185138Y32493D01*
D02*
G37*
G36*
X56799Y24898D02*
X54728D01*
Y22728D01*
X56799D01*
Y24898D01*
D02*
G37*
G36*
X54130D02*
X52059D01*
Y22728D01*
X54130D01*
Y24898D01*
D02*
G37*
G36*
X25598Y27567D02*
X16527D01*
Y21646D01*
X25598D01*
Y22683D01*
X27108D01*
X27228Y22504D01*
X28012Y21980D01*
X28937Y21796D01*
X29862Y21980D01*
X30646Y22504D01*
X31170Y23288D01*
X31354Y24213D01*
X31170Y25137D01*
X30646Y25921D01*
X29862Y26445D01*
X28937Y26629D01*
X28012Y26445D01*
X27228Y25921D01*
X27108Y25742D01*
X25598D01*
Y27567D01*
D02*
G37*
G36*
X122114Y20579D02*
X120043D01*
Y18409D01*
X122114D01*
Y20579D01*
D02*
G37*
G36*
X119445D02*
X117374D01*
Y18409D01*
X119445D01*
Y20579D01*
D02*
G37*
G36*
X62705Y21563D02*
X60240D01*
Y17819D01*
X62705D01*
Y21563D01*
D02*
G37*
G36*
X59642D02*
X57177D01*
Y17819D01*
X59642D01*
Y21563D01*
D02*
G37*
G36*
X128020Y28846D02*
X117091D01*
Y25295D01*
Y21744D01*
X122906D01*
Y14429D01*
X122968Y14117D01*
X123144Y13853D01*
X124089Y12908D01*
X124354Y12731D01*
X124657Y12671D01*
Y10917D01*
X126705D01*
Y9850D01*
X125150D01*
Y4913D01*
X129890D01*
Y9850D01*
X128335D01*
Y10917D01*
X130382D01*
Y16035D01*
Y21169D01*
X125209D01*
X124962Y21669D01*
X125019Y21744D01*
X128020D01*
Y24480D01*
X130135D01*
X132984Y21631D01*
X132793Y21169D01*
X131547D01*
Y16035D01*
Y10917D01*
X137272D01*
Y16035D01*
Y17787D01*
X138339D01*
Y16232D01*
X143276D01*
Y20973D01*
X138339D01*
Y19417D01*
X137272D01*
Y21169D01*
X135224D01*
Y21358D01*
X135162Y21670D01*
X134986Y21935D01*
X131049Y25872D01*
X130784Y26048D01*
X130472Y26110D01*
X128020D01*
Y28846D01*
D02*
G37*
G36*
X122114Y17811D02*
X120043D01*
Y15642D01*
X122114D01*
Y17811D01*
D02*
G37*
G36*
X119445D02*
X117374D01*
Y15642D01*
X119445D01*
Y17811D01*
D02*
G37*
G36*
X185138Y22493D02*
X184095Y22356D01*
X183124Y21953D01*
X182289Y21313D01*
X181649Y20479D01*
X181246Y19507D01*
X181109Y18465D01*
X181246Y17422D01*
X181649Y16450D01*
X182289Y15616D01*
X183124Y14976D01*
X184095Y14573D01*
X185138Y14436D01*
X186180Y14573D01*
X187152Y14976D01*
X187986Y15616D01*
X188627Y16450D01*
X189029Y17422D01*
X189166Y18465D01*
X189029Y19507D01*
X188627Y20479D01*
X187986Y21313D01*
X187152Y21953D01*
X186180Y22356D01*
X185138Y22493D01*
D02*
G37*
G36*
X62705Y17221D02*
X60240D01*
Y13476D01*
X62705D01*
Y17221D01*
D02*
G37*
G36*
X59642D02*
X57177D01*
Y13476D01*
X59642D01*
Y17221D01*
D02*
G37*
G36*
X143276Y14870D02*
X141106D01*
Y12799D01*
X143276D01*
Y14870D01*
D02*
G37*
G36*
X140508D02*
X138339D01*
Y12799D01*
X140508D01*
Y14870D01*
D02*
G37*
G36*
X14567Y18736D02*
X7087D01*
X6262Y18627D01*
X5494Y18309D01*
X4835Y17803D01*
X4329Y17143D01*
X4010Y16375D01*
X3902Y15551D01*
X4010Y14727D01*
X4329Y13959D01*
X4835Y13299D01*
X5494Y12793D01*
X6262Y12475D01*
X7087Y12366D01*
X14567D01*
X15391Y12475D01*
X16159Y12793D01*
X16819Y13299D01*
X17325Y13959D01*
X17643Y14727D01*
X17752Y15551D01*
X17643Y16375D01*
X17325Y17143D01*
X16819Y17803D01*
X16159Y18309D01*
X15391Y18627D01*
X14567Y18736D01*
D02*
G37*
G36*
X143276Y12201D02*
X141106D01*
Y10130D01*
X143276D01*
Y12201D01*
D02*
G37*
G36*
X140508D02*
X138339D01*
Y10130D01*
X140508D01*
Y12201D01*
D02*
G37*
G36*
X135992Y9850D02*
X133921D01*
Y7681D01*
X135992D01*
Y9850D01*
D02*
G37*
G36*
X133323D02*
X131252D01*
Y7681D01*
X133323D01*
Y9850D01*
D02*
G37*
G36*
X135992Y7083D02*
X133921D01*
Y4913D01*
X135992D01*
Y7083D01*
D02*
G37*
G36*
X133323D02*
X131252D01*
Y4913D01*
X133323D01*
Y7083D01*
D02*
G37*
%LPD*%
G36*
X152088Y65263D02*
X152933Y65095D01*
X153778Y65263D01*
X154118Y65491D01*
X154618Y65223D01*
Y60869D01*
X144466Y50716D01*
X135500D01*
Y52236D01*
X141043D01*
X141355Y52298D01*
X141620Y52475D01*
X151009Y61865D01*
X151186Y62129D01*
X151248Y62441D01*
Y65223D01*
X151748Y65491D01*
X152088Y65263D01*
D02*
G37*
D15*
X58563Y54921D02*
D03*
X56004D02*
D03*
X53445D02*
D03*
X50886D02*
D03*
X48327D02*
D03*
X45768D02*
D03*
X43209D02*
D03*
X40650D02*
D03*
X58563Y32087D02*
D03*
X56004D02*
D03*
X53445D02*
D03*
X50886D02*
D03*
X48327D02*
D03*
X45768D02*
D03*
X43209D02*
D03*
X40650D02*
D03*
D16*
X64075Y45472D02*
D03*
X70374D02*
D03*
X64075Y38386D02*
D03*
X70374D02*
D03*
X64075Y31299D02*
D03*
X70374D02*
D03*
D17*
X131949Y49902D02*
D03*
Y46752D02*
D03*
Y53051D02*
D03*
Y40453D02*
D03*
Y37303D02*
D03*
Y43602D02*
D03*
Y34154D02*
D03*
Y31004D02*
D03*
X98484Y53051D02*
D03*
Y46752D02*
D03*
Y43602D02*
D03*
Y49902D02*
D03*
Y37303D02*
D03*
Y34154D02*
D03*
Y40453D02*
D03*
Y31004D02*
D03*
D18*
X113642Y58760D02*
D03*
X116791D02*
D03*
X110492D02*
D03*
X123091D02*
D03*
X126240D02*
D03*
X119941D02*
D03*
X126240Y25295D02*
D03*
X113642D02*
D03*
X116791D02*
D03*
X110492D02*
D03*
X123091D02*
D03*
X119941D02*
D03*
X104193Y58760D02*
D03*
X107343D02*
D03*
Y25295D02*
D03*
X104193D02*
D03*
D19*
X91339Y46555D02*
D03*
Y40453D02*
D03*
X140807Y18602D02*
D03*
Y12500D02*
D03*
X48228Y67815D02*
D03*
Y61713D02*
D03*
X42028D02*
D03*
Y67815D02*
D03*
X64075Y62008D02*
D03*
Y55905D02*
D03*
X70571Y62008D02*
D03*
Y55905D02*
D03*
X35335Y48425D02*
D03*
Y42323D02*
D03*
X29232D02*
D03*
Y48425D02*
D03*
X77067Y62008D02*
D03*
Y55905D02*
D03*
D20*
X171653Y48465D02*
D03*
Y33701D02*
D03*
D21*
X134409Y18602D02*
D03*
Y13484D02*
D03*
X127520Y18602D02*
D03*
Y13484D02*
D03*
D22*
X119744Y18110D02*
D03*
X113642D02*
D03*
X133622Y7382D02*
D03*
X127520D02*
D03*
X123091Y65945D02*
D03*
X116988D02*
D03*
X35335Y30217D02*
D03*
X29232D02*
D03*
X35335Y36319D02*
D03*
X29232D02*
D03*
X48327Y25197D02*
D03*
X54429D02*
D03*
D23*
X159843Y36850D02*
D03*
Y48465D02*
D03*
D24*
X48327Y17520D02*
D03*
X59941D02*
D03*
D42*
X21063Y52165D02*
D03*
Y42323D02*
D03*
Y34449D02*
D03*
Y24606D02*
D03*
D43*
X155433Y71850D02*
D03*
X150433D02*
D03*
X145433D02*
D03*
X140433D02*
D03*
D44*
X65354Y51968D02*
X69329Y47994D01*
X64075Y55905D02*
X64083D01*
X65354Y54634D01*
Y51968D02*
Y54634D01*
X56595Y62008D02*
X70571D01*
X53445Y58858D02*
X56595Y62008D01*
X48327Y32087D02*
Y39173D01*
X54724Y45571D02*
Y50098D01*
X48327Y39173D02*
X54724Y45571D01*
X75492Y31299D02*
X81004Y36811D01*
X77165Y55905D02*
X81004Y52067D01*
Y36811D02*
Y52067D01*
X53445Y54921D02*
Y58858D01*
Y51378D02*
Y54921D01*
Y51378D02*
X54724Y50098D01*
X76673Y43307D02*
Y47736D01*
X70374Y38386D02*
Y38405D01*
X71449Y39480D01*
X72846D01*
X76673Y43307D01*
X69329Y46517D02*
X70374Y45472D01*
X69329Y46517D02*
Y47994D01*
X70571Y62008D02*
X77067D01*
X71850Y52559D02*
Y54634D01*
Y52559D02*
X76673Y47736D01*
X70579Y55905D02*
X71850Y54634D01*
X70571Y55905D02*
X70579D01*
X77067D02*
X77165D01*
X70374Y31299D02*
X75492D01*
X60925Y45472D02*
X64075D01*
X56004Y40551D02*
X60925Y45472D01*
X56004Y32087D02*
Y40551D01*
X58563Y35236D02*
X61586Y38259D01*
X58563Y32087D02*
Y35236D01*
X61586Y38259D02*
X63948D01*
X64075Y38386D01*
X43209Y54921D02*
Y60532D01*
X42028Y61713D02*
X43209Y60532D01*
X42028Y61713D02*
X48228D01*
D45*
X90244Y32283D02*
X92115Y34154D01*
X98484Y46752D02*
X113150D01*
X131949Y43602D02*
X137697D01*
X98484Y40453D02*
X104193D01*
X97795Y36614D02*
X98484Y37303D01*
X109547Y43602D02*
X118957Y34193D01*
X92115Y34154D02*
X98484D01*
Y43602D02*
X109547D01*
X118957Y34173D02*
Y34193D01*
X86996Y36614D02*
X97795D01*
X113150Y46752D02*
X120422Y39480D01*
X123721Y14429D02*
Y24665D01*
X123091Y25295D02*
X123721Y24665D01*
Y14429D02*
X124665Y13484D01*
X127520D01*
X134409Y18602D02*
Y21358D01*
X130472Y25295D02*
X134409Y21358D01*
X126240Y25295D02*
X130472D01*
X127520Y7382D02*
Y13484D01*
X134409Y18602D02*
X140807D01*
X145433Y64468D02*
Y71850D01*
X127122Y57087D02*
X138051D01*
X145433Y64468D01*
X131949Y49902D02*
X144803D01*
X155433Y60532D01*
X131949Y53051D02*
X141043D01*
X150433Y62441D01*
X126240Y57968D02*
Y58760D01*
Y57968D02*
X127122Y57087D01*
X131299Y60342D02*
X131503Y60138D01*
X134449D01*
X140433Y66122D01*
X91535Y40453D02*
X98484D01*
X140433Y66122D02*
Y71850D01*
X150433Y62441D02*
Y71850D01*
X155433Y60532D02*
Y71850D01*
X21063Y42323D02*
X29232D01*
X20079Y34449D02*
X21949Y36319D01*
X29232D01*
X40650Y52067D02*
Y54921D01*
X35335Y48425D02*
X37008D01*
X40650Y52067D01*
Y32087D02*
Y34744D01*
X39130Y36264D02*
X40650Y34744D01*
X35390Y36264D02*
X39130D01*
X35335Y36319D02*
X35390Y36264D01*
X58563Y54921D02*
X58957Y54528D01*
Y48622D02*
Y54528D01*
X50886Y47047D02*
Y54921D01*
X29232Y30217D02*
Y36319D01*
Y42323D02*
X35335D01*
D46*
X102854Y12992D02*
X105512Y10335D01*
X68996Y8268D02*
X73721Y12992D01*
X102854D01*
X149370Y20305D02*
Y48465D01*
X113642Y18110D02*
Y25295D01*
X105512Y10335D02*
X113642D01*
Y18110D01*
X123091Y65945D02*
X131890D01*
X149370Y48465D02*
X159843D01*
X91339Y46555D02*
Y51378D01*
X123091Y58760D02*
Y65945D01*
X123091Y65945D02*
X123091Y65945D01*
X159843Y48465D02*
X171653D01*
X48327Y17520D02*
X49492Y16354D01*
Y15075D02*
Y16354D01*
X56299Y8268D02*
X68996D01*
X49492Y15075D02*
X56299Y8268D01*
X48327Y17520D02*
Y25197D01*
X171653Y48465D02*
X185138D01*
X21063Y24606D02*
X21457Y24213D01*
X28937D01*
X36220Y67815D02*
X42028D01*
D47*
X43209Y32087D02*
X45768D01*
X48327D01*
Y25197D02*
Y32087D01*
D48*
X10827Y29528D02*
D03*
Y47244D02*
D03*
X137933Y67303D02*
D03*
X142933D02*
D03*
X147933D02*
D03*
X152933D02*
D03*
X157933D02*
D03*
X139399Y36909D02*
D03*
X144803Y20305D02*
D03*
X159843Y23622D02*
D03*
X90244Y32283D02*
D03*
X137697Y43602D02*
D03*
X104193Y40453D02*
D03*
X120422Y39480D02*
D03*
X86996Y36614D02*
D03*
X118957Y34173D02*
D03*
X190849Y16726D02*
D03*
Y41530D02*
D03*
Y66334D02*
D03*
X74410Y34437D02*
D03*
X83760D02*
D03*
X111410Y37894D02*
D03*
X120422Y44488D02*
D03*
X111811D02*
D03*
X83760Y26772D02*
D03*
X85766Y51575D02*
D03*
X158976Y63465D02*
D03*
X164272Y59646D02*
D03*
X134646Y25591D02*
D03*
X140807Y7776D02*
D03*
X129528Y22835D02*
D03*
X129331Y62894D02*
D03*
X146063Y40945D02*
D03*
X143307Y47343D02*
D03*
X107678Y16732D02*
D03*
X146752Y55315D02*
D03*
X143307Y58858D02*
D03*
X139961Y62343D02*
D03*
X124665Y36850D02*
D03*
X115748Y40846D02*
D03*
X103740Y30610D02*
D03*
X126772D02*
D03*
Y52362D02*
D03*
X103740Y53543D02*
D03*
X116988Y70079D02*
D03*
X113642Y53543D02*
D03*
X119744Y13878D02*
D03*
X116791Y30610D02*
D03*
X131299Y60342D02*
D03*
X96457Y68209D02*
D03*
X159172Y74410D02*
D03*
X171653Y41043D02*
D03*
X131890Y74410D02*
D03*
X180121Y74409D02*
D03*
X157286Y2559D02*
D03*
X159843Y41530D02*
D03*
X83664Y16732D02*
D03*
X74114Y45177D02*
D03*
X107678Y74409D02*
D03*
X96457Y8563D02*
D03*
X159843Y32283D02*
D03*
X177362Y33760D02*
D03*
X132482Y2559D02*
D03*
X77067Y51575D02*
D03*
X171653Y25591D02*
D03*
X83664Y74409D02*
D03*
X107678Y2559D02*
D03*
X55216Y17520D02*
D03*
X36516Y61713D02*
D03*
X34056Y13583D02*
D03*
X40650Y42323D02*
D03*
X57284Y45472D02*
D03*
X60433Y41043D02*
D03*
X62500Y50591D02*
D03*
X58957Y48622D02*
D03*
X50886Y47047D02*
D03*
X64075Y26673D02*
D03*
X21063Y29528D02*
D03*
X58366Y59646D02*
D03*
X69291Y51772D02*
D03*
X48327Y49606D02*
D03*
X48228Y72244D02*
D03*
X14665Y52165D02*
D03*
X21063Y47244D02*
D03*
Y57284D02*
D03*
X29232Y52756D02*
D03*
X35335Y25787D02*
D03*
X64764Y17520D02*
D03*
X59941Y11614D02*
D03*
X58661Y25197D02*
D03*
X50886Y37402D02*
D03*
X180121Y2559D02*
D03*
X83664D02*
D03*
X58860D02*
D03*
X34056D02*
D03*
X9252D02*
D03*
X2362Y13582D02*
D03*
Y38386D02*
D03*
Y63190D02*
D03*
X58860Y74409D02*
D03*
X34056D02*
D03*
X9252D02*
D03*
D49*
X10827Y15551D02*
D03*
Y61221D02*
D03*
D50*
X185138Y58465D02*
D03*
D51*
Y48465D02*
D03*
Y38465D02*
D03*
Y28465D02*
D03*
Y18465D02*
D03*
D52*
X149370Y20305D02*
D03*
X113642Y10335D02*
D03*
X149370Y48465D02*
D03*
X131890Y65945D02*
D03*
X91339Y51378D02*
D03*
X36220Y67815D02*
D03*
X28937Y24213D02*
D03*
M02*
